<svg xmlns="http://www.w3.org/2000/svg" id="Layer_2" data-name="Layer 2" viewBox="0 0 202.36 202.36"><defs><style>.cls-1{fill:#fff}</style></defs><g id="Layer_1-2" data-name="Layer 1"><path d="M0 0h202.36v202.36H0z" style="fill:#7433ff"/><path d="M157.37 51.1v55.94c0 16.49-13.37 29.86-29.86 29.86l-35.24.28H74.84c-8.36 0-15.92 3.43-21.33 8.97a30.4 30.4 0 0 0-3.16 3.81c-.52.78-1.42 1.29-2.43 1.29-1.62 0-2.93-1.31-2.93-2.93v-43.85h45.59c23 0 41.72-18.71 41.72-41.72V51.09h25.08Z" class="cls-1"/><path d="M119.91 51.1v13.88c0 14.97-12.14 27.11-27.11 27.11H44.99V74.4h15.35c.9 0 1.79-.04 2.67-.13.3-.03.61-.06.91-.1 10.56-1.39 19.04-9.26 21.87-19.53.32-1.16.6-2.34.85-3.54h33.28Z" class="cls-1"/><path d="M73.42 51.1c-.08.34-.17.69-.27 1.03-1.89 6.84-7.4 11.82-14.02 12.69-.2.02-.39.05-.59.07h-.05q-.81.09-1.71.09h-11.8V51.1z" class="cls-1"/></g></svg>