<svg xmlns="http://www.w3.org/2000/svg" id="Layer_2" data-name="Layer 2" viewBox="0 0 202.36 202.36"><defs><style>.cls-1{fill:#fff}</style></defs><g id="Layer_1-2" data-name="Layer 1"><path d="M0 0h202.36v202.36H0z" style="fill:#7433ff"/><g id="_Radial_Repeat_" data-name="&amp;lt;Radial Repeat&amp;gt;"><path id="_Radial_Repeat_-2" d="M103.09 166.95c6.07.39 11.77-5.62 15.17-14.84 1.62-4.43 2.72-9.6 3.08-15.15 1.1-17.15-5.29-31.51-14.28-32.09-2.16-.14-4.27.53-6.25 1.88h.01c3.41 2.87 6.79 7.15 9.37 12.22 5.41 10.63 5.33 20.77-.19 22.64-5.51 1.87-14.36-5.22-19.77-15.86a3 3 0 0 1-.08-.17c-.68 2.91-1.14 6.03-1.35 9.28-1.1 17.14 5.29 31.5 14.28 32.08Zm-3.24-20.79c1.69-.58 4.43 1.62 6.1 4.89 1.67 3.28 1.64 6.41-.06 6.99-1.7.57-4.43-1.62-6.1-4.9s-1.64-6.41.06-6.99Z" class="cls-1" data-name="&amp;lt;Radial Repeat&amp;gt;"/><path d="M100.82 106.75c1.98-1.35 4.09-2.02 6.25-1.88 8.98.58 15.38 14.94 14.28 32.09-.36 5.55-1.46 10.72-3.08 15.14 8.14-39.36-16.76-45.2-17.43-45.34h-.01Z" class="cls-1"/></g><g id="_Radial_Repeat_-3" data-name="&amp;lt;Radial Repeat&amp;gt;"><path id="_Radial_Repeat_-4" d="M50.95 143.68c3.48 4.99 11.73 5.7 21.06 2.6 4.47-1.49 9.2-3.85 13.76-7.03 14.09-9.83 21.34-23.78 16.19-31.17-1.24-1.78-3.08-3.01-5.37-3.72v.02c-.12 4.46-1.35 9.77-3.71 14.95-4.94 10.86-12.92 17.12-17.82 13.97-4.9-3.14-4.87-14.48.07-25.34.03-.06.06-.12.08-.17-2.7 1.28-5.42 2.87-8.1 4.73-14.08 9.83-21.33 23.78-16.18 31.16Zm14.23-15.5c1.51.96 1.5 4.47-.02 7.82-1.53 3.35-3.99 5.28-5.51 4.31-1.51-.97-1.5-4.47.03-7.83 1.53-3.35 3.99-5.28 5.5-4.31Z" class="cls-1" data-name="&amp;lt;Radial Repeat&amp;gt;"/><path d="M96.6 104.37c2.29.71 4.13 1.94 5.37 3.72 5.15 7.39-2.09 21.34-16.19 31.17-4.56 3.18-9.29 5.54-13.76 7.03 35.85-18.18 24.9-41.29 24.59-41.9v-.02Z" class="cls-1"/></g><g id="_Radial_Repeat_-5" data-name="&amp;lt;Radial Repeat&amp;gt;"><path id="_Radial_Repeat_-6" d="M36.63 88.41c-1.74 5.83 2.86 12.73 11.1 18.09 3.95 2.58 8.74 4.8 14.07 6.38 16.48 4.89 31.9 1.85 34.46-6.78.62-2.08.43-4.28-.44-6.52v.01c-3.56 2.69-8.48 5.03-14 6.42-11.57 2.91-21.44.57-22.04-5.22s8.29-12.84 19.86-15.75c.06-.01.13-.03.19-.04a57 57 0 0 0-8.75-3.38c-16.46-4.88-31.89-1.85-34.45 6.78Zm20.99 1.46c.19 1.78-2.56 3.96-6.13 4.86-3.57.89-6.62.17-6.8-1.62-.18-1.78 2.56-3.96 6.13-4.86 3.57-.89 6.62-.17 6.8 1.62" class="cls-1" data-name="&amp;lt;Radial Repeat&amp;gt;"/><path d="M95.83 99.59c.87 2.23 1.06 4.44.44 6.52-2.56 8.63-17.99 11.67-34.46 6.78-5.33-1.58-10.12-3.81-14.07-6.37 36.57 16.69 47.8-6.29 48.09-6.91v-.01Z" class="cls-1"/></g><g id="_Radial_Repeat_-7" data-name="&amp;lt;Radial Repeat&amp;gt;"><path id="_Radial_Repeat_-8" d="M70.92 42.75c-5.64 2.28-8.17 10.17-7.23 19.95.46 4.7 1.71 9.83 3.79 14.99 6.45 15.93 18.44 26.09 26.79 22.72 2.01-.81 3.62-2.33 4.82-4.41h-.02c-4.32-1.11-9.22-3.49-13.75-6.95-9.49-7.23-13.81-16.4-9.66-20.48 4.16-4.08 15.2-1.52 24.69 5.71l.15.12c-.65-2.91-1.59-5.92-2.81-8.95-6.45-15.92-18.44-26.09-26.78-22.71Zm11.94 17.32c-1.27 1.26-4.69.46-7.62-1.76-2.92-2.23-4.26-5.07-2.98-6.33 1.28-1.25 4.69-.46 7.62 1.77 2.92 2.23 4.26 5.07 2.98 6.32" class="cls-1" data-name="&amp;lt;Radial Repeat&amp;gt;"/><path d="M99.09 96.01c-1.2 2.07-2.81 3.59-4.82 4.41-8.35 3.37-20.33-6.79-26.79-22.72-2.08-5.16-3.34-10.29-3.79-14.98 9.75 38.99 34.71 33.45 35.38 33.29z" class="cls-1"/></g><g id="_Radial_Repeat_-9" data-name="&amp;lt;Radial Repeat&amp;gt;"><path id="_Radial_Repeat_-10" d="M127.99 41.09c-5.3-2.99-13.05-.05-20.11 6.79-3.38 3.28-6.61 7.46-9.35 12.31-8.43 14.98-8.9 30.69-1.06 35.11 1.89 1.06 4.08 1.37 6.45 1.02v-.01c-1.83-4.07-3.02-9.38-3.14-15.08-.26-11.93 4.21-21.03 9.99-20.32s10.67 10.94 10.93 22.87v.19a57 57 0 0 0 5.24-7.78c8.43-14.96 8.9-30.68 1.06-35.09Zm-6.09 20.14c-1.78-.21-3.29-3.38-3.37-7.06s1.31-6.49 3.09-6.27 3.29 3.38 3.37 7.06-1.31 6.49-3.09 6.27" class="cls-1" data-name="&amp;lt;Radial Repeat&amp;gt;"/><path d="M103.92 96.32c-2.37.35-4.56.04-6.45-1.02-7.84-4.42-7.37-20.13 1.06-35.11 2.73-4.84 5.96-9.02 9.35-12.3-24.41 31.93-4.52 48-3.98 48.42v.01Z" class="cls-1"/></g><g id="_Radial_Repeat_-11" data-name="&amp;lt;Radial Repeat&amp;gt;"><path id="_Radial_Repeat_-12" d="M164.87 84.68c-.97-6.01-8.1-10.23-17.85-11.48-4.67-.6-9.96-.53-15.45.36-16.97 2.75-29.54 12.17-28.11 21.06.35 2.14 1.47 4.04 3.22 5.68v-.02c2.04-3.97 5.45-8.21 9.83-11.86 9.16-7.64 19.07-9.82 22.12-4.86s-1.9 15.16-11.06 22.8l-.15.12c2.99.01 6.13-.23 9.35-.75 16.95-2.74 29.54-12.17 28.1-21.06Zm-19.54 7.79c-.94-1.52.59-4.68 3.41-7.04 2.83-2.35 5.89-3.02 6.83-1.5.94 1.53-.59 4.68-3.42 7.04-2.83 2.35-5.89 3.02-6.82 1.49Z" class="cls-1" data-name="&amp;lt;Radial Repeat&amp;gt;"/><path d="M106.69 100.29c-1.76-1.63-2.88-3.54-3.22-5.68-1.43-8.89 11.14-18.31 28.11-21.06 5.49-.88 10.77-.96 15.45-.36-40.19.83-40.34 26.4-40.34 27.09v.02Z" class="cls-1"/></g><g id="_Radial_Repeat_-13" data-name="&amp;lt;Radial Repeat&amp;gt;"><path id="_Radial_Repeat_-14" d="M153.79 140.69c4.1-4.5 2.95-12.71-2.15-21.11-2.45-4.04-5.8-8.12-9.92-11.86-12.72-11.55-27.94-15.51-33.99-8.85-1.46 1.6-2.25 3.67-2.43 6.06h.01c4.38-.88 9.82-.86 15.4.3 11.69 2.4 19.56 8.79 17.59 14.26-1.97 5.48-13.04 7.97-24.73 5.57-.06-.01-.13-.03-.19-.04 1.85 2.34 4 4.65 6.42 6.84 12.71 11.54 27.93 15.5 33.98 8.84Zm-18.27-10.42c.6-1.69 4.03-2.45 7.63-1.72 3.6.74 6.03 2.72 5.43 4.41-.61 1.69-4.03 2.45-7.63 1.72-3.6-.74-6.03-2.72-5.42-4.4Z" class="cls-1" data-name="&amp;lt;Radial Repeat&amp;gt;"/><path d="M105.31 104.93c.18-2.39.97-4.46 2.43-6.06 6.05-6.66 21.27-2.71 33.99 8.85 4.11 3.74 7.47 7.82 9.92 11.85-25.7-30.9-45.79-15.07-46.32-14.64h-.01Z" class="cls-1"/></g></g></svg>