<svg xmlns="http://www.w3.org/2000/svg" width="20" height="20" fill="none"><g fill="#fff" clip-path="url(#a)"><path d="M.993 4.104c.394-.04.706-.098 1.019-.098C6.579 4 11.152 4 15.72 4c.793 0 1.58-.006 2.374.006.275.006.544.058.893.098-.112.121-.162.185-.224.242a4553 4553 0 0 1-8.198 7.609c-.368.34-.762.34-1.137-.006Q5.334 8.156 1.249 4.364c-.068-.058-.125-.127-.256-.26"/><path d="M12.846 11.297c2.068 1.887 4.068 3.717 6.123 5.593-.306.04-.568.104-.825.104-5.423.006-10.852.006-16.276 0-.262 0-.525-.063-.818-.098 2.05-1.87 4.049-3.7 6.048-5.524.006-.052.019-.104.025-.156.1.133.181.283.3.398.418.404.843.797 1.274 1.19a1.94 1.94 0 0 0 2.587.005 60 60 0 0 0 1.43-1.328c.082-.069.12-.167.132-.184M.138 16.024c-.044-.196-.125-.421-.131-.64a2551 2551 0 0 1 0-9.78c0-.213.08-.426.125-.623 2.024 1.86 4.023 3.695 6.016 5.53q-2.963 2.727-6.01 5.513m19.724.006c-2.043-1.87-4.042-3.7-6.042-5.536 2-1.835 4-3.665 6.036-5.53.044.196.137.416.137.63.007 3.267.007 6.54 0 9.807 0 .22-.087.427-.13.63z"/></g><defs><clipPath id="a"><path fill="#fff" d="M0 4h20v13H0z"/></clipPath></defs></svg>