<svg xmlns="http://www.w3.org/2000/svg" viewBox="0 0 512 512"><path d="M206.8 282.6h-50.7c-8.2 0-10.8-3.1-10.8-10.8v-62c0-8.2 3.1-10.8 10.8-10.8h50.7v-45.1c0-20.5 3.6-39.9 13.8-57.9 10.8-18.4 26.1-30.7 45.6-37.9 12.8-4.6 25.6-6.7 39.4-6.7h50.2c7.2 0 10.2 3.1 10.2 10.2V120c0 7.2-3.1 10.2-10.2 10.2-13.8 0-27.6 0-41.5.5-13.8 0-21 6.7-21 21-.5 15.4 0 30.2 0 46.1h59.4c8.2 0 11.3 3.1 11.3 11.3v62c0 8.2-2.6 10.8-11.3 10.8h-59.4v166.9c0 8.7-2.6 11.8-11.8 11.8h-64c-7.7 0-10.8-3.1-10.8-10.8V282.4Z" style="fill:#fff"/></svg>