<svg xmlns="http://www.w3.org/2000/svg" viewBox="0 0 512 512"><path d="M262.9 0C122.6 0 48 89.9 48 188s25.4 102.2 66.1 120.2c6.2 2.8 9.5 1.6 10.9-4.1 1.2-4.4 6.6-25.3 9.2-35.2.8-3.2.4-5.9-2.2-8.9-13.5-15.6-24.2-44.1-24.2-70.8 0-68.4 54.4-134.8 146.9-134.8s136 52 136 126.3-44.4 142.1-102.2 142.1-55.8-25.1-48.2-56.1c9.1-37 27-76.7 27-103.4s-13.5-43.7-41.1-43.7-58.9 32.2-58.9 75.5 9.7 46 9.7 46-32.2 130-38.2 154.3c-10.1 41.1 1.4 107.7 2.4 113.4.6 3.2 4.2 4.2 6.1 1.6 3.2-4.2 42.1-59.7 53-99.8 4-14.6 20.3-73.9 20.3-73.9 10.7 19.4 41.7 35.6 74.6 35.6 98 0 168.9-86.2 168.9-193.1C463.6 76.7 375.9 0 262.9 0" style="fill:#fff"/></svg>