<svg xmlns="http://www.w3.org/2000/svg" viewBox="0 0 512 512"><path d="M368.5 238.8c-2-1-4.1-1.9-6.2-2.8-3.6-66.8-40.1-105.1-101.5-105.5-35.4-.2-67.1 14.2-86.8 44.1l33.7 23.1c14-21.3 36-25.8 52.3-25.8h.6c20.2.1 35.4 6 45.3 17.4 7.2 8.3 12 19.9 14.4 34.4-17.9-3-37.3-4-58-2.8-58.3 3.4-95.8 37.4-93.3 84.6 1.3 24 13.2 44.6 33.6 58.1 17.3 11.4 39.5 17 62.6 15.7 30.5-1.7 54.4-13.3 71.1-34.6 12.7-16.2 20.7-37.1 24.2-63.5 14.5 8.8 25.3 20.3 31.3 34.2 10.1 23.6 10.7 62.3-20.9 93.9-27.7 27.7-61 39.7-111.3 40-55.8-.4-98.1-18.3-125.5-53.2-25.7-32.7-39-79.9-39.5-140.3.5-60.4 13.8-107.6 39.5-140.3 27.5-34.9 69.7-52.8 125.5-53.2 56.2.4 99.2 18.4 127.7 53.5 14 17.2 24.5 38.8 31.5 64l39.5-10.5c-8.4-31-21.7-57.8-39.7-80-36.5-45-90-68-158.9-68.5h-.3c-68.7.5-121.6 23.6-157.1 68.7-31.6 40.2-47.9 96-48.4 166.1v.3c.5 70.1 16.8 125.9 48.4 166.1 35.5 45.1 88.4 68.3 157.1 68.7h.3c61.1-.4 104.2-16.4 139.7-51.9 46.4-46.4 45-104.5 29.7-140.2-11-25.6-31.9-46.4-60.5-60.1ZM263 338c-25.5 1.4-52.1-10-53.4-34.6-1-18.2 13-38.6 55-41 4.8-.3 9.5-.4 14.2-.4 15.3 0 29.5 1.5 42.5 4.3-4.8 60.5-33.2 70.3-58.3 71.7" image-rendering="optimizeQuality" shape-rendering="geometricPrecision" style="fill:#fff" text-rendering="geometricPrecision"/></svg>