<svg xmlns="http://www.w3.org/2000/svg" viewBox="0 0 512 512"><path d="M210.6 240.6c10.6-5.3 18.7-11.3 24.2-17.7 9.8-11.6 14.6-26.9 14.6-46s-4.8-34.4-14.5-47.6c-16.1-21.6-43.4-32.7-82-33.3H0v312.1h142.6c16.1 0 30.9-1.4 44.7-4.2s25.7-8.1 35.7-15.7c9-6.6 16.4-14.8 22.4-24.5q14.1-22.05 14.1-49.8c0-27.75-4.1-33.2-12.3-45.7-8.3-12.5-20.4-21.7-36.6-27.6M63.1 150.2H132c15.1 0 27.6 1.6 37.4 4.9 11.3 4.7 17 14.3 17 28.9s-4.3 22.2-12.9 27.4-19.8 7.7-33.5 7.7H63.1zM172 348.4c-7.6 3.7-18.3 5.5-32.1 5.5H63.1v-83.2H141c13.6 0 24.1 1.9 31.7 5.2 13.4 6.1 20.1 17.2 20.1 33.5 0 19.2-6.9 32.1-20.8 39m155.2-237.9h135.6v38.8H327.2zm182.7 153.4c-2.8-18.1-9-34-18.7-47.7-10.6-15.6-24-26.9-40.4-34.1-16.3-7.2-34.6-10.8-55-10.8-34.3 0-62.1 10.7-83.6 32s-32.2 52-32.2 92 11.9 73.5 35.7 92.4 51.2 28.4 82.4 28.4 67.1-11.2 88-33.6c13.4-14.1 21-28.1 22.7-41.7h-62.5c-3.6 6.8-7.8 12-12.6 15.9-8.7 7-20 10.6-33.9 10.6s-24.4-2.9-33.8-8.7c-15.4-9.3-23.5-25.5-24.5-48.7H512c.3-19.9-.4-35.3-2-45.8ZM343 269.8c2.2-15 7.7-26.9 16.3-35.7s20.9-13.2 36.5-13.2c14.4 0 26.5 4.1 36.3 12.4 9.7 8.4 15.2 20.5 16.3 36.5z" style="fill:#fff"/></svg>