<svg xmlns="http://www.w3.org/2000/svg" id="Bold" version="1.1" viewBox="0 0 512 512"><defs><style>.st0{fill:#fff}</style></defs><path d="M256.1 124.5c-72.6 0-131.4 58.8-131.4 131.4s58.8 131.4 131.4 131.4 131.4-58.8 131.4-131.4-58.8-131.4-131.4-131.4m0 216.7c-47.1 0-85.3-38.2-85.3-85.3s38.2-85.3 85.3-85.3 85.3 38.2 85.3 85.3-38.1 85.3-85.3 85.3" class="st0"/><path d="M361.6 1.6c-47.1-2.2-163.8-2.1-211 0-41.4 1.9-78 11.9-107.4 41.4C-6 92.3.3 158.6.3 255.9s-5.5 164.4 42.9 212.9c49.4 49.4 116.7 42.9 212.9 42.9s132.7 0 167.6-13.4c47.4-18.4 83.2-60.8 86.7-136.9 2.2-47.1 2.1-163.8 0-210.9C506.2 60.6 457.9 6.1 361.6 1.6m74.5 434.6c-32.3 32.3-77.1 29.4-180.7 29.4S106 467.2 74.7 435.9c-35.9-35.8-29.4-93.2-29.4-180.3S33.3 52.8 151.6 46.8c27.2-1 35.2-1.3 103.6-1.3l1 .6c113.7 0 202.9-11.9 208.2 106.4 1.2 27 1.5 35.1 1.5 103.4 0 105.4 2 148.5-29.7 180.3Z" class="st0"/><circle cx="392.7" cy="119.4" r="30.7" class="st0"/></svg>