<svg xmlns="http://www.w3.org/2000/svg" viewBox="0 0 438.5 438.5"><path d="M409.1 109.2q-29.4-50.4-79.8-79.8C295.7 9.8 259.1 0 219.3 0s-76.5 9.8-110.1 29.4q-50.4 29.4-79.8 79.8T0 219.3c0 59.7 9.8 76.5 29.4 110.1q29.4 50.4 79.8 79.8t110.1 29.4c59.7 0 76.5-9.8 110.1-29.4q50.4-29.4 79.8-79.8t29.4-110.1c0-59.7-9.8-76.5-29.4-110.1ZM219.3 32q70.8 0 123.6 46.8l-3.6 5c-1.4 2-5 5.9-10.7 11.6s-11.9 11.1-18.7 16.3c-6.8 5.1-15.9 11-27.6 17.6-11.6 6.6-24 12.3-37.1 17.3-21.9-40.4-45.3-76.7-70.2-109.1 15-3.6 29.8-5.4 44.3-5.4ZM72.5 103.1c18.3-23 40.5-40.7 66.8-53.1 23.6 31.4 46.8 67.4 69.7 107.9-57.9 15.2-115.5 22.8-173 22.8 6.1-28.7 18.3-54.6 36.5-77.7Zm-28 183.7q-12.6-32.1-12.6-67.5c0-35.4 0-4.7.3-6 68.9 0 133-8.8 192.1-26.6 6.1 11.8 11.1 22.4 15.1 31.7-.8.4-2 .8-3.7 1.3s-3 .8-3.7 1l-10.6 3.7c-7.2 2.7-16.7 7.2-28.4 13.7s-24.1 14.2-37.3 23.1c-13.1 8.9-26.7 20.8-40.7 35.6s-25.7 30.6-35.3 47.5c-15.2-16.9-27-36.1-35.4-57.5Zm174.8 119.8c-44.5 0-84.3-14.3-119.3-42.8l4.3 3.1c6.7-14.7 16.5-28.7 29.4-42.3 12.9-13.5 25.4-24.4 37.4-32.7s25-16.1 39.1-23.4 23.7-12 28.8-14 9.2-3.6 12.3-4.7l.6-.3h.6c18.6 48.9 32 96.3 40 142.2-23.6 9.9-48 14.8-73.1 14.9Zm157.6-86.1c-14.1 21.8-31.7 39.8-52.8 54.1-7.8-43.8-20-88.4-36.5-133.9 37.9-5.9 76.8-3.1 116.8 8.3-4.2 25.9-13.3 49.7-27.4 71.5Zm26.8-103.8c-1.9-.4-4.3-.8-7.1-1.3s-6.3-1-10.4-1.7-8.7-1.3-13.7-1.9-10.4-1.1-16.1-1.6-11.8-.9-18.3-1.1c-6.5-.3-13-.4-19.7-.4s-13.7.2-21 .6-14.4 1-21.3 2c-.6-1-1.3-2.5-2.1-4.7-.9-2.2-1.5-3.9-1.8-5-3.6-8-7.8-17-12.6-27.1 13.1-5.3 25.7-11.5 37.6-18.4q17.85-10.35 28.5-18.6c7.1-5.4 13.9-11.2 20.3-17.3s10.5-10.3 12.4-12.7 3.7-4.7 5.4-7l.3-.3c27.8 33.9 42 72.9 42.5 117.1z" style="fill:#fff"/></svg>