<svg xmlns="http://www.w3.org/2000/svg" xmlns:xlink="http://www.w3.org/1999/xlink" data-name="Layer 1" viewBox="0 0 512 205"><defs><linearGradient id="a" x1="157.65" x2="157.65" y1="98.02" y2="59.35" gradientUnits="userSpaceOnUse"><stop offset="0" stop-color="#fff" stop-opacity="0"/><stop offset="1" stop-color="#fff"/></linearGradient><linearGradient xlink:href="#a" id="c" x1="157.65" x2="157.65" y1="96.51" y2="147.46"/><linearGradient xlink:href="#a" id="d" x1="133.33" x2="196.97" y1="102.5" y2="102.5"/><linearGradient xlink:href="#a" id="e" x1="222.89" x2="222.89" y1="98.02" y2="59.35" gradientTransform="matrix(-1 0 0 1 330.3 0)"/><linearGradient xlink:href="#a" id="f" x1="222.89" x2="222.89" y1="96.51" y2="147.46" gradientTransform="matrix(-1 0 0 1 330.3 0)"/><linearGradient xlink:href="#a" id="g" x1="198.56" x2="262.21" y1="102.5" y2="102.5" gradientTransform="matrix(-1 0 0 1 330.3 0)"/><clipPath id="b"><path d="M0 0h512v205H0z" style="fill:none"/></clipPath></defs><g style="clip-path:url(#b)"><path d="M217.81 85.31h8.26v36.7h-8.26zm3.37 15.39h24.98v7.95h-24.98zm20.03-15.39h8.26v36.7h-8.26zm15.37 33.87c-2.53-2.43-3.8-6.09-3.8-10.98s1.24-8.83 3.72-11.32c2.48-2.48 6.01-3.72 10.6-3.72s7.88 1.2 10.3 3.59c2.41 2.4 3.62 5.87 3.62 10.42v2.24h-23.14l-.05-3.67h14.63v-.66c0-1.5-.48-2.66-1.43-3.49s-2.26-1.25-3.92-1.25q-3.015 0-4.56 1.89c-1.04 1.26-1.55 3.23-1.55 5.91s.57 4.5 1.71 5.76q1.71 1.89 4.77 1.89c1.49 0 2.68-.32 3.57-.97q1.32-.975 1.89-2.85l7.75 2.29c-.65 2.75-2.08 4.87-4.31 6.35s-5.21 2.22-8.95 2.22c-4.69 0-8.3-1.21-10.83-3.64Zm33.36 2.98c-1.87-.44-3.42-1.02-4.64-1.73s-2.21-1.5-2.96-2.34l4.03-5.96c1.12 1.22 2.62 2.22 4.49 2.98s3.77 1.15 5.71 1.15c1.77 0 3.13-.25 4.08-.74s1.44-1.15 1.48-1.96c0-.65-.25-1.16-.76-1.55s-1.22-.68-2.14-.87-1.99-.36-3.21-.54c-2.65-.31-4.84-.68-6.58-1.12-1.73-.44-3.25-1.27-4.56-2.47-1.31-1.21-1.96-2.93-1.96-5.17 0-1.7.48-3.19 1.45-4.49s2.41-2.31 4.33-3.06 4.26-1.12 7.01-1.12c3.57 0 6.32.58 8.26 1.73 1.94 1.16 3.35 2.65 4.23 4.49l-5.2 3.62c-.37-.92-1.27-1.71-2.68-2.4-1.41-.68-3.08-1.02-5.02-1.02-1.7 0-2.91.25-3.64.74s-1.1 1.08-1.1 1.76c0 .61.24 1.09.71 1.43.48.34 1.15.59 2.01.76q1.305.255 3.03.51c2.51.31 4.62.69 6.32 1.15s3.18 1.32 4.43 2.57c1.26 1.26 1.89 3.03 1.89 5.3 0 2.85-1.1 5.07-3.31 6.65s-5.3 2.37-9.28 2.37q-3.615 0-6.42-.66Zm23.65-23.35c1.36-2.04 3.15-3.49 5.38-4.36s4.77-1.3 7.62-1.3c4.62 0 8.21 1.2 10.76 3.59 2.55 2.4 3.82 6.24 3.82 11.55 0 4.79-1.04 8.41-3.13 10.86s-5.07 3.67-8.95 3.67c-2.14 0-3.94-.37-5.4-1.1s-2.68-1.74-3.67-3.03l-1.38.92v-9.99h1.17c0 1.16.28 2.17.84 3.06.56.88 1.33 1.55 2.32 2.01q1.485.69 3.21.69 3.51 0 5.07-1.89c1.04-1.26 1.55-3.11 1.55-5.56s-.54-4.3-1.61-5.56q-1.605-1.89-4.92-1.89-2.91 0-4.71 1.53c-1.21 1.02-1.81 2.6-1.81 4.74l.05 26.96h-8.26v-26.86c0-3.33.68-6.01 2.04-8.05Zm33.92 20.37c-2.53-2.43-3.8-6.09-3.8-10.98s1.24-8.83 3.72-11.32c2.48-2.48 6.01-3.72 10.6-3.72s7.88 1.2 10.3 3.59c2.41 2.4 3.62 5.87 3.62 10.42v2.24h-23.14l-.05-3.67h14.63v-.66c0-1.5-.48-2.66-1.43-3.49s-2.26-1.25-3.92-1.25q-3.015 0-4.56 1.89c-1.04 1.26-1.55 3.23-1.55 5.91s.57 4.5 1.71 5.76q1.71 1.89 4.77 1.89c1.49 0 2.68-.32 3.57-.97q1.32-.975 1.89-2.85l7.75 2.29c-.65 2.75-2.08 4.87-4.31 6.35s-5.21 2.22-8.95 2.22c-4.69 0-8.3-1.21-10.83-3.64Zm30.76-22.81q2.805-2.4 7.59-2.4h6.88v7.29h-4.79c-1.56 0-2.68.38-3.34 1.15-.66.76-.99 1.98-.99 3.64V122h-8.16v-17.79c0-3.64.93-6.25 2.8-7.85Zm16.9-5.81c-.83-.75-1.25-1.94-1.25-3.57s.42-2.84 1.27-3.62q1.275-1.17 3.72-1.17c2.445 0 2.86.39 3.7 1.17.83.78 1.25 1.99 1.25 3.62s-.41 2.82-1.22 3.57c-.82.75-2.06 1.12-3.72 1.12s-2.91-.37-3.75-1.12m-.23 3.41h8.26V122h-8.26zm18.55 28.19c-1.87-.44-3.42-1.02-4.64-1.73s-2.21-1.5-2.96-2.34l4.03-5.96c1.12 1.22 2.62 2.22 4.49 2.98s3.77 1.15 5.71 1.15c1.77 0 3.13-.25 4.08-.74s1.44-1.15 1.48-1.96c0-.65-.25-1.16-.76-1.55s-1.22-.68-2.14-.87-1.99-.36-3.21-.54c-2.65-.31-4.84-.68-6.58-1.12-1.73-.44-3.25-1.27-4.56-2.47-1.31-1.21-1.96-2.93-1.96-5.17 0-1.7.48-3.19 1.45-4.49.97-1.29 2.41-2.31 4.33-3.06s4.26-1.12 7.01-1.12c3.57 0 6.32.58 8.26 1.73 1.94 1.16 3.35 2.65 4.23 4.49l-5.2 3.62c-.37-.92-1.27-1.71-2.68-2.4-1.41-.68-3.08-1.02-5.02-1.02-1.7 0-2.91.25-3.64.74s-1.1 1.08-1.1 1.76c0 .61.24 1.09.71 1.43.48.34 1.15.59 2.01.76q1.305.255 3.03.51c2.51.31 4.62.69 6.32 1.15s3.18 1.32 4.43 2.57c1.26 1.26 1.89 3.03 1.89 5.3 0 2.85-1.1 5.07-3.31 6.65s-5.3 2.37-9.28 2.37q-3.615 0-6.42-.66ZM432.7 82.2h4.26v.62h-4.26zm1.76.22h.74v5.94h-.74zm3.22-.22h.83l2.34 4.11h-.1l2.37-4.11h.8v6.16h-.7V82.8l.26.05-2.39 4.28h-.55l-2.41-4.25.25-.05v5.53h-.69V82.2Z" style="fill:#fff"/><path d="M180.38 80.32v.54c-7.13-1.2-15.1 1.64-22.88 5.18-11.87 5.42-19.48 8.93-22.58 12.12V80.32c0-6.27 2.54-11.97 6.66-16.08 4.12-4.12 9.78-6.65 16.07-6.65 12.56 0 22.73 10.18 22.73 22.73" style="fill:url(#a)"/><path d="M180.38 124.04v.64c0 12.56-10.17 22.73-22.73 22.73s-22.73-10.17-22.73-22.73v-19.91c3.05 3.42 10.52 7.58 22.58 13.97 7.57 4.01 15.66 6.71 22.88 5.31Z" style="fill:url(#c)"/><path d="M190.2 118.74c-2.97 2.96-6.28 4.62-9.82 5.31-7.22 1.41-15.3-1.3-22.88-5.31-12.07-6.39-19.54-10.55-22.58-13.97-2.13-2.4-2.12-4.43 0-6.6 3.1-3.2 10.71-6.7 22.58-12.12 7.77-3.54 15.75-6.38 22.88-5.18 3.52.6 6.84 2.2 9.82 5.18 9.03 9.03 9.03 23.66 0 32.7Z" style="fill:url(#d)"/><path d="M84.68 80.32v.54c7.13-1.2 15.1 1.64 22.88 5.18 11.87 5.42 19.48 8.93 22.58 12.12V80.32c0-6.27-2.54-11.97-6.66-16.08a22.6 22.6 0 0 0-16.07-6.65c-12.56 0-22.73 10.18-22.73 22.73" style="fill:url(#e)"/><path d="M84.68 124.04v.64c0 12.56 10.17 22.73 22.73 22.73s22.73-10.17 22.73-22.73v-19.91c-3.05 3.42-10.52 7.58-22.58 13.97-7.57 4.01-15.66 6.71-22.88 5.31Z" style="fill:url(#f)"/><path d="M74.86 118.74c2.97 2.96 6.28 4.62 9.82 5.31 7.22 1.41 15.3-1.3 22.88-5.31 12.07-6.39 19.54-10.55 22.58-13.97 2.13-2.4 2.12-4.43 0-6.6-3.1-3.2-10.71-6.7-22.58-12.12-7.77-3.54-15.75-6.38-22.88-5.18-3.52.6-6.84 2.2-9.82 5.18-9.03 9.03-9.03 23.66 0 32.7Z" style="fill:url(#g)"/></g></svg>