<svg xmlns="http://www.w3.org/2000/svg" data-name="Layer 1" viewBox="0 0 64 64"><path d="m44.56 32.45 16.95 1.88c1.42.16 2.49 1.35 2.49 2.78v7.15c0 .64-.26 1.26-.71 1.71L45.97 63.3c-.45.45-1.07.71-1.71.71h-7.04c-1.43 0-2.62-1.07-2.78-2.49l-1.88-16.97c-.06-.53-.83-.53-.89 0l-1.88 16.97a2.794 2.794 0 0 1-2.78 2.49h-7.25c-.64 0-1.26-.26-1.71-.71L.71 45.96C.26 45.51 0 44.89 0 44.25V19.9c0-.74.29-1.45.82-1.97L17.93.82C18.45.3 19.17 0 19.91 0h7.04c1.43 0 2.62 1.07 2.78 2.49l1.88 16.95c.06.53.83.53.89 0l1.88-16.95A2.794 2.794 0 0 1 37.16 0h6.94c.74 0 1.45.29 1.98.82l17.11 17.11c.52.52.82 1.24.82 1.98v7c0 1.43-1.07 2.62-2.49 2.78l-16.95 1.88c-.53.06-.53.83 0 .89Z" style="fill:#fff"/></svg>