<svg xmlns="http://www.w3.org/2000/svg" width="28" height="28" fill="none"><path fill="#fff" d="m6.614 11.567 3.573-4.834c2.31-3.124 3.464-4.686 4.541-4.356s1.077 2.246 1.077 6.078v.361c0 1.382 0 2.073.442 2.507l.023.022c.451.425 1.17.425 2.61.425 2.588 0 3.882 0 4.32.785l.02.04c.414.796-.336 1.81-1.834 3.838l-3.573 4.834c-2.31 3.124-3.464 4.686-4.541 4.356s-1.078-2.246-1.077-6.078v-.361c0-1.382 0-2.074-.442-2.507l-.023-.022c-.452-.425-1.17-.425-2.61-.425-2.588 0-3.882 0-4.32-.785l-.02-.04c-.414-.796.336-1.81 1.834-3.838"/></svg>