<svg xmlns="http://www.w3.org/2000/svg" id="Layer_2" data-name="Layer 2" viewBox="0 0 512 205"><defs><clipPath id="clippath"><path d="M0 0h512v205H0z" style="fill:none"/></clipPath><style>.cls-1{fill:#fff}</style></defs><g style="clip-path:url(#clippath)"><path id="_Radial_Repeat_" d="m64.55 73.39.1-.06 44.1 25.46c1.9 1.1 3.08 3.13 3.08 5.33v17.53c0 3.4-2.76 6.16-6.16 6.16H93.06a.1.1 0 0 1-.1-.1c-7.79 0-14.85-3.16-19.96-8.26a28.12 28.12 0 0 1-8.26-19.96l-.2-26.1Z" class="cls-1" data-name="&amp;lt;Radial Repeat&amp;gt;"/><path id="_Radial_Repeat_-2" d="M159.9 68.27v.12l-44.1 25.46a6.16 6.16 0 0 1-6.16 0l-15.18-8.76a6.16 6.16 0 0 1-2.25-8.41l6.3-10.92s.08-.06.13-.04a28.14 28.14 0 0 1 17.14-13.15c6.98-1.87 14.66-1.08 21.42 2.82z" class="cls-1" data-name="&amp;lt;Radial Repeat&amp;gt;"/><path id="_Radial_Repeat_-3" d="m116.66 153.4-.1-.06v-50.92c0-2.2 1.18-4.23 3.08-5.33l15.18-8.76a6.16 6.16 0 0 1 8.41 2.25l6.3 10.92s.01.1-.04.13c3.9 6.75 4.69 14.44 2.82 21.42a28.14 28.14 0 0 1-13.15 17.14l-22.51 13.22Z" class="cls-1" data-name="&amp;lt;Radial Repeat&amp;gt;"/><path d="M179.16 73.97h16.11l9.73 33.44c.65 2.29 1.53 6.02 2.62 11.2h.41c.98-5.5 1.74-9.24 2.29-11.2l9.81-33.44h15.53v56.09h-10.47V93.84c0-1.36.14-4.52.41-9.48h-.49c-.44 1.85-.98 3.92-1.64 6.21l-11.53 39.49h-9.65l-11.45-39.49c-.38-1.25-.76-2.67-1.14-4.25l-.49-1.96h-.41q.33 7.365.33 9.48v36.22h-9.97zm65.53 51.59c-3.52-3.65-5.27-9.32-5.27-17.01s1.76-13.35 5.27-17.01c3.52-3.65 8.82-5.48 15.9-5.48s12.39 1.83 15.9 5.48c3.52 3.65 5.27 9.32 5.27 17.01s-1.76 13.36-5.27 17.01c-3.52 3.65-8.82 5.48-15.9 5.48s-12.39-1.83-15.9-5.48m24.32-5.93c1.74-2.26 2.62-5.76 2.62-10.51v-1.14c0-4.74-.87-8.24-2.62-10.51-1.75-2.26-4.55-3.39-8.42-3.39s-6.75 1.13-8.46 3.39c-1.72 2.26-2.58 5.76-2.58 10.51v1.14c0 4.74.86 8.25 2.58 10.51q2.58 3.39 8.46 3.39c5.88 0 6.68-1.13 8.42-3.39m11.53-32.58h10.3l7.03 19.54q1.305 3.6 3.84 13.08h.41c1.53-6 2.78-10.36 3.76-13.08l6.95-19.54h9.89l-15.94 43.01h-10.3zm46.11 38.51q-5.07-5.475-5.07-17.01c0-11.535 1.7-13.35 5.11-17.01 3.41-3.65 8.57-5.48 15.49-5.48q9.48 0 14.19 5.31c3.13 3.54 4.7 9.08 4.7 16.6v2.94h-29.52c.16 4.25 1.08 7.37 2.74 9.36s4.32 2.98 7.97 2.98c2.72 0 4.93-.69 6.62-2.08s2.53-3.45 2.53-6.17h9.65c0 5.29-1.75 9.28-5.23 11.98q-5.235 4.05-13.65 4.05c-6.98 0-12.16-1.83-15.53-5.48Zm24.2-21.59q0-10.14-8.67-10.14c-3.27 0-5.74.83-7.4 2.49s-2.69 4.21-3.07 7.64h19.13Zm13.82-16.92h8.09l.9 6.79h.57c1.96-5.18 5.18-7.77 9.65-7.77 1.53 0 2.89.25 4.09.74v9.24h-3.11q-10.38 0-10.38 11.61v22.4h-9.81zm29.19 38.51q-5.07-5.475-5.07-17.01c0-11.535 1.7-13.35 5.11-17.01 3.41-3.65 8.57-5.48 15.49-5.48q9.48 0 14.19 5.31c3.13 3.54 4.7 9.08 4.7 16.6v2.94h-29.52c.16 4.25 1.08 7.37 2.74 9.36s4.32 2.98 7.97 2.98c2.72 0 4.93-.69 6.62-2.08s2.53-3.45 2.53-6.17h9.65c0 5.29-1.75 9.28-5.23 11.98q-5.235 4.05-13.65 4.05c-6.98 0-12.16-1.83-15.53-5.48Zm24.2-21.59q0-10.14-8.67-10.14c-3.27 0-5.74.83-7.4 2.49s-2.69 4.21-3.07 7.64h19.13Zm14.86-24.11h-2.97V78.4h7.46v1.46h-2.95v7.12h-1.55v-7.12Zm5.49-1.46h2.35l2.12 6.51h.08l2.16-6.51h2.31v8.61h-1.55v-6.49h-.13l-2.18 6.49h-1.46l-2.23-6.59h-.06v6.59h-1.42V78.4Z" class="cls-1"/><path id="_Radial_Repeat_-4" d="m64.55 73.39.1-.06 44.1 25.46c1.9 1.1 3.08 3.13 3.08 5.33v17.53c0 3.4-2.76 6.16-6.16 6.16H93.06a.1.1 0 0 1-.1-.1c-7.79 0-14.85-3.16-19.96-8.26a28.12 28.12 0 0 1-8.26-19.96l-.2-26.1Z" class="cls-1" data-name="&amp;lt;Radial Repeat&amp;gt;"/><path id="_Radial_Repeat_-5" d="M159.9 68.27v.12l-44.1 25.46a6.16 6.16 0 0 1-6.16 0l-15.18-8.76a6.16 6.16 0 0 1-2.25-8.41l6.3-10.92s.08-.06.13-.04a28.14 28.14 0 0 1 17.14-13.15c6.98-1.87 14.66-1.08 21.42 2.82z" class="cls-1" data-name="&amp;lt;Radial Repeat&amp;gt;"/><path id="_Radial_Repeat_-6" d="m116.66 153.4-.1-.06v-50.92c0-2.2 1.18-4.23 3.08-5.33l15.18-8.76a6.16 6.16 0 0 1 8.41 2.25l6.3 10.92s.01.1-.04.13c3.9 6.75 4.69 14.44 2.82 21.42a28.14 28.14 0 0 1-13.15 17.14l-22.51 13.22Z" class="cls-1" data-name="&amp;lt;Radial Repeat&amp;gt;"/><path d="M179.16 73.97h16.11l9.73 33.44c.65 2.29 1.53 6.02 2.62 11.2h.41c.98-5.5 1.74-9.24 2.29-11.2l9.81-33.44h15.53v56.09h-10.47V93.84c0-1.36.14-4.52.41-9.48h-.49c-.44 1.85-.98 3.92-1.64 6.21l-11.53 39.49h-9.65l-11.45-39.49c-.38-1.25-.76-2.67-1.14-4.25l-.49-1.96h-.41q.33 7.365.33 9.48v36.22h-9.97zm65.53 51.59c-3.52-3.65-5.27-9.32-5.27-17.01s1.76-13.35 5.27-17.01c3.52-3.65 8.82-5.48 15.9-5.48s12.39 1.83 15.9 5.48c3.52 3.65 5.27 9.32 5.27 17.01s-1.76 13.36-5.27 17.01c-3.52 3.65-8.82 5.48-15.9 5.48s-12.39-1.83-15.9-5.48m24.32-5.93c1.74-2.26 2.62-5.76 2.62-10.51v-1.14c0-4.74-.87-8.24-2.62-10.51-1.75-2.26-4.55-3.39-8.42-3.39s-6.75 1.13-8.46 3.39c-1.72 2.26-2.58 5.76-2.58 10.51v1.14c0 4.74.86 8.25 2.58 10.51q2.58 3.39 8.46 3.39c5.88 0 6.68-1.13 8.42-3.39m11.53-32.58h10.3l7.03 19.54q1.305 3.6 3.84 13.08h.41c1.53-6 2.78-10.36 3.76-13.08l6.95-19.54h9.89l-15.94 43.01h-10.3zm46.11 38.51q-5.07-5.475-5.07-17.01c0-11.535 1.7-13.35 5.11-17.01 3.41-3.65 8.57-5.48 15.49-5.48q9.48 0 14.19 5.31c3.13 3.54 4.7 9.08 4.7 16.6v2.94h-29.52c.16 4.25 1.08 7.37 2.74 9.36s4.32 2.98 7.97 2.98c2.72 0 4.93-.69 6.62-2.08s2.53-3.45 2.53-6.17h9.65c0 5.29-1.75 9.28-5.23 11.98q-5.235 4.05-13.65 4.05c-6.98 0-12.16-1.83-15.53-5.48Zm24.2-21.59q0-10.14-8.67-10.14c-3.27 0-5.74.83-7.4 2.49s-2.69 4.21-3.07 7.64h19.13Zm13.82-16.92h8.09l.9 6.79h.57c1.96-5.18 5.18-7.77 9.65-7.77 1.53 0 2.89.25 4.09.74v9.24h-3.11q-10.38 0-10.38 11.61v22.4h-9.81zm29.19 38.51q-5.07-5.475-5.07-17.01c0-11.535 1.7-13.35 5.11-17.01 3.41-3.65 8.57-5.48 15.49-5.48q9.48 0 14.19 5.31c3.13 3.54 4.7 9.08 4.7 16.6v2.94h-29.52c.16 4.25 1.08 7.37 2.74 9.36s4.32 2.98 7.97 2.98c2.72 0 4.93-.69 6.62-2.08s2.53-3.45 2.53-6.17h9.65c0 5.29-1.75 9.28-5.23 11.98q-5.235 4.05-13.65 4.05c-6.98 0-12.16-1.83-15.53-5.48Zm24.2-21.59q0-10.14-8.67-10.14c-3.27 0-5.74.83-7.4 2.49s-2.69 4.21-3.07 7.64h19.13Zm14.86-24.11h-2.97V78.4h7.46v1.46h-2.95v7.12h-1.55v-7.12Zm5.49-1.46h2.35l2.12 6.51h.08l2.16-6.51h2.31v8.61h-1.55v-6.49h-.13l-2.18 6.49h-1.46l-2.23-6.59h-.06v6.59h-1.42V78.4Z" class="cls-1"/></g></svg>