<svg xmlns="http://www.w3.org/2000/svg" id="Layer_2" data-name="Layer 2" viewBox="0 0 512 205"><defs><clipPath id="clippath"><path d="M0 0h512v205H0z" style="fill:none"/></clipPath><style>.cls-1{fill:#fff}</style></defs><g style="clip-path:url(#clippath)"><path d="M130.63 89.41H91.86c-1.56 0-2.82 1.26-2.82 2.82v23.94a34.4 34.4 0 0 0 14.11 27.78l31.09 22.72c1.86 1.36 4.48.03 4.48-2.27v-37.51c0-1.56-1.26-2.82-2.82-2.82h-26.56c-2.35 0-3.67-2.7-2.22-4.55z" class="cls-1"/><path d="M128.95 115.59h33c1.56 0 2.82-1.26 2.82-2.82V88.83a34.4 34.4 0 0 0-14.11-27.78l-31.09-22.72c-1.86-1.36-4.48-.03-4.48 2.27v40.33h29.38c2.35 0 3.67 2.7 2.22 4.55l-19.96 25.55c-1.44 1.85-.13 4.55 2.22 4.55Zm70.49 5.66q-.585 0-1.17.03c-.92.03-1.42-1.05-.83-1.75.08-.1.17-.2.25-.29a95 95 0 0 0 4.89-6.21l22.54-31.85v-1.85c0-2.84-2.31-5.15-5.15-5.15h-37.92v9.62h18.51c2.53 0 5.07-.03 7.62-.06.27 0 .53 0 .8-.02.91-.02 1.42 1.04.83 1.74l-.02.02c-1.7 2-3.26 3.97-4.67 5.95l-22.96 32.42v1.81c0 2.84 2.31 5.15 5.15 5.15h37.92v-9.62h-17.87c-2.64 0-5.28.02-7.93.05Zm58.77-30.7c-3.1-1.84-6.8-2.76-11.08-2.76s-7.94.92-11.06 2.76q-4.68 2.76-7.2 7.68c-1.69 3.28-2.53 7.13-2.53 11.54s.84 8.18 2.53 11.46c1.68 3.28 4.09 5.84 7.2 7.68 3.12 1.84 6.8 2.76 11.06 2.76s7.98-.92 11.08-2.76 5.5-4.4 7.18-7.68 2.53-7.1 2.53-11.46-.84-8.25-2.53-11.54c-1.69-3.28-4.08-5.84-7.18-7.68m-2.9 25.8c-.68 1.96-1.71 3.51-3.08 4.64s-3.07 1.69-5.09 1.69-3.72-.56-5.07-1.69c-1.36-1.13-2.38-2.67-3.06-4.64-.68-1.96-1.03-4.17-1.03-6.63s.34-4.74 1.03-6.69c.68-1.95 1.7-3.48 3.06-4.6 1.36-1.11 3.05-1.67 5.07-1.67s3.72.56 5.09 1.67c1.37 1.12 2.39 2.65 3.08 4.6.68 1.95 1.03 4.18 1.03 6.69s-.34 4.67-1.03 6.63m37.63-28.6q-3.57 0-6.33 2.01t-3.93 5.97h-.46v-7.41h-5.87c-2.84 0-5.15 2.31-5.15 5.15v37.35h11.4v-24.17c0-1.77.39-3.33 1.16-4.66s1.86-2.37 3.25-3.12 2.95-1.12 4.68-1.12c.86 0 1.77.05 2.74.15.96.1 1.7.24 2.2.42V88.13c-.51-.13-1.1-.22-1.79-.28-.68-.06-1.32-.1-1.9-.1m14.42-16.68q-2.58 0-4.41 1.71c-1.22 1.14-1.82 2.52-1.82 4.14s.61 3 1.82 4.14q1.83 1.71 4.41 1.71c2.58 0 3.2-.57 4.43-1.71s1.84-2.52 1.84-4.14-.61-3-1.84-4.14-2.71-1.71-4.43-1.71m43.92 19.48c-3.1-1.84-6.8-2.76-11.08-2.76s-7.94.92-11.06 2.76q-4.68 2.76-7.2 7.68c-1.69 3.28-2.53 7.13-2.53 11.54s.84 8.18 2.53 11.46c1.68 3.28 4.09 5.84 7.2 7.68 3.12 1.84 6.8 2.76 11.06 2.76s7.98-.92 11.08-2.76 5.5-4.4 7.18-7.68 2.53-7.1 2.53-11.46-.84-8.25-2.53-11.54c-1.68-3.28-4.08-5.84-7.18-7.68m-2.91 25.8c-.68 1.96-1.71 3.51-3.08 4.64s-3.07 1.69-5.09 1.69-3.72-.56-5.07-1.69c-1.36-1.13-2.38-2.67-3.06-4.64-.68-1.96-1.03-4.17-1.03-6.63s.34-4.74 1.03-6.69c.68-1.95 1.7-3.48 3.06-4.6 1.36-1.11 3.05-1.67 5.07-1.67s3.72.56 5.09 1.67c1.37 1.12 2.39 2.65 3.08 4.6.68 1.95 1.03 4.18 1.03 6.69s-.34 4.67-1.03 6.63m47.73-26.64c-2.19-1.28-4.76-1.92-7.7-1.92-3.6 0-6.53.97-8.8 2.91-1.87 1.6-3.34 3.75-4.42 6.43l-.16-8.81h-5.61c-2.84 0-5.15 2.31-5.15 5.15v37.35h11.4v-24.59q0-2.85 1.05-4.83c.7-1.32 1.67-2.32 2.93-3.02 1.25-.7 2.68-1.05 4.28-1.05 2.41 0 4.29.75 5.65 2.24 1.36 1.5 2.03 3.56 2.03 6.2v25.05H403V103.8c0-3.32-.6-6.18-1.81-8.57-1.2-2.39-2.9-4.23-5.09-5.51Zm22.62-11.97c.2-.31.3-.68.3-1.12s-.1-.8-.29-1.1-.45-.52-.77-.68-.67-.23-1.05-.23h-3.01v6.13h1.58v-2.07h1.04l.96 2.07h1.75l-1.19-2.38c.27-.15.51-.35.68-.62m-3.24-1.97h1.03c.22 0 .42.07.59.21s.26.37.26.69-.09.57-.26.73q-.255.24-.6.24h-1.02z" class="cls-1"/><path d="M422.44 75.15c-.34-.8-.82-1.51-1.43-2.12a6.9 6.9 0 0 0-2.12-1.44c-.81-.35-1.67-.52-2.59-.52s-1.78.17-2.58.52c-.81.35-1.51.83-2.12 1.44s-1.08 1.32-1.43 2.12c-.35.81-.52 1.67-.52 2.58s.17 1.78.52 2.58.82 1.51 1.43 2.12 1.31 1.09 2.12 1.44c.8.35 1.67.52 2.58.52s1.79-.17 2.59-.52 1.51-.83 2.12-1.44 1.09-1.32 1.43-2.12q.51-1.215.51-2.58c0-1.365-.17-1.78-.51-2.58m-1.89 5.04a5 5 0 0 1-1.77 1.78c-.74.44-1.57.66-2.48.66s-1.72-.22-2.47-.66a5.06 5.06 0 0 1-1.78-1.78c-.44-.74-.66-1.57-.66-2.48s.22-1.72.66-2.46a5 5 0 0 1 1.78-1.77c.74-.44 1.57-.66 2.47-.66s1.73.22 2.47.66q1.11.66 1.77 1.77c.44.74.66 1.56.66 2.47s-.22 1.72-.66 2.47Zm-118.9 50.63h11.4v-42.5h-6.25c-2.84 0-5.15 2.31-5.15 5.15z" class="cls-1"/></g></svg>