<svg xmlns="http://www.w3.org/2000/svg" xmlns:xlink="http://www.w3.org/1999/xlink" data-name="Layer 2" viewBox="0 0 512 205"><defs><linearGradient id="a" x1="-7324.47" x2="-7282.85" y1="2170.58" y2="2146.18" gradientTransform="rotate(120 -3014.784 3296.48)" gradientUnits="userSpaceOnUse"><stop offset="0" stop-color="#fff" stop-opacity="0"/><stop offset="1" stop-color="#fff"/></linearGradient><linearGradient xlink:href="#a" id="c" x1="-7337.93" x2="-7301.81" y1="2180.41" y2="2157.69"/><linearGradient xlink:href="#a" id="d" x1="-5248.04" x2="-5206.42" y1="5881.93" y2="5857.53" gradientTransform="rotate(-120 -4234.132 1437.917)"/><linearGradient xlink:href="#a" id="e" x1="-5261.5" x2="-5225.38" y1="5891.76" y2="5869.04" gradientTransform="rotate(-120 -4234.132 1437.917)"/><linearGradient xlink:href="#a" id="f" x1="-3072.13" x2="-3030.51" y1="2228.01" y2="2203.61" gradientTransform="translate(3219.13 -2111.97)"/><linearGradient xlink:href="#a" id="g" x1="-3085.59" x2="-3049.47" y1="2237.84" y2="2215.12" gradientTransform="translate(3219.13 -2111.97)"/><clipPath id="b"><path d="M0 0h512v205H0z" style="fill:none"/></clipPath></defs><g style="clip-path:url(#b)"><g data-name="&amp;lt;Radial Repeat&amp;gt;"><path d="m76.92 149.6 13.89-24.06a7.34 7.34 0 0 1 6.36-3.67h36.26c2.62 0 5.05 1.4 6.36 3.67l13.89 24.06c2.83 4.89-.71 11.01-6.36 11.01H83.27c-5.65 0-9.18-6.12-6.36-11.01Z" style="fill:url(#a)"/><path d="m75.98 133.71 13.89-24.06a7.34 7.34 0 0 1 6.36-3.67h36.26c2.62 0 5.05 1.4 6.36 3.67l13.89 24.06c2.83 4.89-.71 11.01-6.36 11.01H82.33c-5.65 0-9.18-6.12-6.36-11.01Z" style="fill:url(#c)"/></g><g data-name="&amp;lt;Radial Repeat&amp;gt;"><path d="m121.1 49.66 13.89 24.06a7.35 7.35 0 0 1 0 7.34l-18.13 31.4a7.34 7.34 0 0 1-6.36 3.67H82.72c-5.65 0-9.18-6.12-6.36-11.01l32.02-55.47c2.83-4.89 9.89-4.89 12.71 0Z" style="fill:url(#d)"/><path d="m135.34 56.79 13.89 24.06a7.35 7.35 0 0 1 0 7.34l-18.13 31.4a7.34 7.34 0 0 1-6.36 3.67H96.96c-5.65 0-9.18-6.12-6.36-11.01l32.02-55.47c2.83-4.89 9.89-4.89 12.71 0Z" style="fill:url(#e)"/></g><g data-name="&amp;lt;Radial Repeat&amp;gt;"><path d="M185.56 137.89h-27.78c-2.62 0-5.05-1.4-6.36-3.67l-18.13-31.4a7.35 7.35 0 0 1 0-7.34l13.89-24.06c2.83-4.89 9.89-4.89 12.71 0l32.02 55.47c2.83 4.89-.71 11.01-6.36 11.01Z" style="fill:url(#f)"/><path d="M172.27 146.66h-27.78c-2.62 0-5.05-1.4-6.36-3.67L120 111.59a7.35 7.35 0 0 1 0-7.34l13.89-24.06c2.83-4.89 9.89-4.89 12.71 0l32.02 55.47c2.83 4.89-.71 11.01-6.36 11.01Z" style="fill:url(#g)"/></g><text style="fill:#fff;font-family:&quot;InterVariable_23.000opsz_508.000wght_0ital&quot;,&quot;Inter Variable&quot;;font-size:94px;font-variation-settings:&quot;opsz&quot;23,&quot;wght&quot;508;letter-spacing:-.06em" transform="translate(207.56 137.72)"><tspan x="0" y="0">Glasix </tspan></text></g></svg>