<svg xmlns="http://www.w3.org/2000/svg" id="Layer_2" data-name="Layer 2" viewBox="0 0 512 205"><defs><clipPath id="clippath"><path d="M0 0h512v205H0z" style="fill:none"/></clipPath><style>.cls-1{fill:#fff}</style></defs><g id="Layer_1-2" data-name="Layer 1" style="clip-path:url(#clippath)"><path d="M88.38 146.34H59.15c0-16.13 13.1-29.23 29.23-29.23zm0-29.23H59.15c0-16.13 13.1-29.23 29.23-29.23zM59.16 87.88V58.65c16.13 0 29.23 13.1 29.23 29.23z" class="cls-1"/><path d="M88.38 87.89V58.66c16.13 0 29.23 13.1 29.23 29.23zm29.23-29.23h29.23c0 16.13-13.1 29.23-29.23 29.23zm0 29.23h29.23c0 16.13-13.1 29.23-29.23 29.23z" class="cls-1"/><path d="M146.84 117.11v29.23c-16.13 0-29.23-13.1-29.23-29.23zm-29.23 0v29.23c-16.13 0-29.23-13.1-29.23-29.23zm106.05-15.13v10.5c0 10.91-8.41 19.25-19.32 19.25h-15.22c-10.98 0-19.32-8.27-19.32-19.25v-10.5c0-10.91 8.34-19.18 19.32-19.18h15.22c10.98 0 19.32 8.27 19.32 19.18m-10.5.48c0-6.26-4.17-10.43-10.43-10.43h-12.02c-6.39 0-10.5 4.1-10.5 10.43v9.52c0 6.39 4.03 10.36 10.5 10.36h12.02c6.39 0 10.43-4.1 10.43-10.36zm45.09-3.05-20.36.07v32.25h-9.73V90.58h30.1v8.83Zm45.9 2.84c0-3.4-1.39-11.67-14.25-11.67h-16.96V73.27h-10.43v58.45h27.38c12.79 0 14.18-8.13 14.25-11.61h.07v-17.87h-.07Zm-9.66 16.69c0 .42-.07 3.96-5.42 3.96l-16.12-.07V99.47l16.12-.07c5.36 0 5.42 3.55 5.42 3.96v15.57Zm44.35-19.67h-10.15v23.7h10.15v8.69h-10.15v.07h-8.97v-.07H309.5v-8.69h10.22v-23.7H309.5v-8.69h29.33v8.69Zm-10.15-26V83h-9.04v-9.73zm29.19 26v23.91h13.56v8.55h-15.22c-4.94 0-7.92-2.85-7.92-7.92V99.27h-4.87v-8.69c5.35 0 4.79-1.25 4.79-7.51v-3.28h9.66v3.28c0 3.75-.55 6.11-2.5 7.51h16.05v8.69h-13.56Zm48.18 0h-10.15v23.7h10.15v8.69h-10.15v.07h-8.97v-.07h-10.22v-8.69h10.22v-23.7h-10.22v-8.69h29.33v8.69Zm-10.15-26V83h-9.04v-9.73zm56.93 58.46h-11.61l-9.73-13.21-9.8 13.21h-11.61l15.57-20.99-14.87-20.09h11.61l9.1 12.23 9.04-12.23h11.61l-14.87 20.09 15.57 20.99Z" class="cls-1"/></g></svg>