<svg xmlns="http://www.w3.org/2000/svg" id="Layer_2" data-name="Layer 2" viewBox="0 0 512 205"><defs><style>.cls-1{fill:#fff}</style></defs><path d="M193.1 97.91c-.82-13.68-11.84-25.73-36.75-41.05s-28.68-28.59-28.68-28.59-3.77 13.27-28.68 28.59-35.94 27.36-36.76 41.05c-.82 13.68 3.88 24.91 17.56 36.35 13.68 11.43 45.52 30.01 47.88 42.47 2.36-12.46 34.19-31.04 47.88-42.47 13.68-11.44 18.37-22.67 17.56-36.35Zm-43.9 17.56c-14.91 10.42-21.53 26.34-21.53 26.34s-6.63-15.92-21.53-26.34c-14.91-10.41-13.69-24.3-7.76-33.08 0 0 5.97-8.07 14.4-14.04 8.42-5.97 14.9-19.6 14.9-19.6s6.47 13.63 14.9 19.6c8.42 5.97 14.4 14.04 14.4 14.04 5.92 8.78 7.15 22.67-7.76 33.08Z" class="cls-1"/><path d="M137.97 109.24c-5.82 4.59-10.3 15.16-10.3 15.16s-4.48-10.57-10.3-15.16c-5.82-4.6-9.04-10.42-8.58-16.54.46-6.13 4.74-13.48 9.42-18.38s7.82-10.42 9.47-13.33c1.64 2.91 4.79 8.43 9.46 13.33s8.96 12.25 9.42 18.38c.46 6.12-2.76 11.94-8.58 16.54Zm97.01-5.98c-4.41 0-8.21-.95-11.4-2.86s-5.63-4.57-7.33-8c-1.7-3.42-2.55-7.38-2.55-11.87s.85-8.51 2.55-11.93 4.14-6.1 7.33-8.03 6.99-2.9 11.4-2.9c5.25 0 9.54 1.29 12.88 3.87s5.42 6.22 6.26 10.92h-8.31c-.55-2.52-1.74-4.48-3.59-5.89s-4.28-2.11-7.3-2.11c-2.81 0-5.23.64-7.24 1.92s-3.57 3.13-4.66 5.54-1.64 5.28-1.64 8.59.54 6.16 1.64 8.53c1.09 2.37 2.64 4.21 4.66 5.51 2.01 1.3 4.43 1.95 7.24 1.95 3.02 0 5.45-.68 7.27-2.05 1.83-1.36 3.03-3.28 3.62-5.76h8.37c-.88 4.58-2.99 8.14-6.33 10.7s-7.63 3.84-12.88 3.84Zm23.99-.76V71.27h7.56v4.78c.8-1.55 1.83-2.78 3.08-3.68 1.26-.9 2.71-1.35 4.34-1.35h4.22v6.74h-4.97c-1.47 0-2.7.39-3.68 1.16-.99.78-1.73 1.97-2.24 3.59-.5 1.62-.76 3.64-.76 6.08v13.91h-7.56Zm24.05-36.58v-7.74h7.62v7.74zm0 36.58V71.27h7.56v31.23zm13.35 0V71.27h7.56v3.97c1.01-1.47 2.33-2.62 3.97-3.46s3.5-1.26 5.6-1.26c2.39 0 4.45.47 6.17 1.42 1.72.94 3.08 2.36 4.09 4.25 1.13-1.76 2.65-3.15 4.56-4.16s4-1.51 6.26-1.51c3.99 0 7.07 1.21 9.26 3.62 2.18 2.41 3.27 5.95 3.27 10.61v17.75h-7.49v-17c0-2.81-.55-4.94-1.64-6.39s-2.73-2.17-4.91-2.17-4.03.82-5.41 2.46c-1.39 1.64-2.08 3.97-2.08 6.99v16.12h-7.56v-17c0-2.81-.56-4.94-1.67-6.39s-2.78-2.17-5.01-2.17-3.97.82-5.35 2.46c-1.39 1.64-2.08 3.97-2.08 6.99v16.12h-7.56Zm69.13.76c-4.03 0-7.37-.94-10.01-2.83s-4.16-4.49-4.53-7.81h7.74c.29 1.47 1.08 2.63 2.36 3.49s2.84 1.29 4.69 1.29 3.35-.37 4.38-1.1 1.54-1.65 1.54-2.74c0-.88-.35-1.56-1.04-2.05-.69-.48-1.92-.85-3.68-1.1-.67-.13-1.5-.26-2.49-.41s-1.84-.3-2.55-.47c-1.64-.29-3.17-.81-4.6-1.54s-2.57-1.73-3.43-2.99-1.29-2.81-1.29-4.66q0-4.155 3.12-6.99c2.08-1.89 5.05-2.83 8.91-2.83s6.95.85 9.26 2.55 3.63 4.19 3.97 7.46h-7.37c-.13-1.39-.75-2.41-1.86-3.09-1.11-.67-2.45-1.01-4-1.01-1.68 0-2.98.33-3.9.98s-1.39 1.46-1.39 2.42c0 1.72 1.45 2.83 4.34 3.34.42.08.95.18 1.61.28.65.11 1.31.21 1.98.31.67.11 1.24.2 1.7.28 1.13.13 2.28.38 3.43.76s2.21.89 3.18 1.54c.96.65 1.73 1.5 2.3 2.55s.85 2.37.85 3.97c0 2.06-.51 3.86-1.54 5.41s-2.53 2.77-4.5 3.65-4.37 1.32-7.18 1.32Zm33.24 0c-3.11 0-5.91-.68-8.41-2.05-2.5-1.36-4.48-3.28-5.95-5.76s-2.2-5.33-2.2-8.56.73-6.14 2.2-8.59c1.47-2.46 3.46-4.36 5.98-5.73 2.52-1.36 5.31-2.05 8.37-2.05s5.96.68 8.44 2.05c2.48 1.36 4.45 3.27 5.92 5.73s2.2 5.32 2.2 8.59-.73 6.09-2.2 8.56c-1.47 2.48-3.45 4.4-5.95 5.76s-5.3 2.05-8.4 2.05m0-6.55c1.59 0 3.05-.37 4.38-1.1 1.32-.73 2.38-1.83 3.18-3.27.8-1.45 1.2-3.26 1.2-5.45s-.4-4-1.2-5.45q-1.2-2.175-3.18-3.27c-1.98-1.095-2.78-1.1-4.38-1.1s-3 .37-4.34 1.1-2.41 1.83-3.21 3.27c-.8 1.45-1.2 3.26-1.2 5.45s.4 4 1.2 5.45q1.2 2.175 3.18 3.27c1.32.74 2.78 1.1 4.38 1.1Zm20.97 5.79V71.27h7.56v4.85c1.05-1.72 2.47-3.09 4.25-4.09 1.78-1.01 3.83-1.51 6.14-1.51 3.86 0 6.86 1.21 9 3.62s3.21 5.95 3.21 10.61v17.75h-7.56v-17c0-2.81-.58-4.94-1.73-6.39-1.16-1.45-2.91-2.17-5.26-2.17s-4.23.82-5.76 2.46-2.3 3.97-2.3 6.99v16.12h-7.56Zm-204.44 49.77V108.2h28.14v6.11h-20.59v12.84h16.87v6.04h-16.87v19.08h-7.56Zm43.51.75c-3.15 0-5.93-.68-8.34-2.05q-3.615-2.04-5.67-5.7c-1.36-2.43-2.05-5.25-2.05-8.44s.67-6.1 2.01-8.59c1.34-2.5 3.23-4.45 5.67-5.86 2.43-1.41 5.25-2.11 8.44-2.11s5.76.67 8.09 2.01 4.13 3.16 5.41 5.45q1.92 3.435 1.92 7.71v1.39c0 .5-.04 1.05-.13 1.64h-25.94v-4.91h18.45c-.13-2.18-.92-3.91-2.39-5.19s-3.27-1.92-5.41-1.92c-1.55 0-2.99.35-4.31 1.04q-1.98 1.035-3.18 3.09c-.8 1.36-1.2 3.1-1.2 5.19v1.83c0 1.93.39 3.59 1.16 4.97.78 1.39 1.82 2.43 3.12 3.15 1.3.71 2.75 1.07 4.34 1.07 1.72 0 3.17-.39 4.34-1.16a6.84 6.84 0 0 0 2.58-3.12h7.68c-.55 2.01-1.5 3.81-2.86 5.38q-2.04 2.355-5.01 3.75c-1.97.92-4.22 1.39-6.74 1.39Zm30.16 0c-2.39 0-4.43-.43-6.11-1.29s-2.96-2-3.84-3.43a8.7 8.7 0 0 1-1.32-4.66c0-3.27 1.19-5.81 3.56-7.62 2.37-1.8 5.49-2.71 9.35-2.71 1.76 0 3.33.14 4.69.41s2.47.54 3.31.79v-1.45q0-3.465-1.92-5.1c-1.28-1.09-2.95-1.64-5.01-1.64-1.51 0-2.85.3-4.03.91s-1.93 1.71-2.27 3.31h-7.18c.25-2.27 1.01-4.16 2.27-5.67s2.86-2.65 4.82-3.43c1.95-.78 4.08-1.16 6.39-1.16 4.57 0 8.13 1.12 10.67 3.37s3.81 5.38 3.81 9.41v7.62c0 1.6.09 2.76.28 3.49s.5 1.2.94 1.39 1.02.28 1.73.28h.31v6.42h-1.7c-2.14 0-3.94-.3-5.38-.91-1.45-.61-2.47-1.82-3.05-3.62-1.05 1.51-2.43 2.77-4.16 3.78-1.72 1.01-3.78 1.51-6.17 1.51Zm1.63-5.85c1.47 0 2.73-.35 3.78-1.04s1.9-1.62 2.55-2.77q.975-1.725 1.29-3.81c-.88-.25-1.93-.5-3.15-.76-1.22-.25-2.46-.38-3.71-.38q-2.835 0-4.44 1.26c-1.07.84-1.61 1.97-1.61 3.4 0 1.18.47 2.15 1.42 2.93.94.78 2.24 1.16 3.87 1.16Zm33.94 5.1q-3.015 0-5.1-.72c-1.39-.48-2.43-1.4-3.15-2.74-.71-1.34-1.07-3.29-1.07-5.86V127.4h-5.35v-6.36h5.35v-8.19h7.56v8.19h8.18v6.36h-8.18v14.54c0 1.13.12 1.97.35 2.52s.64.91 1.23 1.1 1.45.28 2.58.28h3.71v6.42h-6.11Zm10.07 0v-45.33h7.56v18.95c1.05-1.72 2.49-3.09 4.31-4.09 1.83-1.01 3.89-1.51 6.2-1.51 3.78 0 6.74 1.21 8.88 3.62s3.21 5.95 3.21 10.61v17.75h-7.49v-17c0-2.81-.56-4.94-1.67-6.39s-2.86-2.17-5.26-2.17-4.3.82-5.86 2.46c-1.55 1.64-2.33 3.97-2.33 6.99v16.12h-7.56Zm50.69.75c-3.15 0-5.93-.68-8.34-2.05q-3.615-2.04-5.67-5.7c-1.36-2.43-2.05-5.25-2.05-8.44s.67-6.1 2.01-8.59c1.34-2.5 3.23-4.45 5.67-5.86 2.43-1.41 5.25-2.11 8.44-2.11s5.76.67 8.09 2.01 4.13 3.16 5.41 5.45q1.92 3.435 1.92 7.71v1.39c0 .5-.04 1.05-.13 1.64h-25.94v-4.91h18.45c-.13-2.18-.92-3.91-2.39-5.19s-3.27-1.92-5.41-1.92c-1.55 0-2.99.35-4.31 1.04q-1.98 1.035-3.18 3.09c-.8 1.36-1.2 3.1-1.2 5.19v1.83c0 1.93.39 3.59 1.16 4.97.78 1.39 1.82 2.43 3.12 3.15 1.3.71 2.75 1.07 4.34 1.07 1.72 0 3.17-.39 4.34-1.16a6.84 6.84 0 0 0 2.58-3.12h7.68c-.55 2.01-1.5 3.81-2.86 5.38q-2.04 2.355-5.01 3.75c-1.97.92-4.22 1.39-6.74 1.39Zm20.27-.75v-31.23h7.56v4.78c.8-1.55 1.83-2.78 3.08-3.68 1.26-.9 2.71-1.35 4.34-1.35h4.22v6.74h-4.97c-1.47 0-2.7.39-3.68 1.16-.99.78-1.73 1.97-2.24 3.59-.5 1.62-.76 3.64-.76 6.08v13.91h-7.56Z" class="cls-1"/></svg>