<svg xmlns="http://www.w3.org/2000/svg" id="Layer_2" data-name="Layer 2" viewBox="0 0 512 205"><defs><clipPath id="clippath"><path d="M0 0h512v205H0z" style="fill:none"/></clipPath><style>.cls-1{fill:#fff}</style></defs><g style="clip-path:url(#clippath)"><path d="m235.05 128.66-14.51-19.41h-.17l-14.08 19.41h-12.35l20.35-26.77-19.68-25.55h13.01l13.47 18.02.07-.02 13.57-18h11.97l-19.78 25.11 20.91 27.22h-12.8Z" class="cls-1"/><path d="M256.02 112.17c.34 5.45 4.18 9.59 10.51 9.59 4.98 0 7.49-1.72 9.08-4.48h10.48c-2.22 6.4-7.82 12.41-19.77 12.41-14.95 0-20.75-10.21-20.75-19.98 0-10.96 7.34-20.12 20.64-20.12 14.68 0 20.38 10.31 20.38 20.02 0 .86 0 1.49-.05 2.56h-30.5Zm19.86-6.64c-.27-3.41-2.1-8.42-9.7-8.42-6.78 0-9.56 3.89-10.01 8.42zm14.45-5.3c0-3.22 0-6.83-.07-9.59h10.23c.15 1.15.27 3.72.33 5.58 1.71-2.95 5.34-6.62 12.99-6.62 9.22 0 14.85 5.7 14.85 15.71v23.36h-10.59v-21.64c0-4.95-1.91-9.14-7.84-9.14-6.34 0-9.35 4.57-9.35 12.04v18.74h-10.54v-28.43Zm39.74-9.6h7.05V79.1h10.54v11.53h9.16v7.76h-9.16v17.53c0 3.59.81 5.22 4.64 5.22 1.06 0 2.35-.02 3.41-.27v7.3c-1.95.59-4.47.8-7.08.8-8.89 0-11.51-3.89-11.51-11.33V98.38h-7.05v-7.76Zm29.58 10.34c0-3.44 0-6.9-.07-10.34h10.23c.18 1.27.33 5.42.33 7.9 2.23-5.27 7.15-9.04 14.89-8.89v9.65c-8.65-.13-14.89 3.89-14.89 14.85v14.52h-10.48v-27.69Zm62.74 17.43c0 4.55.22 9.43.32 10.26h-9.92c-.3-1.06-.39-3.57-.44-4.69-2.03 3.5-6.39 5.73-13.82 5.73-10.51 0-14.63-6.39-14.63-12.35 0-9.91 8.77-12.65 19.87-12.65h8.38v-1.46c0-3.42-1.48-6.35-7.85-6.35-5.86 0-7.18 2.35-7.76 4.94h-10.48c.36-4.8 3.7-12.22 18.11-12.22 15.67 0 18.24 7.45 18.24 13.79v15.01Zm-10.26-6.9c-.97-.05-3.57-.05-8.18-.05-6.94 0-9.87 1.71-9.87 5.37 0 2.89 2.25 5.26 7.23 5.26 7.7 0 10.83-3.93 10.83-9.65v-.92Z" class="cls-1"/><path id="_Radial_Repeat_" d="m142.05 109.63-41.54 30.06c-3 2.17-1.23 6.41 2.67 6.41h41.54c2.3 0 4.17-1.62 4.17-3.63v-30.06c0-3.07-4.12-4.75-6.84-2.79Z" class="cls-1" data-name="&amp;lt;Radial Repeat&amp;gt;"/><path id="_Radial_Repeat_-2" d="M125.77 111.65 95.71 70.11c-2.17-3-6.41-1.23-6.41 2.67v41.54c0 2.3 1.62 4.17 3.63 4.17h30.06c3.07 0 4.75-4.12 2.79-6.84Z" class="cls-1" data-name="&amp;lt;Radial Repeat&amp;gt;"/><path id="_Radial_Repeat_-3" d="m123.74 95.37 41.54-30.06c3-2.17 1.23-6.41-2.67-6.41h-41.54c-2.3 0-4.17 1.62-4.17 3.63v30.06c0 3.07 4.12 4.75 6.84 2.79Z" class="cls-1" data-name="&amp;lt;Radial Repeat&amp;gt;"/><path id="_Radial_Repeat_-4" d="m140.03 93.35 30.06 41.54c2.17 3 6.41 1.23 6.41-2.67V90.68c0-2.3-1.62-4.17-3.63-4.17h-30.06c-3.07 0-4.75 4.12-2.79 6.84Z" class="cls-1" data-name="&amp;lt;Radial Repeat&amp;gt;"/></g></svg>