<svg xmlns="http://www.w3.org/2000/svg" id="Layer_2" data-name="Layer 2" viewBox="0 0 512 205"><defs><clipPath id="clippath"><path d="M0 0h512v205H0z" style="fill:none"/></clipPath><style>.cls-1{fill:#fff}</style></defs><g style="clip-path:url(#clippath)"><path id="_Radial_Repeat_" d="m160.5 118.66-5.8-9.95c-3.14-5.39-3.79-11.54-2.32-17.13 1.48-5.59 5.08-10.61 10.47-13.75-5.39 3.14-11.54 3.79-17.13 2.32-5.59-1.48-10.61-5.08-13.75-10.47l-5.8-9.96 29.34-.11c17.27-.06 28.14 18.59 19.56 33.58l-14.58 25.46Z" class="cls-1" data-name="&amp;lt;Radial Repeat&amp;gt;"/><path id="_Radial_Repeat_-2" d="m127.02 107.82 11.52-.04a22.5 22.5 0 0 1 15.99 6.55c4.1 4.07 6.65 9.71 6.67 15.95a22.55 22.55 0 0 1 6.55-15.99c4.07-4.1 9.71-6.65 15.95-6.67l11.52-.04-14.58 25.46c-8.58 14.99-30.17 15.07-38.86.14z" class="cls-1" data-name="&amp;lt;Radial Repeat&amp;gt;"/><path id="_Radial_Repeat_-3" d="m153.14 84.25-5.72 10a22.5 22.5 0 0 1-13.67 10.57c-5.58 1.52-11.73.9-17.15-2.19 5.41 3.1 9.06 8.1 10.57 13.67 1.51 5.58.9 11.73-2.19 17.15l-5.72 10-14.76-25.36c-8.69-14.93 2.03-33.66 19.31-33.73l29.34-.11Z" class="cls-1" data-name="&amp;lt;Radial Repeat&amp;gt;"/><path d="M255.14 114.07h-25.68l-5.06 11.88h-9.83l23.11-51.35h9.39l23.18 51.35h-9.98zm-3.15-7.49-9.68-22.45-9.61 22.45zm49.81-19.8L285 125.95h-9.46l-16.8-39.17h9.54l12.18 29.05L293 86.78zm43.13 0-18.34 42.33c-1.71 4.25-3.79 7.25-6.24 8.99s-5.41 2.6-8.88 2.6c-1.96 0-3.89-.32-5.79-.95-1.91-.64-3.47-1.52-4.7-2.64l3.67-6.75q1.32 1.245 3.12 1.98c1.2.49 2.41.73 3.63.73 1.61 0 2.95-.42 4-1.25s2.02-2.23 2.9-4.18l.66-1.54-17.09-39.32h9.54l12.32 28.98 12.4-28.98zm23.99-.44v8.73c-.78-.15-1.49-.22-2.13-.22-3.57 0-6.36 1.04-8.36 3.12-2.01 2.08-3.01 5.07-3.01 8.99v19h-9.17V86.79h8.73v5.72c2.64-4.11 7.29-6.16 13.94-6.16Zm31.36 4.14c3.06 2.76 4.58 6.93 4.58 12.51v22.96h-8.66v-4.77c-1.12 1.71-2.73 3.02-4.8 3.92-2.08.9-4.58 1.36-7.52 1.36s-5.5-.5-7.7-1.5-3.9-2.4-5.1-4.18-1.8-3.8-1.8-6.05c0-3.52 1.31-6.35 3.92-8.47 2.62-2.13 6.74-3.19 12.36-3.19h10.12v-.59c0-2.74-.82-4.84-2.46-6.31s-4.07-2.2-7.3-2.2c-2.2 0-4.37.34-6.49 1.03-2.13.69-3.92 1.64-5.39 2.86l-3.59-6.68c2.05-1.56 4.52-2.76 7.41-3.59s5.94-1.25 9.17-1.25c5.77 0 10.18 1.38 13.24 4.14Zm-8.36 27.73c1.78-1.05 3.04-2.55 3.78-4.51v-4.55h-9.46c-5.28 0-7.92 1.74-7.92 5.21q0 2.49 1.98 3.96c1.98 1.47 3.15 1.47 5.5 1.47s4.34-.53 6.13-1.58Z" class="cls-1"/><g id="_Radial_Repeat_-4" data-name="&amp;lt;Radial Repeat&amp;gt;"><path d="m160.5 118.66-5.8-9.95c-3.14-5.39-3.79-11.54-2.32-17.13 1.48-5.59 5.08-10.61 10.47-13.75-5.39 3.14-11.54 3.79-17.13 2.32-5.59-1.48-10.61-5.08-13.75-10.47l-5.8-9.96 29.34-.11c17.27-.06 28.14 18.59 19.56 33.58l-14.58 25.46Z" class="cls-1"/><path d="m160.5 118.66-5.8-9.95c-3.14-5.39-3.79-11.54-2.32-17.13 1.48-5.59 5.08-10.61 10.47-13.75-5.39 3.14-11.54 3.79-17.13 2.32-5.59-1.48-10.61-5.08-13.75-10.47l-5.8-9.96 29.34-.11c17.27-.06 28.14 18.59 19.56 33.58l-14.58 25.46Z" class="cls-1"/><path d="m160.5 118.66-5.8-9.95c-3.14-5.39-3.79-11.54-2.32-17.13 1.48-5.59 5.08-10.61 10.47-13.75-5.39 3.14-11.54 3.79-17.13 2.32-5.59-1.48-10.61-5.08-13.75-10.47l-5.8-9.96 29.34-.11c17.27-.06 28.14 18.59 19.56 33.58l-14.58 25.46Z" class="cls-1"/></g><g id="_Radial_Repeat_-5" data-name="&amp;lt;Radial Repeat&amp;gt;"><path d="m127.02 107.82 11.52-.04a22.5 22.5 0 0 1 15.99 6.55c4.1 4.07 6.65 9.71 6.67 15.95a22.55 22.55 0 0 1 6.55-15.99c4.07-4.1 9.71-6.65 15.95-6.67l11.52-.04-14.58 25.46c-8.58 14.99-30.17 15.07-38.86.14z" class="cls-1"/><path d="m127.02 107.82 11.52-.04a22.5 22.5 0 0 1 15.99 6.55c4.1 4.07 6.65 9.71 6.67 15.95a22.55 22.55 0 0 1 6.55-15.99c4.07-4.1 9.71-6.65 15.95-6.67l11.52-.04-14.58 25.46c-8.58 14.99-30.17 15.07-38.86.14z" class="cls-1"/><path d="m127.02 107.82 11.52-.04a22.5 22.5 0 0 1 15.99 6.55c4.1 4.07 6.65 9.71 6.67 15.95a22.55 22.55 0 0 1 6.55-15.99c4.07-4.1 9.71-6.65 15.95-6.67l11.52-.04-14.58 25.46c-8.58 14.99-30.17 15.07-38.86.14z" class="cls-1"/></g><g id="_Radial_Repeat_-6" data-name="&amp;lt;Radial Repeat&amp;gt;"><path d="m153.14 84.25-5.72 10a22.5 22.5 0 0 1-13.67 10.57c-5.58 1.52-11.73.9-17.15-2.19 5.41 3.1 9.06 8.1 10.57 13.67 1.51 5.58.9 11.73-2.19 17.15l-5.72 10-14.76-25.36c-8.69-14.93 2.03-33.66 19.31-33.73l29.34-.11Z" class="cls-1"/><path d="m153.14 84.25-5.72 10a22.5 22.5 0 0 1-13.67 10.57c-5.58 1.52-11.73.9-17.15-2.19 5.41 3.1 9.06 8.1 10.57 13.67 1.51 5.58.9 11.73-2.19 17.15l-5.72 10-14.76-25.36c-8.69-14.93 2.03-33.66 19.31-33.73l29.34-.11Z" class="cls-1"/><path d="m153.14 84.25-5.72 10a22.5 22.5 0 0 1-13.67 10.57c-5.58 1.52-11.73.9-17.15-2.19 5.41 3.1 9.06 8.1 10.57 13.67 1.51 5.58.9 11.73-2.19 17.15l-5.72 10-14.76-25.36c-8.69-14.93 2.03-33.66 19.31-33.73l29.34-.11Z" class="cls-1"/></g><path d="M255.14 114.07h-25.68l-5.06 11.88h-9.83l23.11-51.35h9.39l23.18 51.35h-9.98zm-3.15-7.49-9.68-22.45-9.61 22.45zm49.81-19.8L285 125.95h-9.46l-16.8-39.17h9.54l12.18 29.05L293 86.78zm43.13 0-18.34 42.33c-1.71 4.25-3.79 7.25-6.24 8.99s-5.41 2.6-8.88 2.6c-1.96 0-3.89-.32-5.79-.95-1.91-.64-3.47-1.52-4.7-2.64l3.67-6.75q1.32 1.245 3.12 1.98c1.2.49 2.41.73 3.63.73 1.61 0 2.95-.42 4-1.25s2.02-2.23 2.9-4.18l.66-1.54-17.09-39.32h9.54l12.32 28.98 12.4-28.98zm23.99-.44v8.73c-.78-.15-1.49-.22-2.13-.22-3.57 0-6.36 1.04-8.36 3.12-2.01 2.08-3.01 5.07-3.01 8.99v19h-9.17V86.79h8.73v5.72c2.64-4.11 7.29-6.16 13.94-6.16Zm31.36 4.14c3.06 2.76 4.58 6.93 4.58 12.51v22.96h-8.66v-4.77c-1.12 1.71-2.73 3.02-4.8 3.92-2.08.9-4.58 1.36-7.52 1.36s-5.5-.5-7.7-1.5-3.9-2.4-5.1-4.18-1.8-3.8-1.8-6.05c0-3.52 1.31-6.35 3.92-8.47 2.62-2.13 6.74-3.19 12.36-3.19h10.12v-.59c0-2.74-.82-4.84-2.46-6.31s-4.07-2.2-7.3-2.2c-2.2 0-4.37.34-6.49 1.03-2.13.69-3.92 1.64-5.39 2.86l-3.59-6.68c2.05-1.56 4.52-2.76 7.41-3.59s5.94-1.25 9.17-1.25c5.77 0 10.18 1.38 13.24 4.14Zm-8.36 27.73c1.78-1.05 3.04-2.55 3.78-4.51v-4.55h-9.46c-5.28 0-7.92 1.74-7.92 5.21q0 2.49 1.98 3.96c1.98 1.47 3.15 1.47 5.5 1.47s4.34-.53 6.13-1.58Z" class="cls-1"/></g></svg>