<svg xmlns="http://www.w3.org/2000/svg" id="Layer_2" data-name="Layer 2" viewBox="0 0 512 205"><defs><clipPath id="clippath"><path d="M0 0h512v205H0z" style="fill:none"/></clipPath><style>.cls-1{fill:#fff}</style></defs><g style="clip-path:url(#clippath)"><path id="_Radial_Repeat_" d="m45.2 108.46 20.5-5.32c1.69-.44 2.17-2.61.82-3.72L53.48 88.69c-1.13-.93-.17-2.73 1.23-2.32l34.11 9.98L46.3 71.48c-2.91-1.7-6.56.45-6.48 3.82v28.99c0 2.82 2.66 4.87 5.38 4.17" class="cls-1" data-name="&amp;lt;Radial Repeat&amp;gt;"/><path id="_Radial_Repeat_-2" d="m76.3 65.62 5.28 20.35c.44 1.69 2.61 2.17 3.72.82l10.73-13.04c.93-1.13 2.73-.17 2.32 1.23l-9.98 34.11 24.87-42.52c1.7-2.91-.45-6.56-3.82-6.48l-28.98.15c-2.81.01-4.85 2.67-4.14 5.39Z" class="cls-1" data-name="&amp;lt;Radial Repeat&amp;gt;"/><path id="_Radial_Repeat_-3" d="m119.25 96.54-20.5 5.32c-1.69.44-2.17 2.61-.82 3.72l13.04 10.73c1.13.93.17 2.73-1.23 2.32l-34.11-9.98 42.52 24.87c2.91 1.7 6.56-.45 6.48-3.82v-28.99c0-2.82-2.66-4.87-5.38-4.17" class="cls-1" data-name="&amp;lt;Radial Repeat&amp;gt;"/><path id="_Radial_Repeat_-4" d="m88.19 139.52-5.32-20.5c-.44-1.69-2.61-2.17-3.72-.82l-10.73 13.04c-.93 1.13-2.73.17-2.32-1.23l9.98-34.11-24.87 42.52c-1.7 2.91.45 6.56 3.82 6.48h28.99c2.82 0 4.87-2.66 4.17-5.38" class="cls-1" data-name="&amp;lt;Radial Repeat&amp;gt;"/><path d="m169.82 103.1 15.58-26.38h-11.46l-11.79 21.02-11.65-21.02h-11.39l15.28 26.38v.52l-15.65 26.01h11.69l11.67-20.58 12.13 20.58h11.54l-15.95-26.01zm52.06-11.79c-2.91-2.18-7.04-3.27-12.38-3.27-3.72 0-6.81.36-9.26 1.07q-3.675 1.065-5.88 2.94c-1.47 1.25-2.74 2.78-3.82 4.59l7.27 5.22c.59-1.47 1.76-2.69 3.53-3.67q2.64-1.47 6.54-1.47c2.74 0 4.81.56 6.21 1.69s2.09 2.99 2.09 5.58v3.23h-12.93c-3.97.05-7.18 1.05-9.63 3.01s-3.67 4.83-3.67 8.6 1.44 6.77 4.34 8.85c2.89 2.08 7.13 3.12 12.71 3.12 6.07 0 10.8-1.27 14.18-3.82q5.07-3.825 5.07-11.46v-13.01c0-5.29-1.46-9.02-4.37-11.21Zm-7.79 30.6c-1.45 1.27-3.64 1.91-6.58 1.91-2.65 0-4.59-.5-5.84-1.51-1.25-1-1.87-2.41-1.87-4.22 0-1.62.51-2.88 1.54-3.78 1.03-.91 2.74-1.36 5.14-1.36h9.7v3.45c.05 2.4-.65 4.24-2.09 5.51m22.5-29.31c-2.57 2.25-3.86 5.93-3.86 11.02v26.01h10.07v-23.81q0-3.9 1.62-5.73c1.08-1.22 2.84-1.84 5.29-1.84h6.61v-9.04h-9.11c-4.51 0-8.05 1.13-10.62 3.38Zm53.33-1.29c-2.91-2.18-7.04-3.27-12.38-3.27-3.72 0-6.81.36-9.26 1.07q-3.675 1.065-5.88 2.94c-1.47 1.25-2.74 2.78-3.82 4.59l7.27 5.22c.59-1.47 1.76-2.69 3.53-3.67q2.64-1.47 6.54-1.47c2.74 0 4.81.56 6.21 1.69s2.09 2.99 2.09 5.58v3.23h-12.93c-3.97.05-7.18 1.05-9.63 3.01s-3.67 4.83-3.67 8.6 1.44 6.77 4.34 8.85c2.89 2.08 7.13 3.12 12.71 3.12 6.07 0 10.8-1.27 14.18-3.82q5.07-3.825 5.07-11.46v-13.01c0-5.29-1.46-9.02-4.37-11.21Zm-7.79 30.6c-1.45 1.27-3.64 1.91-6.58 1.91-2.65 0-4.59-.5-5.84-1.51-1.25-1-1.87-2.41-1.87-4.22 0-1.62.51-2.88 1.54-3.78 1.03-.91 2.74-1.36 5.14-1.36h9.7v3.45c.05 2.4-.65 4.24-2.09 5.51m26.34-45.19h-3.89v52.91h10.21v-19.84h25.2v-8.96h-25.2V85.69h25.57v-8.97zm34.74-2.35h10.21v55.25h-10.21zm34.82 13.67c-6.96 0-12.26 1.8-15.91 5.4s-5.47 9-5.47 16.2 1.79 12.53 5.36 15.98c3.58 3.45 8.94 5.18 16.09 5.18s12.43-1.71 15.98-5.14 5.33-8.77 5.33-16.02-1.8-12.66-5.4-16.24-8.93-5.36-15.98-5.36m8.34 30.46c-1.84 2.03-4.62 3.05-8.34 3.05s-6.43-1.03-8.27-3.09-2.76-4.97-2.76-8.74.91-6.91 2.72-9.11 4.6-3.31 8.38-3.31 6.55 1.1 8.34 3.31c1.79 2.2 2.68 5.22 2.68 9.04s-.92 6.82-2.76 8.85Zm75.6-29.28-10.44 31.52-10.57-31.52h-10.22l-10.43 31.52-10.58-31.52h-10.21l14.1 40.41h13.23l9.03-28.19 8.97 28.19h13.3l14.03-40.41z" class="cls-1"/></g></svg>