<svg xmlns="http://www.w3.org/2000/svg" data-name="Layer 1" viewBox="0 0 512 205"><defs><clipPath id="a"><path d="M0 0h512v205H0z" style="fill:none"/></clipPath></defs><g style="clip-path:url(#a)"><path d="M130.17 112.97v.07c-.65 17.61-15.58 29.77-31.66 30.23a32.4 32.4 0 0 1-15.13-3.23c-6.07-2.93-10.72-7.94-13.75-13.87-3.52-6.86-4.88-14.94-3.82-22.45 1.31-7.37 5.47-14.21 11.3-18.85 3.2-2.54 6.61-4 9.73-6.57 5.75-4.43 7.72-11.41 3.63-16.98-1.34-1.8-.86-2.01 1.23-1.01 3.21 1.46 6.16 4 8.44 7.09 5.22 7.07 6.86 16.98-.28 23.1-4.17 3.57-9.75 5.43-13.98 8.9-5.79 4.67-10.22 12.17-9.58 19.8.81 6.86 3.84 12.76 8.54 16.48q.555.435 1.14.84a19.3 19.3 0 0 0 7.96 3.12c1.63.25 3.35.32 5.14.18 3.32-.26 6.91-1.22 10.72-3.01 1.63-.73 1.97-.95.07-.43-3.41.99-6.92 1.37-10.28 1.06-2.04-.18-4.04-.62-5.92-1.34a19.66 19.66 0 0 1-7.34-4.82c-.85-.89-1.64-1.87-2.36-2.96-.85-1.21-1.52-2.52-2.01-3.89-1.74-4.84-1.2-10.37 1.82-14.67.14-.2.29-.4.44-.59 3.25-4.42 8.15-7.38 12.91-9.95 4.41-2.18 8.53-5.38 10.6-9.93 2.1-4.25 2.14-9.22 1.05-13.76-.27-1.2-.47-2.18-.24-2.47.63-.57 2.31 1.46 3.33 2.31 1.7 1.6 3.33 3.36 4.65 5.31.89 1.32 1.64 2.72 2.17 4.22.17.43.32.87.45 1.31.31 1.05.53 2.13.65 3.22.56 5.18-1.04 10.59-4.68 14.4-3.61 3.96-9.29 3.84-13.92 5.82-4.35 1.83-8.22 5.75-8.47 10.66-.2 2.52.55 4.89 1.93 6.84 1.57 2.23 3.96 3.9 6.65 4.58.72.18 1.47.3 2.23.33 7.66.61 14.36-5.2 16.42-12.37.16-.53.29-1.3-.36-1.02-.74.34-2.66 2.1-3.96 2.78-2.95 1.65-6.86 3.19-10.22 2.16-.43-.13-.86-.31-1.27-.53-4.24-2.81-1.38-8.8 2.65-10.28 2.53-1.1 5.35-1.54 7.72-3.01 5.58-3.27 9.04-9.58 9.3-16.01.13-1.7.28-2.65 1.19-1.24 1.19 2.16 2.21 4.45 3.02 6.82 1.51 4.41 2.29 9.09 2.15 13.64Zm29.16 19.78c-3.92 0-7.37-.86-10.35-2.57s-5.31-4.15-6.98-7.31-2.51-6.92-2.51-11.27.88-8.36 2.65-11.53 4.14-5.6 7.11-7.27 6.3-2.51 9.98-2.51c2.39 0 4.6.34 6.65 1.03 2.04.68 3.87 1.66 5.47 2.91 1.6 1.26 2.9 2.74 3.89 4.45s1.61 3.59 1.87 5.65h-9.91a8.1 8.1 0 0 0-1.04-2.29 6.4 6.4 0 0 0-1.68-1.72c-.67-.47-1.42-.83-2.26-1.07q-1.26-.36-2.82-.36c-2 0-3.74.49-5.23 1.47s-2.64 2.41-3.44 4.29-1.21 4.15-1.21 6.81.39 4.97 1.18 6.86 1.92 3.33 3.4 4.33 3.26 1.5 5.33 1.5c1.87 0 3.45-.31 4.73-.92 1.29-.61 2.26-1.49 2.93-2.62.67-1.14 1-2.47 1-4.01l1.86.25h-10.13v-7.19h17.74v5.44c0 3.68-.78 6.84-2.33 9.48s-3.71 4.66-6.45 6.06c-2.75 1.41-5.89 2.11-9.42 2.11Zm21-.56v-31.03h9.41v5.66h.33c.56-2.05 1.48-3.58 2.76-4.57 1.29-.99 2.78-1.49 4.48-1.49.44 0 .91.03 1.4.08.49.06.94.14 1.35.25v8.44c-.46-.17-1.07-.29-1.82-.37s-1.42-.13-2.01-.13c-1.18 0-2.25.26-3.19.79s-1.68 1.25-2.22 2.18-.8 2.01-.8 3.25v16.93h-9.69Zm36.52.59c-3.24 0-6.03-.64-8.38-1.93s-4.15-3.12-5.4-5.51-1.87-5.24-1.87-8.55.62-5.98 1.87-8.38c1.25-2.41 3.02-4.28 5.32-5.62 2.29-1.34 5-2.01 8.1-2.01 2.18 0 4.19.34 6.01 1.03 1.82.68 3.4 1.7 4.75 3.04 1.34 1.34 2.38 2.99 3.11 4.95s1.1 4.23 1.1 6.8v2.44h-26.81v-5.63h22.2l-4.52 1.33c0-1.44-.22-2.68-.65-3.72s-1.08-1.83-1.93-2.39-1.91-.83-3.16-.83-2.32.28-3.19.85c-.87.56-1.53 1.35-1.98 2.36s-.68 2.19-.68 3.54v4.05c0 1.59.26 2.92.79 3.98s1.26 1.86 2.21 2.39 2.04.79 3.3.79q1.305 0 2.37-.36t1.83-1.08c.51-.48.89-1.06 1.15-1.75l8.63 1.42c-.52 1.78-1.41 3.33-2.68 4.65s-2.87 2.35-4.8 3.07-4.16 1.08-6.68 1.08Zm32.39 0c-3.24 0-6.03-.64-8.38-1.93s-4.15-3.12-5.4-5.51-1.87-5.24-1.87-8.55.62-5.98 1.87-8.38c1.25-2.41 3.02-4.28 5.32-5.62 2.29-1.34 5-2.01 8.1-2.01 2.18 0 4.19.34 6.01 1.03 1.82.68 3.4 1.7 4.75 3.04 1.34 1.34 2.38 2.99 3.11 4.95s1.1 4.23 1.1 6.8v2.44h-26.81v-5.63h22.2l-4.52 1.33c0-1.44-.22-2.68-.65-3.72s-1.08-1.83-1.93-2.39-1.91-.83-3.16-.83-2.32.28-3.19.85c-.87.56-1.53 1.35-1.98 2.36s-.68 2.19-.68 3.54v4.05c0 1.59.26 2.92.79 3.98s1.26 1.86 2.21 2.39c.94.53 2.04.79 3.3.79q1.305 0 2.37-.36t1.83-1.08c.51-.48.89-1.06 1.15-1.75l8.63 1.42c-.52 1.78-1.41 3.33-2.68 4.65s-2.87 2.35-4.8 3.07-4.16 1.08-6.68 1.08Zm26.88-18.29v17.71h-9.69v-31.03h9.1l.19 7.83h-.42c.76-2.46 1.95-4.45 3.57-5.95 1.62-1.51 3.8-2.26 6.54-2.26 2.16 0 4.05.48 5.66 1.44q2.415 1.44 3.75 4.08c1.335 2.64 1.33 3.8 1.33 6.13v19.76h-9.69v-17.87c0-1.74-.44-3.1-1.33-4.09s-2.13-1.49-3.72-1.49c-1.04 0-1.96.23-2.76.68s-1.43 1.11-1.87 1.96-.67 1.89-.67 3.11Zm24.97 17.7V90.84h25.73v5.44h-19.4v13.29h17.54v5.41h-17.54v17.21zm36.3-41.35v41.35h-6.11V90.84zm14.06 42.05c-1.96 0-3.74-.37-5.33-1.1s-2.85-1.8-3.77-3.21c-.93-1.41-1.39-3.13-1.39-5.16 0-1.76.34-3.2 1.01-4.33a7.47 7.47 0 0 1 2.75-2.69c1.16-.67 2.44-1.17 3.86-1.5s2.85-.58 4.32-.75q2.745-.33 4.47-.54c1.725-.21 1.99-.37 2.54-.69s.82-.85.82-1.57v-.17c0-1.17-.22-2.15-.67-2.94-.44-.8-1.11-1.41-1.98-1.85-.88-.43-1.98-.65-3.29-.65s-2.51.21-3.48.62-1.76.95-2.36 1.6-1.05 1.32-1.35 2.03l-5.75-1.5q1.05-2.775 3.03-4.47c1.31-1.13 2.82-1.95 4.52-2.47s3.46-.78 5.27-.78c1.26 0 2.59.15 4 .44 1.41.3 2.73.83 3.97 1.61s2.25 1.87 3.03 3.28 1.17 3.24 1.17 5.5v20.59h-5.91v-4.25h-.31c-.41.8-1.01 1.57-1.8 2.33-.8.76-1.8 1.38-3.01 1.87s-2.66.74-4.34.74Zm1.36-4.91c1.67 0 3.09-.32 4.27-.97s2.09-1.51 2.72-2.58.94-2.21.94-3.41v-3.97q-.33.33-1.26.6c-.93.27-1.33.33-2.12.47s-1.56.25-2.3.35c-.74.09-1.35.17-1.83.22q-1.725.225-3.15.75t-2.28 1.5c-.56.65-.85 1.51-.85 2.58 0 .98.25 1.8.76 2.47q.765 1.005 2.07 1.5c.87.33 1.88.5 3.03.5Zm19.39 4.21v-31.03h5.8l.17 7.19h-.47c.44-1.76 1.13-3.2 2.05-4.33a9 9 0 0 1 3.25-2.54 9.4 9.4 0 0 1 3.89-.85c2.26 0 4.08.7 5.47 2.1s2.32 3.34 2.8 5.84h-.78c.41-1.7 1.11-3.15 2.11-4.33a9.8 9.8 0 0 1 3.62-2.69c1.42-.61 2.93-.92 4.54-.92 1.83 0 3.49.4 4.98 1.19 1.49.8 2.67 1.98 3.54 3.55s1.3 3.53 1.3 5.88v20.93h-6.11v-20.32c0-2.07-.58-3.57-1.73-4.5-1.16-.93-2.52-1.39-4.09-1.39-1.28 0-2.38.27-3.3.8a5.47 5.47 0 0 0-2.14 2.23c-.5.95-.75 2.05-.75 3.29v19.87h-6.02v-20.71c0-1.67-.53-3-1.6-4-1.06-1-2.42-1.5-4.07-1.5-1.13 0-2.18.26-3.15.79s-1.75 1.3-2.33 2.33-.87 2.29-.87 3.79v19.29h-6.11Zm61.02.64c-3.05 0-5.69-.66-7.91-1.97s-3.93-3.16-5.12-5.55-1.79-5.19-1.79-8.41.59-5.99 1.76-8.41c1.18-2.42 2.84-4.32 4.98-5.68 2.15-1.36 4.66-2.04 7.55-2.04q2.67 0 5.13.87 2.475.87 4.44 2.73c1.31 1.24 2.35 2.84 3.12 4.82.77 1.97 1.15 4.36 1.15 7.17v2.16H421.8v-4.55h21.59l-2.86 1.5c0-1.91-.3-3.58-.89-5.04-.59-1.45-1.47-2.59-2.62-3.4-1.16-.81-2.6-1.22-4.34-1.22s-3.19.42-4.41 1.25a8.05 8.05 0 0 0-2.79 3.29c-.64 1.36-.96 2.84-.96 4.45v3.11c0 2.13.37 3.93 1.1 5.4s1.75 2.58 3.07 3.33c1.31.75 2.84 1.12 4.58 1.12 1.15 0 2.18-.16 3.11-.49a6.3 6.3 0 0 0 2.4-1.47 6.5 6.5 0 0 0 1.54-2.43l5.74 1.36c-.5 1.59-1.34 3-2.51 4.22-1.18 1.22-2.64 2.17-4.39 2.84-1.75.68-3.73 1.01-5.95 1.01Z" style="fill:#fff"/></g></svg>