<svg xmlns="http://www.w3.org/2000/svg" data-name="Layer 2" viewBox="0 0 512 205"><defs><clipPath id="a"><path d="M0 0h512v205H0z" style="fill:none"/></clipPath></defs><g style="clip-path:url(#a)"><path d="M189.67 127.6V86.94h-23.55l3.13-9.54h55.15l-2.32 9.54h-22.93v40.66zm34.73 0V88.24h9.48v1.72c0-1.94 2.27-1.72 3.47-1.72h13.19l-2.34 9.48h-10.85c-.48 0-.9.08-1.3.25-.42.18-.78.43-1.11.75-.33.33-.59.72-.79 1.17-.18.41-.27.86-.27 1.36v26.34h-9.48Zm43.62 0c-1.81 0-3.53-.36-5.11-1.06-1.55-.69-2.93-1.63-4.1-2.8-1.19-1.18-2.12-2.59-2.79-4.18s-1.01-3.31-1.01-5.1V88.24h9.48v26.22q0 .795.27 1.47c.18.44.42.81.73 1.12.33.33.72.59 1.17.79.41.18.86.27 1.36.27h7.97l-2.34 9.48h-5.63Zm23.99 0c-1.76 0-3.46-.36-5.05-1.06-1.55-.69-2.93-1.63-4.1-2.8-1.19-1.18-2.12-2.59-2.79-4.18s-1.01-3.31-1.01-5.1v-13.08c0-1.79.34-3.5 1.01-5.1.66-1.59 1.6-2.99 2.79-4.18a13.4 13.4 0 0 1 4.1-2.8c1.59-.7 3.29-1.06 5.05-1.06h30.02l-2.32 9.55H292c-.48 0-.93.09-1.35.26-.43.18-.8.42-1.11.74-.33.33-.58.71-.78 1.18-.19.44-.28.9-.28 1.42v13.08c0 .51.09.98.28 1.41.2.47.46.85.78 1.18.33.33.72.59 1.17.79.41.18.84.27 1.3.27h26.06l-2.47 9.48h-23.58Zm44.91 0c-1.76 0-3.46-.36-5.05-1.06-1.55-.69-2.93-1.63-4.1-2.8-1.19-1.18-2.12-2.59-2.79-4.18s-1.01-3.31-1.01-5.1v-13.14c0-1.79.34-3.5 1.01-5.08.66-1.56 1.6-2.95 2.79-4.14a13.4 13.4 0 0 1 4.1-2.8c1.59-.7 3.29-1.06 5.05-1.06h22c1.8 0 3.52.36 5.11 1.06 1.56.69 2.93 1.64 4.09 2.82 1.15 1.17 2.07 2.54 2.75 4.08.7 1.59 1.06 3.31 1.06 5.11v13.14c0 1.8-.35 3.53-1.05 5.13-.68 1.57-1.61 2.95-2.76 4.13a13.2 13.2 0 0 1-4.09 2.82c-1.59.7-3.31 1.06-5.11 1.06h-22Zm0-29.87c-.46 0-.89.09-1.3.27-.45.2-.84.46-1.17.79-.32.32-.56.68-.74 1.11s-.26.89-.26 1.42v13.14q0 .795.27 1.47c.18.44.42.81.73 1.12.33.33.72.59 1.17.79.41.18.84.27 1.3.27h22c.5 0 .95-.09 1.36-.27.45-.2.84-.46 1.17-.8.31-.31.55-.68.73-1.12.18-.46.27-.94.27-1.47v-13.14c0-1.05-.32-1.87-1.02-2.58-.68-.69-1.48-1.02-2.51-1.02h-22Zm40.01 29.87V88.24h9.48v2.35c0-2.09 2.27-2.35 3.47-2.35h15.26l-2.34 9.48h-12.92c-.48 0-.9.08-1.3.25-.42.18-.78.43-1.11.75-.33.33-.59.72-.79 1.17-.18.41-.27.86-.27 1.36v26.34h-9.48Zm41.4 0c-1.81 0-3.53-.36-5.11-1.06-1.56-.69-2.95-1.65-4.12-2.85-1.17-1.19-2.1-2.59-2.79-4.16-.7-1.6-1.05-5-1.05-6.8v-11.28c0-1.79.35-3.53 1.05-5.15.69-1.6 1.63-3.01 2.81-4.19 1.17-1.17 2.56-2.12 4.1-2.8 1.59-.7 3.31-1.06 5.11-1.06h19.18c1.8 0 3.52.36 5.11 1.06 1.55.68 2.93 1.63 4.1 2.8 1.18 1.19 2.13 2.6 2.82 4.19.69 1.62 1.05 3.35 1.05 5.15s-.35 3.59-1.05 5.19c-.68 1.57-1.63 2.97-2.81 4.15a13.4 13.4 0 0 1-4.1 2.8c-1.59.7-3.31 1.06-5.11 1.06h-22.19c0 1.96.32 2.14.52 2.34.33.34.7.6 1.14.79.41.18.86.27 1.36.27h27.26l-2.32 9.54h-24.95Zm19.18-22.5c.5 0 .95-.09 1.36-.27.46-.2.84-.46 1.17-.79s.58-.71.78-1.18c.19-.44.28-.9.28-1.41s-.09-.95-.27-1.36c-.21-.47-.48-.87-.83-1.23-.32-.34-.7-.6-1.14-.79-.41-.18-.85-.27-1.36-.27h-19.18c-.5 0-.95.09-1.36.27-.44.19-.81.45-1.13.79-.33.35-.59.73-.77 1.18-.18.43-.26.89-.26 1.42v3.66h22.71ZM255 77.4h9.48v7.16H255zm-151.91 5.2L91.1 70.61a7.13 7.13 0 0 0-5.03-2.08H66.25c-2.67 0-4.83 2.16-4.83 4.83v18.46c0 2.67 2.16 4.83 4.83 4.83h19.82c1.89 0 3.7-.75 5.03-2.08s11.99-11.97 11.99-11.97m2.09 3.4L93.19 97.99a7.13 7.13 0 0 0-2.08 5.03v28.62c0 2.67 2.16 4.83 4.83 4.83h18.47c2.67 0 4.83-2.16 4.83-4.83v-28.62c0-1.89-.75-3.7-2.08-5.03L105.17 86Zm19.1-17.47c-1.89 0-3.7.75-5.03 2.08L107.26 82.6l11.99 11.97a7.13 7.13 0 0 0 5.03 2.08h19.82c2.67 0 4.83-2.16 4.83-4.83V73.36c0-2.67-2.16-4.83-4.83-4.83z" style="fill:#fff"/></g></svg>