<svg xmlns="http://www.w3.org/2000/svg" id="Layer_2" data-name="Layer 2" viewBox="0 0 512 205"><defs><style>.cls-1{fill:#fff}</style></defs><path d="M142.45 98.97V53.14l-37.7 49.54-37.7-49.54v45.83s-.82 16.51 10.57 28.1 16 18.18 27.13 25.47c11.13-7.29 15.74-13.88 27.13-25.47s10.57-28.1 10.57-28.1M82.96 121.4s-8.9-10.14-8.36-21.89l.33-25.35 5.43 7.14-.07 16.96s.36 10.86 5.61 17.44c5.01 6.28 14.41 14.28 14.85 23.11-3.4-2.56-9.13-7.62-17.79-17.41m8.6-11.72c-4.68-6.09-3.74-14.46-3.74-14.46v-4.98l5.8 8.48c1.01 9.47 11.13 15.55 11.13 15.55s10.12-6.08 11.13-15.54 5.8-8.49 5.8-8.49v4.98s.94 8.37-3.74 14.46c0 0-11.9 10.64-13.19 17.4-1.3-6.76-13.19-17.4-13.19-17.4m34.98 11.72c-8.66 9.8-14.39 14.85-17.79 17.41.44-8.83 9.84-16.82 14.85-23.11 5.25-6.59 5.61-17.44 5.61-17.44l-.07-16.96 5.43-7.14.33 25.35c.54 11.74-8.36 21.89-8.36 21.89" class="cls-1"/><path d="m122.43 69.27-17.68 23.09-17.68-23.09c13.48-3.94 17.68-16.82 17.68-16.82s4.19 12.88 17.68 16.82m54.67 48.65c-1.89 0-3.74-.25-5.55-.76s-3.46-1.31-4.95-2.41c-1.49-1.09-2.72-2.51-3.68-4.24s-1.56-3.81-1.78-6.23h6.34c.3 1.96.94 3.51 1.92 4.64a8.3 8.3 0 0 0 3.54 2.43c1.38.49 2.8.74 4.27.74s2.87-.24 4.07-.71c1.21-.47 2.17-1.16 2.89-2.07s1.08-2 1.08-3.28-.35-2.35-1.05-3.31-2.12-1.63-4.27-2.01l-7.02-1.3c-3.13-.6-5.61-1.89-7.44-3.85s-2.75-4.28-2.75-6.96c0-2.45.63-4.55 1.9-6.28q1.89-2.61 5.04-3.99c2.09-.92 4.4-1.39 6.93-1.39s5 .45 7.07 1.36 3.77 2.27 5.09 4.1 2.11 4.18 2.38 7.05h-6.45q-.39-2.55-1.56-4.02c-.77-.98-1.72-1.68-2.83-2.09s-2.31-.62-3.59-.62q-1.755 0-3.54.57c-1.19.38-2.16.98-2.91 1.81-.76.83-1.13 1.94-1.13 3.34 0 1.25.45 2.32 1.36 3.23s2.3 1.53 4.19 1.87l6.51 1.25c3.32.6 5.9 1.79 7.75 3.57 1.85 1.77 2.77 4.28 2.77 7.53 0 1.96-.42 3.7-1.25 5.21s-1.95 2.76-3.37 3.76c-1.41 1-2.98 1.76-4.7 2.29s-3.48.79-5.29.79Zm31.86 0c-2.83 0-5.33-.61-7.5-1.84a13.1 13.1 0 0 1-5.09-5.12c-1.23-2.19-1.84-4.72-1.84-7.58s.6-5.48 1.81-7.73c1.21-2.24 2.9-4 5.09-5.26s4.72-1.9 7.58-1.9 5.18.6 7.27 1.81 3.72 2.84 4.87 4.9 1.73 4.37 1.73 6.93v1.25c0 .45-.04.94-.11 1.47h-23.32v-4.41h16.58c-.11-1.96-.83-3.52-2.15-4.67s-2.94-1.73-4.87-1.73c-1.4 0-2.69.31-3.88.93s-2.14 1.55-2.86 2.77c-.72 1.23-1.08 2.78-1.08 4.67v1.64q0 2.61 1.05 4.47c.7 1.25 1.63 2.19 2.8 2.83s2.47.96 3.91.96q2.325 0 3.9-1.05c1.06-.7 1.83-1.63 2.32-2.8h6.9c-.49 1.81-1.35 3.42-2.58 4.84a13.5 13.5 0 0 1-4.5 3.37c-1.77.83-3.79 1.25-6.06 1.25Zm31.58 0c-2.83 0-5.34-.62-7.53-1.87a13.4 13.4 0 0 1-5.15-5.18c-1.25-2.21-1.87-4.76-1.87-7.67s.62-5.46 1.87-7.67 2.96-3.93 5.15-5.18 4.7-1.87 7.53-1.87c3.51 0 6.47.93 8.89 2.77 2.41 1.85 3.96 4.38 4.64 7.58H247c-.38-1.43-1.15-2.55-2.32-3.34s-2.57-1.19-4.19-1.19c-1.36 0-2.61.35-3.76 1.05s-2.07 1.7-2.75 3-1.02 2.91-1.02 4.84.34 3.5 1.02 4.84 1.59 2.36 2.75 3.06c1.15.7 2.41 1.05 3.76 1.05 1.62 0 3.02-.4 4.19-1.19s1.94-1.92 2.32-3.4h7.07c-.64 3.09-2.18 5.59-4.61 7.5s-5.4 2.86-8.91 2.86Zm27.56 0c-3.17 0-5.69-1.08-7.56-3.25s-2.8-5.35-2.8-9.54V89.17h6.73v15.28c0 2.53.49 4.44 1.47 5.74s2.4 1.95 4.24 1.95c2.07 0 3.71-.74 4.9-2.21s1.78-3.57 1.78-6.28V89.16h6.79v28.07h-6.79v-4.24c-.83 1.55-1.98 2.75-3.45 3.62s-3.25 1.3-5.32 1.3Zm33.96-.68-14.54-39.62h7.24l11.43 32.6 11.49-32.6h7.19l-14.54 39.62h-8.26Zm30.5.68c-2.15 0-3.98-.39-5.49-1.16s-2.66-1.8-3.45-3.08a7.84 7.84 0 0 1-1.19-4.19c0-2.94 1.07-5.23 3.2-6.85q3.195-2.43 8.4-2.43c1.58 0 2.99.12 4.22.37s2.22.48 2.97.71v-1.3c0-2.07-.58-3.6-1.73-4.58s-2.65-1.47-4.5-1.47c-1.36 0-2.57.27-3.62.82q-1.59.825-2.04 2.97h-6.45c.23-2.04.91-3.74 2.04-5.09 1.13-1.36 2.58-2.39 4.33-3.08 1.75-.7 3.67-1.05 5.74-1.05 4.11 0 7.31 1.01 9.59 3.03Q348 94.57 348 100v6.85c0 1.43.08 2.48.25 3.14s.45 1.08.85 1.25.91.25 1.56.25h.28v5.77h-1.53c-1.92 0-3.54-.27-4.84-.82s-2.22-1.63-2.75-3.25c-.94 1.36-2.19 2.49-3.74 3.4s-3.4 1.36-5.55 1.36Zm1.47-5.26c1.32 0 2.45-.31 3.4-.93.94-.62 1.71-1.45 2.29-2.49s.97-2.18 1.16-3.42c-.79-.23-1.74-.45-2.83-.68s-2.21-.34-3.34-.34c-1.7 0-3.03.38-3.99 1.13-.96.76-1.44 1.77-1.44 3.06 0 1.06.42 1.93 1.27 2.63q1.275 1.05 3.48 1.05Zm20.49 4.58V89.17h6.79v4.36c.94-1.55 2.22-2.77 3.82-3.68s3.44-1.36 5.52-1.36c3.47 0 6.17 1.08 8.09 3.25s2.89 5.35 2.89 9.54v15.96h-6.79v-15.28c0-2.53-.52-4.44-1.56-5.74s-2.61-1.95-4.73-1.95-3.8.74-5.18 2.21-2.07 3.57-2.07 6.28v14.49h-6.79Zm45.56.68c-2.83 0-5.34-.62-7.53-1.87a13.4 13.4 0 0 1-5.15-5.18c-1.25-2.21-1.87-4.76-1.87-7.67s.62-5.46 1.87-7.67 2.96-3.93 5.15-5.18 4.7-1.87 7.53-1.87c3.51 0 6.47.93 8.89 2.77 2.41 1.85 3.96 4.38 4.64 7.58h-7.07c-.38-1.43-1.15-2.55-2.32-3.34s-2.57-1.19-4.19-1.19c-1.36 0-2.61.35-3.76 1.05s-2.07 1.7-2.75 3-1.02 2.91-1.02 4.84.34 3.5 1.02 4.84 1.59 2.36 2.75 3.06c1.15.7 2.41 1.05 3.76 1.05 1.62 0 3.02-.4 4.19-1.19s1.94-1.92 2.32-3.4h7.07c-.64 3.09-2.18 5.59-4.61 7.5s-5.4 2.86-8.91 2.86Zm30.95 0c-2.83 0-5.33-.61-7.5-1.84a13.1 13.1 0 0 1-5.09-5.12c-1.23-2.19-1.84-4.72-1.84-7.58s.6-5.48 1.81-7.73c1.21-2.24 2.9-4 5.09-5.26s4.72-1.9 7.58-1.9 5.18.6 7.27 1.81 3.72 2.84 4.87 4.9 1.73 4.37 1.73 6.93v1.25c0 .45-.04.94-.11 1.47h-23.32v-4.41h16.58c-.11-1.96-.83-3.52-2.15-4.67s-2.94-1.73-4.87-1.73c-1.4 0-2.69.31-3.88.93s-2.14 1.55-2.86 2.77c-.72 1.23-1.08 2.78-1.08 4.67v1.64q0 2.61 1.05 4.47c.7 1.25 1.63 2.19 2.8 2.83s2.47.96 3.91.96q2.325 0 3.9-1.05c1.06-.7 1.83-1.63 2.32-2.8h6.9c-.49 1.81-1.35 3.42-2.58 4.84a13.5 13.5 0 0 1-4.5 3.37c-1.77.83-3.79 1.25-6.06 1.25Z" class="cls-1"/></svg>