<svg xmlns="http://www.w3.org/2000/svg" id="Layer_2" data-name="Layer 2" viewBox="0 0 512 205"><defs><clipPath id="clippath"><path d="M0 0h512v205H0z" style="fill:none"/></clipPath><style>.cls-1{fill:#fff}</style></defs><g style="clip-path:url(#clippath)"><path d="M99.78 143.8c0 .44-.18.83-.46 1.12s-.68.46-1.12.46-.83-.18-1.12-.46c-.29-.29-.46-.68-.46-1.12s.18-.83.46-1.12.68-.46 1.12-.46c.87 0 1.58.71 1.58 1.58m10.16 0c0 .44-.18.83-.46 1.12-.29.29-.68.46-1.12.46s-.83-.18-1.12-.46c-.28-.29-.46-.68-.46-1.12s.18-.83.46-1.12a1.583 1.583 0 0 1 2.7 1.12" class="cls-1"/><path d="M99.78 143.8c0 .44-.18.83-.46 1.12s-.68.46-1.12.46-.83-.18-1.12-.46c-.29-.29-.46-.68-.46-1.12s.18-.83.46-1.12.68-.46 1.12-.46c.87 0 1.58.71 1.58 1.58m10.16 0c0 .44-.18.83-.46 1.12-.29.29-.68.46-1.12.46s-.83-.18-1.12-.46c-.28-.29-.46-.68-.46-1.12s.18-.83.46-1.12a1.583 1.583 0 0 1 2.7 1.12" class="cls-1"/><path d="M109.94 143.8c0 .44-.18.83-.46 1.12-.29.29-.68.46-1.12.46s-.83-.18-1.12-.46c-.28-.29-.46-.68-.46-1.12s.18-.83.46-1.12a1.583 1.583 0 0 1 2.7 1.12m-10.16 0c0 .44-.18.83-.46 1.12s-.68.46-1.12.46-.83-.18-1.12-.46c-.29-.29-.46-.68-.46-1.12s.18-.83.46-1.12.68-.46 1.12-.46c.87 0 1.58.71 1.58 1.58" class="cls-1"/><path d="M119.5 139.3a61.3 61.3 0 0 0-4.23-9.34l-5.5-9.87a3.32 3.32 0 0 0-2.91-1.71h-7.15c-1.21 0-2.32.66-2.91 1.71l-5.5 9.87a65 65 0 0 0-2.31 4.58c-.71 1.56-1.35 3.15-1.92 4.76-.13.36-.19.73-.19 1.11v.53c0 5.65 4.58 10.22 10.22 10.22h12.38c5.65 0 10.22-4.58 10.22-10.22v-.53c0-.38-.07-.75-.19-1.11Zm-10.29 10.32H97.35c-3.93 0-7.11-3.18-7.11-7.11 0-1.96.8-3.74 2.08-5.03a7.07 7.07 0 0 1 5.03-2.08h11.86c3.93 0 7.11 3.18 7.11 7.11s-3.18 7.11-7.11 7.11m-42.87-31.65a1.575 1.575 0 0 1-1.37 2.37c-.55 0-1.08-.28-1.37-.79-.14-.25-.21-.52-.21-.79 0-.55.28-1.08.79-1.37.25-.14.52-.21.79-.21.55 0 1.08.28 1.37.79m5.08 8.79a1.575 1.575 0 0 1-1.37 2.37c-.55 0-1.08-.28-1.37-.79-.14-.25-.21-.52-.21-.79 0-.55.28-1.08.79-1.37.25-.14.52-.21.79-.21.55 0 1.08.28 1.37.79" class="cls-1"/><path d="m91.32 113.53-3.58-6.19a3.33 3.33 0 0 0-2.94-1.67l-11.3.17c-1.71.03-3.42.12-5.12.29s-3.4.41-5.08.72c-.37.07-.73.2-1.06.39s-.46.27-.46.27c-4.89 2.82-6.57 9.08-3.74 13.97l6.19 10.72c2.82 4.89 9.08 6.56 13.97 3.74l.46-.26c.33-.19.62-.44.87-.73 2.22-2.61 4.22-5.4 5.98-8.34l5.8-9.7c.62-1.04.63-2.33.03-3.38ZM75.15 133.8c-3.4 1.96-7.75.8-9.71-2.6l-5.93-10.27c-1.96-3.4-.8-7.75 2.6-9.71 1.12-.65 2.34-.95 3.55-.95 2.46 0 4.85 1.28 6.16 3.56l5.93 10.27c1.96 3.4.8 7.75-2.6 9.71Z" class="cls-1"/><path d="M66.34 117.97a1.575 1.575 0 0 1-1.37 2.37c-.55 0-1.08-.28-1.37-.79-.14-.25-.21-.52-.21-.79 0-.55.28-1.08.79-1.37.25-.14.52-.21.79-.21.55 0 1.08.28 1.37.79m4.5 10.95c-.25.14-.52.21-.79.21-.55 0-1.08-.28-1.37-.79-.14-.25-.21-.52-.21-.79 0-.55.28-1.08.79-1.37.25-.14.52-.21.79-.21.55 0 1.08.28 1.37.79.44.76.18 1.72-.58 2.16" class="cls-1"/><path d="M70.84 128.92c-.25.14-.52.21-.79.21-.55 0-1.08-.28-1.37-.79-.14-.25-.21-.52-.21-.79 0-.55.28-1.08.79-1.37.25-.14.52-.21.79-.21.55 0 1.08.28 1.37.79.44.76.18 1.72-.58 2.16m-5.08-8.8c-.25.14-.52.21-.79.21-.55 0-1.08-.28-1.37-.79-.14-.25-.21-.52-.21-.79 0-.55.28-1.08.79-1.37.25-.14.52-.21.79-.21.55 0 1.08.28 1.37.79.44.76.18 1.72-.58 2.16m.79-33.87c0 .27-.07.54-.21.79-.44.75-1.4 1.01-2.16.58-.51-.29-.79-.82-.79-1.37 0-.27.07-.54.21-.79.29-.51.82-.79 1.37-.79.27 0 .54.07.79.21.51.29.79.82.79 1.37m5.08-8.8c0 .27-.07.54-.21.79-.44.75-1.4 1.01-2.16.58-.51-.29-.79-.82-.79-1.37 0-.27.07-.54.21-.79.29-.51.82-.79 1.37-.79.27 0 .54.07.79.21.51.29.79.82.79 1.37" class="cls-1"/><path d="m91.3 88.09-5.8-9.7c-.88-1.47-1.82-2.9-2.81-4.29-1-1.39-2.05-2.74-3.16-4.04-.24-.29-.54-.53-.87-.72s-.46-.27-.46-.27a10.23 10.23 0 0 0-13.97 3.74l-6.19 10.72a10.23 10.23 0 0 0 3.74 13.97l.46.26c.33.19.69.32 1.06.39 3.37.62 6.78.95 10.21 1.01l11.3.17c1.21.02 2.33-.62 2.94-1.67l3.58-6.19c.6-1.05.59-2.34-.03-3.38m-13.55-7.17-5.93 10.27c-1.96 3.4-6.31 4.57-9.71 2.6s-4.57-6.31-2.6-9.71l5.93-10.27a7.1 7.1 0 0 1 9.71-2.6 7.12 7.12 0 0 1 3.56 6.16c0 1.21-.31 2.43-.95 3.55Z" class="cls-1"/><path d="M66.55 86.25c0 .27-.07.54-.21.79-.44.75-1.4 1.01-2.16.58-.51-.29-.79-.82-.79-1.37 0-.27.07-.54.21-.79.29-.51.82-.79 1.37-.79.27 0 .54.07.79.21.51.29.79.82.79 1.37m5.08-8.8c0 .27-.07.54-.21.79-.44.75-1.4 1.01-2.16.58-.51-.29-.79-.82-.79-1.37 0-.27.07-.54.21-.79.29-.51.82-.79 1.37-.79.27 0 .54.07.79.21.51.29.79.82.79 1.37" class="cls-1"/><path d="M66.55 86.25c0 .27-.07.54-.21.79-.44.75-1.4 1.01-2.16.58-.51-.29-.79-.82-.79-1.37 0-.27.07-.54.21-.79.29-.51.82-.79 1.37-.79.27 0 .54.07.79.21.51.29.79.82.79 1.37m5.08-8.8c0 .27-.07.54-.21.79-.44.75-1.4 1.01-2.16.58-.51-.29-.79-.82-.79-1.37 0-.27.07-.54.21-.79.29-.51.82-.79 1.37-.79.27 0 .54.07.79.21.51.29.79.82.79 1.37m27.69-17.37c.28.29.46.68.46 1.12s-.18.83-.46 1.12a1.583 1.583 0 0 1-2.24-2.24c.29-.28.68-.46 1.12-.46s.83.18 1.12.46m10.15 0c.29.29.46.68.46 1.12s-.18.83-.46 1.12a1.583 1.583 0 0 1-2.24-2.24c.28-.28.68-.46 1.12-.46s.83.18 1.12.46" class="cls-1"/><path d="M109.47 53.84H97.09c-5.65 0-10.22 4.58-10.22 10.22v.53c0 .38.07.75.19 1.11 1.15 3.23 2.56 6.35 4.23 9.34l5.5 9.87c.59 1.06 1.7 1.71 2.91 1.71h7.15c1.21 0 2.32-.65 2.91-1.71l5.5-9.87a65 65 0 0 0 2.31-4.58c.71-1.56 1.35-3.15 1.92-4.76.13-.36.19-.73.19-1.11v-.53c0-5.65-4.58-10.23-10.22-10.23Zm4.77 13.68a7.07 7.07 0 0 1-5.03 2.08H97.35c-3.93 0-7.11-3.18-7.11-7.11s3.18-7.11 7.11-7.11h11.86c3.93 0 7.11 3.18 7.11 7.11 0 1.96-.8 3.74-2.08 5.03" class="cls-1"/><path d="M99.32 60.08c.28.29.46.68.46 1.12s-.18.83-.46 1.12a1.583 1.583 0 0 1-2.24-2.24c.29-.28.68-.46 1.12-.46s.83.18 1.12.46m10.62 1.12c0 .44-.18.83-.46 1.12a1.583 1.583 0 0 1-2.24-2.24c.28-.28.68-.46 1.12-.46s.83.18 1.12.46c.29.29.46.68.46 1.12" class="cls-1"/><path d="M99.78 61.2c0 .44-.18.83-.46 1.12a1.583 1.583 0 0 1-2.24-2.24c.29-.28.68-.46 1.12-.46s.83.18 1.12.46c.28.29.46.68.46 1.12m10.16 0c0 .44-.18.83-.46 1.12a1.583 1.583 0 0 1-2.24-2.24c.28-.28.68-.46 1.12-.46s.83.18 1.12.46c.29.29.46.68.46 1.12" class="cls-1"/><g id="_Radial_Repeat_" data-name="&amp;lt;Radial Repeat&amp;gt;"><path d="M137.88 76.66c.14.25.21.52.21.79 0 .55-.28 1.08-.79 1.37-.25.14-.52.21-.79.21-.55 0-1.08-.28-1.37-.79a1.578 1.578 0 0 1 1.37-2.37c.55 0 1.08.28 1.37.79m5.08 8.8c.14.25.21.52.21.79 0 .55-.28 1.08-.79 1.37-.25.14-.52.21-.79.21-.55 0-1.08-.28-1.37-.79a1.575 1.575 0 0 1 1.37-2.37c.55 0 1.08.28 1.37.79" class="cls-1"/><path d="m148.52 83.53-6.18-10.7c-2.83-4.91-9.11-6.59-14.01-3.75l-.43.25c-.34.2-.65.46-.9.76-2.21 2.6-4.19 5.37-5.94 8.3l-5.8 9.7a3.35 3.35 0 0 0-.03 3.38l3.58 6.19c.6 1.05 1.73 1.69 2.94 1.67l11.3-.17a61 61 0 0 0 9.37-.86c.54-.09 1.39-.34 1.89-.54l.45-.26c4.89-2.82 6.57-9.08 3.74-13.97Zm-4.07 10.26c-1.12.65-2.34.95-3.55.95-2.46 0-4.85-1.28-6.16-3.56l-5.93-10.27c-1.96-3.4-.8-7.75 2.6-9.71s7.75-.8 9.71 2.6l5.93 10.27c1.96 3.4.8 7.75-2.6 9.71Z" class="cls-1"/><path d="M137.88 76.66c.14.25.21.52.21.79 0 .55-.28 1.08-.79 1.37-.25.14-.52.21-.79.21-.55 0-1.08-.28-1.37-.79a1.578 1.578 0 0 1 1.37-2.37c.55 0 1.08.28 1.37.79m5.29 9.58c0 .55-.28 1.08-.79 1.37-.25.14-.52.21-.79.21-.55 0-1.08-.28-1.37-.79a1.575 1.575 0 0 1 1.37-2.37c.55 0 1.08.28 1.37.79.14.25.21.52.21.79" class="cls-1"/><path d="M138.09 77.45c0 .55-.28 1.08-.79 1.37-.25.14-.52.21-.79.21-.55 0-1.08-.28-1.37-.79a1.578 1.578 0 0 1 1.37-2.37c.55 0 1.08.28 1.37.79.14.25.21.52.21.79m5.08 8.79c0 .55-.28 1.08-.79 1.37-.25.14-.52.21-.79.21-.55 0-1.08-.28-1.37-.79a1.575 1.575 0 0 1 1.37-2.37c.55 0 1.08.28 1.37.79.14.25.21.52.21.79" class="cls-1"/></g><path d="M138.09 127.55c0 .27-.07.54-.21.79-.29.51-.82.79-1.37.79-.27 0-.54-.07-.79-.21-.51-.29-.79-.82-.79-1.37 0-.27.07-.54.21-.79.44-.75 1.4-1.01 2.16-.58.51.29.79.82.79 1.37m5.08-8.79c0 .27-.07.54-.21.79-.29.51-.82.79-1.37.79-.27 0-.54-.07-.79-.21-.51-.29-.79-.82-.79-1.37 0-.27.07-.54.21-.79.44-.76 1.4-1.01 2.16-.58.51.29.79.82.79 1.37" class="cls-1"/><path d="m144.78 107.5-.46-.26c-.33-.19-.69-.32-1.06-.39-3.37-.62-6.78-.96-10.21-1.01l-11.3-.17c-1.21-.02-2.33.62-2.94 1.67l-3.58 6.19a3.35 3.35 0 0 0 .03 3.38l5.8 9.7c.88 1.47 1.82 2.9 2.81 4.29 1 1.39 2.05 2.74 3.16 4.04.24.29.54.53.87.72s.46.27.46.27a10.23 10.23 0 0 0 13.97-3.74l6.19-10.72a10.23 10.23 0 0 0-3.74-13.97m2.27 13.43-5.93 10.27a7.1 7.1 0 0 1-9.71 2.6 7.12 7.12 0 0 1-3.56-6.16c0-1.21.31-2.43.95-3.55l5.93-10.27c1.96-3.4 6.31-4.57 9.71-2.6s4.57 6.31 2.6 9.71Z" class="cls-1"/><path d="M138.09 127.55c0 .27-.07.54-.21.79-.29.51-.82.79-1.37.79-.27 0-.54-.07-.79-.21-.51-.29-.79-.82-.79-1.37 0-.27.07-.54.21-.79.44-.75 1.4-1.01 2.16-.58.51.29.79.82.79 1.37m5.08-8.79c0 .27-.07.54-.21.79-.29.51-.82.79-1.37.79-.27 0-.54-.07-.79-.21-.51-.29-.79-.82-.79-1.37 0-.27.07-.54.21-.79.44-.76 1.4-1.01 2.16-.58.51.29.79.82.79 1.37" class="cls-1"/><path d="M143.17 118.76c0 .27-.07.54-.21.79-.29.51-.82.79-1.37.79-.27 0-.54-.07-.79-.21-.51-.29-.79-.82-.79-1.37 0-.27.07-.54.21-.79.44-.76 1.4-1.01 2.16-.58.51.29.79.82.79 1.37m-5.08 8.79c0 .27-.07.54-.21.79-.29.51-.82.79-1.37.79-.27 0-.54-.07-.79-.21-.51-.29-.79-.82-.79-1.37 0-.27.07-.54.21-.79.44-.75 1.4-1.01 2.16-.58.51.29.79.82.79 1.37m-34.81-37.17c-4.33 0-8.33 2.31-10.49 6.06a12.14 12.14 0 0 0 0 12.12c2.16 3.75 6.16 6.06 10.49 6.06s8.33-2.31 10.49-6.06 2.16-8.37 0-12.12a12.1 12.1 0 0 0-10.49-6.06m79.06 32.91c-3.61 0-6.82-.82-9.65-2.45s-5.06-3.99-6.7-7.09-2.46-6.84-2.46-11.22.82-8.16 2.47-11.26c1.65-3.11 3.9-5.48 6.74-7.11s6.04-2.45 9.59-2.45c3.06 0 5.83.57 8.32 1.7 2.48 1.13 4.52 2.77 6.11 4.92s2.59 4.73 2.99 7.76h-8.4c-.38-2.19-1.37-3.91-2.98-5.15q-2.4-1.86-5.88-1.86c-3.15 0-5.7 1.17-7.64 3.51s-2.91 5.65-2.91 9.95.97 7.71 2.92 9.99c1.95 2.27 4.48 3.41 7.6 3.41q3.45 0 5.88-1.86c1.62-1.24 2.63-2.97 3.03-5.18h8.4c-.31 2.52-1.2 4.87-2.66 7.05q-2.205 3.27-5.94 5.31c-3.735 2.04-5.44 2.04-8.85 2.04Zm28.43-41.04v40.49h-8.29V82.25zm4 40.5V82.26h15.79c4.6 0 8.17 1.2 10.69 3.6 2.53 2.4 3.79 5.59 3.79 9.58 0 2.77-.62 5.14-1.85 7.11s-3.01 3.44-5.33 4.42l8.61 15.79h-9.19l-7.72-14.46h-6.52v14.46h-8.29Zm8.29-21.17h5.98c4.96 0 7.45-2.05 7.45-6.14 0-2.05-.61-3.61-1.83-4.7s-3.1-1.63-5.64-1.63h-5.95v12.47Zm24.93 21.17V82.26h15.79c4.6 0 8.17 1.2 10.69 3.6 2.53 2.4 3.79 5.59 3.79 9.58 0 2.77-.62 5.14-1.85 7.11s-3.01 3.44-5.33 4.42l8.61 15.79h-9.19l-7.72-14.46h-6.52v14.46h-8.29Zm8.28-21.17h5.98c4.96 0 7.45-2.05 7.45-6.14 0-2.05-.61-3.61-1.83-4.7s-3.1-1.63-5.64-1.63h-5.95v12.47Zm42.7 21.71c-3.57 0-6.78-.82-9.63-2.45s-5.11-3.99-6.77-7.09q-2.49-4.65-2.49-11.22c0-6.57.83-8.16 2.49-11.26s3.91-5.48 6.77-7.11c2.85-1.63 6.06-2.45 9.63-2.45s6.8.82 9.65 2.45c2.84 1.63 5.1 4 6.75 7.11 1.66 3.11 2.49 6.86 2.49 11.26s-.83 8.15-2.49 11.24q-2.49 4.635-6.75 7.08c-4.26 2.445-6.06 2.45-9.65 2.45Zm0-7.36c3.15 0 5.68-1.15 7.6-3.44 1.91-2.29 2.87-5.61 2.87-9.96s-.96-7.7-2.87-10-4.44-3.45-7.6-3.45-5.66 1.16-7.58 3.47q-2.88 3.465-2.88 9.99c0 6.525.96 7.65 2.88 9.95s4.45 3.45 7.58 3.45Zm18.38-26.8v-6.88h33.07v6.88h-12.37v33.62h-8.32V89.13h-12.39Zm35.44 33.62V82.26h27.1v6.88h-18.81v9.78h17.39v6.77h-17.39v10.19h18.86v6.88h-27.15Zm48.16.54c-3.61 0-6.82-.82-9.65-2.45s-5.06-3.99-6.7-7.09-2.46-6.84-2.46-11.22.82-8.16 2.47-11.26c1.65-3.11 3.9-5.48 6.74-7.11s6.04-2.45 9.59-2.45c3.06 0 5.83.57 8.32 1.7 2.48 1.13 4.52 2.77 6.11 4.92s2.59 4.73 2.99 7.76h-8.4c-.38-2.19-1.37-3.91-2.98-5.15q-2.4-1.86-5.88-1.86c-3.15 0-5.7 1.17-7.64 3.51s-2.91 5.65-2.91 9.95.97 7.71 2.92 9.99c1.95 2.27 4.48 3.41 7.6 3.41q3.45 0 5.88-1.86c1.62-1.24 2.63-2.97 3.03-5.18h8.4c-.31 2.52-1.2 4.87-2.66 7.05q-2.205 3.27-5.94 5.31c-3.735 2.04-5.44 2.04-8.85 2.04Zm20.14-.54V82.26h8.29v16.36h17.64V82.26h8.32v40.49h-8.32v-17.26h-17.64v17.26zM99.78 143.8c0 .44-.18.83-.46 1.12s-.68.46-1.12.46-.83-.18-1.12-.46c-.29-.29-.46-.68-.46-1.12s.18-.83.46-1.12.68-.46 1.12-.46c.87 0 1.58.71 1.58 1.58m10.16 0c0 .44-.18.83-.46 1.12-.29.29-.68.46-1.12.46s-.83-.18-1.12-.46c-.28-.29-.46-.68-.46-1.12s.18-.83.46-1.12a1.583 1.583 0 0 1 2.7 1.12" class="cls-1"/><path d="M99.78 143.8c0 .44-.18.83-.46 1.12s-.68.46-1.12.46-.83-.18-1.12-.46c-.29-.29-.46-.68-.46-1.12s.18-.83.46-1.12.68-.46 1.12-.46c.87 0 1.58.71 1.58 1.58m10.16 0c0 .44-.18.83-.46 1.12-.29.29-.68.46-1.12.46s-.83-.18-1.12-.46c-.28-.29-.46-.68-.46-1.12s.18-.83.46-1.12a1.583 1.583 0 0 1 2.7 1.12" class="cls-1"/><path d="M109.94 143.8c0 .44-.18.83-.46 1.12-.29.29-.68.46-1.12.46s-.83-.18-1.12-.46c-.28-.29-.46-.68-.46-1.12s.18-.83.46-1.12a1.583 1.583 0 0 1 2.7 1.12m-10.16 0c0 .44-.18.83-.46 1.12s-.68.46-1.12.46-.83-.18-1.12-.46c-.29-.29-.46-.68-.46-1.12s.18-.83.46-1.12.68-.46 1.12-.46c.87 0 1.58.71 1.58 1.58" class="cls-1"/><path d="M119.5 139.3a61.3 61.3 0 0 0-4.23-9.34l-5.5-9.87a3.32 3.32 0 0 0-2.91-1.71h-7.15c-1.21 0-2.32.66-2.91 1.71l-5.5 9.87a65 65 0 0 0-2.31 4.58c-.71 1.56-1.35 3.15-1.92 4.76-.13.36-.19.73-.19 1.11v.53c0 5.65 4.58 10.22 10.22 10.22h12.38c5.65 0 10.22-4.58 10.22-10.22v-.53c0-.38-.07-.75-.19-1.11Zm-10.29 10.32H97.35c-3.93 0-7.11-3.18-7.11-7.11 0-1.96.8-3.74 2.08-5.03a7.07 7.07 0 0 1 5.03-2.08h11.86c3.93 0 7.11 3.18 7.11 7.11s-3.18 7.11-7.11 7.11m-42.87-31.65a1.575 1.575 0 0 1-1.37 2.37c-.55 0-1.08-.28-1.37-.79-.14-.25-.21-.52-.21-.79 0-.55.28-1.08.79-1.37.25-.14.52-.21.79-.21.55 0 1.08.28 1.37.79m5.08 8.79a1.575 1.575 0 0 1-1.37 2.37c-.55 0-1.08-.28-1.37-.79-.14-.25-.21-.52-.21-.79 0-.55.28-1.08.79-1.37.25-.14.52-.21.79-.21.55 0 1.08.28 1.37.79" class="cls-1"/><path d="m91.32 113.53-3.58-6.19a3.33 3.33 0 0 0-2.94-1.67l-11.3.17c-1.71.03-3.42.12-5.12.29s-3.4.41-5.08.72c-.37.07-.73.2-1.06.39s-.46.27-.46.27c-4.89 2.82-6.57 9.08-3.74 13.97l6.19 10.72c2.82 4.89 9.08 6.56 13.97 3.74l.46-.26c.33-.19.62-.44.87-.73 2.22-2.61 4.22-5.4 5.98-8.34l5.8-9.7c.62-1.04.63-2.33.03-3.38ZM75.15 133.8c-3.4 1.96-7.75.8-9.71-2.6l-5.93-10.27c-1.96-3.4-.8-7.75 2.6-9.71 1.12-.65 2.34-.95 3.55-.95 2.46 0 4.85 1.28 6.16 3.56l5.93 10.27c1.96 3.4.8 7.75-2.6 9.71Z" class="cls-1"/><path d="M66.34 117.97a1.575 1.575 0 0 1-1.37 2.37c-.55 0-1.08-.28-1.37-.79-.14-.25-.21-.52-.21-.79 0-.55.28-1.08.79-1.37.25-.14.52-.21.79-.21.55 0 1.08.28 1.37.79m4.5 10.95c-.25.14-.52.21-.79.21-.55 0-1.08-.28-1.37-.79-.14-.25-.21-.52-.21-.79 0-.55.28-1.08.79-1.37.25-.14.52-.21.79-.21.55 0 1.08.28 1.37.79.44.76.18 1.72-.58 2.16" class="cls-1"/><path d="M70.84 128.92c-.25.14-.52.21-.79.21-.55 0-1.08-.28-1.37-.79-.14-.25-.21-.52-.21-.79 0-.55.28-1.08.79-1.37.25-.14.52-.21.79-.21.55 0 1.08.28 1.37.79.44.76.18 1.72-.58 2.16m-5.08-8.8c-.25.14-.52.21-.79.21-.55 0-1.08-.28-1.37-.79-.14-.25-.21-.52-.21-.79 0-.55.28-1.08.79-1.37.25-.14.52-.21.79-.21.55 0 1.08.28 1.37.79.44.76.18 1.72-.58 2.16m.79-33.87c0 .27-.07.54-.21.79-.44.75-1.4 1.01-2.16.58-.51-.29-.79-.82-.79-1.37 0-.27.07-.54.21-.79.29-.51.82-.79 1.37-.79.27 0 .54.07.79.21.51.29.79.82.79 1.37m5.08-8.8c0 .27-.07.54-.21.79-.44.75-1.4 1.01-2.16.58-.51-.29-.79-.82-.79-1.37 0-.27.07-.54.21-.79.29-.51.82-.79 1.37-.79.27 0 .54.07.79.21.51.29.79.82.79 1.37" class="cls-1"/><path d="m91.3 88.09-5.8-9.7c-.88-1.47-1.82-2.9-2.81-4.29-1-1.39-2.05-2.74-3.16-4.04-.24-.29-.54-.53-.87-.72s-.46-.27-.46-.27a10.23 10.23 0 0 0-13.97 3.74l-6.19 10.72a10.23 10.23 0 0 0 3.74 13.97l.46.26c.33.19.69.32 1.06.39 3.37.62 6.78.95 10.21 1.01l11.3.17c1.21.02 2.33-.62 2.94-1.67l3.58-6.19c.6-1.05.59-2.34-.03-3.38m-13.55-7.17-5.93 10.27c-1.96 3.4-6.31 4.57-9.71 2.6s-4.57-6.31-2.6-9.71l5.93-10.27a7.1 7.1 0 0 1 9.71-2.6 7.12 7.12 0 0 1 3.56 6.16c0 1.21-.31 2.43-.95 3.55Z" class="cls-1"/><path d="M66.55 86.25c0 .27-.07.54-.21.79-.44.75-1.4 1.01-2.16.58-.51-.29-.79-.82-.79-1.37 0-.27.07-.54.21-.79.29-.51.82-.79 1.37-.79.27 0 .54.07.79.21.51.29.79.82.79 1.37m5.08-8.8c0 .27-.07.54-.21.79-.44.75-1.4 1.01-2.16.58-.51-.29-.79-.82-.79-1.37 0-.27.07-.54.21-.79.29-.51.82-.79 1.37-.79.27 0 .54.07.79.21.51.29.79.82.79 1.37" class="cls-1"/><path d="M66.55 86.25c0 .27-.07.54-.21.79-.44.75-1.4 1.01-2.16.58-.51-.29-.79-.82-.79-1.37 0-.27.07-.54.21-.79.29-.51.82-.79 1.37-.79.27 0 .54.07.79.21.51.29.79.82.79 1.37m5.08-8.8c0 .27-.07.54-.21.79-.44.75-1.4 1.01-2.16.58-.51-.29-.79-.82-.79-1.37 0-.27.07-.54.21-.79.29-.51.82-.79 1.37-.79.27 0 .54.07.79.21.51.29.79.82.79 1.37m27.69-17.37c.28.29.46.68.46 1.12s-.18.83-.46 1.12a1.583 1.583 0 0 1-2.24-2.24c.29-.28.68-.46 1.12-.46s.83.18 1.12.46m10.15 0c.29.29.46.68.46 1.12s-.18.83-.46 1.12a1.583 1.583 0 0 1-2.24-2.24c.28-.28.68-.46 1.12-.46s.83.18 1.12.46" class="cls-1"/><path d="M109.47 53.84H97.09c-5.65 0-10.22 4.58-10.22 10.22v.53c0 .38.07.75.19 1.11 1.15 3.23 2.56 6.35 4.23 9.34l5.5 9.87c.59 1.06 1.7 1.71 2.91 1.71h7.15c1.21 0 2.32-.65 2.91-1.71l5.5-9.87a65 65 0 0 0 2.31-4.58c.71-1.56 1.35-3.15 1.92-4.76.13-.36.19-.73.19-1.11v-.53c0-5.65-4.58-10.23-10.22-10.23Zm4.77 13.68a7.07 7.07 0 0 1-5.03 2.08H97.35c-3.93 0-7.11-3.18-7.11-7.11s3.18-7.11 7.11-7.11h11.86c3.93 0 7.11 3.18 7.11 7.11 0 1.96-.8 3.74-2.08 5.03" class="cls-1"/><path d="M99.32 60.08c.28.29.46.68.46 1.12s-.18.83-.46 1.12a1.583 1.583 0 0 1-2.24-2.24c.29-.28.68-.46 1.12-.46s.83.18 1.12.46m10.62 1.12c0 .44-.18.83-.46 1.12a1.583 1.583 0 0 1-2.24-2.24c.28-.28.68-.46 1.12-.46s.83.18 1.12.46c.29.29.46.68.46 1.12" class="cls-1"/><path d="M99.78 61.2c0 .44-.18.83-.46 1.12a1.583 1.583 0 0 1-2.24-2.24c.29-.28.68-.46 1.12-.46s.83.18 1.12.46c.28.29.46.68.46 1.12m10.16 0c0 .44-.18.83-.46 1.12a1.583 1.583 0 0 1-2.24-2.24c.28-.28.68-.46 1.12-.46s.83.18 1.12.46c.29.29.46.68.46 1.12" class="cls-1"/><g id="_Radial_Repeat_-2" data-name="&amp;lt;Radial Repeat&amp;gt;"><path d="M137.88 76.66c.14.25.21.52.21.79 0 .55-.28 1.08-.79 1.37-.25.14-.52.21-.79.21-.55 0-1.08-.28-1.37-.79a1.578 1.578 0 0 1 1.37-2.37c.55 0 1.08.28 1.37.79m5.08 8.8c.14.25.21.52.21.79 0 .55-.28 1.08-.79 1.37-.25.14-.52.21-.79.21-.55 0-1.08-.28-1.37-.79a1.575 1.575 0 0 1 1.37-2.37c.55 0 1.08.28 1.37.79" class="cls-1"/><path d="m148.52 83.53-6.18-10.7c-2.83-4.91-9.11-6.59-14.01-3.75l-.43.25c-.34.2-.65.46-.9.76-2.21 2.6-4.19 5.37-5.94 8.3l-5.8 9.7a3.35 3.35 0 0 0-.03 3.38l3.58 6.19c.6 1.05 1.73 1.69 2.94 1.67l11.3-.17a61 61 0 0 0 9.37-.86c.54-.09 1.39-.34 1.89-.54l.45-.26c4.89-2.82 6.57-9.08 3.74-13.97Zm-4.07 10.26c-1.12.65-2.34.95-3.55.95-2.46 0-4.85-1.28-6.16-3.56l-5.93-10.27c-1.96-3.4-.8-7.75 2.6-9.71s7.75-.8 9.71 2.6l5.93 10.27c1.96 3.4.8 7.75-2.6 9.71Z" class="cls-1"/><path d="M137.88 76.66c.14.25.21.52.21.79 0 .55-.28 1.08-.79 1.37-.25.14-.52.21-.79.21-.55 0-1.08-.28-1.37-.79a1.578 1.578 0 0 1 1.37-2.37c.55 0 1.08.28 1.37.79m5.29 9.58c0 .55-.28 1.08-.79 1.37-.25.14-.52.21-.79.21-.55 0-1.08-.28-1.37-.79a1.575 1.575 0 0 1 1.37-2.37c.55 0 1.08.28 1.37.79.14.25.21.52.21.79" class="cls-1"/><path d="M138.09 77.45c0 .55-.28 1.08-.79 1.37-.25.14-.52.21-.79.21-.55 0-1.08-.28-1.37-.79a1.578 1.578 0 0 1 1.37-2.37c.55 0 1.08.28 1.37.79.14.25.21.52.21.79m5.08 8.79c0 .55-.28 1.08-.79 1.37-.25.14-.52.21-.79.21-.55 0-1.08-.28-1.37-.79a1.575 1.575 0 0 1 1.37-2.37c.55 0 1.08.28 1.37.79.14.25.21.52.21.79" class="cls-1"/></g><path d="M138.09 127.55c0 .27-.07.54-.21.79-.29.51-.82.79-1.37.79-.27 0-.54-.07-.79-.21-.51-.29-.79-.82-.79-1.37 0-.27.07-.54.21-.79.44-.75 1.4-1.01 2.16-.58.51.29.79.82.79 1.37m5.08-8.79c0 .27-.07.54-.21.79-.29.51-.82.79-1.37.79-.27 0-.54-.07-.79-.21-.51-.29-.79-.82-.79-1.37 0-.27.07-.54.21-.79.44-.76 1.4-1.01 2.16-.58.51.29.79.82.79 1.37" class="cls-1"/><path d="m144.78 107.5-.46-.26c-.33-.19-.69-.32-1.06-.39-3.37-.62-6.78-.96-10.21-1.01l-11.3-.17c-1.21-.02-2.33.62-2.94 1.67l-3.58 6.19a3.35 3.35 0 0 0 .03 3.38l5.8 9.7c.88 1.47 1.82 2.9 2.81 4.29 1 1.39 2.05 2.74 3.16 4.04.24.29.54.53.87.72s.46.27.46.27a10.23 10.23 0 0 0 13.97-3.74l6.19-10.72a10.23 10.23 0 0 0-3.74-13.97m2.27 13.43-5.93 10.27a7.1 7.1 0 0 1-9.71 2.6 7.12 7.12 0 0 1-3.56-6.16c0-1.21.31-2.43.95-3.55l5.93-10.27c1.96-3.4 6.31-4.57 9.71-2.6s4.57 6.31 2.6 9.71Z" class="cls-1"/><path d="M138.09 127.55c0 .27-.07.54-.21.79-.29.51-.82.79-1.37.79-.27 0-.54-.07-.79-.21-.51-.29-.79-.82-.79-1.37 0-.27.07-.54.21-.79.44-.75 1.4-1.01 2.16-.58.51.29.79.82.79 1.37m5.08-8.79c0 .27-.07.54-.21.79-.29.51-.82.79-1.37.79-.27 0-.54-.07-.79-.21-.51-.29-.79-.82-.79-1.37 0-.27.07-.54.21-.79.44-.76 1.4-1.01 2.16-.58.51.29.79.82.79 1.37" class="cls-1"/><path d="M143.17 118.76c0 .27-.07.54-.21.79-.29.51-.82.79-1.37.79-.27 0-.54-.07-.79-.21-.51-.29-.79-.82-.79-1.37 0-.27.07-.54.21-.79.44-.76 1.4-1.01 2.16-.58.51.29.79.82.79 1.37m-5.08 8.79c0 .27-.07.54-.21.79-.29.51-.82.79-1.37.79-.27 0-.54-.07-.79-.21-.51-.29-.79-.82-.79-1.37 0-.27.07-.54.21-.79.44-.75 1.4-1.01 2.16-.58.51.29.79.82.79 1.37m-34.81-37.17c-4.33 0-8.33 2.31-10.49 6.06a12.14 12.14 0 0 0 0 12.12c2.16 3.75 6.16 6.06 10.49 6.06s8.33-2.31 10.49-6.06 2.16-8.37 0-12.12a12.1 12.1 0 0 0-10.49-6.06m79.06 32.91c-3.61 0-6.82-.82-9.65-2.45s-5.06-3.99-6.7-7.09-2.46-6.84-2.46-11.22.82-8.16 2.47-11.26c1.65-3.11 3.9-5.48 6.74-7.11s6.04-2.45 9.59-2.45c3.06 0 5.83.57 8.32 1.7 2.48 1.13 4.52 2.77 6.11 4.92s2.59 4.73 2.99 7.76h-8.4c-.38-2.19-1.37-3.91-2.98-5.15q-2.4-1.86-5.88-1.86c-3.15 0-5.7 1.17-7.64 3.51s-2.91 5.65-2.91 9.95.97 7.71 2.92 9.99c1.95 2.27 4.48 3.41 7.6 3.41q3.45 0 5.88-1.86c1.62-1.24 2.63-2.97 3.03-5.18h8.4c-.31 2.52-1.2 4.87-2.66 7.05q-2.205 3.27-5.94 5.31c-3.735 2.04-5.44 2.04-8.85 2.04Zm28.43-41.04v40.49h-8.29V82.25zm4 40.5V82.26h15.79c4.6 0 8.17 1.2 10.69 3.6 2.53 2.4 3.79 5.59 3.79 9.58 0 2.77-.62 5.14-1.85 7.11s-3.01 3.44-5.33 4.42l8.61 15.79h-9.19l-7.72-14.46h-6.52v14.46h-8.29Zm8.29-21.17h5.98c4.96 0 7.45-2.05 7.45-6.14 0-2.05-.61-3.61-1.83-4.7s-3.1-1.63-5.64-1.63h-5.95v12.47Zm24.93 21.17V82.26h15.79c4.6 0 8.17 1.2 10.69 3.6 2.53 2.4 3.79 5.59 3.79 9.58 0 2.77-.62 5.14-1.85 7.11s-3.01 3.44-5.33 4.42l8.61 15.79h-9.19l-7.72-14.46h-6.52v14.46h-8.29Zm8.28-21.17h5.98c4.96 0 7.45-2.05 7.45-6.14 0-2.05-.61-3.61-1.83-4.7s-3.1-1.63-5.64-1.63h-5.95v12.47Zm42.7 21.71c-3.57 0-6.78-.82-9.63-2.45s-5.11-3.99-6.77-7.09q-2.49-4.65-2.49-11.22c0-6.57.83-8.16 2.49-11.26s3.91-5.48 6.77-7.11c2.85-1.63 6.06-2.45 9.63-2.45s6.8.82 9.65 2.45c2.84 1.63 5.1 4 6.75 7.11 1.66 3.11 2.49 6.86 2.49 11.26s-.83 8.15-2.49 11.24q-2.49 4.635-6.75 7.08c-4.26 2.445-6.06 2.45-9.65 2.45Zm0-7.36c3.15 0 5.68-1.15 7.6-3.44 1.91-2.29 2.87-5.61 2.87-9.96s-.96-7.7-2.87-10-4.44-3.45-7.6-3.45-5.66 1.16-7.58 3.47q-2.88 3.465-2.88 9.99c0 6.525.96 7.65 2.88 9.95s4.45 3.45 7.58 3.45Zm18.38-26.8v-6.88h33.07v6.88h-12.37v33.62h-8.32V89.13h-12.39Zm35.44 33.62V82.26h27.1v6.88h-18.81v9.78h17.39v6.77h-17.39v10.19h18.86v6.88h-27.15Zm48.16.54c-3.61 0-6.82-.82-9.65-2.45s-5.06-3.99-6.7-7.09-2.46-6.84-2.46-11.22.82-8.16 2.47-11.26c1.65-3.11 3.9-5.48 6.74-7.11s6.04-2.45 9.59-2.45c3.06 0 5.83.57 8.32 1.7 2.48 1.13 4.52 2.77 6.11 4.92s2.59 4.73 2.99 7.76h-8.4c-.38-2.19-1.37-3.91-2.98-5.15q-2.4-1.86-5.88-1.86c-3.15 0-5.7 1.17-7.64 3.51s-2.91 5.65-2.91 9.95.97 7.71 2.92 9.99c1.95 2.27 4.48 3.41 7.6 3.41q3.45 0 5.88-1.86c1.62-1.24 2.63-2.97 3.03-5.18h8.4c-.31 2.52-1.2 4.87-2.66 7.05q-2.205 3.27-5.94 5.31c-3.735 2.04-5.44 2.04-8.85 2.04Zm20.14-.54V82.26h8.29v16.36h17.64V82.26h8.32v40.49h-8.32v-17.26h-17.64v17.26z" class="cls-1"/></g></svg>