<svg xmlns="http://www.w3.org/2000/svg" id="Layer_2" data-name="Layer 2" viewBox="0 0 512 205"><defs><clipPath id="clippath"><path d="M0 0h512v205H0z" style="fill:none"/></clipPath><style>.cls-1{fill:#fff}</style></defs><g style="clip-path:url(#clippath)"><path d="m147.89 48.9-44.37 44.37c-.76.76-1.18 1.78-1.18 2.85v57.14c0 2.22 1.8 4.02 4.02 4.02h31.28c1.07 0 2.09-.43 2.85-1.18l18.57-18.57c.76-.76 1.78-1.18 2.85-1.18h33.17c2.22 0 4.02-1.8 4.02-4.02V96.12c0-1.07-.43-2.09-1.18-2.85l-44.35-44.38c-1.57-1.57-4.13-1.57-5.69 0Zm31.81 68.18h-29.33l-27.52 27.52.06-43.24 27.05-27.05v21.55h29.73v21.24Z" class="cls-1"/><path d="m147.89 48.9-44.37 44.37c-.76.76-1.18 1.78-1.18 2.85v57.14c0 2.22 1.8 4.02 4.02 4.02h31.28c1.07 0 2.09-.43 2.85-1.18l18.57-18.57c.76-.76 1.78-1.18 2.85-1.18h33.17c2.22 0 4.02-1.8 4.02-4.02V96.12c0-1.07-.43-2.09-1.18-2.85l-44.35-44.38c-1.57-1.57-4.13-1.57-5.69 0Zm31.81 68.18h-29.33l-27.52 27.52.06-43.24 27.05-27.05v21.55h29.73v21.24Z" class="cls-1"/><path d="M220.01 75.48h15.4v58.61h23.43v13.74h-38.83V75.47Zm42.55 6.64c0-4.99 4.16-9.15 9.26-9.15s9.15 4.16 9.15 9.15-4.16 9.26-9.15 9.26-9.26-4.16-9.26-9.26m1.98 12.48h14.56v53.34h-14.56zm26.13 12.92h-6V94.6h6V73.41h27.91v13.03h-13.44v8.16h10.37v12.92h-10.37v40.32h-14.47zm37.24-.1h-6.82V94.6h6.82V79.09h14.47V94.6h10.65v12.92h-10.65v27.5h13.44v12.82h-27.91zm81.75-12.82v53.24h-12.61l-.41-4.24c-3.2 2.89-7.86 5.27-13.54 5.27-14.37 0-22.95-7.86-22.95-17.78 0-12.3 10.44-18.4 35.05-20.26v-3.31h-30.91V94.6h45.38Zm-14.48 26.36c-16.23 1.97-20.57 6.31-20.57 10.13 0 3 2.69 6.31 8.06 6.31 6.82 0 12.51-3.41 12.51-10.65z" style="fill-rule:evenodd;fill:#fff"/></g></svg>