<svg xmlns="http://www.w3.org/2000/svg" id="Layer_2" data-name="Layer 2" viewBox="0 0 512 205"><defs><clipPath id="clippath"><path d="M0 0h512v205H0z" style="fill:none"/></clipPath><style>.cls-1{fill:#fff}</style></defs><g style="clip-path:url(#clippath)"><path d="M108.72 146.39c-5.08 0-10.02-1.01-14.67-2.98a37.7 37.7 0 0 1-12.02-8.1 37.7 37.7 0 0 1-8.1-12.02 37.5 37.5 0 0 1-2.98-14.73v-2.67h19.36v2.67c0 4.93 1.92 9.57 5.41 13.05 2.51 2.51 5.66 4.23 9.09 4.98l1.29.28V118l-.7-.26c-3.8-1.4-6.38-5.05-6.42-9.09-.02-1.48 1.19-2.75 2.63-2.78.76 0 1.43.28 1.94.79s.78 1.19.77 1.91c0 1.15.44 2.25 1.27 3.09.84.85 2 1.34 3.19 1.34h2.27c.22 0 .4.18.4.4v18.96h-2.67c-6.36 0-12.34-2.48-16.83-6.97-3.63-3.63-5.95-8.22-6.71-13.25l-.14-.91h-8.71l.14 1.19a32.3 32.3 0 0 0 2.33 8.78c1.64 3.87 3.98 7.34 6.95 10.32a32.4 32.4 0 0 0 10.32 6.96c4.01 1.7 8.26 2.56 12.64 2.56.72 0 1.4.28 1.9.8.51.51.78 1.19.77 1.91-.02 1.45-1.24 2.63-2.72 2.63ZM70.95 99.1v-2.67c0-5.1 1-10.05 2.98-14.73 1.91-4.51 4.63-8.55 8.1-12.02s7.51-6.19 12.02-8.1c4.66-1.97 9.59-2.97 14.67-2.98 1.48 0 2.71 1.18 2.73 2.63.01.72-.26 1.4-.77 1.91s-1.18.8-1.9.8c-4.38 0-8.63.86-12.64 2.56a32.6 32.6 0 0 0-10.32 6.95 32.2 32.2 0 0 0-6.95 10.32 32.4 32.4 0 0 0-2.33 8.78l-.14 1.19h8.71l.14-.91c.76-5.04 3.07-9.62 6.71-13.25 4.5-4.5 10.47-6.97 16.83-6.97h2.67v18.96c0 .22-.18.4-.4.4h-2.27c-1.18 0-2.34.49-3.19 1.33-.83.84-1.28 1.94-1.27 3.09 0 .72-.27 1.39-.77 1.9s-1.18.79-1.9.79c-1.48-.02-2.69-1.29-2.67-2.78.04-4.04 2.62-7.69 6.42-9.09l.7-.26v-8.87l-1.29.28c-3.44.75-6.58 2.47-9.09 4.98a18.33 18.33 0 0 0-5.41 13.05v2.67H70.96Zm48.18 47.29c-1.48 0-2.7-1.18-2.72-2.63-.01-.72.26-1.4.77-1.92s1.18-.8 1.9-.8c4.38 0 8.63-.86 12.64-2.56a32.4 32.4 0 0 0 10.32-6.96c2.98-2.98 5.32-6.45 6.95-10.32 1.19-2.81 1.97-5.77 2.33-8.78l.14-1.19h-8.71l-.14.91c-.76 5.04-3.07 9.62-6.71 13.25-4.5 4.5-10.47 6.97-16.83 6.97h-2.67V113.4c0-.22.18-.4.4-.4h2.27c1.18 0 2.34-.49 3.19-1.33.83-.84 1.28-1.94 1.27-3.09a2.66 2.66 0 0 1 2.67-2.69c1.48.02 2.69 1.29 2.67 2.78-.04 4.04-2.62 7.69-6.42 9.09l-.7.26v8.87l1.29-.28c3.44-.75 6.58-2.47 9.09-4.98 3.49-3.49 5.41-8.12 5.41-13.05v-2.67h19.36v2.67c0 5.1-1 10.05-2.98 14.73-1.9 4.51-4.63 8.55-8.1 12.02s-7.51 6.19-12.02 8.1a37.6 37.6 0 0 1-14.67 2.98Zm18.41-47.29v-2.67c0-4.93-1.92-9.57-5.41-13.05a18.33 18.33 0 0 0-9.09-4.98l-1.29-.28v8.87l.7.26c3.8 1.4 6.38 5.05 6.42 9.09.02 1.48-1.19 2.75-2.63 2.78-.76 0-1.44-.28-1.94-.79a2.62 2.62 0 0 1-.77-1.9c0-1.16-.44-2.25-1.27-3.09-.84-.85-2-1.33-3.19-1.33h-2.27c-.22 0-.4-.18-.4-.4V72.65h2.67c6.36 0 12.34 2.48 16.83 6.97 3.63 3.63 5.95 8.22 6.71 13.25l.14.91h8.71l-.14-1.19a32.3 32.3 0 0 0-2.33-8.78 32.6 32.6 0 0 0-6.95-10.32 32.2 32.2 0 0 0-10.32-6.95c-4.01-1.7-8.27-2.56-12.64-2.56-.72 0-1.4-.28-1.9-.8s-.78-1.19-.77-1.92c.02-1.45 1.24-2.63 2.72-2.63 5.08 0 10.02 1.01 14.68 2.98 4.5 1.91 8.55 4.63 12.02 8.1s6.19 7.51 8.1 12.02a37.5 37.5 0 0 1 2.98 14.73v2.67h-19.36ZM420.8 83.06v-1.72h8.01v1.72zm3 8.19v-9.02h2.02v9.02zm6.74 0v-9.91h1.98v9.91zm4.7 0-4.23-9.91h1.94l2.83 7.03 2.85-7.03h1.92l-4.2 9.91zm3.79 0v-9.91h2.02v9.91zm-268.07 31.48v-41.4h8.47v16.72h18.03V81.33h8.5v41.4h-8.5v-17.64h-18.03v17.64zm49.28.62c-1.96 0-3.73-.35-5.29-1.04-1.57-.69-2.8-1.73-3.69-3.11-.9-1.38-1.35-3.1-1.35-5.15 0-1.72.32-3.17.96-4.33s1.51-2.1 2.61-2.81c1.1-.7 2.35-1.24 3.75-1.61s2.87-.63 4.4-.78c1.8-.18 3.25-.36 4.35-.51 1.1-.16 1.91-.41 2.42-.75s.76-.85.76-1.51v-.14c0-.89-.19-1.64-.56-2.25s-.92-1.08-1.65-1.4-1.62-.49-2.65-.49-2.01.16-2.81.49c-.8.32-1.44.75-1.95 1.29-.5.54-.87 1.14-1.11 1.81l-7.64-1.25c.54-1.82 1.43-3.35 2.67-4.61s2.78-2.22 4.63-2.89c1.84-.67 3.92-1 6.24-1q2.505 0 4.86.6c1.57.4 2.99 1.01 4.24 1.85 1.25.83 2.24 1.92 2.97 3.26s1.1 2.95 1.1 4.82v20.92h-7.89v-4.31h-.28a8.8 8.8 0 0 1-2 2.54c-.83.73-1.84 1.31-3.01 1.74s-2.53.64-4.07.64Zm2.36-5.87c1.31 0 2.47-.26 3.46-.78s1.76-1.22 2.32-2.11.83-1.88.83-2.97v-3.36c-.24.19-.61.35-1.11.5s-1.06.28-1.67.39-1.21.21-1.81.31c-.59.09-1.12.17-1.58.22-1.02.15-1.92.39-2.69.72-.78.33-1.38.77-1.81 1.32s-.64 1.25-.64 2.1c0 .8.2 1.47.61 2.01.41.55.96.96 1.67 1.24.7.28 1.51.42 2.42.42Zm26.77 5.25-9.17-31.06h8.75l2.69 11.47 1.5 6.71c.54 2.42 1.03 5.09 1.47 8.02h-.94c.48-2.85 1.01-5.5 1.58-7.93.57-2.44 1.11-4.7 1.61-6.79l2.83-11.47h7.67l2.78 11.47c.46 2.09.98 4.35 1.56 6.77.57 2.42 1.11 5.07 1.61 7.96h-.94c.44-2.87.92-5.52 1.43-7.93.51-2.42 1-4.68 1.49-6.79l2.69-11.47h8.86l-9.22 31.06h-8.47l-3.44-11.97c-.33-1.2-.67-2.53-1-3.99-.33-1.45-.66-2.94-.97-4.45s-.64-2.92-.97-4.24h1.47c-.32 1.32-.63 2.73-.96 4.24-.32 1.51-.65 3-.99 4.46a82 82 0 0 1-1 3.97l-3.44 11.97h-8.47Zm53.44.62c-3.17 0-5.9-.65-8.2-1.95s-4.06-3.14-5.29-5.53-1.85-5.22-1.85-8.5.61-6.01 1.83-8.42 2.95-4.29 5.2-5.64c2.24-1.35 4.87-2.03 7.89-2.03 2.04 0 3.94.32 5.7.97s3.31 1.63 4.64 2.93c1.33 1.31 2.38 2.94 3.13 4.9s1.13 4.28 1.13 6.95v2.33H290.9v-5.22h22l-3.89 1.39c0-1.61-.25-3.01-.74-4.21s-1.22-2.12-2.19-2.78q-1.455-.99-3.6-.99c-2.145 0-2.67.33-3.68 1s-1.77 1.57-2.29 2.71-.78 2.44-.78 3.9v3.69q0 2.7.9 4.53c.6 1.22 1.44 2.14 2.53 2.75 1.08.61 2.35.92 3.79.92q1.47 0 2.67-.42c.8-.28 1.48-.69 2.04-1.24s1-1.22 1.29-2.01l7.56 1.42c-.5 1.7-1.37 3.2-2.61 4.49s-2.79 2.28-4.65 2.99c-1.86.7-4.01 1.06-6.43 1.06Zm26.49-18.59v17.98h-8.33V91.68h7.86l.14 7.75h-.5c.81-2.59 2.05-4.6 3.71-6.01 1.66-1.42 3.8-2.13 6.43-2.13 2.15 0 4.02.47 5.63 1.4 1.6.94 2.84 2.28 3.72 4.03q1.32 2.625 1.32 6.27v19.75h-8.33v-18.31c0-1.93-.5-3.44-1.49-4.53s-2.37-1.64-4.13-1.64c-1.17 0-2.21.25-3.13.76s-1.63 1.25-2.14 2.21-.76 2.14-.76 3.53m40.8-13.09v6.36h-18.42v-6.36zm-14.14-7.39h8.33v29.37c0 .98.22 1.71.65 2.18s1.16.71 2.18.71c.31 0 .76-.04 1.33-.13s1.01-.16 1.31-.24l1.19 6.25c-.93.28-1.85.47-2.76.58-.92.11-1.79.17-2.63.17q-4.665 0-7.14-2.28c-2.475-2.28-2.47-3.7-2.47-6.53V84.27Zm17.85 38.45V91.67h8.06v5.42h.33c.57-1.93 1.53-3.38 2.88-4.36 1.34-.98 2.88-1.47 4.63-1.47.43 0 .89.02 1.39.07s.94.12 1.31.21v7.45c-.37-.13-.91-.23-1.61-.31-.7-.07-1.37-.11-2-.11-1.26 0-2.4.27-3.42.82a6 6 0 0 0-2.38 2.28c-.56.97-.85 2.11-.85 3.4v17.67h-8.33Zm29.36.62c-1.96 0-3.73-.35-5.29-1.04-1.57-.69-2.8-1.73-3.69-3.11-.9-1.38-1.35-3.1-1.35-5.15 0-1.72.32-3.17.96-4.33s1.51-2.1 2.61-2.81c1.1-.7 2.35-1.24 3.75-1.61s2.87-.63 4.4-.78c1.8-.18 3.25-.36 4.35-.51 1.1-.16 1.91-.41 2.42-.75s.76-.85.76-1.51v-.14c0-.89-.19-1.64-.56-2.25s-.92-1.08-1.65-1.4-1.62-.49-2.65-.49-2.01.16-2.81.49c-.8.32-1.44.75-1.95 1.29-.5.54-.87 1.14-1.11 1.81l-7.64-1.25c.54-1.82 1.43-3.35 2.67-4.61s2.78-2.22 4.63-2.89c1.84-.67 3.92-1 6.24-1q2.505 0 4.86.6c1.57.4 2.99 1.01 4.24 1.85 1.25.83 2.24 1.92 2.97 3.26s1.1 2.95 1.1 4.82v20.92h-7.89v-4.31h-.28a8.8 8.8 0 0 1-2 2.54c-.83.73-1.84 1.31-3.01 1.74s-2.53.64-4.07.64Zm2.36-5.87c1.31 0 2.47-.26 3.46-.78s1.76-1.22 2.32-2.11.83-1.88.83-2.97v-3.36c-.24.19-.61.35-1.11.5s-1.06.28-1.67.39-1.21.21-1.81.31c-.59.09-1.12.17-1.58.22-1.02.15-1.92.39-2.69.72-.78.33-1.38.77-1.81 1.32s-.64 1.25-.64 2.1c0 .8.2 1.47.61 2.01.41.55.96.96 1.67 1.24.7.28 1.51.42 2.42.42Z" class="cls-1"/><path d="M108.72 146.39c-5.08 0-10.02-1.01-14.67-2.98a37.7 37.7 0 0 1-12.02-8.1 37.7 37.7 0 0 1-8.1-12.02 37.5 37.5 0 0 1-2.98-14.73v-2.67h19.36v2.67c0 4.93 1.92 9.57 5.41 13.05 2.51 2.51 5.66 4.23 9.09 4.98l1.29.28V118l-.7-.26c-3.8-1.4-6.38-5.05-6.42-9.09-.02-1.48 1.19-2.75 2.63-2.78.76 0 1.43.28 1.94.79s.78 1.19.77 1.91c0 1.15.44 2.25 1.27 3.09.84.85 2 1.34 3.19 1.34h2.27c.22 0 .4.18.4.4v18.96h-2.67c-6.36 0-12.34-2.48-16.83-6.97-3.63-3.63-5.95-8.22-6.71-13.25l-.14-.91h-8.71l.14 1.19a32.3 32.3 0 0 0 2.33 8.78c1.64 3.87 3.98 7.34 6.95 10.32a32.4 32.4 0 0 0 10.32 6.96c4.01 1.7 8.26 2.56 12.64 2.56.72 0 1.4.28 1.9.8.51.51.78 1.19.77 1.91-.02 1.45-1.24 2.63-2.72 2.63ZM70.95 99.1v-2.67c0-5.1 1-10.05 2.98-14.73 1.91-4.51 4.63-8.55 8.1-12.02s7.51-6.19 12.02-8.1c4.66-1.97 9.59-2.97 14.67-2.98 1.48 0 2.71 1.18 2.73 2.63.01.72-.26 1.4-.77 1.91s-1.18.8-1.9.8c-4.38 0-8.63.86-12.64 2.56a32.6 32.6 0 0 0-10.32 6.95 32.2 32.2 0 0 0-6.95 10.32 32.4 32.4 0 0 0-2.33 8.78l-.14 1.19h8.71l.14-.91c.76-5.04 3.07-9.62 6.71-13.25 4.5-4.5 10.47-6.97 16.83-6.97h2.67v18.96c0 .22-.18.4-.4.4h-2.27c-1.18 0-2.34.49-3.19 1.33-.83.84-1.28 1.94-1.27 3.09 0 .72-.27 1.39-.77 1.9s-1.18.79-1.9.79c-1.48-.02-2.69-1.29-2.67-2.78.04-4.04 2.62-7.69 6.42-9.09l.7-.26v-8.87l-1.29.28c-3.44.75-6.58 2.47-9.09 4.98a18.33 18.33 0 0 0-5.41 13.05v2.67H70.96Zm48.18 47.29c-1.48 0-2.7-1.18-2.72-2.63-.01-.72.26-1.4.77-1.92s1.18-.8 1.9-.8c4.38 0 8.63-.86 12.64-2.56a32.4 32.4 0 0 0 10.32-6.96c2.98-2.98 5.32-6.45 6.95-10.32 1.19-2.81 1.97-5.77 2.33-8.78l.14-1.19h-8.71l-.14.91c-.76 5.04-3.07 9.62-6.71 13.25-4.5 4.5-10.47 6.97-16.83 6.97h-2.67V113.4c0-.22.18-.4.4-.4h2.27c1.18 0 2.34-.49 3.19-1.33.83-.84 1.28-1.94 1.27-3.09a2.66 2.66 0 0 1 2.67-2.69c1.48.02 2.69 1.29 2.67 2.78-.04 4.04-2.62 7.69-6.42 9.09l-.7.26v8.87l1.29-.28c3.44-.75 6.58-2.47 9.09-4.98 3.49-3.49 5.41-8.12 5.41-13.05v-2.67h19.36v2.67c0 5.1-1 10.05-2.98 14.73-1.9 4.51-4.63 8.55-8.1 12.02s-7.51 6.19-12.02 8.1a37.6 37.6 0 0 1-14.67 2.98Zm18.41-47.29v-2.67c0-4.93-1.92-9.57-5.41-13.05a18.33 18.33 0 0 0-9.09-4.98l-1.29-.28v8.87l.7.26c3.8 1.4 6.38 5.05 6.42 9.09.02 1.48-1.19 2.75-2.63 2.78-.76 0-1.44-.28-1.94-.79a2.62 2.62 0 0 1-.77-1.9c0-1.16-.44-2.25-1.27-3.09-.84-.85-2-1.33-3.19-1.33h-2.27c-.22 0-.4-.18-.4-.4V72.65h2.67c6.36 0 12.34 2.48 16.83 6.97 3.63 3.63 5.95 8.22 6.71 13.25l.14.91h8.71l-.14-1.19a32.3 32.3 0 0 0-2.33-8.78 32.6 32.6 0 0 0-6.95-10.32 32.2 32.2 0 0 0-10.32-6.95c-4.01-1.7-8.27-2.56-12.64-2.56-.72 0-1.4-.28-1.9-.8s-.78-1.19-.77-1.92c.02-1.45 1.24-2.63 2.72-2.63 5.08 0 10.02 1.01 14.68 2.98 4.5 1.91 8.55 4.63 12.02 8.1s6.19 7.51 8.1 12.02a37.5 37.5 0 0 1 2.98 14.73v2.67h-19.36ZM420.8 83.06v-1.72h8.01v1.72zm3 8.19v-9.02h2.02v9.02zm6.74 0v-9.91h1.98v9.91zm4.7 0-4.23-9.91h1.94l2.83 7.03 2.85-7.03h1.92l-4.2 9.91zm3.79 0v-9.91h2.02v9.91zm-268.07 31.48v-41.4h8.47v16.72h18.03V81.33h8.5v41.4h-8.5v-17.64h-18.03v17.64zm49.28.62c-1.96 0-3.73-.35-5.29-1.04-1.57-.69-2.8-1.73-3.69-3.11-.9-1.38-1.35-3.1-1.35-5.15 0-1.72.32-3.17.96-4.33s1.51-2.1 2.61-2.81c1.1-.7 2.35-1.24 3.75-1.61s2.87-.63 4.4-.78c1.8-.18 3.25-.36 4.35-.51 1.1-.16 1.91-.41 2.42-.75s.76-.85.76-1.51v-.14c0-.89-.19-1.64-.56-2.25s-.92-1.08-1.65-1.4-1.62-.49-2.65-.49-2.01.16-2.81.49c-.8.32-1.44.75-1.95 1.29-.5.54-.87 1.14-1.11 1.81l-7.64-1.25c.54-1.82 1.43-3.35 2.67-4.61s2.78-2.22 4.63-2.89c1.84-.67 3.92-1 6.24-1q2.505 0 4.86.6c1.57.4 2.99 1.01 4.24 1.85 1.25.83 2.24 1.92 2.97 3.26s1.1 2.95 1.1 4.82v20.92h-7.89v-4.31h-.28a8.8 8.8 0 0 1-2 2.54c-.83.73-1.84 1.31-3.01 1.74s-2.53.64-4.07.64Zm2.36-5.87c1.31 0 2.47-.26 3.46-.78s1.76-1.22 2.32-2.11.83-1.88.83-2.97v-3.36c-.24.19-.61.35-1.11.5s-1.06.28-1.67.39-1.21.21-1.81.31c-.59.09-1.12.17-1.58.22-1.02.15-1.92.39-2.69.72-.78.33-1.38.77-1.81 1.32s-.64 1.25-.64 2.1c0 .8.2 1.47.61 2.01.41.55.96.96 1.67 1.24.7.28 1.51.42 2.42.42Zm26.77 5.25-9.17-31.06h8.75l2.69 11.47 1.5 6.71c.54 2.42 1.03 5.09 1.47 8.02h-.94c.48-2.85 1.01-5.5 1.58-7.93.57-2.44 1.11-4.7 1.61-6.79l2.83-11.47h7.67l2.78 11.47c.46 2.09.98 4.35 1.56 6.77.57 2.42 1.11 5.07 1.61 7.96h-.94c.44-2.87.92-5.52 1.43-7.93.51-2.42 1-4.68 1.49-6.79l2.69-11.47h8.86l-9.22 31.06h-8.47l-3.44-11.97c-.33-1.2-.67-2.53-1-3.99-.33-1.45-.66-2.94-.97-4.45s-.64-2.92-.97-4.24h1.47c-.32 1.32-.63 2.73-.96 4.24-.32 1.51-.65 3-.99 4.46a82 82 0 0 1-1 3.97l-3.44 11.97h-8.47Zm53.44.62c-3.17 0-5.9-.65-8.2-1.95s-4.06-3.14-5.29-5.53-1.85-5.22-1.85-8.5.61-6.01 1.83-8.42 2.95-4.29 5.2-5.64c2.24-1.35 4.87-2.03 7.89-2.03 2.04 0 3.94.32 5.7.97s3.31 1.63 4.64 2.93c1.33 1.31 2.38 2.94 3.13 4.9s1.13 4.28 1.13 6.95v2.33H290.9v-5.22h22l-3.89 1.39c0-1.61-.25-3.01-.74-4.21s-1.22-2.12-2.19-2.78q-1.455-.99-3.6-.99c-2.145 0-2.67.33-3.68 1s-1.77 1.57-2.29 2.71-.78 2.44-.78 3.9v3.69q0 2.7.9 4.53c.6 1.22 1.44 2.14 2.53 2.75 1.08.61 2.35.92 3.79.92q1.47 0 2.67-.42c.8-.28 1.48-.69 2.04-1.24s1-1.22 1.29-2.01l7.56 1.42c-.5 1.7-1.37 3.2-2.61 4.49s-2.79 2.28-4.65 2.99c-1.86.7-4.01 1.06-6.43 1.06Zm26.49-18.59v17.98h-8.33V91.68h7.86l.14 7.75h-.5c.81-2.59 2.05-4.6 3.71-6.01 1.66-1.42 3.8-2.13 6.43-2.13 2.15 0 4.02.47 5.63 1.4 1.6.94 2.84 2.28 3.72 4.03q1.32 2.625 1.32 6.27v19.75h-8.33v-18.31c0-1.93-.5-3.44-1.49-4.53s-2.37-1.64-4.13-1.64c-1.17 0-2.21.25-3.13.76s-1.63 1.25-2.14 2.21-.76 2.14-.76 3.53m40.8-13.09v6.36h-18.42v-6.36zm-14.14-7.39h8.33v29.37c0 .98.22 1.71.65 2.18s1.16.71 2.18.71c.31 0 .76-.04 1.33-.13s1.01-.16 1.31-.24l1.19 6.25c-.93.28-1.85.47-2.76.58-.92.11-1.79.17-2.63.17q-4.665 0-7.14-2.28c-2.475-2.28-2.47-3.7-2.47-6.53V84.27Zm17.85 38.45V91.67h8.06v5.42h.33c.57-1.93 1.53-3.38 2.88-4.36 1.34-.98 2.88-1.47 4.63-1.47.43 0 .89.02 1.39.07s.94.12 1.31.21v7.45c-.37-.13-.91-.23-1.61-.31-.7-.07-1.37-.11-2-.11-1.26 0-2.4.27-3.42.82a6 6 0 0 0-2.38 2.28c-.56.97-.85 2.11-.85 3.4v17.67h-8.33Zm29.36.62c-1.96 0-3.73-.35-5.29-1.04-1.57-.69-2.8-1.73-3.69-3.11-.9-1.38-1.35-3.1-1.35-5.15 0-1.72.32-3.17.96-4.33s1.51-2.1 2.61-2.81c1.1-.7 2.35-1.24 3.75-1.61s2.87-.63 4.4-.78c1.8-.18 3.25-.36 4.35-.51 1.1-.16 1.91-.41 2.42-.75s.76-.85.76-1.51v-.14c0-.89-.19-1.64-.56-2.25s-.92-1.08-1.65-1.4-1.62-.49-2.65-.49-2.01.16-2.81.49c-.8.32-1.44.75-1.95 1.29-.5.54-.87 1.14-1.11 1.81l-7.64-1.25c.54-1.82 1.43-3.35 2.67-4.61s2.78-2.22 4.63-2.89c1.84-.67 3.92-1 6.24-1q2.505 0 4.86.6c1.57.4 2.99 1.01 4.24 1.85 1.25.83 2.24 1.92 2.97 3.26s1.1 2.95 1.1 4.82v20.92h-7.89v-4.31h-.28a8.8 8.8 0 0 1-2 2.54c-.83.73-1.84 1.31-3.01 1.74s-2.53.64-4.07.64Zm2.36-5.87c1.31 0 2.47-.26 3.46-.78s1.76-1.22 2.32-2.11.83-1.88.83-2.97v-3.36c-.24.19-.61.35-1.11.5s-1.06.28-1.67.39-1.21.21-1.81.31c-.59.09-1.12.17-1.58.22-1.02.15-1.92.39-2.69.72-.78.33-1.38.77-1.81 1.32s-.64 1.25-.64 2.1c0 .8.2 1.47.61 2.01.41.55.96.96 1.67 1.24.7.28 1.51.42 2.42.42Z" class="cls-1"/></g></svg>