<svg xmlns="http://www.w3.org/2000/svg" id="Layer_2" data-name="Layer 2" viewBox="0 0 512 205"><defs><clipPath id="clippath"><path d="M0 0h512v205H0z" style="fill:none"/></clipPath><style>.cls-1{fill:#fff}</style></defs><g style="clip-path:url(#clippath)"><path d="M216.96 119.67h-17.18l-3.02 9.91h-10.14l15.94-49.53h11.76l15.71 49.53h-10.06l-3.02-9.91Zm-2.32-7.59-3.17-10.29-2.79-10.91h-.62l-2.79 10.91-3.17 10.29zm47.21 2.01H239.4c.77 5.49 4.02 8.44 10.37 8.44 4.33 0 8.13-1.24 10.91-3.33l-.08 7.58c-1.86 1.39-6.73 3.56-12.77 3.56-10.84 0-18.34-7.04-18.34-19.19 0-11.22 6.11-17.96 17.26-17.96 12 0 17.34 8.82 15.09 20.9Zm-8.9-5.96c-.08-4.41-1.93-7.12-6.58-7.12-3.79 0-6.35 2.01-7.04 7.12zm9.44-7.04v-4.8c5.73-2.4 8.2-5.34 10.68-10.76h5.96v8.44h12.46v7.12h-12.46v15.4c0 4.26 1.86 5.57 4.88 5.57 2.24 0 4.57-.54 6.5-1.55v7.12c-1.94 1.47-6.11 2.71-9.83 2.71-7.66 0-11.22-4.72-11.22-11.76v-17.49zm67.72 5.19v23.3h-9.68v-20.67c0-3.56-1.63-6.81-6.5-6.81-5.96 0-8.59 5.11-8.59 9.52v17.96h-9.68V76.95h9.68v23.92c2.48-4.88 6.19-7.66 12.54-7.66 7.35 0 12.23 4.18 12.23 13.08Zm36.22 7.81h-22.45c.77 5.49 4.02 8.44 10.37 8.44 4.33 0 8.13-1.24 10.91-3.33l-.08 7.58c-1.86 1.39-6.73 3.56-12.77 3.56-10.84 0-18.34-7.04-18.34-19.19 0-11.22 6.11-17.96 17.26-17.96 12 0 17.34 8.82 15.09 20.9Zm-8.9-5.96c-.08-4.41-1.93-7.12-6.58-7.12-3.79 0-6.35 2.01-7.04 7.12zm36.37-14.86v9.37c-11.38-.93-13 4.41-13 10.06v16.87h-9.68v-35.6h8.13l1.01 7.66c2.4-5.34 6.66-8.98 13.54-8.36m2.79-12.3h10.45v7.58h-10.45zm10.06 13h-9.68v35.6h9.68zm18.65 28.79c3.33 0 6.04-1.24 6.04-3.56 0-1.78-.93-2.48-4.49-3.48l-5.03-1.32c-7.97-2.09-10.99-6.04-10.99-10.83 0-7.12 6.11-10.37 14.78-10.37 4.64 0 9.52 1.01 12.93 2.32v8.44c-3.56-1.86-9.21-3.25-13.47-3.17-3.1 0-4.72 1.01-4.72 2.71s.85 2.71 5.42 4.02l5.19 1.47c5.42 1.55 9.67 4.41 9.67 10.22 0 6.73-5.96 11.15-14.78 11.15-7.35 0-11.53-1.7-14.09-3.1v-8.28c3.33 2.4 8.9 3.79 13.54 3.79Z" class="cls-1"/><path d="M216.96 119.67h-17.18l-3.02 9.91h-10.14l15.94-49.53h11.76l15.71 49.53h-10.06l-3.02-9.91Zm-2.32-7.59-3.17-10.29-2.79-10.91h-.62l-2.79 10.91-3.17 10.29zm47.21 2.01H239.4c.77 5.49 4.02 8.44 10.37 8.44 4.33 0 8.13-1.24 10.91-3.33l-.08 7.58c-1.86 1.39-6.73 3.56-12.77 3.56-10.84 0-18.34-7.04-18.34-19.19 0-11.22 6.11-17.96 17.26-17.96 12 0 17.34 8.82 15.09 20.9Zm-8.9-5.96c-.08-4.41-1.93-7.12-6.58-7.12-3.79 0-6.35 2.01-7.04 7.12zm9.44-7.04v-4.8c5.73-2.4 8.2-5.34 10.68-10.76h5.96v8.44h12.46v7.12h-12.46v15.4c0 4.26 1.86 5.57 4.88 5.57 2.24 0 4.57-.54 6.5-1.55v7.12c-1.94 1.47-6.11 2.71-9.83 2.71-7.66 0-11.22-4.72-11.22-11.76v-17.49zm67.72 5.19v23.3h-9.68v-20.67c0-3.56-1.63-6.81-6.5-6.81-5.96 0-8.59 5.11-8.59 9.52v17.96h-9.68V76.95h9.68v23.92c2.48-4.88 6.19-7.66 12.54-7.66 7.35 0 12.23 4.18 12.23 13.08Zm36.22 7.81h-22.45c.77 5.49 4.02 8.44 10.37 8.44 4.33 0 8.13-1.24 10.91-3.33l-.08 7.58c-1.86 1.39-6.73 3.56-12.77 3.56-10.84 0-18.34-7.04-18.34-19.19 0-11.22 6.11-17.96 17.26-17.96 12 0 17.34 8.82 15.09 20.9Zm-8.9-5.96c-.08-4.41-1.93-7.12-6.58-7.12-3.79 0-6.35 2.01-7.04 7.12zm36.37-14.86v9.37c-11.38-.93-13 4.41-13 10.06v16.87h-9.68v-35.6h8.13l1.01 7.66c2.4-5.34 6.66-8.98 13.54-8.36m2.79-12.3h10.45v7.58h-10.45zm10.06 13h-9.68v35.6h9.68zm18.65 28.79c3.33 0 6.04-1.24 6.04-3.56 0-1.78-.93-2.48-4.49-3.48l-5.03-1.32c-7.97-2.09-10.99-6.04-10.99-10.83 0-7.12 6.11-10.37 14.78-10.37 4.64 0 9.52 1.01 12.93 2.32v8.44c-3.56-1.86-9.21-3.25-13.47-3.17-3.1 0-4.72 1.01-4.72 2.71s.85 2.71 5.42 4.02l5.19 1.47c5.42 1.55 9.67 4.41 9.67 10.22 0 6.73-5.96 11.15-14.78 11.15-7.35 0-11.53-1.7-14.09-3.1v-8.28c3.33 2.4 8.9 3.79 13.54 3.79Z" class="cls-1"/><g id="_Radial_Repeat_" data-name="&amp;lt;Radial Repeat&amp;gt;"><path id="_Radial_Repeat_-2" d="M124.16 153.78c4.74.31 9.18-4.38 11.83-11.57 1.27-3.45 2.12-7.48 2.4-11.81.86-13.37-4.13-24.57-11.13-25.02-1.69-.11-3.33.41-4.88 1.47h.01c2.66 2.24 5.3 5.57 7.31 9.53 4.22 8.29 4.15 16.2-.15 17.66s-11.2-4.07-15.41-12.36c-.02-.04-.04-.09-.06-.13-.53 2.27-.89 4.7-1.05 7.24-.86 13.36 4.13 24.56 11.13 25.01Zm-2.53-16.21c1.32-.45 3.45 1.26 4.76 3.81 1.3 2.56 1.28 5-.05 5.45s-3.45-1.26-4.76-3.82c-1.3-2.56-1.28-5 .05-5.45Z" class="cls-1" data-name="&amp;lt;Radial Repeat&amp;gt;"/><path d="M122.39 106.84c1.55-1.05 3.19-1.57 4.88-1.47 7 .45 11.99 11.65 11.13 25.02-.28 4.33-1.14 8.36-2.4 11.8 6.35-30.69-13.07-35.24-13.59-35.35h-.01Z" class="cls-1"/></g><g id="_Radial_Repeat_-3" data-name="&amp;lt;Radial Repeat&amp;gt;"><path id="_Radial_Repeat_-4" d="M83.51 135.64c2.71 3.89 9.15 4.45 16.42 2.03 3.49-1.16 7.17-3 10.73-5.48 10.99-7.67 16.63-18.54 12.62-24.3-.97-1.39-2.4-2.34-4.19-2.9v.01c-.09 3.48-1.05 7.61-2.9 11.65-3.85 8.47-10.07 13.35-13.89 10.89-3.82-2.45-3.8-11.29.06-19.76.02-.04.04-.09.06-.13-2.1 1-4.23 2.23-6.31 3.69-10.98 7.66-16.63 18.54-12.61 24.3Zm11.09-12.09c1.18.75 1.17 3.49-.02 6.1s-3.11 4.12-4.29 3.36-1.17-3.49.02-6.1 3.11-4.12 4.29-3.36" class="cls-1" data-name="&amp;lt;Radial Repeat&amp;gt;"/><path d="M119.1 104.99c1.79.55 3.22 1.51 4.19 2.9 4.01 5.76-1.63 16.63-12.62 24.3-3.56 2.48-7.24 4.32-10.73 5.48 27.95-14.18 19.41-32.19 19.17-32.67v-.01Z" class="cls-1"/></g><g id="_Radial_Repeat_-5" data-name="&amp;lt;Radial Repeat&amp;gt;"><path id="_Radial_Repeat_-6" d="M72.34 92.54c-1.35 4.55 2.23 9.93 8.65 14.1 3.08 2.01 6.82 3.74 10.97 4.98 12.85 3.81 24.87 1.44 26.87-5.28.48-1.62.34-3.34-.34-5.08-2.78 2.1-6.61 3.92-10.92 5-9.02 2.27-16.71.45-17.18-4.07s6.46-10.01 15.48-12.28l.15-.03a44 44 0 0 0-6.82-2.63c-12.84-3.81-24.87-1.44-26.86 5.29m16.37 1.14c.15 1.39-2 3.09-4.78 3.79s-5.16.13-5.3-1.26 2-3.09 4.78-3.79 5.16-.13 5.3 1.26" class="cls-1" data-name="&amp;lt;Radial Repeat&amp;gt;"/><path d="M118.5 101.26c.68 1.74.82 3.46.34 5.08-2 6.73-14.02 9.1-26.87 5.28-4.16-1.24-7.89-2.97-10.97-4.97 28.51 13.01 37.27-4.9 37.5-5.39" class="cls-1"/></g><g id="_Radial_Repeat_-7" data-name="&amp;lt;Radial Repeat&amp;gt;"><path id="_Radial_Repeat_-8" d="M99.08 56.95c-4.4 1.78-6.37 7.93-5.63 15.56.36 3.66 1.33 7.67 2.96 11.69 5.03 12.42 14.38 20.34 20.88 17.71 1.57-.63 2.82-1.82 3.76-3.44h-.01c-3.37-.86-7.19-2.72-10.72-5.42-7.4-5.64-10.77-12.79-7.53-15.97s11.85-1.19 19.25 4.45l.12.09c-.51-2.27-1.24-4.62-2.19-6.97-5.03-12.41-14.38-20.34-20.88-17.7Zm9.31 13.5c-.99.98-3.66.36-5.94-1.37-2.28-1.74-3.32-3.95-2.32-4.93s3.66-.36 5.94 1.38 3.32 3.95 2.32 4.93Z" class="cls-1" data-name="&amp;lt;Radial Repeat&amp;gt;"/><path d="M121.04 98.47c-.94 1.62-2.19 2.8-3.76 3.44-6.51 2.63-15.85-5.29-20.88-17.71-1.62-4.02-2.6-8.02-2.96-11.68 7.6 30.4 27.06 26.08 27.58 25.96h.01Z" class="cls-1"/></g><g id="_Radial_Repeat_-9" data-name="&amp;lt;Radial Repeat&amp;gt;"><path id="_Radial_Repeat_-10" d="M143.57 55.65c-4.13-2.33-10.17-.04-15.68 5.3-2.64 2.56-5.16 5.82-7.29 9.6-6.57 11.68-6.94 23.93-.83 27.37 1.47.83 3.18 1.07 5.03.8-1.43-3.17-2.35-7.32-2.45-11.76-.2-9.3 3.28-16.39 7.79-15.84s8.32 8.53 8.52 17.83v.15c1.46-1.81 2.84-3.85 4.09-6.06 6.57-11.67 6.94-23.92.82-27.36Zm-4.75 15.7c-1.39-.16-2.56-2.63-2.63-5.5-.06-2.87 1.02-5.06 2.41-4.89s2.56 2.63 2.63 5.51c.06 2.87-1.02 5.06-2.41 4.89Z" class="cls-1" data-name="&amp;lt;Radial Repeat&amp;gt;"/><path d="M124.81 98.71c-1.85.28-3.56.03-5.03-.8-6.11-3.45-5.75-15.7.83-27.37 2.13-3.78 4.65-7.04 7.29-9.59-19.04 24.9-3.52 37.42-3.1 37.75Z" class="cls-1"/></g><g id="_Radial_Repeat_-11" data-name="&amp;lt;Radial Repeat&amp;gt;"><path id="_Radial_Repeat_-12" d="M172.33 89.63c-.75-4.69-6.31-7.98-13.91-8.95-3.64-.47-7.76-.41-12.04.28-13.23 2.14-23.03 9.49-21.92 16.42.27 1.67 1.15 3.15 2.51 4.43v-.01c1.59-3.09 4.25-6.4 7.67-9.24 7.15-5.96 14.87-7.65 17.25-3.79 2.38 3.87-1.48 11.82-8.62 17.78l-.12.09c2.33.01 4.78-.18 7.29-.59 13.22-2.14 23.03-9.49 21.91-16.42Zm-15.24 6.08c-.73-1.19.46-3.65 2.66-5.49 2.21-1.84 4.59-2.36 5.33-1.17.73 1.19-.46 3.65-2.67 5.49s-4.59 2.36-5.32 1.16Z" class="cls-1" data-name="&amp;lt;Radial Repeat&amp;gt;"/><path d="M126.96 101.81c-1.37-1.27-2.24-2.76-2.51-4.43-1.12-6.93 8.69-14.28 21.92-16.42 4.28-.69 8.4-.75 12.04-.28-31.34.65-31.46 20.58-31.45 21.12z" class="cls-1"/></g><g id="_Radial_Repeat_-13" data-name="&amp;lt;Radial Repeat&amp;gt;"><path id="_Radial_Repeat_-14" d="M163.69 133.31c3.19-3.51 2.3-9.91-1.67-16.46-1.91-3.15-4.52-6.33-7.73-9.25-9.92-9.01-21.78-12.09-26.5-6.9-1.14 1.25-1.75 2.86-1.89 4.73h.01c3.41-.68 7.66-.67 12.01.23 9.11 1.87 15.25 6.85 13.71 11.12s-10.16 6.21-19.28 4.34c-.05 0-.1-.02-.15-.03 1.44 1.83 3.12 3.62 5 5.33 9.91 9 21.78 12.09 26.49 6.89m-14.25-8.13c.47-1.31 3.14-1.91 5.95-1.34 2.81.58 4.71 2.12 4.23 3.44s-3.14 1.91-5.95 1.34c-2.81-.58-4.71-2.12-4.23-3.43Z" class="cls-1" data-name="&amp;lt;Radial Repeat&amp;gt;"/><path d="M125.89 105.43c.14-1.86.76-3.47 1.89-4.73 4.72-5.19 16.58-2.11 26.5 6.9 3.21 2.92 5.82 6.1 7.73 9.24-20.04-24.09-35.7-11.75-36.12-11.42h-.01Z" class="cls-1"/></g></g></svg>