<svg xmlns="http://www.w3.org/2000/svg" data-name="Layer 2" viewBox="0 0 512 205"><defs><clipPath id="a"><path d="M0 0h512v205H0z" style="fill:none"/></clipPath></defs><g style="clip-path:url(#a)"><path d="M221.09 56.34c-13.87 12.24-16.15 33.41-16.53 40.65-.05.9-1.09 1.37-1.8.8-5.89-4.72-13.88-5.1-18.88-4.77-1.14.08-1.39 1.64-.34 2.07 11.56 4.8 22.27 14.47 25.09 27.11 1.33 5.97.08 12.35-3.27 17.45-5.99 9.12-20.62 14.54-30.89 9.91-2.6-1.17-4.5-3.72-5.15-6.47-1.61-6.78 3.7-12.62 7.87-17.24 3.33-3.69 7.18-6.92 11.33-9.64 1.14-.75 2.3-1.48 3.51-2.1-11.61-.6-22.37 4.62-30.96 12.09-4.19 3.65-7.76 7.92-11.07 12.36-2.13 2.85-3.98 5.98-6.6 8.43-2.63 2.45-6.58 4.57-10.11 2.7-3.09-1.64-3.64-5.43-3.86-8.58-.5-7.34 1.42-14.53 4.08-21.31 2-5.1 4.79-10.08 8.38-14.3 5.07-5.95 11.75-10.41 19.23-12.71 1.94-.59 3.92-1.05 5.92-1.33 1-.14 1.27-1.44.43-1.98-12.83-8.19-27.07 2.62-31.92 6.92-1.1.97-3.14.31-3-1.15 1.02-10.82 3.47-22.38 10.13-31.25 3.26-4.33 7.67-7.96 12.92-9.53 3.21-.96 6.68-.67 9.99-.67h21.86c1.14 0 1.54 1.51.55 2.07l-.61.35c-2.59 1.49-5 3.29-7.11 5.41-9.01 9.07-10.17 20.29-3.58 22.59 5.36 1.87 8.65-3.18 10.15-6.39 1.47-3.14 3.28-6.12 5.39-8.87 11.43-14.94 21.84-15.16 27.71-15.15 1.44 0 2.22 1.59 1.14 2.54Zm15.62 43.82h-5.93l10.59-15.58v-.37l-10.59-15.3h5.97l8.49 12.18h.37l8.4-12.18h5.97l-10.64 15.3v.37l10.64 15.58h-6.07l-8.49-12.46h-.33l-8.4 12.46Zm35.31.47c-2.55 0-4.65-.51-6.3-1.54s-2.89-2.44-3.71-4.25c-.82-1.8-1.24-3.9-1.24-6.3s.46-4.49 1.38-6.3c.92-1.8 2.22-3.21 3.9-4.22s3.67-1.52 5.97-1.52c2.08 0 3.92.4 5.51 1.19s2.83 1.94 3.73 3.43q1.35 2.235 1.35 5.46c0 .59-.02 1.17-.07 1.75s-.1 1.05-.16 1.42h-19.22v-3.41h15.12l-.51.47c.16-1.43.02-2.59-.4-3.48s-1.1-1.55-2.03-1.98c-.93-.44-2.08-.65-3.45-.65-2.46 0-4.14.62-5.04 1.87-.9 1.24-1.35 2.94-1.35 5.09v1.35c0 1.56.19 2.87.56 3.94s1.05 1.87 2.03 2.4 2.31.79 3.99.79c1.96 0 3.34-.31 4.15-.93s1.21-1.45 1.21-2.47v-.37h4.99v.42c0 1.59-.44 2.96-1.31 4.13s-2.08 2.08-3.62 2.73-3.37.98-5.48.98m19.46-.47h-5.04V76.97h4.62v6.95l.42.23v16Zm16.56 0h-4.99V86.72c0-2.08-.4-3.58-1.19-4.48q-1.185-1.35-4.41-1.35c-1.34 0-2.45.19-3.34.56s-1.55.99-1.98 1.84c-.44.86-.65 2.01-.65 3.48h-.89l-.42-5.46h1.12c.34-.84.86-1.62 1.54-2.33q1.02-1.08 2.64-1.77c1.07-.47 2.34-.7 3.8-.7 2.05 0 3.72.39 4.99 1.17 1.28.78 2.22 1.85 2.85 3.22q.93 2.055.93 4.71v14.56Zm15.17.47c-2.36 0-4.41-.51-6.14-1.52s-3.06-2.43-4.01-4.25-1.42-3.93-1.42-6.32.47-4.49 1.42-6.3c.95-1.8 2.29-3.21 4.01-4.22 1.73-1.01 3.77-1.52 6.14-1.52s4.39.51 6.09 1.52c1.69 1.01 3.01 2.42 3.94 4.22s1.4 3.9 1.4 6.3-.47 4.5-1.4 6.32-2.25 3.24-3.94 4.25c-1.7 1.01-3.73 1.52-6.09 1.52m0-4.48c2.46 0 4.16-.61 5.11-1.84s1.42-3.15 1.42-5.76-.47-4.53-1.42-5.76-2.65-1.84-5.11-1.84-4.17.61-5.13 1.84-1.45 3.15-1.45 5.76.48 4.53 1.45 5.76c.96 1.23 2.67 1.84 5.13 1.84m-78.99 39.95c-2.96 0-5.39-.43-7.3-1.28-1.91-.86-3.33-2.05-4.25-3.59q-1.38-2.31-1.38-5.34v-.75h4.95v.51c0 1.28.23 2.35.68 3.22s1.27 1.52 2.45 1.96 2.88.65 5.09.65c2.33 0 3.96-.33 4.88-1q1.38-1.005 1.38-3.15c0-.96-.14-1.75-.42-2.36s-.83-1.1-1.66-1.47c-.82-.37-2.05-.72-3.66-1.03l-5.32-1.07c-1.8-.34-3.31-.88-4.53-1.61-1.21-.73-2.14-1.67-2.78-2.82s-.96-2.53-.96-4.15.41-3.01 1.24-4.36c.82-1.35 2.1-2.45 3.83-3.29q2.595-1.26 6.6-1.26c2.86 0 5.19.48 6.98 1.45 1.79.96 3.09 2.23 3.92 3.8.82 1.57 1.24 3.29 1.24 5.16v.56h-4.99v-.51q0-1.965-.63-3.24c-.42-.86-1.17-1.51-2.24-1.96s-2.53-.68-4.36-.68c-2.33 0-4.01.34-5.02 1.03-1.01.68-1.52 1.7-1.52 3.03 0 .96.16 1.73.49 2.29s.89 1 1.7 1.33 1.93.66 3.36 1l5.32 1.12c1.96.4 3.56 1 4.81 1.8 1.24.79 2.16 1.77 2.75 2.94s.89 2.54.89 4.13-.4 3.11-1.21 4.48-2.06 2.46-3.76 3.27-3.88 1.21-6.56 1.21Zm28.46-19.46h-15.86v-4.2h15.86zm-4.15 18.99c-2.55 0-4.5-.54-5.86-1.61-1.35-1.07-2.03-2.92-2.03-5.53v-15.54l1.17-6.25h3.83v21.56q0 1.815.93 2.31c.62.33 1.73.49 3.31.49h2.8v4.15c-.47.09-1.07.19-1.82.28s-1.52.14-2.33.14m16.04.47c-1.99 0-3.64-.41-4.95-1.24a7.23 7.23 0 0 1-2.87-3.36c-.61-1.42-.91-2.99-.91-4.74v-14.32h4.99v13.39c0 2.12.44 3.63 1.31 4.55s2.32 1.38 4.34 1.38c1.28 0 2.36-.21 3.27-.63.9-.42 1.59-1.09 2.08-2.01.48-.92.72-2.12.72-3.62h1.26v5.51h-1.12c-.34.87-.86 1.7-1.56 2.47-.7.78-1.59 1.41-2.66 1.89s-2.37.72-3.9.72Zm12.98-.47h-4.67v-7l-.33-.23v-15.96h4.99v23.19Zm13.94.47c-3.3 0-5.82-1.1-7.58-3.29q-2.64-3.285-2.64-8.79c0-5.505.86-6.59 2.57-8.77s4.17-3.27 7.37-3.27c2.05 0 3.71.41 4.97 1.24 1.26.82 2.14 1.77 2.64 2.82h1.26l-.23 5.93h-.89c0-1.31-.25-2.38-.75-3.22s-1.21-1.46-2.15-1.87c-.93-.4-2.08-.61-3.45-.61q-1.635 0-2.85.42c-.81.28-1.47.72-1.98 1.31s-.89 1.38-1.12 2.38-.35 2.21-.35 3.64.12 2.64.35 3.64.61 1.8 1.12 2.4c.51.61 1.17 1.05 1.98 1.33s1.76.42 2.85.42c1.37 0 2.52-.2 3.45-.61.93-.4 1.65-1.03 2.15-1.89s.75-1.92.75-3.2h.89l.23 5.65h-.93c-.53 1.37-1.44 2.43-2.73 3.2q-1.935 1.14-4.92 1.14Zm12.46-.47h-4.57v-5.51l-.42-.61v-25.15h4.99v31.26Zm9.52-26.13h-4.99l-.05-5.13h5.04zm.05 26.13h-5.04V112.3h5.04zm14.83.47c-2.36 0-4.41-.51-6.14-1.52s-3.06-2.43-4.01-4.25-1.42-3.93-1.42-6.32.47-4.49 1.42-6.3c.95-1.8 2.29-3.21 4.01-4.22 1.73-1.01 3.77-1.52 6.14-1.52s4.39.51 6.09 1.52 3.01 2.42 3.94 4.22 1.4 3.9 1.4 6.3-.47 4.5-1.4 6.32-2.25 3.24-3.94 4.25c-1.7 1.01-3.72 1.52-6.09 1.52m0-4.48c2.46 0 4.16-.61 5.11-1.84s1.42-3.15 1.42-5.76-.47-4.53-1.42-5.76-2.65-1.84-5.11-1.84-4.17.61-5.13 1.84-1.45 3.15-1.45 5.76.48 4.53 1.45 5.76c.96 1.23 2.67 1.84 5.13 1.84m24.96 4.48c-3.39 0-5.96-.68-7.7-2.03s-2.61-3.43-2.61-6.23v-.14h4.9v.84c0 .81.16 1.48.47 2.01s.86.89 1.66 1.1c.79.2 1.92.3 3.38.3 1.24 0 2.18-.09 2.82-.28s1.07-.46 1.28-.82c.22-.36.33-.83.33-1.42q0-1.44-.96-1.98c-.64-.36-1.81-.69-3.52-1l-3.64-.7c-1.4-.25-2.6-.63-3.59-1.14-1-.51-1.77-1.24-2.33-2.17q-.84-1.395-.84-3.45c0-2.08.83-3.77 2.5-5.06 1.66-1.29 4-1.94 7.02-1.94 1.87 0 3.51.3 4.92.89 1.42.59 2.55 1.48 3.41 2.66s1.28 2.66 1.28 4.43v.42h-4.85v-.56c0-.75-.12-1.39-.37-1.94-.25-.54-.72-.97-1.4-1.28s-1.73-.47-3.13-.47c-1.84 0-3.06.23-3.66.7s-.91 1.17-.91 2.1c0 .87.27 1.49.82 1.84.54.36 1.64.71 3.29 1.05l3.92.75c1.49.28 2.74.7 3.76 1.26q1.515.84 2.31 2.19c.53.9.79 1.99.79 3.27 0 2.15-.82 3.82-2.47 5.02s-3.94 1.8-6.86 1.8Z" style="fill:#fff"/></g></svg>