<svg xmlns="http://www.w3.org/2000/svg" viewBox="0 0 512 205"><defs><linearGradient id="linear-gradient" x1="60.77" x2="115.34" y1="115.3" y2="91.61" gradientUnits="userSpaceOnUse"><stop offset="0" stop-color="#fff"/><stop offset=".97" stop-color="#fff" stop-opacity="0"/></linearGradient><linearGradient id="linear-gradient-2" x1="147.66" x2="98.38" y1="141.63" y2="61.54" gradientTransform="rotate(30 123.586 102.505)" gradientUnits="userSpaceOnUse"><stop offset="0" stop-color="#fff" stop-opacity="0"/><stop offset="1" stop-color="#fff"/></linearGradient><linearGradient id="linear-gradient-3" x1="141.47" x2="121.62" y1="154.93" y2="59.62" gradientUnits="userSpaceOnUse"><stop offset="0" stop-color="#fff"/><stop offset="1" stop-color="#fff" stop-opacity="0"/></linearGradient><linearGradient id="linear-gradient-4" x1="92.28" x2="106.92" y1="92.74" y2="92.74" gradientUnits="userSpaceOnUse"><stop offset="0" stop-color="#fff"/><stop offset="1" stop-color="#fff" stop-opacity="0"/></linearGradient><clipPath id="clippath"><path d="M0 0h512v205H0z" style="fill:none"/></clipPath><style>.cls-3{fill:#fff}</style></defs><g style="isolation:isolate"><g id="Layer_1" data-name="Layer 1" style="clip-path:url(#clippath)"><path d="M105.21 113.1c.56.96 1.12 1.91 1.7 2.83-.43.69-.87 1.38-1.32 2.05-.26.39-.52.78-.78 1.16-.04.07-.09.14-.13.2-12.16 17.74-27.9 27.53-37.02 22.26-10.15-5.86-8.26-28.12 4.21-49.73 6.86-11.89 15.5-21.1 23.58-26.01 2.34-1.42 4.64-2.48 6.83-3.13q-.675.27-1.29.63c-10.15 5.85-8.26 28.12 4.21 49.72Z" style="fill:url(#linear-gradient)"/><ellipse cx="123.58" cy="102.5" rx="21.21" ry="45.17" style="fill:url(#linear-gradient-2)" transform="rotate(-30 123.577 102.492)"/><path d="M146.17 141.62c-2.41 1.39-5.28 1.73-8.43 1.15 1.06-.23 2.06-.61 2.99-1.15 10.14-5.86 8.26-28.12-4.21-49.72-9.51-16.47-22.43-27.81-32.53-29.66 10.47-2.29 26.64 10.04 37.96 29.66 12.47 21.6 14.36 43.86 4.21 49.72Z" style="fill:url(#linear-gradient-3);mix-blend-mode:color-dodge;opacity:.26"/><path d="M106.92 115.94c-.43.69-.87 1.38-1.32 2.05-.26.39-.52.78-.78 1.16-22.79-35.23-7.67-52.12-7.07-52.82-6.25 8.48-3.45 27.88 7.47 46.77.56.96 1.12 1.91 1.7 2.83Z" style="fill:url(#linear-gradient-4);opacity:.28"/><path d="m183.96 78.18-16.62 48.65h11l2.18-6.83a6.42 6.42 0 0 1 6.12-4.47h7.96c2.77 0 5.22 1.77 6.09 4.4l2.29 6.9h11.07l-17.04-48.65h-13.06Zm.49 29.54 1.4-4.37c.89-2.96 1.79-6.25 2.69-9.88.58-2.35 1.2-4.85 1.85-7.47.67 2.6 1.31 5.08 1.94 7.41.97 3.6 1.92 6.92 2.86 9.94l1.45 4.37zm59.02-13.27a15.3 15.3 0 0 0-5.45-3.44q-3.105-1.14-6.69-1.14c-3.55 0-6.64.79-9.27 2.38s-4.67 3.8-6.11 6.63-2.15 6.13-2.15 9.89.72 7.18 2.17 9.99 3.52 4.97 6.22 6.5c2.7 1.52 5.91 2.29 9.63 2.29 2.85 0 5.37-.41 7.56-1.24s4.01-2 5.47-3.51 2.48-3.27 3.07-5.27l-8.88-1.67c-.35.94-.85 1.73-1.52 2.37-.66.64-1.46 1.13-2.4 1.45-.94.33-1.98.49-3.13.49-1.7 0-3.18-.36-4.46-1.08s-2.26-1.8-2.97-3.23c-.64-1.3-.97-2.89-1.04-4.73h24.95v-2.74q0-4.695-1.32-8.16c-.88-2.31-2.11-4.23-3.67-5.76Zm-16.38 3.97c1.19-.78 2.63-1.18 4.33-1.18s3.09.39 4.23 1.16 2 1.86 2.58 3.26c.4.98.66 2.09.78 3.31h-15.46c.11-1.24.4-2.36.86-3.38.61-1.34 1.51-2.4 2.69-3.18Zm44.12-8.59c-2.05 0-3.86.58-5.44 1.73s-2.71 2.86-3.38 5.13H262v-6.37h-4.56c-2.71 0-4.91 2.2-4.91 4.91v31.6h9.79v-20.76c0-1.52.33-2.86 1-4 .66-1.14 1.59-2.03 2.79-2.68q1.8-.96 4.02-.96c.74 0 1.52.04 2.35.13q1.245.135 1.89.36v-8.75a10 10 0 0 0-1.53-.24c-.59-.05-1.13-.08-1.63-.08Zm32.14 2.4c-2.67-1.58-5.84-2.37-9.52-2.37s-6.82.79-9.5 2.37-4.74 3.78-6.19 6.6-2.17 6.12-2.17 9.91.72 7.03 2.17 9.84c1.45 2.82 3.51 5.02 6.19 6.6s5.84 2.37 9.5 2.37 6.85-.79 9.52-2.37 4.72-3.78 6.17-6.6 2.17-6.1 2.17-9.84-.72-7.09-2.17-9.91-3.5-5.02-6.17-6.6m-2.49 22.17c-.59 1.69-1.47 3.02-2.64 3.98-1.18.97-2.63 1.45-4.37 1.45s-3.19-.48-4.36-1.45c-1.16-.97-2.04-2.3-2.63-3.98-.59-1.69-.88-3.59-.88-5.7s.29-4.07.88-5.75 1.46-2.99 2.63-3.95c1.16-.96 2.62-1.44 4.36-1.44s3.2.48 4.37 1.44c1.18.96 2.06 2.27 2.64 3.95.59 1.68.88 3.59.88 5.75s-.29 4.01-.88 5.7m24.11-36.22h-9.96v41.6c0 3.89 3.15 7.04 7.04 7.04h23.91v-8.26h-20.99V78.17Zm24.5 48.64h9.79v-36.5h-5.3a4.49 4.49 0 0 0-4.49 4.49zm4.89-51.32c-1.48 0-2.74.49-3.79 1.47S349 79.14 349 80.53s.52 2.58 1.57 3.56 2.31 1.47 3.79 1.47 2.75-.49 3.8-1.47c1.06-.98 1.58-2.17 1.58-3.56s-.53-2.58-1.58-3.56c-1.06-.98-2.32-1.47-3.8-1.47m34.99 16.01c-1.88-1.1-4.09-1.65-6.61-1.65-3.09 0-5.61.83-7.56 2.5-1.6 1.37-2.87 3.22-3.8 5.52l-.14-7.56h-4.83a4.4 4.4 0 0 0-4.4 4.4v32.1h9.79V105.7c0-1.63.3-3.01.9-4.15.6-1.13 1.44-2 2.51-2.6 1.08-.6 2.3-.9 3.67-.9 2.07 0 3.68.64 4.85 1.93 1.16 1.28 1.75 3.06 1.75 5.32v21.52h9.79v-23.21c0-2.85-.52-5.31-1.55-7.36-1.03-2.06-2.49-3.63-4.38-4.73Zm42.63-1.19h-11.33l-11.95 14.04h-.55V78.18h-5.24c-2.51 0-4.55 2.04-4.55 4.55v44.09h9.79v-11.71l2.8-3.16 10.19 14.87h11.52l-14.33-20.65zm18.41-8.42c-.31-.73-.75-1.38-1.3-1.94-.56-.56-1.2-.99-1.94-1.31-.73-.32-1.52-.47-2.36-.47s-1.62.16-2.35.47a6.1 6.1 0 0 0-3.23 3.25c-.32.73-.47 1.52-.47 2.35s.16 1.62.47 2.35c.32.73.75 1.38 1.3 1.94s1.2.99 1.93 1.31 1.52.47 2.35.47 1.63-.16 2.36-.47c.73-.32 1.38-.75 1.94-1.31s.99-1.2 1.3-1.94c.31-.73.47-1.52.47-2.35s-.16-1.62-.47-2.35m-1.72 4.6q-.6 1.02-1.62 1.62c-.68.4-1.43.61-2.26.61s-1.57-.2-2.25-.61q-1.02-.6-1.62-1.62c-.4-.68-.61-1.43-.61-2.26s.2-1.57.61-2.24q.6-1.005 1.62-1.62c.68-.4 1.43-.61 2.25-.61s1.58.2 2.25.61q1.005.6 1.62 1.62c.4.67.61 1.43.61 2.25s-.2 1.57-.6 2.25" class="cls-3"/><path d="M447 84.26c.18-.28.28-.62.28-1.02s-.09-.73-.27-1-.41-.48-.7-.62-.61-.21-.96-.21h-2.74V87h1.44v-1.89h.95l.88 1.89h1.6l-1.08-2.16c.25-.14.46-.33.62-.58Zm-2.96-1.8h.94c.2 0 .38.06.54.19s.23.33.23.63-.08.52-.23.67a.77.77 0 0 1-.55.22h-.93v-1.7Z" class="cls-3"/></g></g></svg>