<svg xmlns="http://www.w3.org/2000/svg" id="Layer_2" data-name="Layer 2" viewBox="0 0 512 205"><defs><style>.cls-1{fill:#fff}</style></defs><path d="M157.45 56.27v43.09c0 3.37-6.2 7.28-6.2 7.28-1.2.96-2.37 1.98-3.51 3.01-4.43 4.03-8.31 8.46-11.13 11.93-2.96 3.65-4.74 6.25-4.74 6.25v-16.67c.08-.33.66-1.54 4.74-5.51 1.76-1.71 4.17-3.94 7.47-6.83 0 0 3.67-2.21 3.67-8.97V50.59l9.7 5.66Z" class="cls-1"/><path d="M131.8 128.07v-16.89c.08-.37.7-1.61 4.76-5.56 2.02-1.97 4.54-4.27 7.47-6.83.05-.03 3.64-2.28 3.64-8.92V50.49l9.84 5.74v43.13c0 3.37-5.97 7.18-6.23 7.34-1.08.86-2.23 1.85-3.5 3.01-3.67 3.34-7.41 7.36-11.12 11.93-2.92 3.6-4.72 6.22-4.74 6.25l-.13.19Zm16.02-77.34v39.13c0 6.72-3.66 9.01-3.7 9.03-2.92 2.56-5.43 4.86-7.45 6.82-4.03 3.93-4.65 5.14-4.72 5.48v16.43c.46-.66 2.14-3.01 4.62-6.07 3.72-4.57 7.46-8.59 11.14-11.94 1.27-1.16 2.42-2.15 3.51-3.02.07-.04 6.17-3.93 6.17-7.23V56.31l-9.56-5.58Zm-11.2-6.62v46.26l-9.71 9.7-9.7-9.7V44.11l4.74-2.77 4.96-2.9 4.96 2.9z" class="cls-1"/><path d="m126.91 100.17-.05-.05-9.72-9.72V44.07l.03-.02 9.74-5.69.04.02 9.74 5.69V90.4zm-9.63-9.83 9.63 9.63 9.63-9.63V44.15l-9.63-5.63-9.63 5.63zm61-21.91v40.09c0 2.48-1.14 4.83-3.09 6.37-2.32 1.84-4.52 3.67-6.62 5.49-4.12 3.57-7.81 7.08-11.12 10.48-19.1 19.59-25.58 35.42-25.58 35.42v-18.35c.46-3.47 8.1-13.46 15.87-22.35 3.41-3.89 6.84-7.57 9.7-10.4 2.53-2.48 4.62-4.3 5.85-5.02 4.42-2.55 5.17-7.15 5.27-9.24.03-.68 0-1.1 0-1.1V62.75l9.7 5.66Z" class="cls-1"/><path d="M131.8 166.64v-18.71c.49-3.68 8.87-14.36 15.89-22.39 3.43-3.92 6.88-7.62 9.71-10.4 2.65-2.6 4.68-4.34 5.87-5.03 4.45-2.57 5.14-7.27 5.23-9.18.03-.67 0-1.09 0-1.09v-37.2l9.84 5.74v40.13c0 2.51-1.13 4.86-3.11 6.42-2.26 1.79-4.48 3.64-6.62 5.49-3.85 3.33-7.59 6.86-11.12 10.48-18.87 19.35-25.5 35.24-25.56 35.4l-.14.33Zm36.84-103.75v36.95s.03.42 0 1.11c-.09 1.93-.79 6.69-5.3 9.29-1.17.68-3.19 2.41-5.84 5.01-2.82 2.78-6.27 6.47-9.7 10.39-7.01 8.02-15.37 18.67-15.86 22.31v18c1.03-2.33 8.03-17.25 25.46-35.13 3.53-3.62 7.27-7.15 11.13-10.48 2.13-1.85 4.36-3.7 6.62-5.5a8.02 8.02 0 0 0 3.06-6.31V68.48l-9.56-5.58Zm-72.27-6.62v43.09c0 3.37 6.2 7.28 6.2 7.28 1.2.96 2.37 1.98 3.51 3.01 4.43 4.03 8.31 8.46 11.13 11.93 2.96 3.65 4.74 6.25 4.74 6.25v-16.67c-.08-.33-.66-1.54-4.74-5.51-1.76-1.71-4.17-3.94-7.47-6.83 0 0-3.67-2.21-3.67-8.97V50.59l-9.7 5.66Z" class="cls-1"/><path d="m122.02 128.07-.13-.19s-1.82-2.65-4.74-6.25c-3.71-4.57-7.46-8.58-11.12-11.93a69 69 0 0 0-3.5-3.01c-.25-.16-6.22-3.96-6.22-7.34V56.22l.03-.02 9.81-5.72v39.38c0 6.63 3.6 8.89 3.63 8.91 2.94 2.57 5.45 4.87 7.48 6.84 4.06 3.95 4.68 5.2 4.76 5.55zM96.44 56.31v43.05c0 3.3 6.1 7.18 6.16 7.22 1.1.88 2.25 1.86 3.52 3.02 3.67 3.35 7.42 7.37 11.14 11.94 2.48 3.06 4.16 5.42 4.62 6.07v-16.44c-.07-.32-.69-1.53-4.72-5.46-2.02-1.97-4.53-4.26-7.46-6.83-.03-.02-3.69-2.3-3.69-9.02V50.73l-9.56 5.58Z" class="cls-1"/><path d="M75.55 68.43v40.09c0 2.48 1.14 4.83 3.09 6.37 2.32 1.84 4.52 3.67 6.62 5.49 4.12 3.57 7.81 7.08 11.12 10.48 19.1 19.59 25.58 35.42 25.58 35.42v-18.35c-.46-3.47-8.1-13.46-15.87-22.35-3.41-3.89-6.84-7.57-9.7-10.4-2.53-2.48-4.62-4.3-5.85-5.02-4.42-2.55-5.17-7.15-5.27-9.24-.03-.68 0-1.1 0-1.1V62.75l-9.7 5.66Z" class="cls-1"/><path d="m122.02 166.64-.14-.33c-.06-.16-6.7-16.05-25.56-35.4-3.53-3.62-7.27-7.14-11.12-10.48-2.13-1.85-4.36-3.7-6.61-5.49a8.15 8.15 0 0 1-3.11-6.42V68.39l.03-.02 9.81-5.72v37.19s-.03.43 0 1.1c.09 1.91.79 6.61 5.23 9.18 1.18.69 3.21 2.43 5.87 5.03 2.83 2.78 6.27 6.48 9.71 10.4 7.03 8.03 15.4 18.71 15.89 22.38v18.72Zm-46.4-98.17v40.05c0 2.47 1.11 4.77 3.06 6.31 2.26 1.79 4.49 3.64 6.62 5.5 3.85 3.34 7.6 6.86 11.13 10.48 17.43 17.88 24.43 32.81 25.46 35.13v-18.01c-.48-3.63-8.84-14.28-15.86-22.3-3.43-3.92-6.88-7.61-9.7-10.39-2.65-2.59-4.67-4.33-5.84-5.01-4.51-2.6-5.21-7.36-5.3-9.29-.03-.68 0-1.09 0-1.11V62.89l-9.56 5.58Zm81.83-12.2v43.09c0 3.37-6.2 7.28-6.2 7.28-1.2.96-2.37 1.98-3.51 3.01-4.43 4.03-8.31 8.46-11.13 11.93-2.96 3.65-4.74 6.25-4.74 6.25v-16.67c.08-.33.66-1.54 4.74-5.51 1.76-1.71 4.17-3.94 7.47-6.83 0 0 3.67-2.21 3.67-8.97V50.59l9.7 5.66Zm-20.83-12.16v46.26l-9.71 9.7-9.7-9.7V44.11l4.74-2.77 4.96-2.9 4.96 2.9z" class="cls-1"/><path d="M178.28 68.43v40.09c0 2.48-1.14 4.83-3.09 6.37-2.32 1.84-4.52 3.67-6.62 5.49-4.12 3.57-7.81 7.08-11.12 10.48-19.1 19.59-25.58 35.42-25.58 35.42v-18.35c.46-3.47 8.1-13.46 15.87-22.35 3.41-3.89 6.84-7.57 9.7-10.4 2.53-2.48 4.62-4.3 5.85-5.02 4.42-2.55 5.17-7.15 5.27-9.24.03-.68 0-1.1 0-1.1V62.75l9.7 5.66ZM96.37 56.27v43.09c0 3.37 6.2 7.28 6.2 7.28 1.2.96 2.37 1.98 3.51 3.01 4.43 4.03 8.31 8.46 11.13 11.93 2.96 3.65 4.74 6.25 4.74 6.25v-16.67c-.08-.33-.66-1.54-4.74-5.51-1.76-1.71-4.17-3.94-7.47-6.83 0 0-3.67-2.21-3.67-8.97V50.59l-9.7 5.66Z" class="cls-1"/><path d="M75.55 68.43v40.09c0 2.48 1.14 4.83 3.09 6.37 2.32 1.84 4.52 3.67 6.62 5.49 4.12 3.57 7.81 7.08 11.12 10.48 19.1 19.59 25.58 35.42 25.58 35.42v-18.35c-.46-3.47-8.1-13.46-15.87-22.35-3.41-3.89-6.84-7.57-9.7-10.4-2.53-2.48-4.62-4.3-5.85-5.02-4.42-2.55-5.17-7.15-5.27-9.24-.03-.68 0-1.1 0-1.1V62.75l-9.7 5.66Zm128.41 53.02V70.67h32.79v7.04h-24.08v14.58h21.91v6.89h-21.91v15.23h24.08v7.04zm38.59 0V69.22h8.7v52.23zm32.35.87c-3.63 0-6.83-.79-9.61-2.36s-4.96-3.76-6.53-6.56-2.36-6.04-2.36-9.72.77-7.02 2.32-9.9 3.72-5.13 6.53-6.75q4.2-2.43 9.72-2.43c5.52 0 6.64.77 9.32 2.32q4.02 2.325 6.24 6.27c1.47 2.64 2.21 5.6 2.21 8.89v1.6q0 .87-.15 1.89H262.7v-5.66h21.25c-.15-2.51-1.06-4.51-2.76-5.98-1.69-1.47-3.77-2.21-6.24-2.21-1.79 0-3.45.4-4.97 1.2s-2.75 1.98-3.66 3.55c-.92 1.57-1.38 3.57-1.38 5.98v2.1c0 2.22.45 4.13 1.34 5.73s2.09 2.81 3.59 3.63q2.25 1.23 5.01 1.23c1.98 0 3.65-.45 5.01-1.34a7.8 7.8 0 0 0 2.97-3.59h8.85c-.63 2.32-1.73 4.39-3.3 6.2s-3.49 3.25-5.77 4.32c-2.27 1.06-4.86 1.6-7.76 1.6Zm32.28-.87-13.27-35.98h9.07l9.5 27.71 9.43-27.71h9.07l-13.35 35.98zm43.45.87c-3.58 0-6.81-.79-9.68-2.36-2.88-1.57-5.16-3.78-6.86-6.64-1.69-2.85-2.54-6.14-2.54-9.87s.85-7.07 2.54-9.9 3.99-5.03 6.89-6.6 6.12-2.36 9.65-2.36 6.87.79 9.72 2.36 5.13 3.77 6.82 6.6 2.54 6.13 2.54 9.9-.85 7.01-2.54 9.87c-1.69 2.85-3.98 5.07-6.85 6.64-2.88 1.57-6.11 2.36-9.68 2.36Zm0-7.55c1.84 0 3.52-.42 5.04-1.27s2.74-2.1 3.66-3.77q1.38-2.505 1.38-6.27c0-3.765-.46-4.61-1.38-6.27-.92-1.67-2.14-2.93-3.66-3.77-1.52-.85-3.2-1.27-5.04-1.27s-3.46.42-5.01 1.27-2.78 2.1-3.7 3.77q-1.38 2.505-1.38 6.27c0 3.765.46 4.61 1.38 6.27.92 1.67 2.14 2.93 3.66 3.77 1.52.85 3.2 1.27 5.04 1.27Zm24.16 6.68V85.47h8.7v5.51c.92-1.79 2.1-3.2 3.55-4.24q2.175-1.56 5.01-1.56h4.86v7.76h-5.73c-1.69 0-3.11.45-4.24 1.34-1.14.9-1.99 2.27-2.58 4.13-.58 1.86-.87 4.2-.87 7v16.03h-8.7Zm38.16.87c-2.76 0-5.1-.5-7.04-1.49-1.93-.99-3.41-2.31-4.42-3.95-1.02-1.64-1.52-3.43-1.52-5.37 0-3.77 1.37-6.7 4.1-8.78q4.095-3.12 10.77-3.12c2.03 0 3.83.16 5.4.47 1.57.32 2.84.62 3.81.91v-1.67c0-2.66-.74-4.62-2.21-5.88-1.48-1.26-3.4-1.89-5.77-1.89-1.74 0-3.29.35-4.64 1.05s-2.23 1.97-2.61 3.81h-8.27c.29-2.61 1.16-4.79 2.61-6.53s3.3-3.06 5.55-3.95 4.7-1.34 7.36-1.34c5.27 0 9.37 1.29 12.3 3.88s4.39 6.2 4.39 10.84v8.78c0 1.84.11 3.18.33 4.03s.58 1.38 1.09 1.6 1.17.33 1.99.33h.36v7.4h-1.96c-2.47 0-4.53-.35-6.2-1.05s-2.84-2.09-3.52-4.17c-1.21 1.74-2.81 3.19-4.79 4.35q-2.97 1.74-7.11 1.74m1.88-6.75q2.535 0 4.35-1.2c1.21-.8 2.19-1.86 2.94-3.19s1.24-2.79 1.49-4.39c-1.02-.29-2.22-.58-3.63-.87-1.4-.29-2.83-.44-4.28-.44-2.18 0-3.88.48-5.11 1.45s-1.85 2.27-1.85 3.92c0 1.35.54 2.48 1.63 3.37 1.09.9 2.58 1.34 4.46 1.34Z" class="cls-1"/><path d="M203.96 121.45V70.67h32.79v7.04h-24.08v14.58h21.91v6.89h-21.91v15.23h24.08v7.04zm38.59 0V69.22h8.7v52.23zm32.35.87c-3.63 0-6.83-.79-9.61-2.36s-4.96-3.76-6.53-6.56-2.36-6.04-2.36-9.72.77-7.02 2.32-9.9 3.72-5.13 6.53-6.75q4.2-2.43 9.72-2.43c5.52 0 6.64.77 9.32 2.32q4.02 2.325 6.24 6.27c1.47 2.64 2.21 5.6 2.21 8.89v1.6q0 .87-.15 1.89H262.7v-5.66h21.25c-.15-2.51-1.06-4.51-2.76-5.98-1.69-1.47-3.77-2.21-6.24-2.21-1.79 0-3.45.4-4.97 1.2s-2.75 1.98-3.66 3.55c-.92 1.57-1.38 3.57-1.38 5.98v2.1c0 2.22.45 4.13 1.34 5.73s2.09 2.81 3.59 3.63q2.25 1.23 5.01 1.23c1.98 0 3.65-.45 5.01-1.34a7.8 7.8 0 0 0 2.97-3.59h8.85c-.63 2.32-1.73 4.39-3.3 6.2s-3.49 3.25-5.77 4.32c-2.27 1.06-4.86 1.6-7.76 1.6Zm32.28-.87-13.27-35.98h9.07l9.5 27.71 9.43-27.71h9.07l-13.35 35.98zm43.45.87c-3.58 0-6.81-.79-9.68-2.36-2.88-1.57-5.16-3.78-6.86-6.64-1.69-2.85-2.54-6.14-2.54-9.87s.85-7.07 2.54-9.9 3.99-5.03 6.89-6.6 6.12-2.36 9.65-2.36 6.87.79 9.72 2.36 5.13 3.77 6.82 6.6 2.54 6.13 2.54 9.9-.85 7.01-2.54 9.87c-1.69 2.85-3.98 5.07-6.85 6.64-2.88 1.57-6.11 2.36-9.68 2.36Zm0-7.55c1.84 0 3.52-.42 5.04-1.27s2.74-2.1 3.66-3.77q1.38-2.505 1.38-6.27c0-3.765-.46-4.61-1.38-6.27-.92-1.67-2.14-2.93-3.66-3.77-1.52-.85-3.2-1.27-5.04-1.27s-3.46.42-5.01 1.27-2.78 2.1-3.7 3.77q-1.38 2.505-1.38 6.27c0 3.765.46 4.61 1.38 6.27.92 1.67 2.14 2.93 3.66 3.77 1.52.85 3.2 1.27 5.04 1.27Zm24.16 6.68V85.47h8.7v5.51c.92-1.79 2.1-3.2 3.55-4.24q2.175-1.56 5.01-1.56h4.86v7.76h-5.73c-1.69 0-3.11.45-4.24 1.34-1.14.9-1.99 2.27-2.58 4.13-.58 1.86-.87 4.2-.87 7v16.03h-8.7Zm38.16.87c-2.76 0-5.1-.5-7.04-1.49-1.93-.99-3.41-2.31-4.42-3.95-1.02-1.64-1.52-3.43-1.52-5.37 0-3.77 1.37-6.7 4.1-8.78q4.095-3.12 10.77-3.12c2.03 0 3.83.16 5.4.47 1.57.32 2.84.62 3.81.91v-1.67c0-2.66-.74-4.62-2.21-5.88-1.48-1.26-3.4-1.89-5.77-1.89-1.74 0-3.29.35-4.64 1.05s-2.23 1.97-2.61 3.81h-8.27c.29-2.61 1.16-4.79 2.61-6.53s3.3-3.06 5.55-3.95 4.7-1.34 7.36-1.34c5.27 0 9.37 1.29 12.3 3.88s4.39 6.2 4.39 10.84v8.78c0 1.84.11 3.18.33 4.03s.58 1.38 1.09 1.6 1.17.33 1.99.33h.36v7.4h-1.96c-2.47 0-4.53-.35-6.2-1.05s-2.84-2.09-3.52-4.17c-1.21 1.74-2.81 3.19-4.79 4.35q-2.97 1.74-7.11 1.74m1.88-6.75q2.535 0 4.35-1.2c1.21-.8 2.19-1.86 2.94-3.19s1.24-2.79 1.49-4.39c-1.02-.29-2.22-.58-3.63-.87-1.4-.29-2.83-.44-4.28-.44-2.18 0-3.88.48-5.11 1.45s-1.85 2.27-1.85 3.92c0 1.35.54 2.48 1.63 3.37 1.09.9 2.58 1.34 4.46 1.34Z" class="cls-1"/></svg>