<svg xmlns="http://www.w3.org/2000/svg" id="Layer_2" data-name="Layer 2" viewBox="0 0 512 205"><defs><clipPath id="clippath"><path d="M0 0h512v205H0z" style="fill:none"/></clipPath><style>.cls-1{fill:#fff}</style></defs><g style="clip-path:url(#clippath)"><path d="M102.09 86.97v12.18H89.83c-8.94 0-16.18-7.24-16.18-16.18V70.71h12.18c8.98 0 16.25 7.28 16.25 16.26Z" class="cls-1"/><path d="M138.52 70.07v4.36c0 15.51-12.57 28.08-28.08 28.08h-2.46a1.916 1.916 0 0 0-1.91 1.91v2.46c0 15.5-12.57 28.07-28.08 28.07h-4.36v-28.36c0-2.24 1.82-4.07 4.07-4.07h26.46a1.916 1.916 0 0 0 1.91-1.91V74.14c0-2.24 1.82-4.06 4.06-4.06h28.38Zm10.77 54.28V81.3h15.43c3.31 0 6.08.62 8.29 1.85 2.22 1.23 3.87 2.9 4.97 5q1.65 3.15 1.65 7.14c0 3.99-.55 5.04-1.66 7.15s-2.77 3.78-4.98 5c-2.22 1.22-4.99 1.84-8.32 1.84h-10.55v-5.58h9.91c2.12 0 3.83-.37 5.14-1.1s2.27-1.73 2.87-3.01c.61-1.27.91-2.71.91-4.31s-.3-3.06-.91-4.32-1.57-2.25-2.89-2.96-3.05-1.07-5.19-1.07h-8.09v37.42h-6.59Zm38.31-35.51q-1.65 0-2.82-1.11t-1.17-2.64c0-1.53.39-1.95 1.17-2.69.78-.73 1.72-1.1 2.82-1.1s2.04.37 2.83 1.1 1.19 1.63 1.19 2.69-.4 1.93-1.19 2.66-1.73 1.1-2.83 1.1Zm-3.2 35.51V92.04h6.36v32.31zm9.91 0L207 105.31l-.03 4.91-11.99-18.18h7.17l3.64 5.89q1.5 2.43 2.64 4.65c.76 1.48 1.54 2.92 2.33 4.31h-2.92c.83-1.39 1.59-2.82 2.28-4.31.69-1.48 1.56-3.03 2.6-4.65l3.73-5.89h7.05l-12.11 18.35v-4.77l12.6 18.72h-7.14l-4.33-6.88c-1-1.6-1.88-3.12-2.63-4.57-.75-1.44-1.52-2.84-2.31-4.19h2.95c-.77 1.35-1.5 2.75-2.2 4.19-.69 1.44-1.54 2.97-2.54 4.57l-4.39 6.88h-7.08Zm45.89 0c-3.18 0-5.92-.68-8.24-2.05-2.31-1.37-4.09-3.29-5.33-5.78s-1.86-5.4-1.86-8.76.61-6.23 1.84-8.75q1.83-3.78 5.19-5.91c2.23-1.42 4.85-2.12 7.86-2.12 1.85 0 3.63.3 5.35.91 1.71.61 3.26 1.56 4.62 2.85 1.37 1.29 2.45 2.96 3.25 5.01q1.2 3.075 1.2 7.47v2.25h-25.75v-4.74h22.48l-2.98 1.56c0-1.98-.31-3.73-.92-5.24q-.93-2.265-2.73-3.54c-1.2-.85-2.71-1.27-4.52-1.27s-3.32.43-4.59 1.3a8.4 8.4 0 0 0-2.9 3.42c-.66 1.42-1 2.96-1 4.64v3.24c0 2.22.38 4.09 1.14 5.62s1.83 2.69 3.19 3.47q2.055 1.17 4.77 1.17 1.785 0 3.24-.51c.96-.34 1.8-.85 2.5-1.53s1.24-1.53 1.6-2.53l5.98 1.42c-.52 1.66-1.39 3.12-2.61 4.39s-2.75 2.26-4.57 2.96-3.89 1.06-6.2 1.06Zm24.82-43.05v43.05h-6.36V81.3zm5.26 43.05V81.3h17.86c3.2 0 5.88.46 8.06 1.39 2.18.92 3.81 2.2 4.9 3.83s1.63 3.53 1.63 5.71c0 1.64-.34 3.1-1.03 4.38a9 9 0 0 1-2.83 3.18c-1.2.84-2.59 1.42-4.15 1.75v.46c1.71.06 3.31.52 4.78 1.37 1.47.86 2.66 2.05 3.55 3.57.9 1.52 1.34 3.32 1.34 5.4 0 2.31-.58 4.37-1.75 6.18s-2.86 3.24-5.07 4.28c-2.22 1.04-4.92 1.56-8.12 1.56h-19.19Zm10.2-25.31h5.92c1.14 0 2.15-.19 3.05-.58s1.6-.94 2.11-1.66.77-1.6.77-2.64c0-1.44-.52-2.59-1.56-3.44s-2.44-1.27-4.19-1.27h-6.1zm0 17.08h6.59c2.29 0 3.98-.44 5.07-1.31 1.09-.88 1.63-2.09 1.63-3.63 0-1.12-.26-2.09-.78-2.92s-1.27-1.47-2.24-1.92-2.13-.68-3.48-.68h-6.79zM317.3 81.3v43.05h-10.08V81.3zm19.3 43.05c-3.37 0-6.27-.7-8.7-2.09-2.43-1.4-4.29-3.34-5.59-5.84-1.3-2.49-1.95-5.4-1.95-8.71s.65-6.25 1.95-8.74 3.16-4.44 5.59-5.84 5.33-2.09 8.7-2.09 6.27.7 8.7 2.09c2.43 1.4 4.29 3.34 5.58 5.84s1.94 5.41 1.94 8.74-.65 6.22-1.94 8.71-3.15 4.44-5.58 5.84-5.33 2.09-8.7 2.09m0-7.71c1.29 0 2.38-.38 3.27-1.13q1.335-1.125 2.01-3.15c.45-1.35.68-2.92.68-4.71s-.23-3.36-.68-4.7-1.12-2.37-2.01-3.11c-.89-.73-1.97-1.1-3.27-1.1s-2.38.37-3.26 1.1c-.89.73-1.56 1.77-2.01 3.11s-.68 2.9-.68 4.7.23 3.36.68 4.71q.675 2.025 2.01 3.15c.89.75 1.97 1.13 3.26 1.13m34.28 7.71c-3.37 0-6.27-.7-8.7-2.09-2.43-1.4-4.29-3.34-5.59-5.84-1.3-2.49-1.95-5.4-1.95-8.71s.65-6.25 1.95-8.74 3.16-4.44 5.59-5.84 5.33-2.09 8.7-2.09 6.27.7 8.7 2.09c2.43 1.4 4.29 3.34 5.58 5.84s1.94 5.41 1.94 8.74-.65 6.22-1.94 8.71-3.15 4.44-5.58 5.84-5.33 2.09-8.7 2.09m0-7.71c1.29 0 2.38-.38 3.26-1.13s1.56-1.8 2.01-3.15.68-2.92.68-4.71-.23-3.36-.68-4.7-1.12-2.37-2.01-3.11c-.89-.73-1.97-1.1-3.26-1.1s-2.38.37-3.27 1.1-1.56 1.77-2.01 3.11-.68 2.9-.68 4.7.23 3.36.68 4.71q.675 2.025 2.01 3.15c.89.75 1.97 1.13 3.27 1.13m19.27 7.71V92.04h9.28l.58 8.38h-.69c.5-2.1 1.25-3.79 2.24-5.09.99-1.29 2.15-2.23 3.47-2.83s2.71-.9 4.18-.9c2.31 0 4.18.74 5.59 2.23 1.42 1.48 2.51 3.91 3.28 7.28h-1.13q.78-3.375 2.46-5.49t3.93-3.06c1.5-.64 3.06-.95 4.68-.95 2.02 0 3.81.44 5.36 1.31 1.55.88 2.77 2.13 3.66 3.76s1.33 3.59 1.33 5.88v21.79h-10.06v-19.5c0-1.64-.43-2.88-1.29-3.73s-1.95-1.27-3.28-1.27c-.94 0-1.77.21-2.47.64-.7.42-1.24 1.02-1.6 1.78-.37.76-.55 1.66-.55 2.7v19.39h-9.68v-19.65c0-1.48-.41-2.66-1.24-3.54s-1.92-1.31-3.26-1.31c-.93 0-1.74.21-2.44.64-.7.42-1.25 1.03-1.65 1.81s-.59 1.74-.59 2.88v19.19h-10.09Z" class="cls-1"/></g></svg>