<svg xmlns="http://www.w3.org/2000/svg" id="Layer_2" data-name="Layer 2" viewBox="0 0 512 205"><defs><clipPath id="clippath"><path d="M0 0h512v205H0z" style="fill:none"/></clipPath><style>.cls-1{fill:#fff}</style></defs><g id="Layer_1-2" data-name="Layer 1" style="clip-path:url(#clippath)"><path d="M106.85 92.37 123.5 73.9c2.12-2.35.45-6.1-2.72-6.1h-15.69a3.65 3.65 0 0 0-3.65 3.47l-.96 18.47c-.18 3.44 4.06 5.19 6.37 2.64ZM91 112.63l-16.65 18.48c-2.12 2.35-.45 6.1 2.72 6.1h15.69a3.65 3.65 0 0 0 3.65-3.47l.96-18.48c.18-3.44-4.06-5.19-6.37-2.64Zm-4.85-8.57-18.46.96c-1.94.1-3.47 1.71-3.47 3.65v15.68c0 3.17 3.75 4.84 6.1 2.72l18.46-16.64c2.56-2.31.8-6.55-2.64-6.37Zm-18.47-4.08 18.47.96c3.44.18 5.19-4.06 2.64-6.37L70.32 77.92c-2.35-2.12-6.1-.45-6.1 2.72v15.69a3.65 3.65 0 0 0 3.47 3.65Zm25.07-32.19H77.06c-3.17 0-4.84 3.75-2.72 6.1l16.65 18.47c2.31 2.56 6.55.8 6.37-2.64l-.96-18.47a3.663 3.663 0 0 0-3.65-3.47Zm14.1 44.84c-2.3-2.56-6.55-.8-6.37 2.64l.96 18.48c.1 1.94 1.71 3.47 3.65 3.47h15.69c3.17 0 4.84-3.75 2.72-6.1l-16.65-18.48Zm23.32-7.61-18.47-.96c-3.44-.18-5.19 4.06-2.64 6.37l18.47 16.64c2.35 2.12 6.1.45 6.1-2.72v-15.68a3.65 3.65 0 0 0-3.47-3.65Zm-2.64-27.1-18.48 16.65c-2.56 2.3-.8 6.55 2.64 6.37l18.48-.96c1.94-.1 3.47-1.71 3.47-3.65V80.64c0-3.17-3.75-4.84-6.1-2.72Zm25.68.82h-3.02v44.94h32.46v-7.85h-23.61v-11h19.72v-7.85h-19.72V86.59h23.61v-7.85zm61.04 21.6.6 9.93-4.23-7.11-16.76-24.42h-8.46v44.94h8.86v-21.2l-.67-10.06 4.02 6.51 17.17 24.75h8.32V78.74h-8.85zm18.31-21.6h-3.02v44.94h32.47v-7.85h-23.62v-11h19.73v-7.85h-19.73V86.59h23.62v-7.85zm61.31 29.58c-.85-.89-1.83-1.61-2.95-2.15-.47-.23-1.01-.41-1.58-.57 1.69-.2 3.27-.6 4.73-1.18 2.37-.94 4.26-2.38 5.67-4.33s2.11-4.42 2.11-7.41-.72-5.72-2.15-7.78-3.39-3.6-5.87-4.63-5.31-1.54-8.49-1.54h-20.59v44.94h8.85v-17.04h4.16c2.06 0 3.67.3 4.83.91 1.16.6 2.19 1.67 3.09 3.19l7.65 12.95h10.2l-7.31-12.14c-.72-1.25-1.5-2.32-2.35-3.22m-20.26-8.85V86.59h11.27c1.48 0 2.79.21 3.96.64 1.16.43 2.08 1.11 2.75 2.05s1.01 2.21 1.01 3.82-.34 2.82-1.01 3.76-1.59 1.61-2.75 2.01q-1.74.6-3.96.6zm60.17-20.73-8.12 24.95-3.35 13.82-3.35-13.82-8.12-24.95h-10.33l16.16 44.94h10.94l16.16-44.94zm46.79 6.04c-1.99-2.1-4.35-3.75-7.08-4.93s-5.77-1.78-9.12-1.78-6.4.59-9.12 1.78c-2.73 1.19-5.09 2.83-7.08 4.93s-3.53 4.55-4.63 7.34c-1.1 2.8-1.64 5.8-1.64 9.02s.55 6.29 1.64 9.09c1.1 2.8 2.64 5.24 4.63 7.35 1.99 2.1 4.35 3.75 7.08 4.93s5.77 1.78 9.12 1.78 6.39-.59 9.12-1.78c2.73-1.18 5.09-2.83 7.08-4.93q2.985-3.15 4.59-7.35c1.07-2.79 1.61-5.82 1.61-9.09s-.54-6.23-1.61-9.02-2.61-5.24-4.59-7.34m-4.56 23.91c-.96 2.21-2.41 3.94-4.36 5.17s-4.37 1.84-7.28 1.84-5.33-.61-7.28-1.84-3.4-2.95-4.36-5.17c-.96-2.21-1.44-4.73-1.44-7.55s.48-5.32 1.44-7.51 2.41-3.91 4.36-5.17c1.95-1.25 4.37-1.88 7.28-1.88s5.33.63 7.28 1.88 3.4 2.97 4.36 5.17c.96 2.19 1.44 4.7 1.44 7.51s-.48 5.33-1.44 7.55m51.65-23.91c-1.99-2.1-4.35-3.75-7.08-4.93s-5.77-1.78-9.12-1.78-6.4.59-9.12 1.78c-2.73 1.19-5.09 2.83-7.08 4.93s-3.53 4.55-4.63 7.34c-1.1 2.8-1.64 5.8-1.64 9.02s.55 6.29 1.64 9.09c1.1 2.8 2.64 5.24 4.63 7.35 1.99 2.1 4.35 3.75 7.08 4.93s5.77 1.78 9.12 1.78 6.39-.59 9.12-1.78c2.73-1.18 5.09-2.83 7.08-4.93q2.985-3.15 4.59-7.35c1.07-2.79 1.61-5.82 1.61-9.09s-.54-6.23-1.61-9.02-2.61-5.24-4.59-7.34m-4.56 23.91c-.96 2.21-2.41 3.94-4.36 5.17s-4.37 1.84-7.28 1.84-5.33-.61-7.28-1.84-3.4-2.95-4.36-5.17c-.96-2.21-1.44-4.73-1.44-7.55s.48-5.32 1.44-7.51 2.41-3.91 4.36-5.17c1.95-1.25 4.37-1.88 7.28-1.88s5.33.63 7.28 1.88 3.4 2.97 4.36 5.17c.96 2.19 1.44 4.7 1.44 7.51s-.48 5.33-1.44 7.55m20.58-30.23c-.12-.17-.31-.27-.56-.3q.795-.09 1.26-.51c.31-.28.47-.64.47-1.07 0-.56-.19-.99-.58-1.3s-.89-.47-1.51-.47h-2.65v5.73h1.12v-2.19h.47c.28 0 .5.02.68.07.17.05.3.18.4.4l.84 1.72h1.3l-.79-1.44q-.24-.375-.42-.63Zm-2.46-1.05v-1.58h1.54c.59 0 .88.28.88.84 0 .5-.3.74-.88.74z" class="cls-1"/><path d="M446.25 73.41c-1.02-1.02-2.39-1.54-4.1-1.54-1.09 0-2.05.23-2.89.7q-1.26.705-1.98 1.98c-.48.85-.72 1.9-.72 3.14s.24 2.26.72 3.14 1.14 1.55 1.98 2 1.8.68 2.89.68c1.71 0 3.07-.51 4.1-1.54 1.02-1.02 1.54-2.45 1.54-4.28s-.51-3.26-1.54-4.28m-.82 7.77c-.76.81-1.85 1.21-3.28 1.21s-2.48-.4-3.24-1.21-1.14-1.97-1.14-3.49.38-2.64 1.14-3.45 1.84-1.21 3.24-1.21 2.52.4 3.28 1.21q1.14 1.215 1.14 3.45c0 2.235-.38 2.69-1.14 3.49" class="cls-1"/></g></svg>