<svg xmlns="http://www.w3.org/2000/svg" id="Layer_2" data-name="Layer 2" viewBox="0 0 512 205"><defs><clipPath id="clippath"><path d="M0 0h512v205H0z" style="fill:none"/></clipPath><style>.cls-1{fill:#fff}</style></defs><g id="Layer_1-2" data-name="Layer 1" style="clip-path:url(#clippath)"><path id="_Radial_Repeat_" d="m126.18 92.51-6.62.59c-.8.07-1.29-.86-.78-1.48l7.4-8.85V66.1L106 90.26a8.64 8.64 0 0 0-.85 9.85 8.64 8.64 0 0 0 8.25 4.28l12.78-1.15z" class="cls-1" data-name="&amp;lt;Radial Repeat&amp;gt;"/><path id="_Radial_Repeat_-2" d="m84.07 85.94 3.82 5.44c.46.66-.1 1.55-.9 1.41l-11.37-1.98-14.43 8.33 31.01 5.4a8.62 8.62 0 0 0 8.95-4.19 8.62 8.62 0 0 0-.42-9.28l-7.38-10.5-9.29 5.36Z" class="cls-1" data-name="&amp;lt;Radial Repeat&amp;gt;"/><path id="_Radial_Repeat_-3" d="m99.44 125.7 2.79-6.03a.904.904 0 0 1 1.67.07l3.97 10.83 14.43 8.33-10.83-29.55a8.63 8.63 0 0 0-8.1-5.66c-3.36 0-6.42 1.95-7.83 5l-5.4 11.64 9.29 5.36Z" class="cls-1" data-name="&amp;lt;Radial Repeat&amp;gt;"/><path d="m173.37 122.7-2.59-7.2h-20.25l-2.59 7.2h-7.85l11.89-31.63c1.74-4.62 4.15-6.41 8.62-6.41s7.01 1.8 8.73 6.41l11.9 31.63h-7.85Zm-20.89-12.71h16.34l-6.88-19.19h-2.59l-6.88 19.19Zm30.63 12.71v-5.85h18.97v-8.05h-11.82v-.06h-.96c-3.88 0-6.58-2.55-6.58-6.19v-6.36c0-6.11 5.04-6.58 6.58-6.58h18.63v5.8H189.7v7.54h13.45c3.81 0 5.91 2.36 5.91 6.64v6.47c0 4.28-2.1 6.64-5.91 6.64h-20.03Zm40.23 0c-3.16 0-6.53-1.74-6.53-6.64V95.41h-6.25v-5.85h6.25V82.3h6.92v7.26h8.44v5.85h-8.44v21.44h9.74v5.85zm13.01 0V95.74c0-3.6 2.71-6.14 6.6-6.19l15.18.05v5.8h-14.8v27.29h-6.98Zm32.71 0c-1.54 0-6.58-.48-6.58-6.64V95.74c0-3.6 2.71-6.14 6.6-6.19h17.43c3.88 0 6.58 2.55 6.58 6.19v20.32c0 6.16-5.04 6.64-6.58 6.64zm.39-5.85h16.66V95.41h-16.66zm53.51 6.42c-3.29 0-5.08-1.36-6.36-4.83-1.62-4.3-2.73-8.84-3.81-13.22-1.12-4.57-2.28-9.29-4.02-13.8l-.24-.61h-3.58v31.91h-7.37V90.76c0-4.26 2.14-6.08 7.15-6.08h4.61c3.45 0 5.34 1.43 6.34 4.78l7.96 27.64h3.65V85.25h7.37l.05 31.97c0 4.2-2.2 6.08-7.15 6.08h-4.61Zm22.15-.57c-1.54 0-6.58-.48-6.58-6.64V95.74c0-3.6 2.71-6.14 6.6-6.19h17.43c3.88 0 6.58 2.55 6.58 6.19v20.32c0 6.16-5.04 6.64-6.58 6.64zm.39-5.85h16.66V95.41H345.5zm43.84 6.19c-4.46 0-6.88-1.8-8.61-6.41l-10.26-27.07h7.19l10.47 27.35h2.55l10.52-27.35h7.13l-10.26 27.07c-1.72 4.62-4.17 6.42-8.73 6.42Zm25.47-.34c-1.54 0-6.58-.48-6.58-6.64v-6.75c0-3.64 2.71-6.19 6.58-6.19h17.78v-7.71h-21.78v-5.8h22.17c3.84 0 6.53 2.52 6.53 6.13v20.32c0 4.9-3.37 6.64-6.53 6.64H414.8Zm.39-5.85h17.39v-7.88H415.2zm25.98-35.33h3.77v.88h-1.38v3.33h-1V82.4h-1.38v-.88Zm8.76-.05c.6 0 .86.26.86.76v3.51h-1v-3.4h-.21l-.93 2.82h-.92l-.93-2.82h-.21v3.4h-.98v-3.51c-.02-.5.26-.76.86-.76h.48c.41 0 .66.19.78.59l.47 1.55.45-1.55c.12-.4.36-.59.78-.59z" class="cls-1"/></g></svg>