<svg xmlns="http://www.w3.org/2000/svg" id="Layer_2" data-name="Layer 2" viewBox="0 0 512 205"><defs><clipPath id="clippath"><path d="M0 0h512v205H0z" style="fill:none"/></clipPath><style>.cls-1{fill:#fff}</style></defs><g id="Layer_1-2" data-name="Layer 1" style="clip-path:url(#clippath)"><path d="M169.06 128.36h-27.42c-1.77 0-3.21-1.44-3.21-3.21V79.82c0-1.77 1.44-3.21 3.21-3.21h26.22v9.02h-18.41v12.19h14.88c1.23 0 2.23 1 2.23 2.23v4.53c0 1.23-1 2.23-2.23 2.23h-14.88v12.53h19.61zm45.81 0h-8.08l-21.91-33.47c-1.14-1.74-1.96-3.14-2.47-4.21h-.17q.3 2.67.3 8.25v29.43h-10.46V79.83c0-1.77 1.44-3.21 3.21-3.21h8.82l21.11 32.54c1.4 2.16 2.26 3.53 2.57 4.11h.17c-.22-1.25-.33-3.63-.33-7.15v-29.5h10.46v48.53c0 1.77-1.44 3.21-3.21 3.21Zm37.65 0H225.1c-1.77 0-3.21-1.44-3.21-3.21V79.82c0-1.77 1.44-3.21 3.21-3.21h26.22v9.02h-18.41v12.19h17.1v8.99h-17.1v12.53h19.61zm45.71 0h-12.69l-8.12-13.46c-1.67-2.78-3.04-4.58-4.11-5.38s-2.2-1.2-3.41-1.2h-3.34v20.04h-11.02V79.83c0-1.77 1.44-3.21 3.21-3.21h14.93c12.32 0 18.47 4.68 18.47 14.03 0 3.52-1.03 6.54-3.09 9.05-2.06 2.52-4.89 4.29-8.5 5.31v.13c2.38.8 5.02 3.43 7.92 7.88l9.75 15.33ZM266.56 85v14.9h5.41c2.58 0 4.66-.75 6.23-2.25s2.35-3.38 2.35-5.63c0-4.68-2.79-7.01-8.38-7.01h-5.61Zm73.83-8.39-17.2 49.53a3.285 3.285 0 0 1-3.11 2.21h-7.76c-1.41 0-2.66-.89-3.12-2.23L292.23 76.6h11.89l11.19 36.58c.56 1.8.9 3.51 1.04 5.11h.2c.18-1.65.56-3.4 1.14-5.24l11.19-36.44h11.52Zm-2.51 26.56c0-8.11 2.37-14.7 7.1-19.79s10.98-7.63 18.76-7.63 13.35 2.46 17.86 7.38 6.76 11.25 6.76 18.97-2.34 14.6-7.03 19.63q-7.035 7.53-18.42 7.53c-11.385 0-13.44-2.43-18.07-7.3s-6.95-11.13-6.95-18.79Zm11.6-.6c0 5.03 1.21 9.15 3.64 12.34 2.43 3.2 5.76 4.79 9.99 4.79s7.68-1.53 10.09-4.59 3.61-7.18 3.61-12.34-1.17-9.65-3.51-12.78-5.63-4.69-9.89-4.69-7.72 1.6-10.21 4.81c-2.48 3.21-3.72 7.36-3.72 12.46m41.65.6c0-8.11 2.37-14.7 7.1-19.79s10.98-7.63 18.76-7.63 13.35 2.46 17.86 7.38 6.76 11.25 6.76 18.97-2.34 14.6-7.03 19.63q-7.035 7.53-18.42 7.53c-11.385 0-13.44-2.43-18.07-7.3s-6.95-11.13-6.95-18.79Zm11.6-.6c0 5.03 1.21 9.15 3.64 12.34 2.43 3.2 5.76 4.79 9.99 4.79s7.68-1.53 10.09-4.59 3.61-7.18 3.61-12.34-1.17-9.65-3.51-12.78-5.63-4.69-9.89-4.69-7.72 1.6-10.21 4.81c-2.48 3.21-3.72 7.36-3.72 12.46" class="cls-1"/><text style="font-family:MicrosoftYaHei-Bold,&quot;Microsoft YaHei&quot;;font-size:9.79px;font-weight:700;letter-spacing:-.08em;fill:#fff" transform="translate(444.58 83.28)"><tspan x="0" y="0">®</tspan></text><path d="m114.23 76.06-25.17 5.86a1.78 1.78 0 0 1-2.18-1.73v-9.93c0-.73.45-1.39 1.13-1.66l25.17-9.77a1.78 1.78 0 0 1 2.42 1.66v13.83c0 .83-.57 1.54-1.37 1.73ZM85.25 95.94 71.57 97c-1.03.08-1.91-.74-1.91-1.77v-7.37c0-.83.57-1.54 1.37-1.73l13.68-3.19a1.78 1.78 0 0 1 2.18 1.73v9.5c0 .93-.71 1.7-1.64 1.77m28.44 15.33-25.17-1.95c-.92-.07-1.64-.84-1.64-1.77V97.46c0-.93.71-1.7 1.64-1.77l25.17-1.95c1.03-.08 1.91.74 1.91 1.77v14c0 1.03-.88 1.85-1.91 1.77Zm-45.95-3.57-7.94-.62c-.92-.07-1.64-.84-1.64-1.77v-5.63c0-.93.71-1.7 1.64-1.77l7.94-.62c1.03-.08 1.91.74 1.91 1.77v6.87c0 1.03-.88 1.85-1.91 1.77m16.97 14.36-13.68-3.19c-.8-.19-1.37-.9-1.37-1.73v-7.37c0-1.03.88-1.85 1.91-1.77l13.68 1.06c.92.07 1.64.84 1.64 1.77v9.5c0 1.14-1.06 1.99-2.18 1.73m28.48 24.1-25.17-9.77c-.68-.27-1.13-.92-1.13-1.66v-9.93c0-1.14 1.06-1.99 2.18-1.73l25.17 5.86c.8.19 1.37.9 1.37 1.73v13.83c0 1.25-1.25 2.11-2.42 1.66Z" class="cls-1"/></g></svg>