<svg xmlns="http://www.w3.org/2000/svg" id="Layer_2" data-name="Layer 2" viewBox="0 0 512 205"><defs><clipPath id="clippath"><path d="M0 0h512v205H0z" style="fill:none"/></clipPath><style>.cls-1{fill:#fff}</style></defs><g style="clip-path:url(#clippath)"><path d="M148.19 83.72c-.45 1.83-1 3.6-2.1 5.26-8.04 12.2-41.5 12.15-33.05-16.3 16.64-56.02 100.83-35.88 61.06 16.41-1.88 2.47-2.42 5.72-1.52 8.69 11.77 38.54-16.39 35.17-20.54 35.86-12.85 2.12-17.75 15.04-28.94 19.61-30.54 12.48-29.2-29.01-13.81-42.11 11.09-9.44 22.9 3 37.72-8.23 3.51-2.66 6.5-6 8.67-9.84 2.29-4.06 3.29-8.89 3.68-13.5.18-2.17.41-4.43-.19-6.56-.24-.84-.65-1.66-1.3-2.24-1.03-.91-2.62-1.11-3.85-.5-3.05 1.52-5.03 10.16-5.84 13.46Z" class="cls-1"/><path d="M130.2 157.67c4.32-7.38 14.39-18.51 36.63-21.64 3.25-.46 5.13 3.57 2.7 5.77-6.3 5.73-14.59 14.29-17.45 21.91a3.333 3.333 0 0 1-4.57 1.82c-3.33-1.59-8.59-3.46-14.11-2.86-2.71.29-4.58-2.65-3.2-5m107.95-57.03v-.93q6.24-.75 9.27-4.29c2.02-2.36 3.03-5.34 3.03-8.95s-.78-6.65-2.33-8.95-3.82-3.99-6.8-5.08-6.62-1.63-10.9-1.63h-29.91v62.44h31.31c4.53 0 8.37-.7 11.51-2.1s5.51-3.39 7.13-5.96c1.61-2.58 2.42-5.61 2.42-9.09 0-4.16-1.23-7.66-3.68-10.48-2.45-2.83-6.14-4.49-11.04-4.99ZM212.9 81.91h16.68c2.98 0 5.16.47 6.52 1.4 1.37.93 2.05 2.83 2.05 5.68s-.7 4.64-2.1 5.54q-2.1 1.35-6.57 1.35h-16.59V81.9Zm25.21 38.67c-1.52.99-3.81 1.49-6.85 1.49H212.9v-15.93h18.36c3.04 0 5.33.5 6.85 1.49s2.28 3.17 2.28 6.52-.76 5.44-2.28 6.43m21.75-33.92h12.3v46.59h-12.3zm12.12-5.59V70.82h-12.4l.28 10.25zm77.72 7.13c-2.49-1.58-5.75-2.38-9.78-2.38-2.98 0-5.51.44-7.59 1.3q-3.12 1.305-5.13 3.45c-1.34 1.43-2.41 2.95-3.21 4.57h-.42c-.06-.16-.12-.31-.18-.47q-1.725-4.095-5.4-6.48c-2.46-1.58-5.67-2.38-9.65-2.38q-4.29 0-7.32 1.26c-2.02.84-3.7 1.96-5.03 3.35-1.34 1.4-2.44 2.97-3.31 4.71h-.37v-8.39h-11.46v46.5h12.3v-27.02c0-3.66.82-6.2 2.47-7.59q2.475-2.1 7.5-2.1c3.66 0 6.18.75 7.55 2.24s2.05 4.01 2.05 7.55v26.93h12.39v-26.84c0-3.73.81-6.3 2.42-7.73s4.13-2.14 7.55-2.14c3.66 0 6.18.75 7.55 2.24s2.05 4.01 2.05 7.55v26.93h12.3v-29.35c0-3.42-.59-6.49-1.77-9.23-1.18-2.73-3.01-4.89-5.5-6.48Zm58.61 4.14c-3.35-4.35-8.23-6.52-14.63-6.52-3.73 0-6.85.78-9.37 2.33s-4.3 3.32-5.36 5.31h-.47V70.82h-12.3v62.44h11.46v-7.18h.47q1.77 4.005 5.82 6.06c2.7 1.37 5.89 2.05 9.55 2.05 6.46 0 11.38-2.19 14.77-6.57s5.08-10.23 5.08-17.57-1.68-13.36-5.03-17.71Zm-7.92 23.86c-.37 1.74-.99 3.15-1.86 4.24s-2.02 1.9-3.45 2.42c-1.43.53-3.2.79-5.31.79-2.42 0-4.47-.34-6.15-1.03-1.68-.68-2.95-1.71-3.82-3.07-.87-1.37-1.3-3.14-1.3-5.31v-8.57c0-2.17.43-3.94 1.3-5.31s2.14-2.39 3.82-3.08q2.52-1.02 6.15-1.02 3.165 0 5.31.84c1.43.56 2.58 1.38 3.45 2.47s1.49 2.5 1.86 4.24.56 3.82.56 6.24-.19 4.41-.56 6.15" class="cls-1"/></g></svg>