<svg xmlns="http://www.w3.org/2000/svg" id="Layer_2" data-name="Layer 2" viewBox="0 0 512 205"><defs><clipPath id="clippath"><path d="M0 0h512v205H0z" style="fill:none"/></clipPath><style>.cls-1{fill:#fff}</style></defs><g style="clip-path:url(#clippath)"><path d="m114.31 63.17-39.25 39.25v39.41h19.67c11.39-11.39 20.31-20.31 29.19-29.2a8.48 8.48 0 0 1 6-2.48h23.8V63.17zm23.07 30.63h-7.46c-6.64 0-12.87 2.58-17.56 7.27-6.63 6.64-13.28 13.28-20.96 20.96v-12.85l29.68-29.68h16.3v14.29Z" class="cls-1"/><path d="M141.21 117.72h12.51v24.12H129.6v-12.51c0-6.41 5.2-11.61 11.61-11.61m85.71-36.3v46.55h-9.24l-20.44-31.93h-.58l1.16 14.76v17.16h-9.53V81.41h9.24l20.58 31.86h.58l-1.24-14.69V81.42h9.46Zm35.2 32.01h-21.09c.73 5.16 3.78 7.93 9.75 7.93 4.07 0 7.64-1.16 10.25-3.13l-.07 7.13c-1.75 1.31-6.33 3.35-12 3.35-10.18 0-17.24-6.62-17.24-18.04 0-10.55 5.75-16.87 16.22-16.87 11.27 0 16.29 8.29 14.18 19.64Zm-8.37-5.6c-.07-4.15-1.82-6.69-6.18-6.69-3.56 0-5.96 1.89-6.62 6.69z" class="cls-1"/><path d="m271.06 94.52 6.91 10.55 6.84-10.55h10.11l-11.71 16.66 11.71 16.8h-10.11l-6.84-10.76-6.91 10.76h-10.11l11.78-16.8-11.78-16.66z" class="cls-1"/><path d="M320.22 90.52c-2.26-.87-4.58-1.09-6.33-1.09-2.98 0-4.15 1.09-4.15 4.07v3.56h9.82v6.69h-9.6l.07 24.22h-9.16v-24.22h-5.96v-6.62h5.82v-4.29c0-7.27 3.93-10.84 10.84-10.84 2.84 0 5.24.36 8.65 1.38v7.13Zm17.6 3.05c12.14 0 17.09 6.4 17.09 16.87 0 9.67-5.67 18.47-17.09 18.47s-17.02-9.16-17.02-18.47c0-10.84 5.16-16.87 17.02-16.87m0 27.86c5.53 0 7.78-5.09 7.78-10.98 0-6.33-1.67-9.38-7.78-9.38s-7.78 3.13-7.78 9.38 2.62 10.98 7.78 10.98m42.76-27.57v8.8c-10.69-.87-12.22 4.15-12.22 9.46v15.85h-9.09V94.51h7.64l.95 7.2c2.25-5.02 6.25-8.44 12.73-7.85Zm56.36 13.75v20.36h-9.09v-18.69c0-4.36-1.67-6.91-5.38-6.98-4.95-.22-7.64 4.58-7.64 8.22v17.46h-9.09v-18.76c0-4.73-2.04-6.91-5.67-6.91-4.8 0-7.49 4.58-7.49 8.73v16.95h-9.09V94.53h7.64l1.02 8.22c1.89-5.31 5.31-8.95 11.34-8.95 5.53 0 9.6 2.69 10.47 9.45 1.38-5.38 6.18-9.38 12.07-9.38 7.42 0 10.91 4.22 10.91 13.75Z" class="cls-1"/></g></svg>