<svg xmlns="http://www.w3.org/2000/svg" id="Layer_2" data-name="Layer 2" viewBox="0 0 512 205"><defs><style>.cls-1{fill:#fff}</style></defs><path d="M144.73 118.28c-25.02 20.61-37.21 47.02-37.21 47.02s-12.19-26.41-37.21-47.02c0 0-9.85-7.36-17.85-17.34 2.19 8.31 5.12 16.15 9.05 21.74 0 0 38.98 29.65 46.01 47.26 7.03-17.61 46.01-47.26 46.01-47.26 3.92-5.59 6.86-13.42 9.05-21.74-8 9.98-17.85 17.34-17.85 17.34" class="cls-1"/><path d="M134.16 99.98c-14.83 11.58-26.63 32.74-26.63 32.74s-11.8-21.16-26.63-32.74C66.07 88.39 50.63 71.57 46.76 63.84c0 0 .78 18.54 2.16 22.85 0 0 12.67 12.36 25.17 20.7 12.51 8.34 32.41 29.65 33.43 40.78 1.01-11.13 20.92-32.44 33.43-40.78s25.17-20.7 25.17-20.7c1.39-4.32 2.16-22.85 2.16-22.85-3.86 7.73-19.31 24.55-34.14 36.14Z" class="cls-1"/><path d="M70.7 75.11c16.07 11.58 34.11 29.65 36.83 40.47 2.71-10.82 20.76-28.89 36.83-40.47 16.05-11.58 20.54-18.38 20.54-18.38-8.03.77-20.54-2.78-20.54-2.78-1.7 7.25-14.53 18.68-14.53 18.68-17.91 16.84-22.3 27.18-22.3 27.18s-4.39-10.34-22.3-27.18c0 0-12.83-11.43-14.53-18.68 0 0-12.51 3.55-20.54 2.78 0 0 4.49 6.8 20.54 18.38" class="cls-1"/><path d="M107.53 73.76c1.52-8.12 25.24-23.29 25.24-23.29-11-2.08-25.24-15.41-25.24-15.41S93.3 48.39 82.29 50.47c0 0 23.72 15.17 25.24 23.29m0-31.27 9.83 10.07-9.83 10.2-9.83-10.2zm104.51 26.49-19.52 53.39h9.61l4.41-12.58h21.15l4.41 12.58h9.69l-19.52-53.39h-10.22Zm-2.96 33.56 8.03-22.9 8.03 22.9zm63.71-16.48c-2.82-1.63-6.09-2.44-9.8-2.44s-7.27.85-10.22 2.55-5.24 4.07-6.86 7.09c-1.63 3.03-2.44 6.5-2.44 10.41s.83 7.27 2.48 10.22 3.94 5.25 6.86 6.9 6.29 2.48 10.11 2.48q4.575 0 8.16-1.68c2.39-1.12 4.41-2.63 6.06-4.54s2.81-4.08 3.47-6.52h-9.3a8.2 8.2 0 0 1-3.13 3.78c-1.42.94-3.18 1.41-5.26 1.41-1.93 0-3.69-.43-5.26-1.3-1.58-.86-2.83-2.14-3.77-3.81-.79-1.41-1.23-3.07-1.36-4.96h29q.15-1.065.15-1.98v-1.68c0-3.46-.78-6.57-2.33-9.34s-3.74-4.97-6.56-6.6Zm-20.1 13.66c.23-1.37.62-2.59 1.22-3.62.97-1.65 2.25-2.9 3.85-3.74q2.4-1.26 5.22-1.26c2.59 0 4.78.78 6.56 2.33s2.75 3.65 2.9 6.29zm65.97-9.54c-1.27-1.88-3.05-3.44-5.34-4.69s-4.93-1.87-7.93-1.87q-5.415 0-9.72 2.55c-2.87 1.7-5.15 4.03-6.83 6.98s-2.52 6.25-2.52 9.91.84 7.05 2.52 10.03c1.68 2.97 3.95 5.31 6.83 7.02 2.87 1.7 6.09 2.55 9.65 2.55 2.24 0 4.22-.33 5.95-.99s3.2-1.53 4.42-2.59q1.83-1.605 2.97-3.51v4.88c0 2.64-.5 4.83-1.49 6.56s-2.34 3.01-4.04 3.85-3.55 1.26-5.53 1.26c-2.8 0-5.19-.65-7.17-1.94q-2.97-1.95-3.81-5.22h-9.08c.46 3.46 1.68 6.3 3.66 8.54s4.42 3.89 7.32 4.96 5.97 1.6 9.23 1.6c3.71 0 7.08-.76 10.1-2.29s5.44-3.78 7.25-6.75c1.8-2.97 2.71-6.62 2.71-10.94V84.54h-9.15zm-1.57 18.88c-.99 1.75-2.34 3.14-4.04 4.16q-2.55 1.53-5.91 1.53c-3.36 0-4.22-.51-5.95-1.53s-3.08-2.4-4.04-4.16c-.97-1.75-1.45-3.75-1.45-5.99s.48-4.21 1.45-5.91 2.31-3.05 4.04-4.04 3.71-1.49 5.95-1.49 4.21.5 5.91 1.49 3.05 2.35 4.04 4.08 1.49 3.71 1.49 5.95-.5 4.16-1.49 5.91m17.74-24.52h9.15v37.83h-9.15zm0-15.86h9.23v9.38h-9.23zm43.93 34.12c-1.17-.79-2.45-1.41-3.85-1.87s-2.78-.76-4.16-.92c-.56-.1-1.25-.22-2.06-.34-.81-.13-1.61-.25-2.4-.38s-1.44-.24-1.94-.34c-3.51-.61-5.26-1.96-5.26-4.04q0-1.755 1.68-2.94c1.12-.79 2.69-1.18 4.73-1.18 1.88 0 3.5.41 4.84 1.22 1.35.81 2.1 2.06 2.25 3.74h8.92c-.41-3.97-2.01-6.98-4.8-9.04-2.8-2.06-6.53-3.09-11.21-3.09s-8.27 1.14-10.79 3.43-3.78 5.11-3.78 8.47q0 3.36 1.56 5.64c1.04 1.53 2.43 2.73 4.16 3.62s3.58 1.51 5.57 1.87q1.29.3 3.09.57c1.19.18 2.2.34 3.01.5 2.14.3 3.62.75 4.46 1.33.84.59 1.26 1.41 1.26 2.48 0 1.32-.62 2.43-1.87 3.32s-3.01 1.33-5.3 1.33-4.13-.52-5.68-1.56-2.5-2.45-2.86-4.23h-9.38c.46 4.02 2.29 7.17 5.49 9.46s7.25 3.43 12.13 3.43c3.41 0 6.3-.53 8.69-1.6s4.21-2.54 5.45-4.42c1.25-1.88 1.87-4.07 1.87-6.56 0-1.93-.34-3.53-1.03-4.8s-1.61-2.3-2.78-3.09Zm25.54 8.81-10.91-27.07h-9.99l15.89 37.71-2.31 5.08q-.84 2.055-1.56 2.97c-.48.61-.97 1.02-1.45 1.22s-1.11.3-1.87.3h-8.01v7.32h11.82q1.83 0 3.09-.3c.84-.2 1.56-.61 2.17-1.22q.915-.915 1.83-2.67c.61-1.17 1.35-2.72 2.21-4.65l20.29-45.76h-9.76zm57.05-23.6c-2.59-2.92-6.23-4.39-10.91-4.39q-4.2 0-7.44 1.83c-2.16 1.22-3.88 2.87-5.15 4.96v-5.87h-9.15v37.83h9.15v-19.52c0-3.66.93-6.48 2.78-8.47 1.86-1.98 4.18-2.97 6.98-2.97s4.97.88 6.37 2.63 2.1 4.34 2.1 7.74v20.59h9.15v-21.51c0-5.64-1.3-9.93-3.89-12.85Z" class="cls-1"/></svg>