<svg xmlns="http://www.w3.org/2000/svg" id="Layer_2" data-name="Layer 2" viewBox="0 0 512 205"><defs><clipPath id="clippath"><path d="M0 0h512v205H0z" style="fill:none"/></clipPath><style>.cls-1{fill:#fff}</style></defs><g style="clip-path:url(#clippath)"><path d="M161.07 95.01c3.72-3.7 6-8.82 6-14.49.04 0 .08-.03.08-.06V66.9s-.04-.06-.08-.06h-13.03V53.8s-.04-.08-.08-.08h-13.54s-.08.04-.08.08c-11.31 0-20.49 9.18-20.49 20.49h-.14c0-5.65-2.3-10.77-6-14.49-3.72-3.7-8.84-6-14.49-6 0-.04-.04-.08-.08-.08H85.58s-.06.04-.06.08v13.04H72.48s-.06.03-.06.06v13.56s.03.06.06.06c0 11.32 9.18 20.49 20.49 20.49v.15c-5.65 0-10.77 2.3-14.49 6-3.7 3.7-6 8.82-6 14.49-.04 0-.06.03-.06.06v13.56s.03.06.06.06h13.04v13.04s.03.08.06.08h13.56s.08-.04.08-.08c11.31 0 20.49-9.16 20.49-20.49h.14c0 5.66 2.3 10.78 6 14.49 3.7 3.72 8.82 6 14.49 6 0 .04.03.08.08.08h13.54s.08-.04.08-.08v-13.03h13.03s.08-.04.08-.08V121.7s-.04-.06-.08-.06c0-11.31-9.16-20.49-20.49-20.49V101c5.66 0 10.78-2.3 14.49-6Zm-41.24 13.91s-.05-.01-.06 0l-18.46 10.66 10.66-18.45s.01-.05 0-.08L101.31 82.6l18.45 10.66s.05.01.08 0l18.45-10.64-10.66 18.44s-.01.05 0 .08l10.64 18.44-18.44-10.64Zm72.18 15.85V64.92h9.16v51.97h27.11v7.87h-36.27Zm55.38.56c-3.05 0-5.73-.64-8.03-1.93s-4.09-3.19-5.36-5.7c-1.27-2.52-1.91-5.62-1.91-9.32V79.86h8.84v27.43q0 4.86 2.55 7.59t6.93 2.73c2.01 0 3.8-.43 5.36-1.31 1.57-.87 2.8-2.14 3.71-3.82.91-1.67 1.37-3.69 1.37-6.04V79.85h8.84v44.9h-8.43l-.04-11h.84c-1.31 4.07-3.23 7.02-5.74 8.84-2.52 1.82-5.49 2.73-8.92 2.73ZM283 98.18v26.59h-8.84v-44.9h8.43l.08 11h-.92c1.31-4.02 3.21-6.95 5.7-8.8s5.5-2.77 9.04-2.77c3.05 0 5.72.64 7.99 1.93 2.28 1.29 4.06 3.18 5.34 5.68s1.93 5.62 1.93 9.34v28.52h-8.84V97.34c0-3.24-.84-5.77-2.53-7.59s-4-2.73-6.95-2.73c-1.98 0-3.76.44-5.34 1.3-1.58.87-2.83 2.14-3.74 3.8s-1.37 3.68-1.37 6.06Zm54.25 27.52c-4.42 0-8.23-.95-11.45-2.85-3.21-1.9-5.68-4.58-7.41-8.03s-2.59-7.51-2.59-12.17.85-8.66 2.55-12.17 4.1-6.25 7.21-8.21c3.11-1.97 6.75-2.95 10.92-2.95 2.57 0 5.05.42 7.43 1.26s4.52 2.16 6.43 3.96c1.9 1.79 3.41 4.12 4.52 6.97s1.67 6.31 1.67 10.38v3.13h-35.79v-6.59h31.25l-4.14 2.17q0-4.14-1.29-7.29c-.86-2.1-2.12-3.74-3.79-4.92s-3.77-1.77-6.29-1.77-4.62.6-6.39 1.81-3.11 2.79-4.04 4.76-1.39 4.12-1.39 6.45v4.5c0 3.08.53 5.68 1.59 7.81s2.54 3.74 4.44 4.82 4.11 1.63 6.63 1.63c1.66 0 3.16-.23 4.5-.7s2.5-1.18 3.47-2.13c.98-.95 1.72-2.12 2.23-3.51l8.31 1.97c-.72 2.3-1.93 4.34-3.63 6.11s-3.82 3.14-6.35 4.12-5.4 1.47-8.62 1.47Z" class="cls-1"/><path d="M355.07 124.77 372.7 98.3l-.04 6.83-16.67-25.26h9.96l5.06 8.19c1.39 2.25 2.62 4.41 3.67 6.47 1.06 2.06 2.13 4.06 3.23 5.98h-4.06c1.15-1.93 2.21-3.92 3.17-5.98s2.17-4.22 3.62-6.47l5.18-8.19h9.8l-16.83 25.5v-6.63l17.51 26.03h-9.92l-6.02-9.56a94 94 0 0 1-3.66-6.35c-1.04-2.01-2.12-3.95-3.21-5.82h4.1a94 94 0 0 0-3.05 5.82c-.96 2.01-2.14 4.12-3.53 6.35l-6.11 9.56h-9.84Zm56.3 1.01q-4.26 0-7.71-1.59c-3.45-1.59-4.12-2.6-5.46-4.64q-2.01-3.045-2.01-7.47 0-3.81 1.47-6.27c.98-1.63 2.3-2.93 3.98-3.9 1.67-.96 3.53-1.69 5.58-2.17s4.13-.84 6.25-1.08l6.47-.78c1.66-.2 2.88-.54 3.67-1s1.19-1.23 1.19-2.27v-.24q0-2.535-.96-4.26c-.64-1.15-1.6-2.04-2.87-2.67s-2.86-.94-4.76-.94-3.63.3-5.04.9-2.54 1.37-3.41 2.31-1.52 1.92-1.95 2.93l-8.31-2.17c1.02-2.68 2.48-4.83 4.38-6.47 1.9-1.63 4.08-2.83 6.55-3.58 2.46-.75 5.01-1.12 7.63-1.12 1.82 0 3.75.21 5.78.64 2.04.43 3.95 1.21 5.74 2.33s3.25 2.71 4.38 4.74c1.12 2.04 1.69 4.69 1.69 7.95v29.8h-8.55v-6.15h-.44c-.59 1.15-1.46 2.28-2.61 3.37-1.15 1.1-2.6 2-4.36 2.71s-3.85 1.06-6.29 1.06Zm1.96-7.11c2.41 0 4.47-.47 6.19-1.41 1.71-.94 3.03-2.18 3.94-3.74s1.37-3.2 1.37-4.94v-5.74c-.32.32-.93.61-1.83.86s-1.92.48-3.07.68-2.26.37-3.33.5-1.95.24-2.65.32c-1.66.21-3.18.58-4.56 1.08-1.38.51-2.48 1.23-3.29 2.17-.82.94-1.22 2.18-1.22 3.74 0 1.42.37 2.61 1.1 3.57.74.96 1.73 1.69 2.99 2.17q1.89.72 4.38.72ZM161.07 95.01c3.72-3.7 6-8.82 6-14.49.04 0 .08-.03.08-.06V66.9s-.04-.06-.08-.06h-13.03V53.8s-.04-.08-.08-.08h-13.54s-.08.04-.08.08c-11.31 0-20.49 9.18-20.49 20.49h-.14c0-5.65-2.3-10.77-6-14.49-3.72-3.7-8.84-6-14.49-6 0-.04-.04-.08-.08-.08H85.58s-.06.04-.06.08v13.04H72.48s-.06.03-.06.06v13.56s.03.06.06.06c0 11.32 9.18 20.49 20.49 20.49v.15c-5.65 0-10.77 2.3-14.49 6-3.7 3.7-6 8.82-6 14.49-.04 0-.06.03-.06.06v13.56s.03.06.06.06h13.04v13.04s.03.08.06.08h13.56s.08-.04.08-.08c11.31 0 20.49-9.16 20.49-20.49h.14c0 5.66 2.3 10.78 6 14.49 3.7 3.72 8.82 6 14.49 6 0 .04.03.08.08.08h13.54s.08-.04.08-.08v-13.03h13.03s.08-.04.08-.08V121.7s-.04-.06-.08-.06c0-11.31-9.16-20.49-20.49-20.49V101c5.66 0 10.78-2.3 14.49-6Zm-41.24 13.91s-.05-.01-.06 0l-18.46 10.66 10.66-18.45s.01-.05 0-.08L101.31 82.6l18.45 10.66s.05.01.08 0l18.45-10.64-10.66 18.44s-.01.05 0 .08l10.64 18.44-18.44-10.64Zm72.18 15.85V64.92h9.16v51.97h27.11v7.87h-36.27Zm55.38.56c-3.05 0-5.73-.64-8.03-1.93s-4.09-3.19-5.36-5.7c-1.27-2.52-1.91-5.62-1.91-9.32V79.86h8.84v27.43q0 4.86 2.55 7.59t6.93 2.73c2.01 0 3.8-.43 5.36-1.31 1.57-.87 2.8-2.14 3.71-3.82.91-1.67 1.37-3.69 1.37-6.04V79.85h8.84v44.9h-8.43l-.04-11h.84c-1.31 4.07-3.23 7.02-5.74 8.84-2.52 1.82-5.49 2.73-8.92 2.73ZM283 98.18v26.59h-8.84v-44.9h8.43l.08 11h-.92c1.31-4.02 3.21-6.95 5.7-8.8s5.5-2.77 9.04-2.77c3.05 0 5.72.64 7.99 1.93 2.28 1.29 4.06 3.18 5.34 5.68s1.93 5.62 1.93 9.34v28.52h-8.84V97.34c0-3.24-.84-5.77-2.53-7.59s-4-2.73-6.95-2.73c-1.98 0-3.76.44-5.34 1.3-1.58.87-2.83 2.14-3.74 3.8s-1.37 3.68-1.37 6.06Z" class="cls-1"/><path d="M337.25 125.7c-4.42 0-8.23-.95-11.45-2.85-3.21-1.9-5.68-4.58-7.41-8.03s-2.59-7.51-2.59-12.17.85-8.66 2.55-12.17 4.1-6.25 7.21-8.21c3.11-1.97 6.75-2.95 10.92-2.95 2.57 0 5.05.42 7.43 1.26s4.52 2.16 6.43 3.96c1.9 1.79 3.41 4.12 4.52 6.97s1.67 6.31 1.67 10.38v3.13h-35.79v-6.59h31.25l-4.14 2.17q0-4.14-1.29-7.29c-.86-2.1-2.12-3.74-3.79-4.92s-3.77-1.77-6.29-1.77-4.62.6-6.39 1.81-3.11 2.79-4.04 4.76-1.39 4.12-1.39 6.45v4.5c0 3.08.53 5.68 1.59 7.81s2.54 3.74 4.44 4.82 4.11 1.63 6.63 1.63c1.66 0 3.16-.23 4.5-.7s2.5-1.18 3.47-2.13c.98-.95 1.72-2.12 2.23-3.51l8.31 1.97c-.72 2.3-1.93 4.34-3.63 6.11s-3.82 3.14-6.35 4.12-5.4 1.47-8.62 1.47Z" class="cls-1"/><path d="M355.07 124.77 372.7 98.3l-.04 6.83-16.67-25.26h9.96l5.06 8.19c1.39 2.25 2.62 4.41 3.67 6.47 1.06 2.06 2.13 4.06 3.23 5.98h-4.06c1.15-1.93 2.21-3.92 3.17-5.98s2.17-4.22 3.62-6.47l5.18-8.19h9.8l-16.83 25.5v-6.63l17.51 26.03h-9.92l-6.02-9.56a94 94 0 0 1-3.66-6.35c-1.04-2.01-2.12-3.95-3.21-5.82h4.1a94 94 0 0 0-3.05 5.82c-.96 2.01-2.14 4.12-3.53 6.35l-6.11 9.56h-9.84Zm56.3 1.01q-4.26 0-7.71-1.59c-3.45-1.59-4.12-2.6-5.46-4.64q-2.01-3.045-2.01-7.47 0-3.81 1.47-6.27c.98-1.63 2.3-2.93 3.98-3.9 1.67-.96 3.53-1.69 5.58-2.17s4.13-.84 6.25-1.08l6.47-.78c1.66-.2 2.88-.54 3.67-1s1.19-1.23 1.19-2.27v-.24q0-2.535-.96-4.26c-.64-1.15-1.6-2.04-2.87-2.67s-2.86-.94-4.76-.94-3.63.3-5.04.9-2.54 1.37-3.41 2.31-1.52 1.92-1.95 2.93l-8.31-2.17c1.02-2.68 2.48-4.83 4.38-6.47 1.9-1.63 4.08-2.83 6.55-3.58 2.46-.75 5.01-1.12 7.63-1.12 1.82 0 3.75.21 5.78.64 2.04.43 3.95 1.21 5.74 2.33s3.25 2.71 4.38 4.74c1.12 2.04 1.69 4.69 1.69 7.95v29.8h-8.55v-6.15h-.44c-.59 1.15-1.46 2.28-2.61 3.37-1.15 1.1-2.6 2-4.36 2.71s-3.85 1.06-6.29 1.06Zm1.96-7.11c2.41 0 4.47-.47 6.19-1.41 1.71-.94 3.03-2.18 3.94-3.74s1.37-3.2 1.37-4.94v-5.74c-.32.32-.93.61-1.83.86s-1.92.48-3.07.68-2.26.37-3.33.5-1.95.24-2.65.32c-1.66.21-3.18.58-4.56 1.08-1.38.51-2.48 1.23-3.29 2.17-.82.94-1.22 2.18-1.22 3.74 0 1.42.37 2.61 1.1 3.57.74.96 1.73 1.69 2.99 2.17q1.89.72 4.38.72Z" class="cls-1"/></g></svg>