<svg xmlns="http://www.w3.org/2000/svg" id="Layer_2" data-name="Layer 2" viewBox="0 0 512 205"><defs><clipPath id="clippath"><path d="M0 0h512v205H0z" style="fill:none"/></clipPath><style>.cls-1{fill:#fff}</style></defs><g style="clip-path:url(#clippath)"><path d="M141.68 152.53c-5.08 0-9.84-1.97-13.43-5.56l-8.85-8.85 4.89-4.89 8.85 8.85c2.28 2.28 5.31 3.53 8.54 3.53s6.26-1.26 8.54-3.53c2.28-2.28 3.54-5.32 3.54-8.54s-1.26-6.26-3.54-8.54l-8.86-8.85 4.88-4.89 8.86 8.85c3.59 3.59 5.56 8.36 5.56 13.43s-1.97 9.84-5.56 13.43a18.87 18.87 0 0 1-13.43 5.56Z" class="cls-1"/><path d="M102.01 152.53c-5.08 0-9.84-1.97-13.43-5.56s-5.56-8.36-5.56-13.43 1.97-9.84 5.56-13.43l8.86-8.85 4.88 4.89-8.86 8.85c-2.28 2.28-3.54 5.31-3.54 8.54s1.26 6.26 3.54 8.54 5.31 3.53 8.54 3.53 6.26-1.26 8.54-3.53l8.85-8.85 4.89 4.89-8.85 8.85a18.87 18.87 0 0 1-13.43 5.56Z" class="cls-1"/><path d="M121.84 140.85 90.8 109.8c-8.08-8.08-8.08-21.22 0-29.29 3.91-3.91 9.12-6.07 14.65-6.07s10.74 2.16 14.65 6.08l1.74 1.74 1.75-1.75c3.9-3.91 9.11-6.07 14.64-6.07s10.74 2.16 14.65 6.07c8.08 8.08 8.08 21.22 0 29.29zM105.45 84.8c-2.76 0-5.36 1.08-7.32 3.04-4.03 4.04-4.03 10.6 0 14.64l23.71 23.72 23.71-23.72c4.03-4.04 4.03-10.6 0-14.64-1.96-1.96-4.56-3.04-7.32-3.04s-5.36 1.08-7.31 3.03l-9.08 9.08-9.07-9.07a10.25 10.25 0 0 0-7.31-3.04Z" class="cls-1"/><path d="M121.84 110.87c-4.46 0-8.66-1.74-11.82-4.9l-7.71-7.71c-.83-.83-1.3-1.9-1.34-3.03-.04-1.26.42-2.44 1.31-3.33.85-.85 1.97-1.31 3.17-1.31s2.31.46 3.15 1.31l8.37 8.37c2.68 2.68 7.05 2.68 9.74 0l8.36-8.36c.85-.85 1.97-1.32 3.16-1.32s2.32.47 3.17 1.31a4.474 4.474 0 0 1-.03 6.36l-7.71 7.71c-3.16 3.16-7.35 4.9-11.82 4.9m0-36.55c-6.02 0-10.92-4.9-10.92-10.92s4.9-10.92 10.92-10.92 10.92 4.9 10.92 10.92-4.9 10.92-10.92 10.92m0-14.94c-2.21 0-4.01 1.8-4.01 4.01s1.8 4.01 4.01 4.01 4.01-1.8 4.01-4.01-1.8-4.01-4.01-4.01m108.9 71.43c0-3.42 2.33-5.83 5.6-5.83 2 0 3.65.9 4.62 2.39l-1.19 1.19c-.67-1.25-1.9-2.03-3.43-2.03-2.33 0-3.97 1.77-3.97 4.28s1.64 4.3 3.97 4.3c1.55 0 2.8-.8 3.45-2.08l1.17 1.22c-.96 1.5-2.6 2.41-4.62 2.41-3.27 0-5.6-2.42-5.6-5.84Zm17.93-2.43v8.15h-1.3l-.16-1.01c-.46.5-1.53 1.12-2.6 1.12-1.97 0-2.91-1.2-2.91-2.67 0-2.03 2.26-3.11 5.52-3.37v-.93h-5.11v-1.3h6.57Zm-1.43 4.65v-1.22c-2.78.33-4.08.81-4.08 2.16 0 .73.6 1.35 1.53 1.35 1.22 0 2.56-.75 2.56-2.29Zm7.5-4.65v1.38h-.88c-1.58 0-2.69 1.19-2.69 2.49v4.26h-1.46v-8.14h1.3l.16 1.59c.57-.96 1.29-1.59 2.8-1.59h.76Zm.04 4.09c0-2.46 1.77-4.23 4-4.23 2.41 0 4.07 1.71 3.87 4.72h-6.38c.21 1.37 1.29 2.31 2.73 2.31.93 0 1.9-.52 2.34-1.25l1.06 1.04c-.7.93-2.12 1.6-3.4 1.6-2.46 0-4.23-1.76-4.23-4.18Zm6.41-.82c0-1.19-.98-2.03-2.34-2.03s-2.28.81-2.52 2.03h4.87Zm1.8 3.89c0-.6.49-1.09 1.11-1.09s1.09.49 1.09 1.09-.49 1.11-1.09 1.11-1.11-.49-1.11-1.11m8.3-4.73c0-3.42 2.33-5.83 5.6-5.83 2 0 3.65.9 4.62 2.39l-1.19 1.19c-.67-1.25-1.9-2.03-3.43-2.03-2.33 0-3.97 1.77-3.97 4.28s1.64 4.3 3.97 4.3c1.55 0 2.8-.8 3.45-2.08l1.17 1.22c-.96 1.5-2.6 2.41-4.62 2.41-3.27 0-5.6-2.42-5.6-5.84Zm10.96 1.66c0-2.47 1.82-4.23 4.39-4.23s4.39 1.76 4.39 4.23-1.82 4.18-4.39 4.18-4.39-1.72-4.39-4.18m7.32 0c0-1.68-1.22-2.85-2.93-2.85s-2.93 1.17-2.93 2.85 1.22 2.8 2.93 2.8 2.93-1.16 2.93-2.8m9.7-.54v4.59h-1.46V132c0-1.4-.85-2.38-2.03-2.38-1.56 0-2.26 1.11-2.26 2.64v4.26h-1.46v-8.12h1.3l.13 1.27c.65-1.12 1.6-1.43 2.47-1.43 2.07 0 3.32 1.37 3.32 3.69Zm8.26 0v4.59h-1.46V132c0-1.4-.85-2.38-2.03-2.38-1.56 0-2.26 1.11-2.26 2.64v4.26h-1.46v-8.12h1.3l.13 1.27c.65-1.12 1.6-1.43 2.47-1.43 2.07 0 3.32 1.37 3.32 3.69Zm.85.54c0-2.46 1.77-4.23 4-4.23 2.41 0 4.07 1.71 3.87 4.72h-6.38c.21 1.37 1.29 2.31 2.73 2.31.93 0 1.9-.52 2.34-1.25l1.06 1.04c-.7.93-2.12 1.6-3.4 1.6-2.46 0-4.23-1.76-4.23-4.18Zm6.41-.82c0-1.19-.98-2.03-2.34-2.03s-2.28.81-2.52 2.03h4.87Zm1.97.82c0-2.47 1.66-4.23 4.23-4.23 1.33 0 2.38.47 3.08 1.27l-1.03 1.06c-.42-.6-1.12-.94-2.05-.94-1.71 0-2.77 1.17-2.77 2.85s1.06 2.8 2.77 2.8c.99 0 1.71-.39 2.15-1.04l1.03 1.06c-.7.86-1.77 1.37-3.17 1.37-2.57 0-4.23-1.72-4.23-4.18Zm9.08-2.8h-1.48v-1.29h1.48v-2.69h1.46v2.69h2.08v1.3h-2.08v5.53h2.52v1.3h-3.99v-6.85Z" class="cls-1"/><path d="M329.67 135.54c0-.6.49-1.09 1.11-1.09s1.09.49 1.09 1.09-.49 1.11-1.09 1.11-1.11-.49-1.11-1.11m11.79-9h-3.74v-1.38h8.98v1.38h-3.69v9.98h-1.55zm13.01 5.39v4.59h-1.46V132c0-1.4-.91-2.38-2.1-2.38-1.43 0-2.21 1.11-2.21 2.64v4.26h-1.46V124.8h1.53v4.7c.65-.99 1.58-1.27 2.41-1.27 2.07 0 3.3 1.37 3.3 3.69Zm6.07-3.55v1.38h-.88c-1.58 0-2.69 1.19-2.69 2.49v4.26h-1.46v-8.14h1.3l.16 1.59c.57-.96 1.29-1.59 2.8-1.59h.77Zm.39-2.15c0-.6.49-1.09 1.11-1.09s1.09.49 1.09 1.09-.49 1.11-1.09 1.11-1.11-.49-1.11-1.11m.37 2.15h1.46v8.14h-1.46zm2.21 0h1.63l2.65 6.83h.33l2.59-6.83h1.63l-3.21 8.14h-2.47l-3.14-8.14Zm8.99 4.09c0-2.46 1.77-4.23 4-4.23 2.41 0 4.07 1.71 3.87 4.72h-6.38c.21 1.37 1.29 2.31 2.73 2.31.93 0 1.9-.52 2.34-1.25l1.06 1.04c-.7.93-2.12 1.6-3.4 1.6-2.46 0-4.23-1.76-4.23-4.18Zm6.41-.82c0-1.19-.98-2.03-2.34-2.03s-2.28.81-2.52 2.03h4.87Zm1.8 3.89c0-.6.49-1.09 1.11-1.09s1.09.49 1.09 1.09-.49 1.11-1.09 1.11-1.11-.49-1.11-1.11M200.99 117.8c-12.66 0-21.51-8.79-21.51-21.38s8.84-21.32 21.51-21.32c7.04 0 13.26 2.83 17.18 7.8l-5.84 5.79c-2.4-3.79-6.48-5.94-11.34-5.94-7.78 0-13.42 5.75-13.42 13.67s5.65 13.73 13.42 13.73c4.91 0 9.01-2.17 11.4-5.99l5.79 5.79c-3.95 5.07-10.02 7.86-17.19 7.86Zm32.02.13c-7.73 0-12.93-3.96-12.93-9.84 0-6.87 6.04-10.25 20.21-11.33l.71-.05v-3.46h-18.45v-6.17h25.55v30.24h-6.06l-.33-3.36-1.14 1.03c-1.22 1.1-3.82 2.95-7.57 2.95Zm7.12-16.66c-8.6 1.04-12.96 3.33-12.96 6.81 0 2.2 1.96 4.54 5.59 4.54 5.01 0 8.24-2.8 8.24-7.13v-4.33l-.86.1Zm11.6 16.04V87.07h5.32l.91 9.01 1.73-4.04c1.45-3.43 4.69-4.96 10.52-4.96h2.13v6.17h-2.56c-6.35 0-10.95 3.91-10.95 9.29v14.78h-7.1Zm36.81.68c-9.54 0-16.2-6.48-16.2-15.77s6.66-15.77 16.2-15.77c4.97 0 9.02 1.71 11.72 4.94 2.8 3.35 3.88 8.09 3.06 13.39h-23.39l.14.89c.57 3.55 4.51 6.33 8.97 6.33 3.88 0 6.38-1 8.68-3.53l4.12 4.12c-2.08 2.62-5.54 5.39-13.29 5.39Zm0-25.8c-4.36 0-7.14 3.04-7.97 6.06l-.27.98h16.42l-.21-.94c-.64-2.81-3.11-6.09-7.97-6.09Zm38.61 25.12-7.97-34.99h-3.61v34.99h-7.65V75.66h17.56l7.96 34.99h4.11V75.66h7.65v41.65zm37.29.68c-9.54 0-16.2-6.48-16.2-15.77s6.66-15.77 16.2-15.77c4.97 0 9.02 1.71 11.72 4.94 2.8 3.35 3.88 8.09 3.06 13.39h-23.4l.14.89c.57 3.55 4.51 6.33 8.97 6.33 3.88 0 6.38-1 8.68-3.53l4.12 4.12c-2.08 2.62-5.54 5.39-13.29 5.39Zm0-25.8c-4.36 0-7.14 3.04-7.97 6.06l-.27.98h16.42l-.21-.94c-.64-2.81-3.11-6.09-7.97-6.09Zm30.99 26.6c-5.86 0-11.68-3.05-14.7-7.64l3.73-3.78c2.33 3.71 6.42 5.74 11.65 5.74 1.53 0 6.2 0 6.2-2.75s-2.05-3.06-7.52-4.27c-10.62-2.33-13.53-4.52-13.53-10.17s5.28-9.47 12.56-9.47c6.09 0 11.01 2.62 14.27 7.59l-3.71 3.9c-2.33-3.95-7.06-5.38-10.62-5.38-5.77 0-6.39 2.22-6.39 3.18 0 2.63 2.17 3.01 7.98 4.03 10.67 1.87 13.12 3.76 13.12 10.1s-6.77 8.92-13.05 8.92Zm18.44-1.48V93.18h-4.08v-6.11h4.08v-9.25h7.09v9.25h6.36v6.17h-6.36v17.96h8.02v6.11z" class="cls-1"/></g></svg>