<svg xmlns="http://www.w3.org/2000/svg" data-name="Layer 2" viewBox="0 0 512 205"><defs><clipPath id="a"><path d="M0 0h512v205H0z" style="fill:none"/></clipPath></defs><g style="clip-path:url(#a)"><path d="M110.46 57.19h11.41v56.35c0 18.91-15.36 34.27-34.27 34.27H76.19V91.46c0-18.91 15.36-34.27 34.27-34.27m39.89 45.31h21.87v18.8c0 14.64-11.87 26.51-26.51 26.51h-19.17l22.26-44.67a.444.444 0 0 0-.4-.64h-21.87V83.7c0-14.64 11.87-26.51 26.51-26.51h19.17l-22.26 44.67c-.15.29.07.64.4.64m57.29 29.82c-5.74 0-10.5-1.44-14.26-4.33s-5.64-7.21-5.64-12.95c0-4.36 1.06-7.73 3.19-10.11s4.91-4.12 8.34-5.21 7.13-1.84 11.09-2.24c5.34-.62 9.07-1.16 11.18-1.64 2.11-.47 3.16-1.69 3.16-3.65v-.44c0-2.47-.94-4.49-2.81-6.05q-2.805-2.34-7.71-2.34c-4.905 0-6.06.78-8.15 2.34s-3.23 3.56-3.41 6h-13.25c.33-5.71 2.71-10.3 7.14-13.79s10.41-5.23 17.94-5.23 13.34 1.74 17.56 5.23 6.32 8.23 6.32 14.23v40.36h-13.52v-9.22h-.22c-1.38 2.54-3.38 4.69-6 6.43s-6.27 2.62-10.96 2.62Zm3.38-10.19c4.51 0 7.92-1.17 10.25-3.52 2.33-2.34 3.49-5.19 3.49-8.53v-6.22c-.84.55-2.45 1.05-4.85 1.5s-5.02.9-7.85 1.34c-2.94.44-5.5 1.26-7.66 2.48s-3.24 3.13-3.24 5.75c0 2.25.89 4.02 2.67 5.29s4.18 1.91 7.2 1.91Zm57.59 10.63c-7.02 0-12.88-1.64-17.58-4.93-4.71-3.29-7.28-8.02-7.71-14.2h13.58c.29 2.8 1.42 4.97 3.38 6.52s4.67 2.32 8.12 2.32 5.92-.65 7.82-1.96c1.91-1.31 2.86-2.98 2.86-5.02q0-2.61-2.13-4.2c-1.42-1.05-3.33-1.83-5.72-2.34l-9.81-2.02c-10.77-2.24-16.36-7.45-16.77-15.64-.26-5.17 1.73-10.04 5.7-13.35 4.28-3.57 10.09-5.36 17.44-5.36s12.66 1.72 17.04 5.15 6.64 8.11 6.79 14.04H278.7c-.07-2.58-1.07-4.71-3-6.38s-4.45-2.51-7.58-2.51-5.4.67-7.14 2.02-2.62 3-2.62 4.96c0 1.71.67 3.1 2.02 4.17 1.34 1.07 3.22 1.88 5.62 2.43l10.36 2.13c5.71 1.2 9.91 3.09 12.62 5.67s4.06 5.98 4.06 10.2c0 3.74-1.04 6.99-3.13 9.73s-4.97 4.86-8.64 6.35-7.89 2.24-12.65 2.24Zm47.06 0-22.63-60.19h15.22l11 31.35c.8 2.39 1.57 4.78 2.31 7.15.74 2.38 1.47 4.74 2.19 7.1.72-2.36 1.44-4.72 2.17-7.1.72-2.37 1.46-4.76 2.22-7.15l10.83-31.35h15.05l-22.63 60.19zm42.85 0V72.57h14.36v60.19zm48.88 0c-5.67 0-10.63-1.26-14.88-3.79s-7.57-6.04-9.95-10.55-3.57-9.74-3.57-15.7 1.19-11.2 3.57-15.73 5.7-8.06 9.95-10.6 9.21-3.82 14.88-3.82 10.59 1.27 14.86 3.82c4.27 2.54 7.6 6.08 9.98 10.6 2.38 4.53 3.57 9.77 3.57 15.73s-1.19 11.2-3.57 15.7c-2.38 4.51-5.71 8.02-9.98 10.55s-9.22 3.79-14.86 3.79m0-11.5c4.4 0 7.91-1.65 10.52-4.96 2.62-3.31 3.93-7.83 3.93-13.58s-1.31-10.29-3.93-13.63-6.12-5.02-10.52-5.02-7.96 1.66-10.58 4.99-3.93 7.88-3.93 13.66 1.31 10.27 3.93 13.58 6.14 4.96 10.58 4.96" style="fill:#fff"/></g></svg>