<svg xmlns="http://www.w3.org/2000/svg" id="Layer_2" data-name="Layer 2" viewBox="0 0 512 205"><defs><clipPath id="clippath"><path d="M0 0h512v205H0z" style="fill:none"/></clipPath><style>.cls-1{fill:#fff}</style></defs><g id="Layer_1-2" data-name="Layer 1" style="clip-path:url(#clippath)"><path d="M127.97 134.04v10.59c0 1-.81 1.81-1.81 1.81H99.34A5.44 5.44 0 0 1 93.9 141v-39.14c0-.48-.19-.94-.53-1.28l-.14-.14c-.32-.32-.74-.5-1.19-.52-8.67-.47-16.47-4.17-22.23-9.93-6.16-6.17-9.98-14.69-9.98-24.1v-5.52c0-1 .81-1.81 1.81-1.81h26.82A5.44 5.44 0 0 1 93.9 64v34.2c0 .48.19.94.53 1.28.32.32.75.5 1.2.52 8.72.43 16.58 4.15 22.36 9.93 6.17 6.17 9.98 14.69 9.98 24.1Z" class="cls-1"/><path d="M166.3 134.04v10.59c0 1-.81 1.81-1.81 1.81h-26.82a5.44 5.44 0 0 1-5.44-5.44v-39.14c0-.48-.19-.94-.53-1.28l-.14-.14c-.32-.32-.74-.5-1.19-.52-8.67-.47-16.47-4.17-22.23-9.93-6.16-6.17-9.98-14.69-9.98-24.1v-5.52c0-1 .81-1.81 1.81-1.81h26.82a5.44 5.44 0 0 1 5.44 5.44v34.2c0 .48.19.94.53 1.28.32.32.75.5 1.2.52 8.72.43 16.58 4.15 22.36 9.93 6.17 6.17 9.98 14.69 9.98 24.1Z" class="cls-1"/><path d="M204.63 134.04v10.59c0 1-.81 1.81-1.81 1.81H176a5.44 5.44 0 0 1-5.44-5.44v-39.14c0-.48-.19-.94-.53-1.28l-.14-.14c-.32-.32-.74-.5-1.19-.52-8.67-.47-16.47-4.17-22.23-9.93-6.16-6.17-9.98-14.69-9.98-24.1v-5.52c0-1 .81-1.81 1.81-1.81h26.82a5.44 5.44 0 0 1 5.44 5.44v34.2c0 .48.19.94.53 1.28.32.32.75.5 1.2.52 8.72.43 16.58 4.15 22.36 9.93 6.17 6.17 9.98 14.69 9.98 24.1Zm0-72.92c0 1.45-1.14 2.59-2.63 2.59s-2.64-1.14-2.64-2.59 1.17-2.56 2.64-2.56 2.63 1.14 2.63 2.56m-4.61 0c0 1.14.84 2.05 2 2.05s1.95-.91 1.95-2.03-.83-2.06-1.97-2.06-1.98.92-1.98 2.05Zm1.58 1.35h-.59v-2.56c.23-.05.56-.08.98-.08.48 0 .7.08.89.19.14.11.25.31.25.56 0 .28-.22.5-.53.59v.03c.25.09.39.28.47.63.08.39.13.55.19.64h-.64c-.08-.09-.13-.33-.2-.63-.05-.28-.2-.41-.53-.41h-.28v1.03Zm.01-1.46h.28c.33 0 .59-.11.59-.38 0-.23-.17-.39-.55-.39-.16 0-.27.02-.33.03V61Zm83.53 12.2-7.47 30.71c-.52 2.22-1.01 4.56-1.47 7.01s-.91 4.92-1.34 7.4c-.14.8-.27 1.59-.41 2.38-.15-.79-.3-1.58-.44-2.38-.45-2.48-.92-4.94-1.39-7.4-.48-2.45-1-4.79-1.57-7.01l-7.78-30.71h-10.96l-7.82 30.71c-.54 2.22-1.06 4.56-1.55 7.01s-.96 4.92-1.39 7.4c-.15.84-.3 1.67-.45 2.5-.14-.83-.28-1.66-.42-2.5-.43-2.48-.87-4.94-1.32-7.4-.45-2.45-.94-4.79-1.45-7.01l-7.51-30.71h-11.11l15.57 57.7h11.85l8.4-31.87c.85-3.23 1.54-6.55 2.05-9.97.18-1.21.38-2.44.59-3.69.23 1.35.45 2.69.67 3.98.58 3.49 1.26 6.71 2.03 9.68l8.4 31.87h11.85l15.61-57.7h-11.15Zm37.24 45.07c-.44 1.21-1.1 2.24-1.97 3.08-.88.84-1.92 1.47-3.12 1.9s-2.54.64-4.01.64c-2.22 0-4.17-.48-5.85-1.43s-2.98-2.37-3.91-4.26c-.84-1.69-1.29-3.74-1.38-6.12h30.15v-3.18c0-3.8-.52-7.07-1.57-9.82s-2.49-5.01-4.34-6.8c-1.85-1.78-3.96-3.1-6.35-3.95s-4.9-1.28-7.53-1.28c-4.13 0-7.73.95-10.78 2.85-3.06 1.9-5.42 4.52-7.09 7.88s-2.5 7.27-2.5 11.73.85 8.44 2.54 11.77 4.1 5.91 7.24 7.74 6.89 2.75 11.25 2.75c3.23 0 6.1-.48 8.62-1.45s4.61-2.32 6.29-4.07c1.68-1.74 2.87-3.78 3.56-6.1l-9.25-1.9Zm-15.49-21.74c1.55-1.05 3.43-1.57 5.65-1.57s4.07.52 5.56 1.55c1.48 1.03 2.6 2.47 3.35 4.32.53 1.32.87 2.78 1.03 4.39h-20.29c.13-1.63.52-3.13 1.16-4.51.81-1.74 1.99-3.14 3.54-4.18" class="cls-1"/><path d="M370.89 87.61h-10.84l-4.57 7.36a66 66 0 0 0-3.43 6.45q-.465 1.02-.96 2.01c-.33-.67-.67-1.34-1-2.03a91 91 0 0 0-3.45-6.43l-4.41-7.36h-11.07l13.46 21.08-14.32 22.21h10.88l5.34-8.67c1.29-2.19 2.41-4.32 3.35-6.39.29-.65.6-1.28.9-1.91.32.63.64 1.26.96 1.91a93 93 0 0 0 3.47 6.39l5.34 8.67h11l-14.37-22 13.71-21.29Z" class="cls-1"/><path d="M401.39 89.86c-3.1-1.86-6.76-2.79-11-2.79s-7.86.93-10.96 2.79-5.49 4.47-7.18 7.84-2.54 7.3-2.54 11.79.85 8.33 2.54 11.67 4.09 5.95 7.18 7.82c3.1 1.87 6.75 2.81 10.96 2.81s7.9-.94 11-2.81 5.49-4.48 7.18-7.82 2.54-7.23 2.54-11.67-.85-8.42-2.54-11.79-4.09-5.98-7.18-7.84m-1.65 26.75c-.76 2.14-1.92 3.85-3.49 5.11-1.56 1.27-3.52 1.9-5.87 1.9s-4.29-.63-5.83-1.9c-1.54-1.26-2.69-2.97-3.45-5.11s-1.14-4.53-1.14-7.16.38-5.09 1.14-7.22 1.91-3.83 3.45-5.09 3.48-1.9 5.83-1.9 4.3.63 5.87 1.9c1.56 1.27 2.72 2.97 3.49 5.11q1.14 3.21 1.14 7.2c0 3.99-.38 5.02-1.14 7.16m50.6-22.11c-1.23-2.43-2.95-4.27-5.17-5.54-2.22-1.26-4.81-1.9-7.78-1.9-3.54 0-6.48.94-8.83 2.81-1.89 1.51-3.41 3.63-4.56 6.35l-.12-8.61h-9.53v43.29h10.07v-25.36c0-2.09.4-3.88 1.2-5.36s1.9-2.61 3.29-3.39c1.39-.77 2.98-1.16 4.76-1.16 2.63 0 4.7.83 6.2 2.48s2.25 3.92 2.25 6.82v25.98h10.07v-27.53c0-3.49-.61-6.44-1.84-8.87Z" class="cls-1"/></g></svg>