<svg xmlns="http://www.w3.org/2000/svg" data-name="Layer 2" viewBox="0 0 512 205"><path d="M169.76 42.93v14.3L143.09 75.2l-26.68-17.97v-14.3l26.68 17.98zm0 29.5v31.14s-3.92 17.25-19.36 24.17V86.03l19.36-13.59Zm14.06-9.45 14.97-10.13v15.89l-14.97 9.68zm14.97 23.51-14.98 10.83s.92 13.13-5.99 22.58-18.66 18.89-27.42 22.81v19.36s26.96-15.44 37.56-28.8 11.98-22.81 10.83-46.78m-82.38-14.06v31.14s3.92 17.25 19.36 24.17V86.03l-19.36-13.59Zm-14.06-9.45L87.38 52.85v15.89l14.97 9.68zM87.38 86.49l14.98 10.83s-.92 13.13 5.99 22.58 18.66 18.89 27.42 22.81v19.36s-26.96-15.44-37.56-28.8-11.98-22.81-10.83-46.78m134.75 33.56V72.9h8.08v40.82h21.08v6.33h-29.17Zm44.66.81c-3.77 0-6.77-1.29-8.99-3.87s-3.33-6.37-3.33-11.35v-19h8.02v18.19c0 3.01.58 5.29 1.75 6.84s2.85 2.32 5.05 2.32c2.47 0 4.41-.88 5.83-2.63 1.41-1.75 2.12-4.24 2.12-7.48V86.63h8.08v33.41h-8.08v-5.05c-.99 1.84-2.36 3.28-4.11 4.31s-3.86 1.55-6.33 1.55Zm24.45-.81V86.64h8.08v5.19c1.12-1.84 2.64-3.3 4.55-4.38q2.865-1.62 6.57-1.62 6.195 0 9.63 3.87c2.29 2.58 3.44 6.37 3.44 11.35v19h-8.08v-18.19c0-3.01-.62-5.29-1.85-6.84-1.24-1.55-3.11-2.32-5.62-2.32s-4.53.88-6.16 2.63c-1.64 1.75-2.46 4.24-2.46 7.48v17.25h-8.08Zm49.58.81c-2.56 0-4.74-.46-6.53-1.38-1.8-.92-3.17-2.14-4.11-3.67a9.34 9.34 0 0 1-1.41-4.98c0-3.5 1.27-6.22 3.81-8.15s5.87-2.9 10-2.9c1.89 0 3.56.15 5.02.44q2.19.435 3.54.84v-1.55c0-2.47-.68-4.29-2.05-5.46s-3.16-1.75-5.36-1.75c-1.62 0-3.05.33-4.31.98q-1.89.975-2.43 3.54h-7.68c.27-2.42 1.08-4.45 2.43-6.06 1.35-1.62 3.06-2.84 5.15-3.67s4.37-1.25 6.84-1.25c4.89 0 8.7 1.2 11.42 3.6s4.08 5.76 4.08 10.07v8.15c0 1.71.1 2.95.3 3.74s.54 1.28 1.01 1.48 1.09.3 1.85.3h.34v6.87h-1.82c-2.29 0-4.21-.33-5.76-.98q-2.325-.975-3.27-3.87c-1.12 1.62-2.61 2.96-4.45 4.04q-2.76 1.62-6.6 1.62Zm1.76-6.27c1.57 0 2.92-.37 4.04-1.11s2.03-1.73 2.73-2.96q1.05-1.845 1.38-4.08c-.94-.27-2.07-.54-3.37-.81s-2.63-.4-3.97-.4c-2.02 0-3.6.45-4.75 1.35-1.14.9-1.72 2.11-1.72 3.64 0 1.26.51 2.3 1.52 3.13s2.39 1.25 4.14 1.25Zm25.05 5.46V86.64h8.08v5.12c.85-1.66 1.95-2.97 3.3-3.94s2.9-1.45 4.65-1.45h4.51v7.21h-5.32c-1.57 0-2.89.42-3.94 1.25-1.06.83-1.85 2.11-2.39 3.84s-.81 3.9-.81 6.5v14.89h-8.08Zm35.44.81c-2.56 0-4.74-.46-6.53-1.38-1.8-.92-3.17-2.14-4.11-3.67a9.34 9.34 0 0 1-1.41-4.98c0-3.5 1.27-6.22 3.81-8.15s5.87-2.9 10-2.9c1.89 0 3.56.15 5.02.44q2.19.435 3.54.84v-1.55c0-2.47-.68-4.29-2.05-5.46s-3.16-1.75-5.36-1.75c-1.62 0-3.05.33-4.31.98q-1.89.975-2.43 3.54h-7.68c.27-2.42 1.08-4.45 2.43-6.06 1.35-1.62 3.06-2.84 5.15-3.67s4.37-1.25 6.84-1.25c4.89 0 8.7 1.2 11.42 3.6s4.08 5.76 4.08 10.07v8.15c0 1.71.1 2.95.3 3.74s.54 1.28 1.01 1.48 1.09.3 1.85.3h.34v6.87h-1.82c-2.29 0-4.21-.33-5.76-.98q-2.325-.975-3.27-3.87c-1.12 1.62-2.61 2.96-4.45 4.04q-2.76 1.62-6.6 1.62Zm1.75-6.27c1.57 0 2.92-.37 4.04-1.11s2.03-1.73 2.73-2.96q1.05-1.845 1.38-4.08c-.94-.27-2.07-.54-3.37-.81s-2.63-.4-3.97-.4c-2.02 0-3.6.45-4.75 1.35-1.14.9-1.72 2.11-1.72 3.64 0 1.26.51 2.3 1.52 3.13s2.39 1.25 4.14 1.25Z" style="fill:#fff"/></svg>