<svg xmlns="http://www.w3.org/2000/svg" id="Layer_2" data-name="Layer 2" viewBox="0 0 512 205"><defs><style>.cls-1{fill:#fff}</style></defs><path d="m160.39 86.85-15.76 10.74-14.97 10.2-14.97-10.2-15.76-10.74-8.63-5.88-10.89-7.41v60.76L90.3 142l8.63 6.09 15.76 11.11 14.97 10.56 14.97-10.56 15.76-11.11 8.63-6.09 10.89-7.68V73.56l-10.89 7.41zm-45.69 24.77 14.97 10.2 14.97-10.2v9.87l-14.97 10.2-14.97-10.2zm54.32 17.2-8.63 5.88-15.76 10.74-14.97 10.2-14.97-10.2-15.76-10.74-8.63-5.88V95l8.63 5.88v23.9l15.76 10.74 14.97 10.2 14.97-10.2 15.76-10.74v-23.9l8.63-5.88zM143.3 36.63c-8.75-1.53-13.63-1.39-13.63-1.39s-4.88-.14-13.63 1.39l13.63 9.29z" class="cls-1"/><path d="m169.02 55.41-8.63 5.88-15.75 10.74-14.97 10.2-14.97-10.2-15.76-10.74-8.63-5.88L79.43 48v14.02l10.88 7.42 8.63 5.88 15.76 10.73 14.97 10.21 14.97-10.21 15.75-10.73 8.63-5.88 10.88-7.42V48z" class="cls-1"/><path d="m114.7 60.76 14.97 10.2 14.97-10.2 15.76-10.74 8.63-5.88v-.47c-3.02-1.1-5.9-2.06-8.63-2.89-1.71-.52-3.35-1-4.94-1.42l-10.82 7.37-14.97 10.2-14.97-10.2-10.82-7.37c-1.59.43-3.23.9-4.94 1.42-2.72.83-5.6 1.79-8.63 2.89v.47l8.63 5.88zm45.69 26.09-15.76 10.74-14.97 10.2-14.97-10.2-15.76-10.74-8.63-5.88-10.89-7.41v60.76L90.3 142l8.63 6.09 15.76 11.11 14.97 10.56 14.97-10.56 15.76-11.11 8.63-6.09 10.89-7.68V73.56l-10.89 7.41zm-45.69 24.77 14.97 10.2 14.97-10.2v9.87l-14.97 10.2-14.97-10.2zm54.32 17.2-8.63 5.88-15.76 10.74-14.97 10.2-14.97-10.2-15.76-10.74-8.63-5.88V95l8.63 5.88v23.9l15.76 10.74 14.97 10.2 14.97-10.2 15.76-10.74v-23.9l8.63-5.88z" class="cls-1"/><path d="M143.3 36.63c-8.75-1.53-13.63-1.39-13.63-1.39s-4.88-.14-13.63 1.39l13.63 9.29zm25.72 18.78-8.63 5.88-15.75 10.74-14.97 10.2-14.97-10.2-15.76-10.74-8.63-5.88L79.43 48v14.02l10.88 7.42 8.63 5.88 15.76 10.73 14.97 10.21 14.97-10.21 15.75-10.73 8.63-5.88 10.88-7.42V48z" class="cls-1"/><path d="m114.7 60.76 14.97 10.2 14.97-10.2 15.76-10.74 8.63-5.88v-.47c-3.02-1.1-5.9-2.06-8.63-2.89-1.71-.52-3.35-1-4.94-1.42l-10.82 7.37-14.97 10.2-14.97-10.2-10.82-7.37c-1.59.43-3.23.9-4.94 1.42-2.72.83-5.6 1.79-8.63 2.89v.47l8.63 5.88zm91.9 61.66V69.29h9.11l25.58 38.41V69.29h9.11v53.13h-9.11l-25.58-38.26v38.26zm69.38.91c-3.8 0-7.15-.82-10.06-2.47-2.91-1.64-5.19-3.93-6.83-6.87-1.65-2.93-2.47-6.33-2.47-10.17s.81-7.35 2.43-10.36 3.9-5.36 6.83-7.06c2.93-1.69 6.33-2.54 10.17-2.54s6.95.81 9.75 2.43c2.81 1.62 4.98 3.81 6.53 6.57 1.54 2.76 2.32 5.86 2.32 9.3v1.67c0 .61-.05 1.27-.15 1.97h-31.27v-5.92h22.24c-.15-2.63-1.11-4.72-2.88-6.26s-3.95-2.32-6.53-2.32c-1.87 0-3.61.42-5.2 1.25-1.59.84-2.87 2.08-3.83 3.72-.96 1.65-1.44 3.73-1.44 6.26v2.2c0 2.33.47 4.33 1.4 6 .94 1.67 2.19 2.94 3.76 3.8s3.31 1.29 5.24 1.29c2.07 0 3.82-.47 5.24-1.4a8.23 8.23 0 0 0 3.11-3.76h9.26c-.66 2.43-1.81 4.59-3.45 6.49s-3.66 3.4-6.03 4.52c-2.38 1.11-5.09 1.67-8.12 1.67Zm20.27-.91 13.59-18.82-13.59-18.82h9.79l9.79 13.74 9.64-13.74h9.79l-13.59 18.82 13.59 18.82h-9.79l-9.64-13.74-9.79 13.74zm59.51 0q-3.645 0-6.15-.87c-1.67-.58-2.94-1.68-3.8-3.3s-1.29-3.97-1.29-7.06V92.44h-6.45v-7.67h6.45V74.9h9.11v9.87h9.87v7.67h-9.87v17.53c0 1.37.14 2.38.42 3.04s.77 1.1 1.48 1.33 1.75.34 3.11.34h4.48v7.74zm12.22 0V84.77h9.11v5.77q1.44-2.805 3.72-4.44c1.52-1.09 3.26-1.63 5.24-1.63h5.09v8.12h-6c-1.77 0-3.25.47-4.44 1.4-1.19.94-2.09 2.38-2.69 4.33-.61 1.95-.91 4.39-.91 7.32v16.78h-9.11Zm39.92.91c-2.88 0-5.34-.52-7.36-1.56s-3.57-2.42-4.63-4.14a10.5 10.5 0 0 1-1.59-5.62q0-5.925 4.29-9.18c2.86-2.18 6.62-3.26 11.27-3.26 2.13 0 4.01.16 5.65.49s2.97.65 3.99.95v-1.75c0-2.78-.77-4.83-2.32-6.15-1.54-1.32-3.56-1.97-6.03-1.97-1.82 0-3.44.37-4.86 1.1q-2.13 1.095-2.73 3.99h-8.65c.3-2.73 1.21-5.01 2.73-6.83s3.45-3.2 5.81-4.14c2.35-.94 4.92-1.4 7.7-1.4 5.52 0 9.8 1.35 12.87 4.06 3.06 2.71 4.59 6.49 4.59 11.35v9.18c0 1.92.11 3.33.34 4.21.23.89.61 1.44 1.14 1.67s1.23.34 2.09.34h.38v7.74h-2.05c-2.58 0-4.74-.37-6.49-1.1s-2.97-2.19-3.68-4.36c-1.27 1.82-2.94 3.34-5.01 4.55-2.08 1.21-4.55 1.82-7.44 1.82Zm1.98-7.06c1.77 0 3.29-.42 4.55-1.25s2.29-1.95 3.07-3.34q1.17-2.085 1.56-4.59c-1.06-.3-2.33-.61-3.8-.91s-2.96-.46-4.48-.46c-2.28 0-4.06.51-5.35 1.52s-1.94 2.38-1.94 4.1c0 1.42.57 2.59 1.71 3.53s2.69 1.4 4.67 1.4Z" class="cls-1"/></svg>