<svg xmlns="http://www.w3.org/2000/svg" id="Layer_2" data-name="Layer 2" viewBox="0 0 512 205"><defs><style>.cls-1{fill:#fff}</style></defs><path d="M176.33 43.44s-28.02 15.27-33.05 24.4c-5.03-9.13-33.05-24.4-33.05-24.4 4.04-1.04 17.55-4.38 17.55-4.38 2.81 1.04 15.5 12.46 15.5 12.46s12.7-11.42 15.5-12.46c0 0 13.52 3.33 17.55 4.38" class="cls-1"/><path d="M206.34 58.01s-45.75 16.67-63.06 39.3c-17.31-22.63-63.06-39.3-63.06-39.3l12.63-7.91c27.04 10.53 50.43 34.58 50.43 34.58s23.41-24.05 50.43-34.58z" class="cls-1"/><path d="m205.3 72.41-2.46 14.21s-40.85 17.73-59.56 43.17c-18.71-25.44-59.55-43.17-59.55-43.17l-2.46-14.21c38.78 14.74 62.01 40.89 62.01 40.89s23.23-26.15 62.02-40.89" class="cls-1"/><path d="M194.77 107.32c-16.85 39.48-51.49 58.62-51.49 58.62s-34.64-19.13-51.47-58.62c0 0 38.21 22.99 51.47 42.47 13.28-19.48 51.49-42.47 51.49-42.47" class="cls-1"/><text style="font-family:HostGrotesk-SemiBold,&quot;Host Grotesk&quot;;font-size:71.48px;font-variation-settings:&quot;wght&quot;600;font-weight:600;fill:#fff" transform="translate(227.41 121.32)"><tspan x="0" y="0">Solara</tspan></text></svg>