<svg xmlns="http://www.w3.org/2000/svg" id="Layer_1" data-name="Layer 1" viewBox="0 0 512 205"><defs><clipPath id="clippath"><path d="M0 0h512v205H0z" style="fill:none"/></clipPath><style>.cls-1{fill:#fff}</style></defs><g style="clip-path:url(#clippath)"><path d="M160.48 109.8 114.1 81.53 67.73 109.8l46.36-49.74z" class="cls-1"/><path d="M148.03 109.58v30.29c0 2.8-2.27 5.07-5.07 5.07h-37.07v-38.32l-9.29 5.69v32.64H85.25a5.07 5.07 0 0 1-5.07-5.07v-30.29L96.6 99.58l9.29-5.67 8.21-5.01 8.21 5.01v38.29l9.29.02V99.57l16.42 10.01Zm-3.88-34.13v22.36l-6.96-5.01V75.45zm33.31 59.43V83.95h11.62l16.1 25.77c.82 1.32 1.65 2.76 2.5 4.31q1.26 2.325 2.58 5.16t2.61 6.39h-1.06c-.16-1.89-.3-3.91-.43-6.05s-.23-4.19-.32-6.15-.14-3.62-.14-4.99V83.95h10.66v50.93h-11.66l-14.63-23.38c-1.07-1.75-2.06-3.46-2.97-5.11s-1.86-3.47-2.85-5.47c-.99-1.99-2.17-4.38-3.54-7.16h1.33c.14 2.46.27 4.82.41 7.08s.24 4.3.32 6.14q.12 2.745.12 4.5v23.41h-10.66Zm48.85 0V83.95h34.08v8.65h-23.65v12.31h21.88v8.51h-21.88v12.82h23.72v8.65h-34.15Z" class="cls-1"/><path d="m260.05 134.88 21.02-29.91v7.93l-19.38-28.95h12.1l5.57 8.55c1.05 1.62 1.91 3.07 2.58 4.36s1.29 2.53 1.85 3.73 1.18 2.43 1.86 3.71h-2.77c.68-1.28 1.31-2.51 1.88-3.69s1.2-2.43 1.88-3.73 1.55-2.76 2.6-4.38l5.67-8.55h11.83l-19.04 28.37v-7.55l20.54 30.11h-12.37l-7.08-10.66c-.93-1.44-1.69-2.65-2.27-3.66-.58-1-1.11-1.95-1.57-2.85q-.705-1.35-1.62-3.03h1.64c-.59 1.09-1.13 2.09-1.61 2.99s-1.01 1.86-1.61 2.87c-.59 1.01-1.37 2.24-2.32 3.67l-7.31 10.66h-12.07Zm69.64.71c-4.19 0-7.87-.78-11.02-2.34q-4.74-2.34-7.35-6.51c-1.74-2.78-2.62-6.03-2.62-9.74V83.95h10.43v32.2q0 2.97 1.32 5.28a9.4 9.4 0 0 0 3.69 3.62c1.58.88 3.44 1.32 5.55 1.32s4-.44 5.59-1.32c1.58-.88 2.81-2.08 3.69-3.62q1.32-2.31 1.32-5.28v-32.2h10.46V117c0 3.71-.88 6.96-2.63 9.74s-4.21 4.95-7.37 6.51-6.84 2.34-11.06 2.34m27.14-.71V83.95h19.86c3.87 0 7.17.68 9.88 2.05s4.78 3.29 6.2 5.78c1.42 2.48 2.14 5.4 2.14 8.75s-.72 6.24-2.17 8.66c-1.45 2.43-3.54 4.28-6.29 5.57s-6.08 1.93-10 1.93h-13.47v-8.44h11.79c2.14 0 3.9-.29 5.26-.87 1.37-.58 2.39-1.45 3.08-2.6.68-1.15 1.03-2.57 1.03-4.26s-.34-3.18-1.03-4.36c-.68-1.17-1.72-2.07-3.09-2.68-1.38-.62-3.14-.92-5.28-.92h-7.49v42.32h-10.43Zm28.34 0-12.41-23.18h11.31l12.65 23.18z" class="cls-1"/><path d="m395.36 134.88 17.4-50.93h13.67l17.84 50.93h-11.59l-8.17-24.58c-.98-3.17-1.98-6.64-2.99-10.41s-2.08-7.89-3.2-12.36h2.29c-1.09 4.49-2.11 8.63-3.06 12.43-.95 3.79-1.89 7.24-2.82 10.34l-7.86 24.58h-11.52Zm10.87-11.83v-8.17h27.17v8.17z" class="cls-1"/></g></svg>