<svg xmlns="http://www.w3.org/2000/svg" data-name="Layer 2" viewBox="0 0 512 205"><path d="M141.33 59.2c1.62 1.97 2.64 4.12 2.16 6.68-.47 2.49-1.86 4.49-2.79 6.81-.76 1.9-1.06 4.15-.05 5.92.9 1.59 2.8 2.52 4.62 2.33 1.81-.19 3.46-1.45 4.17-3.13.7-1.66.52-3.54.89-5.3.73-3.49 3.5-6.14 6.06-8.62 2.32-2.25 5.3-5.15 5.33-8.57.03-3.66-.8-7.2-2.7-10.35-.18-.29-.37-.59-.56-.89-1.8-2.7-4.48-5.48-7.67-6.02-3.2-.54-6.51.67-9.08 2.65-1.99 1.52-3.65 3.53-4.53 5.87s-.92 5.04.12 7.32c.93 2.03 2.62 3.59 4.03 5.31Zm43.33 7.12c.84-3.24.94-6.85-.69-9.78-2.26-4.06-7.89-5.51-11.03-1.64-1.02 1.26-1.36 3-2.48 4.14-1.56 1.59-4.08 1.61-5.91 2.76-1.43.89-2.35 2.4-2.78 4.04h-.01c-1.66 1.73-1.86 4.37-1.84 6.78s.14 4.97-1.09 7.04c-1.06 1.79-2.9 2.75-4.39 4.11-1.57 1.43-2.53 3.27-3.26 5.24-.84 2.26-1.44 4.66-1.19 7.06.18 1.71.84 3.42 1.99 4.71.58.65 1.3 1.11 1.98 1.63.87.67 1.8 1.26 2.73 1.85 2.04 1.31 4.15 2.74 5.3 4.88 1.47 2.73 1.12 6.03.82 9.11s-.42 6.46 1.39 8.98c1.35 1.87 3.53 2.92 5.39 4.27 1.87 1.35 3.6 3.41 3.28 5.7-.2 1.42-1.17 2.72-.99 4.14.15 1.18 1.18 2.18 2.36 2.34s2.42-.49 3-1.53c.95-1.7.16-3.79.13-5.73-.05-2.91 1.63-5.53 3.2-7.98s3.15-5.17 2.87-8.06c-.24-2.52-1.87-4.7-3.72-6.42s-3.99-3.13-5.74-4.96a16.8 16.8 0 0 1-3.14-4.67q-.585-1.305-.96-2.7c-.52-1.99-.91-4.07-1-6.15-.05-1.07-.03-2.14.09-3.2s-.1-2.1-.14-3.15c-.1-2.51.39-5.04 1.43-7.32.42-.92.98-1.85 1.9-2.27 1.48-.66 3.3.39 3.93 1.88s.34 3.22-.22 4.73c-.56 1.52-1.38 2.94-1.81 4.5s-.43 3.36.55 4.65c.94 1.24 2.7 1.76 4.19 1.32s2.66-1.77 3.01-3.29c.6-2.61-1.02-5.16-1.67-7.77-.81-3.25-.09-6.69 1.04-9.84s2.64-6.17 3.48-9.41Zm-19.03 66.63c-1.05-.91-2.3-1.56-3.47-2.31-4.33-2.76-7.71-6.98-9.45-11.81-.75-2.09-1.22-4.33-2.46-6.18s-3.57-3.23-5.67-2.52l.03.11c-1.47.31-2.68 1.51-3.25 2.92-.61 1.53-.56 3.25-.25 4.87.32 1.62.89 3.17 1.31 4.76.39 1.49.65 3.06.42 4.58-.23.27-.45.54-.67.8-.95 1.16-1.9 2.32-2.84 3.48-.85 1.04-1.7 2.09-2.28 3.3s-.85 2.61-.49 3.9c.62 2.17 2.89 3.58 3.46 5.77.37 1.43-.06 2.92-.11 4.39s.5 3.2 1.92 3.62c1.52.44 3.04-1.02 3.32-2.58.27-1.56-.3-3.12-.78-4.63s-.85-3.19-.21-4.63c.44-1 1.52-1.82 2.6-1.58 1.09.24 1.69 1.39 2.05 2.45.87 2.61 1.08 5.43.61 8.14-.4 2.27-1.26 4.44-1.83 6.68s-.82 4.66 0 6.82c.81 2.16 2.94 3.95 5.24 3.77 2.43-.2 4.27-2.51 4.73-4.9.39-2.02.03-4.08-.46-6.09.02-.36-.09-.75-.2-1.1-1.29-4-1.27-8.41.07-12.39.32-.96.74-1.92 1.49-2.59.76-.67 1.93-.95 2.79-.43s1.16 1.64 1.11 2.65c-.05 1-.36 1.98-.39 2.99-.02 1 .33 2.12 1.23 2.58.97.49 2.23-.04 2.85-.93.63-.89.75-2.04.73-3.13s-.16-2.19 0-3.27c.21-1.33.88-2.59.82-3.93-.06-1.39-.91-2.64-1.96-3.56ZM124.42 59.2c-1.62 1.97-2.64 4.12-2.16 6.68.47 2.49 1.86 4.49 2.79 6.81.76 1.9 1.06 4.15.05 5.92-.9 1.59-2.8 2.52-4.62 2.33-1.81-.19-3.46-1.45-4.17-3.13-.7-1.66-.52-3.54-.89-5.3-.73-3.49-3.5-6.14-6.06-8.62-2.32-2.25-5.3-5.15-5.33-8.57-.03-3.66.8-7.2 2.7-10.35.18-.29.37-.59.56-.89 1.8-2.7 4.48-5.48 7.67-6.02 3.2-.54 6.51.67 9.08 2.65 1.99 1.52 3.65 3.53 4.53 5.87s.92 5.04-.12 7.32c-.93 2.03-2.62 3.59-4.03 5.31Zm-43.34 7.12c-.84-3.24-.94-6.85.69-9.78 2.26-4.06 7.89-5.51 11.03-1.64 1.02 1.26 1.36 3 2.48 4.14 1.56 1.59 4.08 1.61 5.91 2.76 1.43.89 2.35 2.4 2.78 4.04h.01c1.66 1.73 1.86 4.37 1.84 6.78s-.14 4.97 1.09 7.04c1.06 1.79 2.9 2.75 4.39 4.11 1.57 1.43 2.53 3.27 3.26 5.24.84 2.26 1.44 4.66 1.19 7.06-.18 1.71-.84 3.42-1.99 4.71-.58.65-1.3 1.11-1.98 1.63-.87.67-1.8 1.26-2.73 1.85-2.04 1.31-4.15 2.74-5.3 4.88-1.47 2.73-1.12 6.03-.82 9.11s.42 6.46-1.39 8.98c-1.35 1.87-3.53 2.92-5.39 4.27-1.87 1.35-3.6 3.41-3.28 5.7.2 1.42 1.17 2.72.99 4.14-.15 1.18-1.18 2.18-2.36 2.34s-2.42-.49-3-1.53c-.95-1.7-.16-3.79-.13-5.73.05-2.91-1.63-5.53-3.2-7.98s-3.15-5.17-2.87-8.06c.24-2.52 1.87-4.7 3.72-6.42 1.86-1.72 3.99-3.13 5.74-4.96a16.8 16.8 0 0 0 3.14-4.67q.585-1.305.96-2.7c.52-1.99.91-4.07 1-6.15.05-1.07.03-2.14-.09-3.2s.1-2.1.14-3.15c.1-2.51-.39-5.04-1.43-7.32-.42-.92-.98-1.85-1.9-2.27-1.48-.66-3.3.39-3.93 1.88s-.34 3.22.22 4.73c.56 1.52 1.38 2.94 1.81 4.5s.43 3.36-.55 4.65c-.94 1.24-2.7 1.76-4.19 1.32s-2.66-1.77-3.01-3.29c-.6-2.61 1.02-5.16 1.67-7.77.81-3.25.09-6.69-1.04-9.84-1.12-3.15-2.64-6.17-3.48-9.41Zm19.03 66.63c1.05-.91 2.3-1.56 3.47-2.31 4.33-2.76 7.71-6.98 9.45-11.81.75-2.09 1.22-4.33 2.46-6.18s3.57-3.23 5.67-2.52l-.03.11c1.47.31 2.68 1.51 3.25 2.92.61 1.53.56 3.25.25 4.87-.32 1.62-.89 3.17-1.31 4.76-.39 1.49-.65 3.06-.42 4.58.23.27.45.54.67.8.95 1.16 1.9 2.32 2.84 3.48.85 1.04 1.7 2.09 2.28 3.3s.85 2.61.49 3.9c-.62 2.17-2.89 3.58-3.46 5.77-.37 1.43.06 2.92.11 4.39s-.5 3.2-1.92 3.62c-1.52.44-3.04-1.02-3.32-2.58-.27-1.56.3-3.12.78-4.63s.85-3.19.21-4.63c-.44-1-1.52-1.82-2.6-1.58-1.09.24-1.69 1.39-2.05 2.45-.87 2.61-1.08 5.43-.61 8.14.4 2.27 1.26 4.44 1.83 6.68s.82 4.66 0 6.82c-.81 2.16-2.94 3.95-5.24 3.77-2.43-.2-4.27-2.51-4.73-4.9-.39-2.02-.03-4.08.46-6.09-.02-.36.09-.75.2-1.1 1.29-4 1.27-8.41-.07-12.39-.32-.96-.74-1.92-1.49-2.59-.76-.67-1.93-.95-2.79-.43s-1.16 1.64-1.11 2.65c.05 1 .36 1.98.39 2.99.02 1-.33 2.12-1.23 2.58-.97.49-2.23-.04-2.85-.93-.63-.89-.75-2.04-.73-3.13s.16-2.19 0-3.27c-.21-1.33-.88-2.59-.82-3.93.06-1.39.91-2.64 1.96-3.56Zm104.54-14.47V75.55h27.72v5.95h-20.36v12.33h18.52v5.83h-18.52v12.88h20.36v5.95h-27.72Zm45.7.73c-3.07 0-5.79-.67-8.16-2.02s-4.23-3.22-5.58-5.61-2.02-5.16-2.02-8.31.67-5.92 2.02-8.31q2.025-3.585 5.58-5.61c2.37-1.35 5.09-2.02 8.16-2.02 3.8 0 7.01 1 9.63 3.01 2.62 2 4.29 4.74 5.03 8.22h-7.67c-.41-1.55-1.25-2.76-2.51-3.62-1.27-.86-2.78-1.29-4.54-1.29-1.47 0-2.83.38-4.08 1.13-1.25.76-2.24 1.84-2.97 3.25-.74 1.41-1.1 3.16-1.1 5.24s.37 3.79 1.1 5.24c.74 1.45 1.73 2.56 2.97 3.31a7.7 7.7 0 0 0 4.08 1.13c1.76 0 3.27-.43 4.54-1.29s2.11-2.09 2.51-3.68h7.67c-.7 3.35-2.36 6.06-5 8.13s-5.86 3.1-9.66 3.1m34.03 0c-3.03 0-5.76-.66-8.19-1.99s-4.37-3.2-5.8-5.61-2.15-5.19-2.15-8.34.71-5.98 2.15-8.37c1.43-2.39 3.37-4.25 5.83-5.58 2.45-1.33 5.17-1.99 8.16-1.99s5.81.67 8.22 1.99q3.615 1.995 5.76 5.58c1.43 2.39 2.15 5.18 2.15 8.37s-.72 5.93-2.15 8.34-3.36 4.28-5.8 5.61c-2.43 1.33-5.16 1.99-8.19 1.99Zm0-6.38c1.55 0 2.97-.36 4.26-1.07s2.32-1.78 3.1-3.19 1.17-3.18 1.17-5.3-.39-3.89-1.17-5.31c-.78-1.41-1.81-2.47-3.1-3.19-1.29-.71-2.71-1.07-4.26-1.07s-2.92.36-4.23 1.07c-1.31.72-2.35 1.78-3.13 3.19q-1.17 2.115-1.17 5.31c0 3.195.39 3.89 1.17 5.3s1.81 2.47 3.1 3.19 2.71 1.07 4.26 1.07m21.1 5.65V75.55h7.36v37.17h19.2v5.77h-26.56Zm40.48.73c-2.33 0-4.31-.42-5.95-1.26s-2.88-1.95-3.74-3.34a8.46 8.46 0 0 1-1.29-4.54c0-3.19 1.15-5.66 3.47-7.42 2.31-1.76 5.35-2.64 9.11-2.64 1.72 0 3.24.13 4.57.4s2.4.52 3.22.77v-1.41c0-2.25-.62-3.9-1.87-4.97-1.25-1.06-2.87-1.59-4.88-1.59-1.47 0-2.78.3-3.93.89s-1.88 1.67-2.21 3.22h-6.99c.25-2.21.98-4.05 2.21-5.52s2.79-2.59 4.69-3.34c1.9-.76 3.98-1.13 6.22-1.13 4.46 0 7.92 1.09 10.4 3.28 2.47 2.19 3.71 5.24 3.71 9.17v7.42c0 1.55.09 2.69.28 3.4.18.72.49 1.17.92 1.35s.99.28 1.69.28h.31v6.26h-1.66c-2.09 0-3.83-.3-5.24-.89s-2.4-1.77-2.97-3.53c-1.02 1.47-2.37 2.7-4.05 3.68s-3.68 1.47-6.01 1.47Zm1.59-5.7c1.43 0 2.66-.34 3.68-1.01s1.85-1.57 2.48-2.7c.63-1.12 1.05-2.36 1.26-3.71-.86-.25-1.88-.49-3.07-.74s-2.39-.37-3.62-.37q-2.76 0-4.32 1.23c-1.04.82-1.56 1.92-1.56 3.31q0 1.725 1.38 2.85c.92.76 2.18 1.13 3.77 1.13Zm39.93 5.7c-2.33 0-4.38-.45-6.13-1.35-1.76-.9-3.17-2.15-4.23-3.74v4.35h-7.36V74.31h7.36v18.22c.98-1.39 2.31-2.61 3.99-3.65s3.8-1.56 6.38-1.56c2.9 0 5.48.7 7.73 2.09s4.02 3.29 5.3 5.7c1.29 2.41 1.93 5.15 1.93 8.22s-.64 5.74-1.93 8.16c-1.29 2.41-3.06 4.3-5.3 5.67-2.25 1.37-4.83 2.05-7.73 2.05Zm-1.47-6.44c1.76 0 3.31-.41 4.66-1.23s2.4-1.93 3.16-3.34 1.13-3.04 1.13-4.88-.38-3.55-1.13-5c-.76-1.45-1.81-2.58-3.16-3.37-1.35-.8-2.9-1.2-4.66-1.2s-3.31.4-4.66 1.2-2.41 1.91-3.19 3.34-1.17 3.09-1.17 4.97.39 3.53 1.17 4.94 1.84 2.53 3.19 3.34c1.35.82 2.9 1.23 4.66 1.23m32.63 6.44q-5.895 0-9.75-2.76c-3.855-2.76-4.05-4.37-4.42-7.6h7.54c.29 1.43 1.05 2.57 2.3 3.4 1.25.84 2.77 1.26 4.57 1.26s3.26-.36 4.26-1.07q1.5-1.065 1.5-2.67c0-.86-.34-1.52-1.01-1.99s-1.87-.83-3.59-1.07c-.65-.12-1.46-.25-2.42-.4-.96-.14-1.79-.3-2.48-.46-1.59-.29-3.09-.79-4.48-1.5a8.9 8.9 0 0 1-3.34-2.91c-.84-1.23-1.26-2.74-1.26-4.54 0-2.7 1.01-4.97 3.04-6.81 2.02-1.84 4.92-2.76 8.68-2.76s6.77.83 9.02 2.48c2.25 1.66 3.54 4.08 3.86 7.27h-7.18c-.12-1.35-.73-2.35-1.81-3.01-1.08-.65-2.38-.98-3.89-.98-1.64 0-2.9.32-3.8.95s-1.35 1.42-1.35 2.36c0 1.68 1.41 2.76 4.23 3.25.41.08.93.17 1.56.28.63.1 1.28.2 1.93.31.65.1 1.21.19 1.66.28 1.1.12 2.22.37 3.34.74s2.16.87 3.1 1.5 1.69 1.46 2.24 2.48.83 2.31.83 3.86c0 2-.5 3.76-1.5 5.27s-2.46 2.7-4.39 3.56q-2.88 1.29-6.99 1.29Z" style="fill:#fff"/></svg>