<svg xmlns="http://www.w3.org/2000/svg" id="Layer_2" data-name="Layer 2" viewBox="0 0 512 205"><defs><style>.cls-1{fill:#fff}</style></defs><path d="M163.47 51.31c-3.15.55-7.03 2.06-8.65 6.08 0 0-.9 2.35-.9 10.33 0 0 2.05 17.75-5.41 25.17-7.46-7.42-5.41-25.17-5.41-25.17 0-7.97-.9-10.33-.9-10.33-1.61-4.02-5.5-5.53-8.65-6.08 8.81-3.06 14.96-6.96 14.96-6.96s6.15 3.91 14.96 6.96" class="cls-1"/><path d="M196.85 104.31c-5.8 15.94-15.71 38.77-48.35 56.34-32.63-17.57-42.54-40.4-48.35-56.34-5.79-15.94-3.62-53.8-3.62-53.8 3.44 1.96 7.05 3.16 10.71 3.8v25.91s.16 19.02 10.85 35.5c10.68 16.49 30.4 28.63 30.4 28.63s19.72-12.14 30.4-28.63c10.69-16.48 10.85-35.5 10.85-35.5V54.31c3.66-.64 7.27-1.84 10.72-3.8 0 0 2.17 37.86-3.62 53.8Z" class="cls-1"/><path d="M178.19 67.17c.55 10.51.91 28.81-11.95 45.11-10.01 12.69-11.54 12.14-17.73 15.58-6.19-3.44-7.71-2.89-17.73-15.58-12.86-16.3-12.5-34.6-11.95-45.11.54-10.5-2.38-12.33-2.38-12.33 3.92-.19 7.74-.86 11.31-1.77 4.15 3.28 3.08 11.93 3.92 28.78.91 17.93 16.82 28.8 16.82 28.8s15.91-10.87 16.82-28.8c.85-16.85-.23-25.5 3.92-28.78 3.57.91 7.39 1.58 11.31 1.77 0 0-2.92 1.83-2.38 12.33Zm60.1 52.46-16.9-46.03h8.42l13.28 37.88 13.35-37.88h8.35l-16.9 46.03zm29.07-38.21v-8.09h7.96v8.09zm0 38.21V87.01h7.89v32.62zm31.37 15.26c-2.81 0-5.46-.46-7.96-1.38s-4.6-2.35-6.31-4.27c-1.71-1.93-2.76-4.38-3.16-7.37h7.83c.48 1.88 1.58 3.39 3.29 4.5q2.565 1.68 6.18 1.68c1.71 0 3.3-.36 4.77-1.09 1.47-.72 2.63-1.83 3.49-3.32.85-1.49 1.28-3.38 1.28-5.66v-4.21c-.66 1.1-1.51 2.1-2.56 3.03-1.05.92-2.32 1.67-3.81 2.24s-3.2.85-5.13.85c-3.07 0-5.84-.73-8.32-2.2s-4.44-3.49-5.89-6.05-2.17-5.45-2.17-8.65.72-6.01 2.17-8.55 3.41-4.55 5.89-6.02 5.27-2.2 8.39-2.2c2.59 0 4.87.54 6.84 1.61s3.51 2.42 4.6 4.04V87h7.89v30.65c0 3.73-.78 6.87-2.33 9.44-1.56 2.56-3.64 4.5-6.25 5.82s-5.51 1.97-8.71 1.97Zm-.52-21.84q2.895 0 5.1-1.32c1.47-.88 2.63-2.07 3.49-3.58s1.28-3.21 1.28-5.1-.43-3.64-1.28-5.13a9.43 9.43 0 0 0-3.49-3.52c-1.47-.85-3.17-1.28-5.1-1.28s-3.64.43-5.13 1.28a9.2 9.2 0 0 0-3.49 3.49c-.83 1.47-1.25 3.17-1.25 5.1s.42 3.65 1.25 5.16a9.17 9.17 0 0 0 3.49 3.58q2.235 1.32 5.13 1.32m39.78 7.37c-3.25 0-6.17-.71-8.78-2.14-2.61-1.42-4.68-3.43-6.21-6.02-1.54-2.59-2.3-5.57-2.3-8.94s.77-6.41 2.3-8.98c1.53-2.56 3.62-4.56 6.25-5.98s5.55-2.14 8.75-2.14 6.22.71 8.81 2.14 4.65 3.42 6.18 5.98 2.3 5.56 2.3 8.98-.77 6.36-2.3 8.94c-1.54 2.59-3.61 4.59-6.21 6.02-2.61 1.42-5.54 2.14-8.78 2.14Zm0-6.84c1.67 0 3.19-.38 4.57-1.15s2.49-1.91 3.32-3.42 1.25-3.41 1.25-5.69-.42-4.18-1.25-5.69-1.94-2.65-3.32-3.42-2.91-1.15-4.57-1.15-3.14.38-4.54 1.15-2.52 1.91-3.35 3.42-1.25 3.41-1.25 5.69.42 4.18 1.25 5.69 1.94 2.65 3.32 3.42 2.9 1.15 4.57 1.15m21.9 6.05V87.01h7.89v5c.83-1.62 1.91-2.9 3.22-3.85 1.32-.94 2.83-1.41 4.54-1.41h4.41v7.04h-5.2c-1.54 0-2.82.41-3.85 1.22s-1.81 2.06-2.33 3.75c-.53 1.69-.79 3.8-.79 6.35v14.53h-7.89Zm34.59.79c-2.5 0-4.63-.45-6.38-1.35s-3.09-2.09-4.01-3.58a9.1 9.1 0 0 1-1.38-4.87c0-3.42 1.24-6.07 3.72-7.96 2.48-1.88 5.73-2.83 9.77-2.83 1.84 0 3.47.14 4.9.43 1.42.29 2.58.56 3.45.82v-1.51c0-2.41-.67-4.19-2.01-5.33s-3.08-1.71-5.23-1.71c-1.58 0-2.98.32-4.21.95q-1.845.96-2.37 3.45h-7.5c.26-2.37 1.05-4.34 2.37-5.92s2.99-2.77 5.03-3.58 4.26-1.22 6.68-1.22c4.78 0 8.49 1.17 11.15 3.52 2.65 2.35 3.98 5.62 3.98 9.83v7.96c0 1.67.1 2.88.3 3.65s.53 1.25.99 1.45 1.06.3 1.81.3h.33v6.71h-1.78c-2.24 0-4.11-.32-5.62-.95s-2.58-1.9-3.19-3.78c-1.1 1.58-2.54 2.89-4.34 3.95-1.8 1.05-3.95 1.58-6.44 1.58Zm1.71-6.12c1.53 0 2.85-.36 3.95-1.09 1.1-.72 1.98-1.69 2.66-2.89.68-1.21 1.13-2.53 1.35-3.98-.92-.26-2.02-.53-3.29-.79s-2.56-.39-3.88-.39c-1.97 0-3.52.44-4.64 1.32s-1.68 2.06-1.68 3.55c0 1.23.49 2.25 1.48 3.06s2.33 1.22 4.04 1.22Z" class="cls-1"/></svg>