<svg xmlns="http://www.w3.org/2000/svg" data-name="Layer 2" viewBox="0 0 512 205"><defs><clipPath id="a"><path d="M0 0h512v205H0z" style="fill:none"/></clipPath></defs><g style="clip-path:url(#a)"><path d="M142.72 102.47c0-12.8 8.1-21.92 20.68-21.92 4.92 0 9.33 1.72 11.97 4.16 2.65 2.46 4.16 4.49 5.11 6.59l-7.88 2.31c-1.2-1.63-1.69-2.34-3.23-3.72-1.54-1.35-3.48-1.97-5.91-1.97-7.11 0-11.36 5.66-11.36 14.56s4.71 14.68 11.02 14.68c5.39 0 8.65-2.86 9.3-7.2.15-.89.22-1.94.22-3.14h-10v-7.3h18.87v23.98h-6.19l-.83-3.2c-2.49 2.74-6.37 4.12-11.67 4.12-11.42 0-20.1-8.62-20.1-21.95m42.3 5.48c0-10.07 6.8-16.25 15.64-16.25s15.39 6.56 15.39 16.25c0 .98-.06 1.97-.18 2.95h-21.95c0 3.94 2.8 6.99 7.33 6.99 3.23 0 5.79-1.72 7.11-4.09l7.23 2.4c-2.12 4.59-7.23 8.22-14.62 8.22-9.33 0-15.94-6.4-15.94-16.47Zm22.07-2.62c0-3.94-2.28-7.2-6.43-7.2s-6.68 3.29-6.68 7.2zm11.42 2.71c0-10.13 6.49-16.34 15.61-16.34 7.02 0 11.91 4.8 13.02 9.82l-7.45 1.88c-.71-2.49-2.59-4.71-5.42-4.71-4.4 0-6.71 3.97-6.71 9.36 0 6.13 2.8 9.39 6.71 9.39 3.23 0 5.57-2.37 6.19-5.08l7.45 1.85c-1.26 5.33-6.89 10.22-13.79 10.22-9.23 0-15.61-6.43-15.61-16.38Zm36.6 12.56c-3.42-3.39-4.68-8.16-4.68-12.56s1.17-8.03 3.54-11.2c2.34-3.17 6.65-5.14 11.97-5.14s9.63 1.97 12 5.14c2.34 3.17 3.51 6.99 3.51 11.2 0 2.8-.37 5.36-1.79 8.4-.71 1.51-1.63 2.83-2.74 3.97-2.22 2.28-6.09 4-10.99 4s-8.56-1.57-10.83-3.82Zm10.84-3.17c1.45 0 2.74-.55 4.12-1.82s2.4-4 2.4-7.57-.89-6.25-2.34-7.57c-1.48-1.32-2.74-1.79-4.19-1.79-3.29 0-6.49 2.55-6.49 9.36s3.2 9.39 6.49 9.39Zm39.56-36.94c7.48 0 12.77 4.12 15.45 9.2l-4.37 1.32c-2.83-4.49-6.59-6.74-11.23-6.74-9.2 0-15.05 7.14-15.05 18.22s6.06 18.13 15.05 18.13c5.76 0 10.16-3.17 12.28-7.33l4.59 1.35c-2.86 5.42-8.34 9.85-16.71 9.85-12.04 0-20.41-8.31-20.41-22.01s8.34-22.01 20.41-22.01Zm19.8 43V79.9h4.86v18.31h.15c1.69-3.29 5.69-5.91 10.59-5.91 7.39 0 11.08 3.88 11.08 11.67v19.52h-4.86v-18.81c0-5.82-2.37-8.74-7.11-8.74-5.29 0-9.85 4.46-9.85 9.67v17.88zm44.36-17.82c4.43-.65 7.36-1.2 8.8-1.6v-1.75c0-3.72-3.23-6.49-8.8-6.49-4.09 0-8.13 1.82-10.71 4.68l-3.23-2.37c3.45-3.45 8.43-5.82 13.82-5.82 9.14 0 13.73 3.94 13.73 11.82v19.36h-4.71v-4.96c-1.35 3.2-6 5.97-11.7 5.97-7.6 0-12.04-3.51-12.04-8.43 0-5.6 4.96-9.08 14.84-10.4Zm-2.21 15.18c6.13 0 11.02-3.85 11.02-9.14v-4.19c-1.88.4-4.86.89-8.93 1.42-6.65 1.08-9.73 3.14-9.73 6.8 0 2.83 2.92 5.11 7.63 5.11Zm19.06 2.64v-30.2h4.71v4.4c1.35-2.71 4.49-5.39 9.45-5.39 1.82 0 3.45.25 4.86.77v3.94c-1.54-.52-3.17-.8-4.86-.8-5.82 0-9.23 4.12-9.23 10.43v16.84h-4.92Zm33.17-31.18c5.26 0 8.65 2.8 10.13 5.91V93.3h4.86v26.66c0 11.45-4.49 16.93-14.59 16.93-5.51 0-9.79-1.82-12.8-5.48l3.48-1.97c2.62 2.62 5.76 3.94 9.45 3.94 6.03 0 9.6-4.52 9.6-11.45v-4.31c-1.85 3.32-5.23 5.76-10 5.76-8.65 0-14.31-6.4-14.31-15.48s5.82-15.58 14.19-15.58Zm.53 27.43c5.82 0 9.6-4.37 9.6-11.97s-4.03-11.82-9.45-11.82c-6 0-9.85 4.96-9.85 11.88s3.91 11.91 9.7 11.91m32.91-27.43c9.33 0 15.05 6.37 15.05 15.24 0 .52-.03 1.29-.12 2.25h-25.52c0 6.06 4.03 11.05 10.8 11.05 4.43 0 8.03-1.97 9.85-5.08l4.28 1.17c-2.22 4.34-7.02 7.57-14.13 7.57-9.48 0-15.82-6.56-15.82-16.31s6.4-15.88 15.61-15.88Zm10.06 14.16c0-5.88-3.94-10.53-10.07-10.53s-10.28 4.83-10.5 10.53h20.56Zm-333.66-6.9c-6.58 8.45-17.18 25.06-23.83 33.59-1.83 2.34-4.01 4.42-6.49 6.06-4.64 3.15-10.26 4.77-15.86 4.69h-2.36c-3.2-.08-7.04.17-10.2-.3-15.88-2.09-27.57-16.14-26.95-32.11l.03-12.61c.05-4.21-.26-9.72.82-13.81 3.08-13.74 15.76-23.95 29.85-23.97 2.73-.01 13.7.03 16.63.03 1.1.02 3.72-.01 4.79.02 3.19.05 6.39.58 9.41 1.61 4.83 1.64 9.22 4.48 12.71 8.19l-7.87 7.42c-2.29-2.4-5.16-4.26-8.31-5.31-2.43-.84-5.02-1.08-7.59-1.02-1.99.02-13.52.01-15.77.03-.94.01-3.59 0-4.5.03-3.71.17-7.35 1.38-10.4 3.5-4.07 2.8-7.06 7.15-8.13 11.97-.79 2.98-.43 8.2-.49 11.32-.02.63.04 13.49.03 13.8.01 1.34.14 2.68.4 3.98 1.28 6.44 5.98 12.06 12.1 14.45 1.7.68 3.5 1.11 5.33 1.3 1.18.13 3.72.09 4.94.09h4.73c4.5.17 8.72-1.18 12.07-4.23.72-.67 1.39-1.4 1.99-2.18.66-.86 2.44-3.15 4.66-6.02l.23-.3 6.71-8.58.57-.72H89.24l-.79-.05 35.76-34.99 6.25-6.11-19.51 30.21c6.93.02 12.66.04 18.57.05Z" style="fill:#fff"/></g></svg>