<svg xmlns="http://www.w3.org/2000/svg" id="Layer_2" data-name="Layer 2" viewBox="0 0 512 205"><defs><clipPath id="clippath"><path d="M0 0h512v205H0z" style="fill:none"/></clipPath><style>.cls-1{fill:#fff}</style></defs><g id="Layer_1-2" data-name="Layer 1" style="clip-path:url(#clippath)"><path d="M143.31 140.67h-34.54a22.53 22.53 0 0 1-20.16-12.47L56.75 64.34h3.78c6.14 0 12.02 2.51 16.27 6.94zm-14.98-76.33v.68c0 7.34-5.95 13.29-13.29 13.29H90.35l-9.43-9.84a26.2 26.2 0 0 0-5.1-4.13h52.5Zm15.16 19.51c0 7.53-6.1 13.63-13.63 13.63H108.9l-1.01-.89L95.35 83.5h47.81c.19 0 .34.15.34.34Zm15.23 41.43h10.98v-17.34h20.07v-8.95H169.7V88.83h21.57v-9.26h-32.55zm45.62-45.71h-10.98v45.71h30.98v-9.27h-20z" class="cls-1"/><path d="m241.16 79.57-6.87 13.47c-.61 1.19-1.2 2.38-1.75 3.59q-.345.765-.69 1.56c-.24-.52-.49-1.04-.73-1.55q-.87-1.8-1.83-3.6l-7.21-13.47h-12.64l16.99 29.29v16.41h10.71v-16.41l16.6-29.29zm46.87 27.18c-.57-1.41-1.45-2.66-2.64-3.74s-2.68-2.01-4.48-2.79-3.93-1.41-6.38-1.9l-4.02-.83c-1.66-.35-3.02-.75-4.1-1.2-1.07-.45-1.87-.98-2.38-1.58s-.77-1.34-.77-2.22.29-1.74.86-2.45c.57-.72 1.38-1.27 2.44-1.67 1.05-.4 2.27-.6 3.64-.6 2.19 0 3.95.53 5.28 1.58s2.07 2.5 2.21 4.34h10.28c-.08-3.07-.85-5.71-2.32-7.91s-3.51-3.91-6.15-5.11-5.77-1.79-9.39-1.79-6.66.59-9.36 1.78-4.81 2.84-6.32 4.97-2.27 4.61-2.27 7.45c0 3.35 1.14 6.11 3.41 8.27s5.58 3.69 9.94 4.59l4.69 1.01c1.8.37 3.27.79 4.42 1.27 1.14.48 1.99 1.04 2.53 1.67s.81 1.39.81 2.27c0 .98-.32 1.85-.95 2.59-.63.75-1.52 1.32-2.65 1.73-1.14.41-2.48.61-4.03.61-1.72 0-3.21-.27-4.48-.81s-2.26-1.33-2.98-2.36-1.1-2.27-1.17-3.73h-10.49c.02 3.39.78 6.27 2.29 8.62 1.5 2.35 3.68 4.14 6.52 5.35 2.84 1.22 6.26 1.83 10.25 1.83s7.25-.57 10.03-1.72c2.78-1.14 4.91-2.8 6.38-4.95 1.47-2.16 2.21-4.75 2.21-7.78 0-1.78-.29-3.37-.86-4.79m31.08-4.14c.51-2 .99-4.27 1.43-6.79.05-.29.11-.61.16-.91.06.31.12.63.17.93.46 2.54.94 4.8 1.43 6.78l5.77 22.67h12.21l12.21-45.71h-11.9l-4.57 20.31c-.43 2.05-.84 4.13-1.24 6.26-.39 2.09-.77 4.17-1.13 6.26-.39-2.09-.8-4.17-1.22-6.26-.43-2.13-.89-4.21-1.38-6.26l-4.85-20.31h-10.98l-4.88 20.31c-.47 2.05-.92 4.13-1.35 6.26q-.63 3.15-1.23 6.3-.555-3.15-1.14-6.3c-.39-2.13-.81-4.21-1.26-6.26l-4.54-20.31h-11.9l12.21 45.71h12.24l5.74-22.67Zm35.65-23.04h10.98v45.71h-10.98zm13.37 0v45.71h10.99v-17.34h20.06v-8.95h-20.06V88.83h34.3v36.45h10.98V88.83h13.53v-9.26zm81.46-1.15c-3.17 0-5.7 2.46-5.7 5.53s2.53 5.6 5.7 5.6 5.67-2.46 5.67-5.6-2.46-5.53-5.67-5.53m.03 9.94c-2.5 0-4.32-1.96-4.32-4.42s1.82-4.42 4.28-4.42 4.25 1.99 4.25 4.45-1.79 4.38-4.22 4.38Z" class="cls-1"/><path d="M450.87 84.11v-.07c.67-.2 1.15-.67 1.15-1.28 0-.54-.24-.98-.54-1.21-.4-.24-.88-.4-1.92-.4-.91 0-1.62.07-2.12.17v5.53h1.28v-2.23h.61c.71 0 1.05.27 1.15.88.17.64.27 1.15.44 1.35h1.38c-.14-.2-.24-.54-.4-1.38-.17-.74-.47-1.15-1.01-1.35Zm-1.52-.4h-.61v-1.58c.13-.03.37-.07.71-.07.81 0 1.18.34 1.18.84 0 .57-.57.81-1.28.81" class="cls-1"/></g></svg>