<svg xmlns="http://www.w3.org/2000/svg" id="Layer_2" data-name="Layer 2" viewBox="0 0 512 205"><defs><style>.cls-1{fill:#fff}</style></defs><path d="M146.49 102.5c0 26.57-21.54 48.1-48.1 48.1s-48.1-21.53-48.1-48.1c0-16.07 7.89-30.31 20-39.04v12.15A38.74 38.74 0 0 0 59.5 102.5c0 21.48 17.42 38.89 38.89 38.89s38.89-17.42 38.89-38.89c0-10.3-4-19.66-10.54-26.61V63.65c11.97 8.75 19.75 22.89 19.75 38.85" class="cls-1"/><path d="M130.23 102.5c0 13.41-8.29 24.87-20.01 29.57v-10.58c6.33-3.95 10.54-10.98 10.54-18.98s-4.21-15.03-10.54-18.98V55.88c3.25.82 6.37 1.97 9.32 3.42v19.41c6.56 5.83 10.7 14.34 10.7 23.8ZM86.7 55.84v27.59c-6.41 3.93-10.68 11.01-10.68 19.08s4.27 15.14 10.68 19.08v10.55c-11.81-4.66-20.16-16.17-20.16-29.63 0-9.59 4.24-18.2 10.95-24.04V59.16a47.6 47.6 0 0 1 9.2-3.33Z" class="cls-1"/><path d="M103.01 88.18V54.63c-1.52-.15-3.06-.22-4.62-.22s-3.15.08-4.69.23v33.58c-6.01 1.97-10.35 7.62-10.35 14.3s4.34 12.32 10.35 14.29v17.2c1.53.23 3.1.35 4.69.35s3.11-.11 4.62-.34v-17.18c6.05-1.95 10.43-7.62 10.43-14.32s-4.38-12.38-10.43-14.32Zm-4.62 19.87c-3.06 0-5.54-2.48-5.54-5.54s2.48-5.55 5.54-5.55 5.55 2.49 5.55 5.55-2.49 5.54-5.55 5.54m66.53 8.74v-5.01l17.77-27.63h-17.6v-5.5h25.12v5.01l-17.82 27.63h17.98v5.5zm41.26.65c-2.72 0-5.13-.59-7.22-1.77s-3.72-2.82-4.9-4.93-1.77-4.54-1.77-7.3.58-5.28 1.74-7.44 2.8-3.85 4.9-5.07c2.11-1.22 4.54-1.83 7.3-1.83s4.99.58 7 1.74c2.02 1.16 3.58 2.73 4.69 4.71s1.66 4.21 1.66 6.68v1.2c0 .44-.04.91-.11 1.42h-22.45v-4.25h15.97q-.165-2.835-2.07-4.5c-1.27-1.11-2.83-1.66-4.69-1.66-1.34 0-2.59.3-3.73.9s-2.06 1.49-2.75 2.67-1.04 2.68-1.04 4.5v1.58c0 1.67.34 3.11 1.01 4.31s1.57 2.11 2.7 2.72c1.13.62 2.38.93 3.76.93 1.49 0 2.74-.34 3.76-1.01a5.84 5.84 0 0 0 2.23-2.7h6.65c-.47 1.74-1.3 3.3-2.48 4.66s-2.63 2.44-4.33 3.24c-1.71.8-3.65 1.2-5.83 1.2m17.54-.65V89.76h6.54v4.2a9.9 9.9 0 0 1 3.68-3.54c1.54-.87 3.31-1.31 5.31-1.31 3.34 0 5.94 1.05 7.79 3.13 1.85 2.09 2.78 5.15 2.78 9.18v15.37h-6.54v-14.71c0-2.43-.5-4.28-1.5-5.53s-2.52-1.88-4.55-1.88-3.66.71-4.99 2.13-1.99 3.43-1.99 6.05v13.95h-6.54Zm48.67.65c-3.81 0-7.1-.83-9.86-2.48s-4.88-3.96-6.35-6.92-2.21-6.38-2.21-10.27.74-7.37 2.21-10.33 3.59-5.28 6.35-6.95 6.05-2.51 9.86-2.51c4.54 0 8.26 1.12 11.14 3.35 2.89 2.23 4.7 5.39 5.42 9.46h-7.19c-.47-2.18-1.51-3.88-3.11-5.1s-3.71-1.83-6.32-1.83c-2.43 0-4.52.55-6.27 1.66-1.74 1.11-3.09 2.71-4.03 4.8-.95 2.09-1.42 4.57-1.42 7.44s.47 5.33 1.42 7.38c.94 2.05 2.29 3.64 4.03 4.77s3.83 1.69 6.27 1.69c2.62 0 4.71-.59 6.29-1.77s2.62-2.84 3.13-4.99H289c-.76 3.96-2.59 7.05-5.48 9.26-2.89 2.22-6.6 3.32-11.14 3.32Zm33.35 0c-2.69 0-5.11-.59-7.28-1.77a13.27 13.27 0 0 1-5.15-4.99c-1.27-2.14-1.91-4.61-1.91-7.41s.64-5.31 1.91-7.44 3-3.78 5.18-4.96 4.6-1.77 7.25-1.77 5.16.59 7.3 1.77 3.85 2.83 5.12 4.96 1.91 4.61 1.91 7.44-.64 5.27-1.91 7.41-2.99 3.81-5.15 4.99-4.59 1.77-7.28 1.77Zm0-5.67c1.38 0 2.64-.32 3.79-.95 1.14-.64 2.06-1.58 2.75-2.83s1.04-2.82 1.04-4.71-.35-3.46-1.04-4.71-1.61-2.2-2.75-2.83c-1.14-.64-2.41-.95-3.79-.95s-2.6.32-3.76.95c-1.16.64-2.09 1.58-2.78 2.83s-1.04 2.83-1.04 4.71.34 3.46 1.04 4.71c.69 1.25 1.61 2.2 2.75 2.83 1.14.64 2.41.95 3.79.95m18.15 5.02V89.76h6.54v4.2a9.9 9.9 0 0 1 3.68-3.54c1.54-.87 3.31-1.31 5.31-1.31 3.34 0 5.94 1.05 7.79 3.13 1.85 2.09 2.78 5.15 2.78 9.18v15.37h-6.54v-14.71c0-2.43-.5-4.28-1.5-5.53s-2.52-1.88-4.55-1.88-3.66.71-4.99 2.13-1.99 3.43-1.99 6.05v13.95h-6.54Zm31.01 0V89.76h6.54v4.2a9.9 9.9 0 0 1 3.68-3.54c1.54-.87 3.31-1.31 5.31-1.31 3.34 0 5.94 1.05 7.79 3.13 1.85 2.09 2.78 5.15 2.78 9.18v15.37h-6.54v-14.71c0-2.43-.5-4.28-1.5-5.53s-2.52-1.88-4.55-1.88-3.66.71-4.99 2.13-1.99 3.43-1.99 6.05v13.95h-6.54Zm43.82.65c-2.72 0-5.13-.59-7.22-1.77s-3.72-2.82-4.9-4.93-1.77-4.54-1.77-7.3.58-5.28 1.74-7.44 2.8-3.85 4.9-5.07c2.11-1.22 4.54-1.83 7.3-1.83s4.99.58 7 1.74c2.02 1.16 3.58 2.73 4.69 4.71s1.66 4.21 1.66 6.68v1.2c0 .44-.04.91-.11 1.42h-22.45v-4.25h15.97q-.165-2.835-2.07-4.5c-1.27-1.11-2.83-1.66-4.69-1.66-1.34 0-2.59.3-3.73.9s-2.06 1.49-2.75 2.67-1.04 2.68-1.04 4.5v1.58c0 1.67.34 3.11 1.01 4.31s1.57 2.11 2.7 2.72c1.13.62 2.38.93 3.76.93 1.49 0 2.74-.34 3.76-1.01a5.84 5.84 0 0 0 2.23-2.7h6.65c-.47 1.74-1.3 3.3-2.48 4.66s-2.63 2.44-4.33 3.24c-1.71.8-3.65 1.2-5.83 1.2m30.41 0c-2.72 0-5.14-.6-7.25-1.8s-3.76-2.86-4.96-4.99-1.8-4.59-1.8-7.38.6-5.26 1.8-7.38 2.85-3.79 4.96-4.99 4.52-1.8 7.25-1.8c3.38 0 6.23.89 8.56 2.67 2.32 1.78 3.81 4.21 4.47 7.3h-6.81c-.36-1.38-1.11-2.45-2.23-3.22-1.13-.76-2.47-1.14-4.03-1.14-1.31 0-2.52.34-3.62 1.01-1.11.67-1.99 1.63-2.64 2.89-.65 1.25-.98 2.81-.98 4.66s.33 3.37.98 4.66q.975 1.935 2.64 2.94c1.11.67 2.32 1.01 3.62 1.01 1.56 0 2.91-.38 4.03-1.14 1.13-.76 1.87-1.85 2.23-3.27h6.81c-.62 2.98-2.1 5.39-4.44 7.22s-5.2 2.75-8.58 2.75Zm27.03-.65c-1.74 0-3.22-.21-4.41-.63-1.2-.42-2.11-1.21-2.72-2.37q-.93-1.74-.93-5.07V95.26h-4.63v-5.5h4.63v-7.08h6.54v7.08h7.08v5.5h-7.08v12.59c0 .98.1 1.71.3 2.18s.55.79 1.06.95 1.25.25 2.23.25h3.22v5.56z" class="cls-1"/></svg>