<svg xmlns="http://www.w3.org/2000/svg" id="Layer_2" data-name="Layer 2" viewBox="0 0 512 205"><defs><style>.cls-1{fill:#fff}</style></defs><path d="M142.48 72.69v7.01L128.1 90.53 113.71 79.7v-7.01c8.24-7.83 14.03-20.45 14.39-21.23v-.03.03c.35.77 6.14 13.4 14.38 21.23" class="cls-1"/><path d="m177.86 42.8-.5 47.74c0 16.58-1.49 25.09-1.49 25.09-5.53 19.77-26.79 31.25-26.79 31.25l.21-24.66s7.23-5.53 10.42-11.91 1.7-17.86 1.7-17.86c-3.83 9.99-21.45 21.16-21.45 21.16v40.08l-11.86 8.49h-.02l-11.87-8.49v-40.08S98.6 102.44 94.77 92.45c0 0-1.49 11.48 1.7 17.86s10.42 11.91 10.42 11.91l.21 24.66s-21.26-11.48-26.79-31.25c0 0-1.49-8.51-1.49-25.09l-.5-47.74S97 61.62 104.34 65.02V78.2s-.43 5.96 4.68 9.57l19.07 14.54 19.07-14.54c5.1-3.61 4.68-9.57 4.68-9.57V65.02c7.34-3.4 26.02-22.22 26.02-22.22" class="cls-1"/><text style="font-family:HostGrotesk-SemiBold,&quot;Host Grotesk&quot;;font-size:67.41px;font-variation-settings:&quot;wght&quot;600;font-weight:600;fill:#fff" transform="translate(197.73 120.15)"><tspan x="0" y="0">Veridyn</tspan></text></svg>