<svg xmlns="http://www.w3.org/2000/svg" id="Layer_2" data-name="Layer 2" viewBox="0 0 512 205"><defs><style>.cls-1{fill:#fff}</style></defs><path d="m118.46 58.3-7.81 12.8-1.74 2.86-1.75 2.87c-1.03.09-2.05.21-3.06.37-.11.01-.22.03-.32.05-.17.02-.34.05-.52.08h-.06c-.15.02-.31.06-.46.08-.12.02-.23.04-.35.07-10.5 2.15-18.41 11.45-18.41 22.58q0 1.185.12 2.34h-.12l-7.36-11.84-.37-.6 8.59-14.08L99.1 52.51l7.81-12.79 11.55 18.59Z" class="cls-1"/><path d="M147.1 102.4h-16.99l-.12-.19-.34-.54c-.4-2.06-1.08-4.02-2-5.84a23 23 0 0 0-6.57-7.95 22.98 22.98 0 0 0-14.05-4.78q-1.995 0-3.9.33l3.92-6.42.11-.18q2.28-.21 4.62-.21 1.17 0 2.34.06c1.17.06.05 0 .07 0 4.68.21 9.24 1.64 13.25 4.07a52.4 52.4 0 0 1 9.73 7.64c3.91 3.92 7.2 8.48 9.68 13.5.09.17.17.34.25.51m-35.87 20.34-3.9 6.39q-.675.045-1.35.06c-.52.01-1.04.02-1.56.02q-1.95 0-3.87-.15c-.53-.04-1.06-.09-1.59-.14-3.92-.41-7.71-1.65-11.11-3.64a50 50 0 0 1-7.17-5.06c-.38-.31-.75-.63-1.12-.97a51.1 51.1 0 0 1-11.79-15.39c-.21-.42-.42-.84-.61-1.26-.04-.07-.07-.15-.1-.22h16.93l.15.23c.01.16.03.31.05.47.35 2.68 1.17 5.21 2.36 7.51 1.86 3.61 4.65 6.67 8.05 8.86 3.59 2.31 7.86 3.64 12.44 3.64 1.43 0 2.84-.13 4.2-.38Zm27.17-7-.78 1.28-7.68 12.58-14.39 23.59-7.39 12.1-11.55-18.58 7.39-12.1 1.81-2.95 1.49-2.44c1.7-.01 3.36-.22 4.95-.59h.01c10.22-2.36 17.84-11.52 17.84-22.46 0-1.03-.07-2.05-.2-3.05.03-.23.06-.47.08-.71h.14l8.29 13.34Zm40.85 1.27q-2.67 0-5.22-.72c-1.7-.48-3.26-1.23-4.66-2.26s-2.56-2.36-3.46-3.99c-.91-1.63-1.46-3.59-1.68-5.86h5.97c.28 1.85.89 3.3 1.81 4.37a7.7 7.7 0 0 0 3.33 2.29q1.95.69 4.02.69c2.07 0 2.7-.22 3.83-.67 1.14-.44 2.04-1.09 2.72-1.94.67-.85 1.01-1.88 1.01-3.09s-.33-2.21-.99-3.12q-.99-1.365-4.02-1.89l-6.6-1.22c-2.95-.57-5.28-1.78-7-3.62-1.72-1.85-2.58-4.03-2.58-6.55 0-2.31.59-4.28 1.78-5.91s2.77-2.88 4.74-3.75 4.14-1.3 6.52-1.3 4.7.43 6.66 1.28c1.95.85 3.55 2.14 4.79 3.86s1.99 3.93 2.24 6.63h-6.07c-.25-1.6-.74-2.86-1.46-3.78-.73-.92-1.62-1.58-2.66-1.97a9.7 9.7 0 0 0-3.38-.59c-1.1 0-2.21.18-3.33.53-1.12.36-2.03.92-2.74 1.7s-1.07 1.83-1.07 3.14c0 1.17.43 2.18 1.28 3.04.85.85 2.17 1.44 3.94 1.76l6.12 1.17c3.12.57 5.56 1.69 7.3 3.36q2.61 2.505 2.61 7.08c0 1.85-.39 3.48-1.17 4.9s-1.84 2.6-3.17 3.54-2.81 1.66-4.42 2.16q-2.43.75-4.98.75Zm30.41 0c-2.63 0-5-.58-7.11-1.73s-3.79-2.78-5.03-4.87-1.86-4.51-1.86-7.24.62-5.19 1.86-7.27 2.93-3.69 5.06-4.85c2.13-1.15 4.49-1.73 7.08-1.73s5.04.58 7.14 1.73c2.09 1.15 3.76 2.77 5.01 4.85 1.24 2.08 1.86 4.5 1.86 7.27s-.62 5.15-1.86 7.24a12.93 12.93 0 0 1-5.03 4.87c-2.11 1.15-4.48 1.73-7.11 1.73Zm0-5.54c1.35 0 2.58-.31 3.7-.93s2.01-1.54 2.69-2.77c.67-1.23 1.01-2.76 1.01-4.61s-.34-3.38-1.01-4.61c-.68-1.23-1.57-2.15-2.69-2.77s-2.35-.93-3.7-.93-2.54.31-3.68.93-2.04 1.54-2.72 2.77c-.67 1.22-1.01 2.76-1.01 4.61s.34 3.38 1.01 4.61c.67 1.22 1.57 2.15 2.69 2.77s2.35.93 3.7.93Zm17.79 4.9V78.02h6.39v38.35zm20.13.64c-2.02 0-3.75-.36-5.17-1.09s-2.5-1.7-3.25-2.9a7.33 7.33 0 0 1-1.12-3.94c0-2.77 1-4.92 3.01-6.44 2.01-1.53 4.64-2.29 7.91-2.29 1.49 0 2.81.12 3.97.35 1.15.23 2.09.45 2.8.67v-1.23c0-1.95-.54-3.39-1.62-4.31q-1.62-1.38-4.23-1.38c-1.28 0-2.41.26-3.41.77-.99.51-1.63 1.45-1.92 2.8h-6.07c.21-1.92.85-3.52 1.92-4.79s2.42-2.25 4.07-2.9c1.65-.66 3.45-.99 5.41-.99q5.805 0 9.03 2.85c2.15 1.9 3.22 4.55 3.22 7.96v6.44c0 1.35.08 2.34.24 2.96s.43 1.01.8 1.17.86.24 1.46.24h.27v5.43h-1.44c-1.81 0-3.33-.26-4.55-.77-1.23-.51-2.09-1.54-2.58-3.06-.89 1.28-2.06 2.34-3.52 3.2-1.46.85-3.2 1.28-5.22 1.28Zm1.39-4.95c1.24 0 2.31-.29 3.2-.88q1.335-.885 2.16-2.34c.55-.98.91-2.05 1.09-3.22-.75-.21-1.63-.43-2.66-.64s-2.08-.32-3.14-.32c-1.6 0-2.85.36-3.76 1.07s-1.36 1.67-1.36 2.88c0 .99.4 1.82 1.2 2.48s1.89.99 3.28.99Zm19.81 4.31V89.95h6.39V94q1.005-1.965 2.61-3.12c1.07-.76 2.29-1.15 3.68-1.15h3.57v5.7h-4.21q-1.86 0-3.12.99c-.83.66-1.46 1.67-1.89 3.04s-.64 3.08-.64 5.14v11.77zm20.34-30.94v-6.55h6.44v6.55zm0 30.94V89.95h6.39v26.42zm22.16.64c-3.41 0-6.23-.8-8.47-2.4s-3.52-3.8-3.83-6.6h6.55c.25 1.24.91 2.23 2 2.96 1.08.73 2.41 1.09 3.97 1.09s2.83-.31 3.7-.93 1.31-1.39 1.31-2.32c0-.75-.29-1.32-.88-1.73s-1.62-.72-3.12-.93c-.57-.11-1.27-.22-2.1-.35-.83-.12-1.55-.26-2.16-.4-1.38-.25-2.68-.68-3.89-1.3s-2.18-1.46-2.9-2.53c-.73-1.07-1.09-2.38-1.09-3.94q0-3.51 2.64-5.91c2.64-2.4 4.27-2.4 7.54-2.4s5.88.72 7.83 2.16 3.07 3.54 3.36 6.31h-6.23c-.11-1.17-.63-2.04-1.57-2.61s-2.07-.85-3.38-.85c-1.42 0-2.52.28-3.3.83s-1.17 1.23-1.17 2.05c0 1.46 1.23 2.4 3.68 2.82.35.07.81.15 1.36.24s1.11.18 1.68.27q.855.135 1.44.24c.96.11 1.93.32 2.9.64.98.32 1.87.75 2.69 1.3s1.46 1.27 1.94 2.16q.72 1.335.72 3.36c0 1.74-.44 3.27-1.3 4.58q-1.305 1.965-3.81 3.09c-2.505 1.125-3.69 1.12-6.07 1.12Zm15.87-.64V79.09h24.07v5.17h-17.68v10.7h16.08v5.06h-16.08v11.18h17.68v5.17zm38.98.64c-2.49 0-4.71-.6-6.68-1.81s-3.52-2.87-4.63-4.98q-1.68-3.165-1.68-7.11c0-3.945.56-5.03 1.68-7.11s2.66-3.71 4.63-4.9 4.22-1.78 6.74-1.78c2.02 0 3.8.39 5.33 1.17s2.73 1.86 3.62 3.25V78.03h6.39v38.35h-6.39v-3.89c-.82 1.17-1.95 2.22-3.41 3.14s-3.32 1.38-5.59 1.38Zm1.28-5.59c1.53 0 2.88-.35 4.05-1.07 1.17-.71 2.09-1.69 2.77-2.93.67-1.24 1.01-2.66 1.01-4.26s-.34-3.07-1.01-4.31c-.68-1.24-1.6-2.21-2.77-2.9s-2.52-1.04-4.05-1.04-2.82.35-3.99 1.04-2.1 1.66-2.77 2.9-1.01 2.66-1.01 4.26.34 3.07 1.01 4.31 1.6 2.22 2.77 2.93 2.5 1.07 3.99 1.07m33.08 17.31c-2.27 0-4.42-.37-6.44-1.12s-3.73-1.9-5.11-3.46-2.24-3.55-2.56-5.96h6.34c.39 1.53 1.28 2.74 2.66 3.65s3.05 1.36 5.01 1.36c1.38 0 2.67-.29 3.86-.88s2.13-1.48 2.82-2.69 1.04-2.73 1.04-4.58v-3.41c-.53.89-1.22 1.7-2.08 2.45-.85.75-1.88 1.35-3.09 1.81s-2.59.69-4.15.69c-2.49 0-4.73-.59-6.74-1.78s-3.59-2.82-4.77-4.9-1.76-4.41-1.76-7 .59-4.86 1.76-6.92a13.04 13.04 0 0 1 4.77-4.87c2.01-1.19 4.27-1.78 6.79-1.78 2.09 0 3.94.44 5.54 1.3 1.6.87 2.84 1.96 3.73 3.28v-3.94h6.39v24.82c0 3.02-.63 5.57-1.89 7.64-1.26 2.08-2.95 3.65-5.06 4.71-2.11 1.07-4.47 1.6-7.06 1.6Zm-.43-17.68c1.56 0 2.94-.35 4.13-1.07a7.8 7.8 0 0 0 2.82-2.9c.69-1.22 1.04-2.6 1.04-4.13s-.35-2.95-1.04-4.15a7.57 7.57 0 0 0-2.82-2.85c-1.19-.69-2.57-1.04-4.13-1.04s-2.95.35-4.15 1.04a7.35 7.35 0 0 0-2.82 2.82c-.68 1.19-1.01 2.57-1.01 4.13s.34 2.96 1.01 4.18a7.5 7.5 0 0 0 2.82 2.9c1.21.71 2.59 1.07 4.15 1.07m31.79 5.96c-2.66 0-5.02-.58-7.06-1.73a12.33 12.33 0 0 1-4.79-4.82c-1.15-2.06-1.73-4.44-1.73-7.14s.57-5.16 1.7-7.27c1.14-2.11 2.73-3.76 4.79-4.95s4.44-1.78 7.14-1.78 4.87.57 6.84 1.7c1.97 1.14 3.5 2.67 4.58 4.61s1.62 4.11 1.62 6.52v1.17c0 .43-.04.89-.11 1.38h-21.94v-4.15h15.6c-.11-1.85-.78-3.31-2.02-4.39s-2.77-1.62-4.58-1.62c-1.31 0-2.53.29-3.65.88s-2.02 1.46-2.69 2.61c-.68 1.15-1.01 2.62-1.01 4.39v1.54c0 1.63.33 3.04.99 4.21s1.54 2.06 2.64 2.66 2.32.91 3.67.91c1.46 0 2.68-.33 3.68-.99.99-.66 1.72-1.54 2.18-2.64h6.5c-.46 1.7-1.27 3.22-2.42 4.55s-2.57 2.39-4.23 3.17q-2.505 1.17-5.7 1.17Z" class="cls-1"/></svg>