<svg xmlns="http://www.w3.org/2000/svg" id="Layer_2" data-name="Layer 2" viewBox="0 0 512 205"><defs><clipPath id="clippath"><path d="M0 0h512v205H0z" style="fill:none"/></clipPath><style>.cls-1{fill:#fff}</style></defs><g style="clip-path:url(#clippath)"><path d="M125.22 93.09c-.08-.09-.16-.17-.24-.26-.05-.05-.09-.1-.14-.15h-.01a14 14 0 0 0-6.57-3.79l19.51-19.5-6.43-6.44-25.98 25.98c-4.26 4.27-5.77 11.19-4.16 17.02l.06.23.03.12c.5 1.78 1.34 3.42 2.45 4.84.03.04.07.08.1.13.11.14.22.27.34.41.06.07.12.14.18.2.14.16.29.31.44.47.02.02.03.04.05.05 1.78 1.79 4.04 3.11 6.58 3.73l-19.5 19.5 6.43 6.44 25.98-25.98c5.9-5.91 6.52-16.86.9-22.98Z" class="cls-1"/><path d="M138.14 92.5a30.9 30.9 0 0 0-7.39-5.47c6.19 11.68 4.37 26.5-5.47 36.33l-22.82 22.82 12.86 12.86 22.82-22.82c12.07-12.07 12.07-31.65 0-43.72m-33.76-10.86 22.82-22.82-12.86-12.86-22.82 22.82c-12.07 12.07-12.07 31.65 0 43.72 2.24 2.24 4.73 4.06 7.39 5.47-6.19-11.68-4.37-26.5 5.47-36.33m56.95 35.43 7.5-7.42c.15.92 2.68 11.17 14.46 11.17 6.58 0 10.02-1.91 10.02-5.74 0-2.91-1.84-5.51-8.95-7.8l-5.81-1.91c-11.09-3.6-15.76-8.03-15.76-16.29 0-8.8 8.03-14.77 19.05-14.77 11.63 0 18.28 4.74 20.5 11.09l-6.81 7.27c-.31-.84-3.14-8.26-13.16-8.26-5.13 0-8.19 1.91-8.19 5.13 0 2.83 2.14 4.44 5.58 5.43l6.88 2.07c12.7 3.75 18.05 9.1 18.05 17.67 0 9.33-8.57 16.07-21.19 16.07-10.63 0-18.51-5.81-22.19-13.69Zm44.14-27.15h11.25l8.87 30.68h2.68l4.44-30.68h21.11l4.44 30.68h2.68l8.87-30.68h11.32l-12.39 39.4h-19.97l-4.28-29.68h-2.3l-4.9 29.68h-19.51l-12.32-39.4Zm77.95-8.95c0-3.67 3.06-6.73 6.81-6.73s6.73 3.06 6.73 6.73-3.06 6.81-6.73 6.81-6.81-3.06-6.81-6.81m1.45 10.09h10.71v38.33h-10.71zm21.12 8.42h-4.44v-9.56h4.44V74.24h20.65v9.64h-9.94v6.04h8.49v9.56h-8.49v29.84h-10.71zm25.7-.08h-5.05v-9.49h5.05V78.43h10.71v11.48h7.88v9.56h-7.88v20.35h9.95v9.49h-20.66zm22.18 10.25c0-12.01 9.03-20.5 21.8-20.5s21.8 8.49 21.8 20.5-9.03 20.5-21.8 20.5-21.8-8.49-21.8-20.5m32.9 0c0-6.12-4.59-10.4-11.09-10.4s-11.09 4.28-11.09 10.4 4.59 10.4 11.09 10.4 11.09-4.28 11.09-10.4m15.29-19.73h8.42l.84 8.34.69-1.61c2.07-4.9 6.81-6.73 13.92-6.73h3.6v9.56h-4.13c-7.42 0-12.62 4.44-12.62 10.56v19.28h-10.71v-39.4Z" class="cls-1"/></g></svg>