<svg xmlns="http://www.w3.org/2000/svg" id="Layer_2" data-name="Layer 2" viewBox="0 0 512 205"><defs><clipPath id="clippath"><path d="M0 0h512v205H0z" style="fill:none"/></clipPath><style>.cls-1{fill:#fff}</style></defs><g id="Layer_1-2" data-name="Layer 1" style="clip-path:url(#clippath)"><path id="_Radial_Repeat_" d="m122.65 121.09 18.62 9.56c1.28.66 2.08 1.97 2.08 3.41v25.49c0 2.86-3.03 4.71-5.58 3.41l-18.62-9.56a3.83 3.83 0 0 1-2.08-3.41V124.5c0-2.86 3.03-4.71 5.58-3.41" class="cls-1" data-name="&amp;lt;Radial Repeat&amp;gt;"/><path id="_Radial_Repeat_-2" d="m105.48 101.08-9.56 18.62a3.83 3.83 0 0 1-3.41 2.08H67.02c-2.86 0-4.71-3.03-3.41-5.58l9.56-18.62a3.83 3.83 0 0 1 3.41-2.08h25.49c2.86 0 4.71 3.03 3.41 5.58" class="cls-1" data-name="&amp;lt;Radial Repeat&amp;gt;"/><path id="_Radial_Repeat_-3" d="m125.49 83.91-18.62-9.56a3.83 3.83 0 0 1-2.08-3.41V45.45c0-2.86 3.03-4.71 5.58-3.41l18.62 9.56c1.28.66 2.08 1.97 2.08 3.41V80.5c0 2.86-3.03 4.71-5.58 3.41" class="cls-1" data-name="&amp;lt;Radial Repeat&amp;gt;"/><path id="_Radial_Repeat_-4" d="m142.66 103.92 9.56-18.62a3.83 3.83 0 0 1 3.41-2.08h25.49c2.86 0 4.71 3.03 3.41 5.58l-9.56 18.62a3.83 3.83 0 0 1-3.41 2.08h-25.49c-2.86 0-4.71-3.03-3.41-5.58" class="cls-1" data-name="&amp;lt;Radial Repeat&amp;gt;"/><path id="_Radial_Repeat_-5" d="m109.92 114.64 6.41 19.93a3.82 3.82 0 0 1-.94 3.88l-18.02 18.02c-2.02 2.02-5.47 1.19-6.35-1.54L84.61 135a3.82 3.82 0 0 1 .94-3.88l18.02-18.02c2.02-2.02 5.47-1.19 6.35 1.54" class="cls-1" data-name="&amp;lt;Radial Repeat&amp;gt;"/><path id="_Radial_Repeat_-6" d="M111.93 88.35 92 94.76a3.82 3.82 0 0 1-3.88-.94L70.1 75.8c-2.02-2.02-1.19-5.47 1.54-6.35l19.93-6.41a3.82 3.82 0 0 1 3.88.94L113.47 82c2.02 2.02 1.19 5.47-1.54 6.35" class="cls-1" data-name="&amp;lt;Radial Repeat&amp;gt;"/><path id="_Radial_Repeat_-7" d="m138.22 90.36-6.41-19.93a3.82 3.82 0 0 1 .94-3.88l18.02-18.02c2.02-2.02 5.47-1.19 6.35 1.54L163.53 70a3.82 3.82 0 0 1-.94 3.88L144.57 91.9c-2.02 2.02-5.47 1.19-6.35-1.54" class="cls-1" data-name="&amp;lt;Radial Repeat&amp;gt;"/><path id="_Radial_Repeat_-8" d="m136.21 116.65 19.93-6.41a3.82 3.82 0 0 1 3.88.94l18.02 18.02c2.02 2.02 1.19 5.47-1.54 6.35l-19.93 6.41a3.82 3.82 0 0 1-3.88-.94L134.67 123c-2.02-2.02-1.19-5.47 1.54-6.35" class="cls-1" data-name="&amp;lt;Radial Repeat&amp;gt;"/><circle cx="124.07" cy="102.5" r="5.6" class="cls-1"/><path d="M211.44 98.98c-3.53 0-6.31-.92-8.34-2.77s-3.05-4.49-3.05-7.91v-1.99h6.96v2.1c0 1.63.4 2.86 1.2 3.7s1.88 1.26 3.23 1.26 2.43-.42 3.22-1.26 1.19-2.08 1.19-3.72V64.51h6.89v23.76c0 3.44-1 6.08-3.01 7.93s-4.77 2.77-8.29 2.77Zm14.59-.45 11.62-34.01h9.13l11.92 34.01h-7.74l-2.63-7.9h-12.08l-2.53 7.9zm11.96-13.36h8.54l-1.03-3.06c-.55-1.74-1.1-3.61-1.64-5.64q-.825-3.03-1.71-6.51c-.56 2.34-1.1 4.53-1.62 6.55s-1.04 3.89-1.55 5.59l-.98 3.06Zm24.91 13.36V64.52h7.76l10.75 17.21a90 90 0 0 1 2.08 3.66c.72 1.33 1.45 2.89 2.19 4.67-.12-1.67-.22-3.35-.31-5.03-.08-1.68-.13-3.08-.13-4.19V64.52h7.12v34.01h-7.78l-9.77-15.61q-.93-1.53-1.74-2.97c-.53-.96-1.08-1.98-1.63-3.07-.56-1.09-1.18-2.34-1.88-3.76.12 2.05.23 3.95.32 5.67.09 1.73.14 3.09.14 4.1v15.64zm50.7.45c-3.18 0-5.97-.7-8.38-2.11-2.4-1.41-4.28-3.41-5.62-6.02-1.34-2.6-2.01-5.7-2.01-9.29s.7-6.81 2.09-9.43 3.29-4.62 5.68-6c2.4-1.38 5.09-2.08 8.07-2.08 2.56 0 4.87.49 6.94 1.46s3.77 2.32 5.09 4.03 2.15 3.69 2.47 5.92h-7.08c-.49-1.63-1.35-2.91-2.6-3.84s-2.82-1.39-4.7-1.39c-2.62 0-4.75.97-6.4 2.92s-2.48 4.73-2.48 8.33.81 6.39 2.44 8.36c1.63 1.96 3.8 2.94 6.53 2.94 2.42 0 4.32-.64 5.71-1.92 1.38-1.28 2.11-3.01 2.17-5.18h-7.4v-5.3h14.15v4.25q0 4.47-1.89 7.68c-1.26 2.14-3 3.78-5.2 4.93-2.21 1.15-4.73 1.72-7.58 1.72Zm34.95 0c-3 0-5.7-.68-8.09-2.05s-4.29-3.36-5.68-5.96-2.09-5.74-2.09-9.43.7-6.85 2.09-9.46 3.29-4.6 5.68-5.97c2.4-1.37 5.09-2.05 8.09-2.05s5.71.68 8.1 2.05q3.585 2.055 5.67 5.97c1.39 2.61 2.09 5.76 2.09 9.46s-.7 6.84-2.09 9.44-3.28 4.58-5.67 5.95-5.09 2.05-8.1 2.05m0-6.18c2.65 0 4.77-.96 6.38-2.89 1.61-1.92 2.41-4.71 2.41-8.37s-.8-6.47-2.41-8.4-3.73-2.9-6.38-2.9-4.76.97-6.37 2.91-2.42 4.74-2.42 8.39.81 6.42 2.42 8.36c1.61 1.93 3.74 2.9 6.37 2.9m-148.5 47.23v-34.01h10.68l5.52 15.61c.23.72.49 1.65.78 2.81s.59 2.4.9 3.73.6 2.61.86 3.85c.26-1.22.54-2.49.84-3.82s.6-2.58.89-3.73c.29-1.16.55-2.1.78-2.83l5.43-15.61h10.73v34.01h-7.01v-16.05c0-.85.02-1.94.06-3.26s.08-2.75.11-4.27c.04-1.52.06-3 .08-4.43a223 223 0 0 1-2.4 8.82c-.38 1.29-.71 2.33-.98 3.14l-5.64 16.05h-5.87l-5.73-16.05c-.26-.78-.57-1.79-.95-3.04-.37-1.25-.77-2.62-1.2-4.12q-.645-2.25-1.23-4.53c.03 1.37.06 2.8.1 4.28s.07 2.88.1 4.18.05 2.38.05 3.23v16.05h-6.92Zm41.59 0 11.62-34.01h9.13l11.92 34.01h-7.74l-2.63-7.9h-12.08l-2.53 7.9zm11.96-13.35h8.54l-1.03-3.06c-.55-1.74-1.1-3.61-1.64-5.64q-.825-3.03-1.71-6.51c-.56 2.34-1.1 4.53-1.62 6.55s-1.04 3.89-1.55 5.59l-.98 3.06Zm37.81 13.81c-3.03 0-5.73-.68-8.1-2.05s-4.25-3.36-5.63-5.96-2.07-5.74-2.07-9.43.69-6.85 2.08-9.46c1.38-2.61 3.27-4.6 5.66-5.97s5.08-2.05 8.06-2.05c2.57 0 4.9.48 6.99 1.43 2.08.95 3.8 2.33 5.14 4.13s2.18 3.98 2.51 6.52H299c-.32-1.84-1.15-3.28-2.5-4.33-1.35-1.04-2.99-1.56-4.94-1.56-2.65 0-4.79.98-6.41 2.94-1.63 1.96-2.44 4.75-2.44 8.36s.82 6.48 2.45 8.39c1.64 1.91 3.76 2.86 6.38 2.86 1.93 0 3.58-.52 4.94-1.56q2.04-1.56 2.55-4.35h7.05c-.26 2.12-1 4.09-2.24 5.92-1.23 1.83-2.9 3.32-4.99 4.46s-4.57 1.71-7.43 1.71Zm19.72-.46v-34.01h6.96v13.74h14.82v-13.74h6.99v34.01h-6.99v-14.5h-14.82v14.5zm41.89-34.01v34.01h-6.96v-34.01zm6.17 34.01v-34.01h7.76l10.75 17.21a90 90 0 0 1 2.08 3.66c.72 1.33 1.45 2.89 2.19 4.67-.12-1.67-.22-3.35-.31-5.03-.08-1.68-.13-3.08-.13-4.19v-16.32h7.12v34.01h-7.78l-9.77-15.61q-.93-1.53-1.74-2.97c-.53-.96-1.08-1.98-1.63-3.07-.56-1.09-1.18-2.34-1.88-3.76.12 2.05.23 3.95.32 5.67.09 1.73.14 3.09.14 4.1v15.64zm35.63 0v-34.01h22.76v5.78h-15.8v8.22h14.61v5.68h-14.61v8.56h15.84v5.78h-22.81Zm40.87.51q-6.135 0-9.81-2.82c-2.44-1.88-3.71-4.62-3.8-8.23h6.78q.18 2.58 2.07 3.87c1.26.86 2.82 1.29 4.69 1.29s3.35-.4 4.49-1.2c1.13-.8 1.7-1.85 1.7-3.14 0-1.17-.51-2.07-1.54-2.69s-2.47-1.16-4.33-1.62l-3.74-.94c-2.88-.7-5.13-1.8-6.76-3.3s-2.44-3.48-2.44-5.95c0-2.05.55-3.85 1.66-5.39 1.1-1.54 2.62-2.73 4.54-3.58 1.93-.85 4.12-1.28 6.59-1.28s4.7.43 6.57 1.29 3.33 2.05 4.38 3.58q1.575 2.295 1.62 5.28h-6.73c-.12-1.37-.7-2.43-1.75-3.17-1.04-.75-2.43-1.12-4.17-1.12s-3.15.37-4.12 1.11-1.45 1.68-1.45 2.82c0 1.26.54 2.21 1.63 2.83s2.35 1.11 3.8 1.46l3.08.75c1.9.44 3.62 1.08 5.16 1.91s2.75 1.9 3.65 3.22q1.35 1.98 1.35 4.83c0 3.09-1.15 5.56-3.46 7.41s-5.53 2.77-9.67 2.77Z" class="cls-1"/></g></svg>