<svg xmlns="http://www.w3.org/2000/svg" id="Layer_2" data-name="Layer 2" viewBox="0 0 512 205"><defs><style>.cls-1{fill:#fff}</style></defs><path d="M142.54 48.96v26.7l-25.99 26.74 25.99 26.39v27.26l23.61-23.61a5.57 5.57 0 0 0 0-7.87l-22.45-22.45 22.9-22.9a5.57 5.57 0 0 0-.14-8.01zM115.9 69.27v7.02H90.81v26.07l-.42-.42-22.12-22.12a5.57 5.57 0 0 1 0-7.87l21.22-21.23a5.57 5.57 0 0 1 7.87 0l18.55 18.55Z" class="cls-1"/><path d="M115.48 128.6v8.04l-17.62 17.63a5.57 5.57 0 0 1-7.87 0l-22.16-22.16a5.57 5.57 0 0 1 0-7.87l23.01-22.56v26.91h24.64Zm87.43-9.6c-2.02 0-4-.27-5.93-.82-1.94-.55-3.7-1.4-5.3-2.57s-2.91-2.68-3.94-4.54-1.67-4.08-1.91-6.66h6.78c.32 2.1 1.01 3.75 2.06 4.97 1.05 1.21 2.31 2.08 3.78 2.6 1.47.53 3 .79 4.57.79s3.07-.25 4.36-.76c1.29-.5 2.32-1.24 3.09-2.21s1.15-2.14 1.15-3.51-.37-2.51-1.12-3.54-2.27-1.75-4.57-2.15l-7.51-1.39c-3.35-.65-6.01-2.02-7.96-4.12-1.96-2.1-2.94-4.58-2.94-7.45 0-2.62.68-4.86 2.03-6.72s3.15-3.28 5.39-4.27 4.71-1.48 7.42-1.48 5.35.48 7.57 1.45 4.04 2.43 5.45 4.39 2.26 4.47 2.54 7.54h-6.9c-.28-1.82-.84-3.25-1.67-4.3s-1.84-1.8-3.03-2.24-2.47-.67-3.85-.67c-1.25 0-2.51.2-3.78.61-1.27.4-2.31 1.05-3.12 1.94s-1.21 2.08-1.21 3.57c0 1.33.48 2.48 1.45 3.45s2.46 1.63 4.48 2l6.96 1.33c3.55.65 6.32 1.92 8.3 3.81 1.98 1.9 2.97 4.58 2.97 8.05 0 2.1-.44 3.96-1.33 5.57a11.9 11.9 0 0 1-3.6 4.03 17.4 17.4 0 0 1-5.03 2.45c-1.84.56-3.72.85-5.66.85Zm17.68 12.6v-5.81h6.36c.61 0 1.1-.08 1.48-.24s.77-.48 1.15-.97c.38-.48.8-1.27 1.24-2.36l2.79-6.12-.42 3.33-13.14-31.19h7.93l8.66 21.5 9.08-21.5h7.75l-16.11 36.33c-.69 1.53-1.27 2.76-1.76 3.69-.48.93-.97 1.63-1.45 2.12-.48.48-1.06.81-1.73.97s-1.48.24-2.45.24h-9.39Zm35.43-13.33V88.24h7.27v4.66c1.01-1.65 2.37-2.97 4.09-3.94s3.68-1.45 5.9-1.45c3.71 0 6.6 1.16 8.66 3.48q3.09 3.48 3.09 10.2v17.08h-7.27v-16.35c0-2.7-.56-4.75-1.67-6.15-1.11-1.39-2.8-2.09-5.06-2.09s-4.07.79-5.54 2.36-2.21 3.81-2.21 6.72v15.5h-7.27Zm48.74.73c-3.03 0-5.71-.67-8.05-2s-4.18-3.18-5.51-5.54-2-5.1-2-8.21.67-5.84 2-8.21c1.33-2.36 3.17-4.21 5.51-5.54s5.03-2 8.05-2q5.625 0 9.51 2.97c2.58 1.98 4.24 4.68 4.97 8.11h-7.57c-.4-1.53-1.23-2.72-2.48-3.57s-2.75-1.27-4.48-1.27c-1.45 0-2.8.37-4.03 1.12q-1.845 1.125-2.94 3.21c-1.095 2.085-1.09 3.12-1.09 5.18s.36 3.74 1.09 5.18c.73 1.43 1.7 2.52 2.94 3.27 1.23.75 2.57 1.12 4.03 1.12 1.74 0 3.23-.42 4.48-1.27s2.08-2.06 2.48-3.63h7.57c-.69 3.31-2.33 5.99-4.94 8.02q-3.9 3.06-9.54 3.06m19.56-.73V75.88h27.07v5.87h-19.8V94.1h16.23v5.81h-16.23v18.35h-7.27Zm31.07 0v-43.6h7.27v43.6zm27.49.73c-2.99 0-5.68-.66-8.08-1.97s-4.31-3.16-5.72-5.54-2.12-5.13-2.12-8.24.71-5.9 2.12-8.27c1.41-2.36 3.33-4.2 5.75-5.51s5.11-1.97 8.05-1.97 5.73.66 8.11 1.97 4.28 3.15 5.69 5.51 2.12 5.12 2.12 8.27-.71 5.85-2.12 8.24c-1.41 2.38-3.32 4.23-5.72 5.54s-5.1 1.97-8.08 1.97m0-6.3c1.53 0 2.94-.35 4.21-1.06q1.905-1.065 3.06-3.15c1.155-2.085 1.15-3.14 1.15-5.24s-.38-3.85-1.15-5.24q-1.155-2.085-3.06-3.15c-1.905-1.065-2.67-1.06-4.21-1.06s-2.89.35-4.18 1.06q-1.935 1.065-3.09 3.15c-1.155 2.085-1.15 3.14-1.15 5.24s.38 3.85 1.15 5.24q1.155 2.085 3.06 3.15c1.905 1.065 2.67 1.06 4.21 1.06m25.73 5.57-8.84-30.03h7.21l6.3 25.43h-1.76l7.21-25.43h8.05l7.27 25.43h-1.82l6.3-25.43h7.27l-8.84 30.03h-7.51l-7.69-26.34h2l-7.63 26.34h-7.51Z" class="cls-1"/></svg>