<svg xmlns="http://www.w3.org/2000/svg" id="Layer_2" data-name="Layer 2" viewBox="0 0 512 205"><defs><style>.cls-1{fill:#fff}</style></defs><path d="M137.34 50.5v16.16c0 1.11-.55 2.15-1.47 2.77l-9.82 6.66-9.82-6.66a3.34 3.34 0 0 1-1.47-2.77V50.5c0-2.44 1.98-4.42 4.42-4.42h13.73c2.44 0 4.42 1.98 4.42 4.42Z" class="cls-1"/><path d="M183.27 47.69V69L153.4 89.54s-27.34 15.68-27.34 28c0-12.32-27.34-28-27.34-28L68.85 69V47.69c0-6.28 5.09-11.37 11.37-11.37h23.73c-7.84 8.21-10.83 17.36-7.66 26.14 3.18 8.77 29.77 25.95 29.77 25.95s26.6-17.18 29.77-25.95c3.18-8.78.19-17.93-7.65-26.14h23.73c6.28 0 11.37 5.09 11.37 11.37Zm0 36.06-25.39 17.36v11.02s1.49 11.39-9.9 19.04v-23.71l-6.67 4.62c-4.6 3.19-7.34 8.42-7.34 14.01v42.04l24.64-20.72s24.46-18.48 24.64-41.63c.19-23.15 0-22.03 0-22.03Zm-114.43 0 25.39 17.36v11.02s-1.49 11.39 9.9 19.04v-23.71l6.67 4.62c4.6 3.19 7.34 8.42 7.34 14.01v42.04L93.5 147.41s-24.46-18.48-24.64-41.63c-.19-23.15 0-22.03 0-22.03Zm160.76 7.53c-2.47 0-4.89-.33-7.26-1q-3.555-1.005-6.48-3.15c-1.95-1.43-3.56-3.28-4.82-5.56-1.26-2.27-2.04-4.99-2.33-8.15h8.3c.39 2.57 1.23 4.59 2.52 6.08 1.28 1.48 2.83 2.54 4.63 3.19 1.8.64 3.67.96 5.6.96s3.75-.31 5.34-.93q2.37-.93 3.78-2.7c.94-1.19 1.41-2.62 1.41-4.3s-.46-3.08-1.37-4.34-2.78-2.14-5.59-2.63l-9.19-1.7c-4.1-.79-7.35-2.47-9.74-5.04-2.4-2.57-3.59-5.61-3.59-9.11 0-3.21.83-5.95 2.48-8.23q2.475-3.405 6.6-5.22c2.74-1.21 5.77-1.82 9.08-1.82s6.55.59 9.26 1.78c2.72 1.19 4.94 2.98 6.67 5.37 1.73 2.4 2.77 5.47 3.11 9.23h-8.45c-.35-2.22-1.03-3.98-2.04-5.26s-2.25-2.2-3.7-2.74c-1.46-.54-3.03-.82-4.71-.82-1.53 0-3.08.25-4.63.74-1.56.49-2.83 1.29-3.82 2.37-.99 1.09-1.48 2.54-1.48 4.37 0 1.63.59 3.04 1.78 4.22 1.19 1.19 3.01 2 5.48 2.45l8.52 1.63c4.35.79 7.73 2.35 10.15 4.67s3.63 5.61 3.63 9.86c0 2.57-.54 4.84-1.63 6.82a14.6 14.6 0 0 1-4.41 4.93 21.4 21.4 0 0 1-6.15 3 23.5 23.5 0 0 1-6.93 1.04Zm41.72 0c-3.7 0-6.98-.8-9.82-2.41-2.84-1.6-5.06-3.84-6.67-6.71-1.61-2.86-2.41-6.17-2.41-9.93s.79-7.18 2.37-10.11c1.58-2.94 3.8-5.24 6.67-6.89 2.86-1.65 6.17-2.48 9.93-2.48s6.78.79 9.52 2.37 4.87 3.72 6.37 6.41c1.51 2.69 2.26 5.72 2.26 9.08v1.63c0 .59-.05 1.24-.15 1.93h-30.53v-5.78h21.71c-.15-2.57-1.09-4.61-2.82-6.11-1.73-1.51-3.85-2.26-6.37-2.26-1.83 0-3.52.41-5.08 1.22s-2.8 2.03-3.74 3.63c-.94 1.61-1.41 3.64-1.41 6.11v2.15c0 2.27.46 4.22 1.37 5.85s2.14 2.87 3.67 3.71 3.23 1.26 5.11 1.26c2.03 0 3.73-.46 5.11-1.37s2.4-2.14 3.04-3.67h9.04c-.64 2.37-1.77 4.48-3.37 6.34-1.61 1.85-3.57 3.32-5.89 4.41s-4.97 1.63-7.93 1.63Zm41.35 0c-3.7 0-6.99-.82-9.86-2.45s-5.11-3.89-6.74-6.78-2.45-6.24-2.45-10.04.81-7.15 2.45-10.04c1.63-2.89 3.88-5.15 6.74-6.78s6.15-2.45 9.86-2.45c4.59 0 8.47 1.21 11.63 3.63s5.19 5.73 6.08 9.93h-9.26c-.49-1.88-1.51-3.33-3.04-4.37s-3.36-1.56-5.48-1.56c-1.78 0-3.42.46-4.93 1.37s-2.7 2.22-3.59 3.93c-.89 1.7-1.33 3.82-1.33 6.34s.44 4.58 1.33 6.34c.89 1.75 2.09 3.09 3.59 4 1.51.91 3.15 1.37 4.93 1.37 2.12 0 3.95-.52 5.48-1.56s2.54-2.52 3.04-4.45h9.26c-.84 4.05-2.85 7.32-6.04 9.82s-7.08 3.74-11.67 3.74Zm36.09 0c-4.15 0-7.45-1.42-9.89-4.26-2.45-2.84-3.67-7-3.67-12.49v-20.9h8.82v20.01c0 3.31.64 5.82 1.93 7.52 1.28 1.7 3.14 2.56 5.56 2.56 2.72 0 4.85-.96 6.41-2.89s2.33-4.67 2.33-8.23V53.63h8.89v36.75h-8.89v-5.56c-1.09 2.03-2.59 3.61-4.52 4.74-1.93 1.14-4.25 1.7-6.97 1.7Zm26.9-.89V53.64h8.89v5.63c.94-1.83 2.15-3.27 3.63-4.33s3.19-1.59 5.11-1.59h4.96v7.93h-5.85c-1.73 0-3.17.46-4.34 1.37-1.16.91-2.04 2.32-2.63 4.22s-.89 4.29-.89 7.15V90.4h-8.89Zm41.94.89c-3.7 0-6.98-.8-9.82-2.41-2.84-1.6-5.06-3.84-6.67-6.71-1.61-2.86-2.41-6.17-2.41-9.93s.79-7.18 2.37-10.11c1.58-2.94 3.8-5.24 6.67-6.89 2.86-1.65 6.17-2.48 9.93-2.48s6.78.79 9.52 2.37 4.87 3.72 6.37 6.41c1.51 2.69 2.26 5.72 2.26 9.08v1.63c0 .59-.05 1.24-.15 1.93h-30.53v-5.78h21.71c-.15-2.57-1.09-4.61-2.82-6.11-1.73-1.51-3.85-2.26-6.37-2.26-1.83 0-3.52.41-5.08 1.22s-2.8 2.03-3.74 3.63c-.94 1.61-1.41 3.64-1.41 6.11v2.15c0 2.27.46 4.22 1.37 5.85s2.14 2.87 3.67 3.71 3.23 1.26 5.11 1.26c2.03 0 3.73-.46 5.11-1.37s2.4-2.14 3.04-3.67h9.04c-.64 2.37-1.77 4.48-3.37 6.34-1.61 1.85-3.57 3.32-5.89 4.41s-4.97 1.63-7.93 1.63Zm-188 61.98c-2.47 0-4.89-.33-7.26-1q-3.555-1.005-6.48-3.15c-1.95-1.43-3.56-3.28-4.82-5.56-1.26-2.27-2.04-4.99-2.33-8.15h8.3c.39 2.57 1.23 4.59 2.52 6.08 1.28 1.48 2.83 2.54 4.63 3.19 1.8.64 3.67.96 5.6.96s3.75-.31 5.34-.93q2.37-.93 3.78-2.7c.94-1.19 1.41-2.62 1.41-4.3s-.46-3.08-1.37-4.34-2.78-2.14-5.59-2.63l-9.19-1.7c-4.1-.79-7.35-2.47-9.74-5.04-2.4-2.57-3.59-5.61-3.59-9.11 0-3.21.83-5.95 2.48-8.23q2.475-3.405 6.6-5.22c2.74-1.21 5.77-1.82 9.08-1.82s6.55.59 9.26 1.78c2.72 1.19 4.94 2.98 6.67 5.37 1.73 2.4 2.77 5.47 3.11 9.23h-8.45c-.35-2.22-1.03-3.98-2.04-5.26s-2.25-2.2-3.7-2.74c-1.46-.54-3.03-.82-4.71-.82-1.53 0-3.08.25-4.63.74-1.56.49-2.83 1.29-3.82 2.37-.99 1.09-1.48 2.54-1.48 4.37 0 1.63.59 3.04 1.78 4.22 1.19 1.19 3.01 2 5.48 2.45l8.52 1.63c4.35.79 7.73 2.35 10.15 4.67s3.63 5.61 3.63 9.86c0 2.57-.54 4.84-1.63 6.82a14.6 14.6 0 0 1-4.41 4.93 21.4 21.4 0 0 1-6.15 3 23.5 23.5 0 0 1-6.93 1.04Zm25.42 15.41v-53.06h8.89v5.41c1.19-1.68 2.79-3.15 4.82-4.41q3.03-1.89 7.71-1.89c3.51 0 6.62.84 9.34 2.52s4.85 3.98 6.41 6.89c1.56 2.92 2.33 6.22 2.33 9.93s-.78 6.94-2.33 9.86c-1.56 2.92-3.69 5.2-6.41 6.85s-5.83 2.48-9.34 2.48c-2.82 0-5.29-.54-7.41-1.63s-3.83-2.59-5.11-4.52v21.56h-8.89Zm19.64-23.19c2.12 0 4-.49 5.63-1.48s2.9-2.33 3.82-4.04c.91-1.7 1.37-3.67 1.37-5.89s-.46-4.29-1.37-6.04-2.19-3.11-3.82-4.08c-1.63-.96-3.51-1.45-5.63-1.45s-4 .48-5.63 1.45c-1.63.96-2.92 2.31-3.85 4.04q-1.41 2.595-1.41 6c0 3.405.47 4.26 1.41 5.97.94 1.7 2.22 3.05 3.85 4.04s3.51 1.48 5.63 1.48m24.9 6.89V99.02h8.89v22.3c1.23-2.03 2.93-3.63 5.08-4.82s4.58-1.78 7.3-1.78c4.45 0 7.93 1.42 10.45 4.26s3.78 7 3.78 12.49v20.9h-8.82v-20.01c0-3.31-.66-5.82-1.96-7.52-1.31-1.7-3.37-2.56-6.19-2.56s-5.06.96-6.89 2.89-2.74 4.67-2.74 8.23v18.97h-8.89Zm59.65.89c-3.7 0-6.98-.8-9.82-2.41-2.84-1.6-5.06-3.84-6.67-6.71-1.61-2.86-2.41-6.17-2.41-9.93s.79-7.18 2.37-10.11c1.58-2.94 3.8-5.24 6.67-6.89 2.86-1.65 6.17-2.48 9.93-2.48s6.78.79 9.52 2.37 4.87 3.72 6.37 6.41c1.51 2.69 2.26 5.72 2.26 9.08v1.63c0 .59-.05 1.24-.15 1.93h-30.53v-5.78h21.71c-.15-2.57-1.09-4.61-2.82-6.11-1.73-1.51-3.85-2.26-6.37-2.26-1.83 0-3.52.41-5.08 1.22s-2.8 2.03-3.74 3.63c-.94 1.61-1.41 3.64-1.41 6.11v2.15c0 2.27.46 4.22 1.37 5.85s2.14 2.87 3.67 3.71 3.23 1.26 5.11 1.26c2.03 0 3.73-.46 5.11-1.37s2.4-2.14 3.04-3.67h9.04c-.64 2.37-1.77 4.48-3.37 6.34-1.61 1.85-3.57 3.32-5.89 4.41s-4.97 1.63-7.93 1.63Zm23.86-.89v-36.75h8.89v5.63c.94-1.83 2.15-3.27 3.63-4.33s3.19-1.59 5.11-1.59h4.96v7.93h-5.85c-1.73 0-3.17.46-4.34 1.37-1.16.91-2.04 2.32-2.63 4.22s-.89 4.29-.89 7.15v16.38h-8.89Zm41.94.89c-3.7 0-6.98-.8-9.82-2.41-2.84-1.6-5.06-3.84-6.67-6.71-1.61-2.86-2.41-6.17-2.41-9.93s.79-7.18 2.37-10.11c1.58-2.94 3.8-5.24 6.67-6.89 2.86-1.65 6.17-2.48 9.93-2.48s6.78.79 9.52 2.37 4.87 3.72 6.37 6.41c1.51 2.69 2.26 5.72 2.26 9.08v1.63c0 .59-.05 1.24-.15 1.93h-30.53v-5.78h21.71c-.15-2.57-1.09-4.61-2.82-6.11-1.73-1.51-3.85-2.26-6.37-2.26-1.83 0-3.52.41-5.08 1.22s-2.8 2.03-3.74 3.63c-.94 1.61-1.41 3.64-1.41 6.11v2.15c0 2.27.46 4.22 1.37 5.85s2.14 2.87 3.67 3.71 3.23 1.26 5.11 1.26c2.03 0 3.73-.46 5.11-1.37s2.4-2.14 3.04-3.67h9.04c-.64 2.37-1.77 4.48-3.37 6.34-1.61 1.85-3.57 3.32-5.89 4.41s-4.97 1.63-7.93 1.63Z" class="cls-1"/></svg>