<svg xmlns="http://www.w3.org/2000/svg" id="Layer_2" data-name="Layer 2" viewBox="0 0 512 205"><defs><clipPath id="clippath"><path d="M0 0h512v205H0z" style="fill:none"/></clipPath><style>.cls-1{fill:#fff}</style></defs><g style="clip-path:url(#clippath)"><path d="m156.89 93.92-35.06 35.06L86.9 94.04a8.4 8.4 0 0 1 11.9-.02l23.04 23.04L145 93.9a8.4 8.4 0 0 1 11.88 0l.02.02Z" class="cls-1"/><path d="m121.83 58.87-25.34 25.5 25.33 25.34 25.34-25.34-25.34-25.5Zm-12.72 25.42 12.72-11.75 12.73 11.75-12.73 12.72z" class="cls-1"/><path d="m169.61 119.34-18.36 18.36 10.03.06a8.37 8.37 0 0 1 8.32 8.37s-95.55 0-95.55 0c0-4.61 3.72-8.35 8.32-8.37l10.03-.06-18.36-18.36c0-4.4 5.32-6.6 8.43-3.49l21.85 21.85h6.89l-33.96-33.96c3.27-3.3 8.6-3.31 11.89-.03l32.67 32.67 32.84-32.84c3.28-3.28 8.59-3.28 11.86 0l.03.03-34.12 34.12h6.89l21.85-21.85c3.11-3.11 8.43-.91 8.43 3.49Zm42.69 11.85c-5.24 0-9.94-1.16-14.12-3.48s-7.5-5.7-9.94-10.16c-2.45-4.45-3.67-9.86-3.67-16.21s1.22-11.84 3.67-16.29 5.76-7.84 9.94-10.16 8.89-3.48 14.12-3.48 9.9 1.16 14.09 3.48c4.18 2.32 7.49 5.7 9.92 10.16 2.44 4.45 3.65 9.89 3.65 16.29s-1.22 11.8-3.65 16.25c-2.44 4.45-5.74 7.83-9.92 10.14s-8.88 3.46-14.09 3.46m0-12.11c2.81 0 5.24-.68 7.27-2.03s3.59-3.35 4.69-6c1.09-2.64 1.64-5.88 1.64-9.71s-.55-7.11-1.64-9.77-2.66-4.66-4.69-6.02c-2.03-1.35-4.45-2.03-7.27-2.03s-5.27.68-7.31 2.05c-2.03 1.37-3.59 3.37-4.69 6.02-1.09 2.64-1.64 5.89-1.64 9.75s.55 7.06 1.64 9.69 2.66 4.63 4.69 6 4.47 2.05 7.31 2.05m35.44 11.33V72.19h23.83c4.38 0 8.15.79 11.33 2.36 3.18 1.58 5.62 3.81 7.33 6.7s2.56 6.32 2.56 10.28-.87 7.39-2.62 10.22-4.23 4.97-7.46 6.43-7.07 2.19-11.53 2.19h-15.2v-10.9h12.7c2.16 0 3.97-.29 5.41-.86 1.45-.57 2.54-1.45 3.28-2.62s1.11-2.66 1.11-4.45-.37-3.33-1.11-4.53-1.84-2.1-3.3-2.72c-1.46-.61-3.27-.92-5.43-.92h-7.11v47.04zm31.96 0-14.18-26.61h14.77l14.53 26.61zm36.65 0-20-58.22h15.51l8.09 25.44c1.28 4.22 2.51 8.65 3.69 13.28 1.18 4.64 2.38 9.52 3.58 14.65h-3.01c1.17-5.16 2.32-10.05 3.44-14.67s2.29-9.05 3.52-13.26l7.78-25.44h15.32l-19.46 58.22h-18.44Zm58.06-58.22v58.22h-13.79V72.19zm6.44 58.22 24.5-34.85v10.47l-22.43-33.84h15.98l5.55 8.71c1.17 1.85 2.14 3.56 2.89 5.14.76 1.58 1.45 3.08 2.07 4.51a57 57 0 0 0 2.07 4.22h-3.91c.78-1.38 1.49-2.79 2.13-4.22s1.34-2.94 2.11-4.51c.77-1.58 1.74-3.29 2.91-5.14l5.67-8.71h15.55l-21.88 33.05v-9.89l23.87 35.05h-16.37l-7.27-11.14a82 82 0 0 1-2.54-4.2c-.62-1.13-1.18-2.19-1.66-3.16q-.72-1.47-1.74-3.18h1.99c-.63 1.12-1.19 2.18-1.68 3.16-.5.99-1.06 2.06-1.7 3.2-.64 1.15-1.5 2.54-2.6 4.18l-7.54 11.14h-15.98Z" class="cls-1"/><path d="m156.89 93.92-35.06 35.06L86.9 94.04a8.4 8.4 0 0 1 11.9-.02l23.04 23.04L145 93.9a8.4 8.4 0 0 1 11.88 0l.02.02Z" class="cls-1"/><path d="m121.83 58.87-25.34 25.5 25.33 25.34 25.34-25.34-25.34-25.5Zm-12.72 25.42 12.72-11.75 12.73 11.75-12.73 12.72z" class="cls-1"/><path d="m169.61 119.34-18.36 18.36 10.03.06a8.37 8.37 0 0 1 8.32 8.37s-95.55 0-95.55 0c0-4.61 3.72-8.35 8.32-8.37l10.03-.06-18.36-18.36c0-4.4 5.32-6.6 8.43-3.49l21.85 21.85h6.89l-33.96-33.96c3.27-3.3 8.6-3.31 11.89-.03l32.67 32.67 32.84-32.84c3.28-3.28 8.59-3.28 11.86 0l.03.03-34.12 34.12h6.89l21.85-21.85c3.11-3.11 8.43-.91 8.43 3.49Zm42.69 11.85c-5.24 0-9.94-1.16-14.12-3.48s-7.5-5.7-9.94-10.16c-2.45-4.45-3.67-9.86-3.67-16.21s1.22-11.84 3.67-16.29 5.76-7.84 9.94-10.16 8.89-3.48 14.12-3.48 9.9 1.16 14.09 3.48c4.18 2.32 7.49 5.7 9.92 10.16 2.44 4.45 3.65 9.89 3.65 16.29s-1.22 11.8-3.65 16.25c-2.44 4.45-5.74 7.83-9.92 10.14s-8.88 3.46-14.09 3.46m0-12.11c2.81 0 5.24-.68 7.27-2.03s3.59-3.35 4.69-6c1.09-2.64 1.64-5.88 1.64-9.71s-.55-7.11-1.64-9.77-2.66-4.66-4.69-6.02c-2.03-1.35-4.45-2.03-7.27-2.03s-5.27.68-7.31 2.05c-2.03 1.37-3.59 3.37-4.69 6.02-1.09 2.64-1.64 5.89-1.64 9.75s.55 7.06 1.64 9.69 2.66 4.63 4.69 6 4.47 2.05 7.31 2.05m35.44 11.33V72.19h23.83c4.38 0 8.15.79 11.33 2.36 3.18 1.58 5.62 3.81 7.33 6.7s2.56 6.32 2.56 10.28-.87 7.39-2.62 10.22-4.23 4.97-7.46 6.43-7.07 2.19-11.53 2.19h-15.2v-10.9h12.7c2.16 0 3.97-.29 5.41-.86 1.45-.57 2.54-1.45 3.28-2.62s1.11-2.66 1.11-4.45-.37-3.33-1.11-4.53-1.84-2.1-3.3-2.72c-1.46-.61-3.27-.92-5.43-.92h-7.11v47.04zm31.96 0-14.18-26.61h14.77l14.53 26.61zm36.65 0-20-58.22h15.51l8.09 25.44c1.28 4.22 2.51 8.65 3.69 13.28 1.18 4.64 2.38 9.52 3.58 14.65h-3.01c1.17-5.16 2.32-10.05 3.44-14.67s2.29-9.05 3.52-13.26l7.78-25.44h15.32l-19.46 58.22h-18.44Zm58.06-58.22v58.22h-13.79V72.19zm6.44 58.22 24.5-34.85v10.47l-22.43-33.84h15.98l5.55 8.71c1.17 1.85 2.14 3.56 2.89 5.14.76 1.58 1.45 3.08 2.07 4.51a57 57 0 0 0 2.07 4.22h-3.91c.78-1.38 1.49-2.79 2.13-4.22s1.34-2.94 2.11-4.51c.77-1.58 1.74-3.29 2.91-5.14l5.67-8.71h15.55l-21.88 33.05v-9.89l23.87 35.05h-16.37l-7.27-11.14a82 82 0 0 1-2.54-4.2c-.62-1.13-1.18-2.19-1.66-3.16q-.72-1.47-1.74-3.18h1.99c-.63 1.12-1.19 2.18-1.68 3.16-.5.99-1.06 2.06-1.7 3.2-.64 1.15-1.5 2.54-2.6 4.18l-7.54 11.14h-15.98Z" class="cls-1"/></g></svg>