<svg xmlns="http://www.w3.org/2000/svg" id="Layer_2" data-name="Layer 2" viewBox="0 0 512 205"><defs><clipPath id="clippath"><path d="M0 0h512v205H0z" style="fill:none"/></clipPath><style>.cls-1{fill:#fff}</style></defs><g id="Layer_1-2" data-name="Layer 1" style="clip-path:url(#clippath)"><path d="M158.22 60.75c-6.51 4.69-11.88 11.12-15.46 18.77l-2.58 5.5h-17.7l3.86-8.24H88.61c-14.29 0-26.1 11.37-26.34 25.34-.11 6.97 2.52 13.56 7.41 18.53 4.88 4.97 11.41 7.7 18.37 7.7.33 0 .66 0 .98-.02h.1c8.24-.34 15.63-5.4 19.3-13.22l2.12-4.53H88.42V94.55h47.32l-3.43 7.34-9.36 20.02c-6.2 13.25-18.89 21.84-33.12 22.44-.59.03-1.18.04-1.77.04-11.3 0-21.88-4.43-29.8-12.49-7.93-8.06-12.19-18.73-12-30.05.38-22.66 19.38-41.1 42.37-41.1h69.61Zm57.05 12.49c-7.92-8.06-18.51-12.49-29.8-12.49-.59 0-1.18 0-1.77.04-14.23.59-26.92 9.19-33.12 22.44l-7.47 15.97-1.89 4.05-3.43 7.34s-7.69 16.44-7.71 16.48a48.2 48.2 0 0 1-14.8 17.32h69.63c22.98 0 41.99-18.44 42.37-41.1.19-11.32-4.07-21.98-12-30.05Zm-30.37 55.11h-37.73l8.3-17.76 5.33-11.39 2.17-4.64 2.12-4.53c3.66-7.82 11.05-12.88 19.3-13.22h.1c.32-.02.65-.02.98-.02 6.97 0 13.49 2.73 18.37 7.7 4.89 4.97 7.52 11.55 7.41 18.53-.24 13.97-12.05 25.34-26.34 25.34Zm118.14-67.6c-3.07 2.21-5.6 5.24-7.29 8.85l-1.03 2.2h-8.35l1.63-3.49h-17.79c-6.74 0-12.31 5.36-12.42 11.95a12.1 12.1 0 0 0 3.49 8.73 12.06 12.06 0 0 0 8.66 3.63c.15 0 .31 0 .46-.01h.05c3.89-.16 7.37-2.54 9.1-6.23l1-2.14h-10.43v-7.56h22.31l-1.62 3.46-4.41 9.44c-2.92 6.25-8.9 10.3-15.61 10.58-.28.02-.56.02-.84.02-5.33 0-10.32-2.09-14.05-5.89-3.74-3.8-5.75-8.83-5.66-14.17.18-10.69 9.14-19.38 19.98-19.38h32.82Zm98.37-.09c-.28 0-.56 0-.84.02h1.7c-.29-.01-.58-.02-.87-.02Z" class="cls-1"/><path d="M401.41 60.66c-.28 0-.56 0-.84.02h1.7c-.29-.01-.58-.02-.87-.02Z" class="cls-1"/><path d="M416.93 68.21c-.45-.58-.94-1.14-1.47-1.67a19.58 19.58 0 0 0-13.18-5.87h-1.7c-5.55.23-10.6 3.04-13.83 7.54-.68.94-1.27 1.96-1.78 3.04l-3.52 7.53-.89 1.91-1.62 3.46s-3.62 7.75-3.64 7.77c-1.68 3.31-4.1 6.09-6.98 8.16h32.83c10.84 0 19.8-8.69 19.98-19.38.08-4.59-1.4-8.95-4.19-12.5Zm-15.78 24.32h-17.79l3.92-8.38 2.51-5.37 1.02-2.19 1-2.14c1.73-3.69 5.21-6.07 9.1-6.23h.05c.15 0 .31-.01.46-.01 3.28 0 6.36 1.29 8.66 3.63 2.31 2.34 3.55 5.45 3.49 8.73-.11 6.59-5.68 11.95-12.42 11.95Zm-82.19 7.63c-10.86 0-19.7-8.84-19.7-19.7s8.84-19.7 19.7-19.7 19.7 8.84 19.7 19.7-8.84 19.7-19.7 19.7m0-31.84c-6.69 0-12.14 5.45-12.14 12.14s5.45 12.14 12.14 12.14 12.14-5.45 12.14-12.14-5.45-12.14-12.14-12.14m51.56 24.23a19 19 0 0 1-4.41 4.48l-2.05 1.48-2.08 1.5c-9.89-1.04-17.62-9.43-17.62-19.59V60.7h7.56v19.72c0 6.69 5.45 12.14 12.14 12.14h6.46Zm-93.84 12.34c-.28 0-.56 0-.84.02h1.7c-.29-.01-.58-.02-.87-.02Z" class="cls-1"/><path d="M276.68 104.89c-.28 0-.56 0-.84.02h1.7c-.29-.01-.58-.02-.87-.02Zm15.53 7.56c-.45-.58-.94-1.14-1.47-1.67a19.58 19.58 0 0 0-13.18-5.87h-1.7c-5.55.23-10.6 3.04-13.83 7.54-.68.94-1.27 1.96-1.78 3.04l-3.52 7.53-.89 1.91-1.62 3.46s-3.62 7.75-3.64 7.77c-1.68 3.31-4.1 6.09-6.98 8.16h32.83c10.84 0 19.8-8.69 19.98-19.38.08-4.59-1.4-8.95-4.19-12.5Zm-15.79 24.31h-17.79l3.92-8.38 2.51-5.37 1.02-2.19 1-2.14c1.73-3.69 5.21-6.07 9.1-6.23h.05c.15 0 .31-.01.46-.01 3.28 0 6.36 1.29 8.66 3.63 2.31 2.34 3.55 5.45 3.49 8.73-.11 6.59-5.68 11.95-12.42 11.95Zm69.63 7.63c-10.86 0-19.7-8.84-19.7-19.7s8.84-19.7 19.7-19.7 19.7 8.84 19.7 19.7-8.84 19.7-19.7 19.7m0-31.84c-6.69 0-12.14 5.45-12.14 12.14s5.45 12.14 12.14 12.14 12.14-5.45 12.14-12.14-5.45-12.14-12.14-12.14m87.69 12.04c0 1.29-.13 2.55-.36 3.78-.45 2.34-1.33 4.53-2.54 6.5-1.34 2.19-3.1 4.09-5.17 5.61-3.26 2.4-7.29 3.81-11.63 3.81h-11.12l5.88-7.52h5.25v-.02c5.38 0 9.95-3.52 11.54-8.37h-22.67v-4.08a19.53 19.53 0 0 1 3.79-11.31c.02-.02.03-.05.05-.07.1-.13.19-.26.29-.38.11-.15.23-.3.35-.45.22-.26.44-.52.67-.77.1-.1.18-.21.29-.31.1-.11.2-.21.3-.31.03-.03.05-.06.08-.09.09-.09.18-.18.29-.27.35-.34.71-.66 1.09-.97.11-.1.23-.18.34-.27.12-.09.23-.18.35-.27.03-.02.05-.03.07-.05q.735-.555 1.53-1.02c2.98-1.82 6.48-2.87 10.22-2.87h11.1l-5.89 7.54h-5.21v.02c-2.93 0-5.63 1.05-7.73 2.79-.23.18-.44.37-.66.58-.14.13-.28.27-.41.41-.07.07-.13.14-.2.22-.08.09-.17.18-.25.28l-.3.36c-.11.13-.2.26-.3.4-.08.11-.15.22-.23.33-.01 0-.01.02-.02.03-.08.13-.17.26-.25.4-.16.26-.32.54-.46.82v.01c-.28.56-.53 1.14-.72 1.74h22.3q.36 1.845.36 3.78Zm-101.19-19.72q-1.35.885-2.58 1.95c-.46.4-.91.83-1.35 1.27-1.3 1.32-2.43 2.77-3.37 4.32h-3.83v.02c-3.34 0-6.38 1.36-8.58 3.56-.21.2-.41.42-.6.64-.06.08-.13.15-.19.22-.19.22-.36.46-.53.7-.06.08-.11.16-.17.24-.17.24-.32.49-.46.74-.05.08-.1.17-.14.26-.09.17-.19.35-.27.52q-.075.135-.12.27c-.33.72-.58 1.47-.76 2.25-.2.88-.31 1.8-.31 2.74v19.71h-7.56v-18.35c0-.26 0-.52.01-.77.08-3.19.63-5.87 1.5-8.14.6-1.44 1.36-2.79 2.27-4.04 0 0 0-.01.02-.02.11-.15.22-.29.33-.43.22-.29.45-.57.68-.84l.04-.04c.12-.13.23-.26.35-.39.15-.16.3-.33.46-.48l.34-.34.12-.12c.38-.36.77-.71 1.18-1.04.15-.12.29-.24.45-.35.15-.12.31-.23.46-.34.31-.22.62-.43.94-.64l.48-.3c.15-.09.31-.18.47-.27.21-.12.42-.23.63-.34.31-.15.62-.31.93-.45.17-.08.35-.15.53-.23.14-.06.28-.12.43-.17.22-.08.43-.16.66-.24.14-.05.29-.1.43-.14.25-.08.49-.15.74-.22.17-.05.34-.09.5-.13.14-.04.28-.07.42-.1.09-.02.18-.04.26-.06.15-.03.31-.06.47-.09.36-.07.72-.12 1.08-.17.26-.03.52-.06.78-.08.15-.02.29-.02.44-.03.12 0 .24-.02.36-.02.14 0 .28-.01.42-.02h11.62Zm57.16 0c-7.8-.08-15.26 4.92-18.19 12.14-2.56 5.55-1.18 21.12-1.51 27.27h7.56v-13.16c9 .9 18.21-3.38 21.72-12.04 1.73-3.96 1.59-9.7 1.55-14.21h-11.12Zm3.5 7.79c-.5 6.03-6.03 11.01-12.08 10.9v.02h-3.53c.37-5.46 4.83-10.25 10.25-11.01.61-.1 1.24-.14 1.86-.14v-.02h3.53c0 .08-.02.17-.03.25m67.76-52.05v.06c-.01 2.67-.55 5.21-1.53 7.54-2.51 5.97-7.88 10.45-14.38 11.73-.01.14-.01.29-.01.43v19.72h-7.56V80.37c0-.14 0-.29-.01-.43-6.51-1.27-11.88-5.76-14.39-11.73-.98-2.32-1.52-4.87-1.53-7.54v-.06h7.56c0 .14 0 .29.01.43.23 6.49 5.58 11.71 12.13 11.71s11.9-5.21 12.13-11.71c.01-.14.01-.29.01-.43h7.56Z" class="cls-1"/></g></svg>