<svg xmlns="http://www.w3.org/2000/svg" xmlns:xlink="http://www.w3.org/1999/xlink" data-name="Layer 2" viewBox="0 0 512 205"><defs><linearGradient id="a" x1="3300.71" x2="3283.25" y1="-9125.22" y2="-9142.68" gradientTransform="rotate(-59.17 9854.275 -1692.188)" gradientUnits="userSpaceOnUse"><stop offset="0" stop-color="#fff" stop-opacity="0"/><stop offset="1" stop-color="#fff"/></linearGradient><linearGradient xlink:href="#a" id="c" x1="4068.12" x2="4050.07" y1="-8939.24" y2="-8957.28" gradientTransform="rotate(-71.31 8407.13 -1659.18)"/><linearGradient xlink:href="#a" id="d" x1="5289.6" x2="5270.48" y1="-8519.32" y2="-8538.44" gradientTransform="rotate(-90.07 7014.498 -1627.884)"/><linearGradient xlink:href="#a" id="e" x1="3656.43" x2="3638.97" y1="-10318.47" y2="-10335.93" gradientTransform="rotate(30.83 -16989.273 -11556.118)"/><linearGradient xlink:href="#a" id="f" x1="4666.75" x2="4648.7" y1="-10031.04" y2="-10049.09" gradientTransform="rotate(18.69 -28376.704 -18805.564)"/><linearGradient xlink:href="#a" id="g" x1="6207.52" x2="6188.4" y1="-9360.63" y2="-9379.75" gradientTransform="rotate(-.07 7746422.373 4973865.252)"/><linearGradient xlink:href="#a" id="h" x1="2463.18" x2="2445.71" y1="-10674.19" y2="-10691.66" gradientTransform="rotate(120.83 -1749.31 -5956.04)"/><linearGradient xlink:href="#a" id="i" x1="3574.95" x2="3556.9" y1="-10629.67" y2="-10647.72" gradientTransform="rotate(108.69 -1988.624 -6505.041)"/><linearGradient xlink:href="#a" id="j" x1="5366.21" x2="5347.1" y1="-10278.56" y2="-10297.68" gradientTransform="rotate(89.93 -2446.743 -7710.312)"/><linearGradient xlink:href="#a" id="k" x1="2107.45" x2="2089.99" y1="-9480.94" y2="-9498.4" gradientTransform="rotate(-149.17 2452.767 -4411.95)"/><linearGradient xlink:href="#a" id="l" x1="2976.32" x2="2958.27" y1="-9537.87" y2="-9555.92" gradientTransform="rotate(-161.31 2353.872 -4480.837)"/><linearGradient xlink:href="#a" id="m" x1="4448.28" x2="4429.16" y1="-9437.25" y2="-9456.36" gradientTransform="rotate(179.93 2286.762 -4667.24)"/><linearGradient xlink:href="#a" id="n" x1="361.71" x2="361.71" y1="129.83" y2="93.07"/><linearGradient xlink:href="#a" id="o" x1="385.7" x2="385.7" y1="129.83" y2="93.07"/><linearGradient xlink:href="#a" id="p" x1="410.71" x2="410.71" y1="129.83" y2="93.07"/><clipPath id="b"><path d="M0 0h512v205H0z" style="fill:none"/></clipPath></defs><g style="clip-path:url(#b)"><path d="m94.08 146.87-.71-.42c-2.33-1.39-3.49-4.14-2.81-6.76 1.35-5.16-.05-10.7-3.69-14.6-1.85-1.98-2.13-4.96-.74-7.29l.42-.71a6.13 6.13 0 0 1 8.41-2.12l13.39 7.99a6.13 6.13 0 0 1 2.12 8.41l-7.99 13.39a6.13 6.13 0 0 1-8.41 2.12Z" style="fill:url(#a)"/><path d="m106.48 142.84-.81-.27c-2.65-.9-4.43-3.43-4.31-6.23.24-5.51-2.38-10.8-6.9-13.95-2.3-1.6-3.23-4.55-2.33-7.2l.27-.81a6.33 6.33 0 0 1 8.04-3.97l15.26 5.16a6.33 6.33 0 0 1 3.97 8.04l-5.16 15.26a6.33 6.33 0 0 1-8.04 3.97Z" style="fill:url(#c)"/><path d="M119.67 134.65h-.91c-2.97 0-5.61-1.93-6.44-4.78a17.15 17.15 0 0 0-11.67-11.64c-2.85-.82-4.79-3.46-4.79-6.43v-.91c0-3.71 3-6.72 6.71-6.72l17.07-.02c3.71 0 6.72 3 6.72 6.71l.02 17.07c0 3.71-3 6.72-6.71 6.72" style="fill:url(#d)"/><path d="m83.74 68.48.42-.71c1.39-2.33 4.14-3.49 6.76-2.81 5.16 1.35 10.7-.05 14.6-3.69 1.98-1.85 4.96-2.13 7.29-.74l.71.42a6.13 6.13 0 0 1 2.12 8.41l-7.99 13.39a6.13 6.13 0 0 1-8.41 2.12l-13.39-7.99a6.13 6.13 0 0 1-2.12-8.41Z" style="fill:url(#e)"/><path d="m87.77 80.87.27-.81c.9-2.65 3.43-4.43 6.23-4.31 5.51.24 10.8-2.38 13.95-6.9 1.6-2.3 4.55-3.23 7.2-2.33l.81.27a6.33 6.33 0 0 1 3.97 8.04l-5.16 15.26a6.33 6.33 0 0 1-8.04 3.97L91.74 88.9a6.33 6.33 0 0 1-3.97-8.04Z" style="fill:url(#f)"/><path d="M95.96 94.07v-.91c0-2.97 1.93-5.61 4.78-6.44a17.15 17.15 0 0 0 11.64-11.67c.82-2.85 3.46-4.79 6.43-4.79h.91c3.71 0 6.72 3 6.72 6.71l.02 17.07c0 3.71-3 6.72-6.71 6.72l-17.07.02c-3.71 0-6.72-3-6.72-6.71" style="fill:url(#g)"/><g data-name="&amp;lt;Radial Repeat&amp;gt;"><path d="m162.13 58.13.71.42c2.33 1.39 3.49 4.14 2.81 6.76-1.35 5.16.05 10.7 3.69 14.6 1.85 1.98 2.13 4.96.74 7.29l-.42.71a6.13 6.13 0 0 1-8.41 2.12l-13.39-7.99a6.13 6.13 0 0 1-2.12-8.41l7.99-13.39a6.13 6.13 0 0 1 8.41-2.12Z" style="fill:url(#h)"/><path d="m149.73 62.16.81.27c2.65.9 4.43 3.43 4.31 6.23-.24 5.51 2.38 10.8 6.9 13.95 2.3 1.6 3.23 4.55 2.33 7.2l-.27.81a6.33 6.33 0 0 1-8.04 3.97l-15.26-5.16a6.33 6.33 0 0 1-3.97-8.04l5.16-15.26a6.33 6.33 0 0 1 8.04-3.97Z" style="fill:url(#i)"/><path d="M136.54 70.35h.91c2.97 0 5.61 1.93 6.44 4.78a17.15 17.15 0 0 0 11.67 11.64c2.85.82 4.79 3.46 4.79 6.43v.91c0 3.71-3 6.72-6.71 6.72l-17.07.02c-3.71 0-6.72-3-6.72-6.71l-.02-17.07c0-3.71 3-6.72 6.71-6.72" style="fill:url(#j)"/></g><path d="m172.47 136.52-.42.71c-1.39 2.33-4.14 3.49-6.76 2.81-5.16-1.35-10.7.05-14.6 3.69-1.98 1.85-4.96 2.13-7.29.74l-.71-.42a6.13 6.13 0 0 1-2.12-8.41l7.99-13.39a6.13 6.13 0 0 1 8.41-2.12l13.39 7.99a6.13 6.13 0 0 1 2.12 8.41Z" style="fill:url(#k)"/><path d="m168.44 124.13-.27.81c-.9 2.65-3.43 4.43-6.23 4.31-5.51-.24-10.8 2.38-13.95 6.9-1.6 2.3-4.55 3.23-7.2 2.33l-.81-.27a6.33 6.33 0 0 1-3.97-8.04l5.16-15.26a6.33 6.33 0 0 1 8.04-3.97l15.26 5.16a6.33 6.33 0 0 1 3.97 8.04Z" style="fill:url(#l)"/><path d="M160.25 110.93v.91c0 2.97-1.93 5.61-4.78 6.44a17.15 17.15 0 0 0-11.64 11.67c-.82 2.85-3.46 4.79-6.43 4.79h-.91c-3.71 0-6.72-3-6.72-6.71l-.02-17.07c0-3.71 3-6.72 6.71-6.72l17.07-.02c3.71 0 6.72 3 6.72 6.71" style="fill:url(#m)"/><path d="M194.52 123.08V81.92h27.07v6.99h-18.65v11.49h16.82v6.88h-16.82v15.8zm29.24 0V81.92h8.42v34.17h17.76v6.99h-26.19Zm44.49.55c-3.63 0-6.89-.83-9.79-2.49s-5.19-4.06-6.88-7.21c-1.68-3.15-2.53-6.95-2.53-11.41s.84-8.29 2.53-11.45 3.98-5.57 6.88-7.22c2.9-1.66 6.16-2.49 9.79-2.49s6.91.83 9.81 2.49c2.89 1.66 5.18 4.07 6.86 7.22 1.68 3.16 2.53 6.97 2.53 11.45s-.84 8.26-2.53 11.41-3.97 5.55-6.86 7.21q-4.335 2.49-9.81 2.49m0-7.48c2.14 0 4-.52 5.59-1.56s2.83-2.58 3.72-4.61c.88-2.03 1.33-4.52 1.33-7.44s-.44-5.46-1.33-7.5c-.88-2.03-2.12-3.57-3.72-4.61s-3.46-1.56-5.59-1.56-3.98.52-5.58 1.57-2.84 2.59-3.73 4.63c-.88 2.04-1.33 4.53-1.33 7.47s.44 5.4 1.33 7.43c.88 2.03 2.13 3.56 3.73 4.61s3.46 1.57 5.58 1.57m28.85 6.93-11.05-41.16h9.2l4.78 20.25c.39 1.69.74 3.5 1.06 5.43.32 1.92.64 3.86.95 5.8s.62 3.81.91 5.59h-1.49c.33-1.79.66-3.65.99-5.59s.67-3.88 1.02-5.8.74-3.73 1.16-5.43l5.03-20.25h8.76l5 20.25c.42 1.69.81 3.5 1.16 5.43.35 1.92.69 3.86 1.04 5.8.34 1.94.68 3.81 1.01 5.59h-1.55c.31-1.79.62-3.65.93-5.59.3-1.94.63-3.88.97-5.8s.69-3.73 1.06-5.43l4.78-20.25h9.23l-11.08 41.16h-9.61l-5.47-21.05c-.59-2.34-1.09-4.87-1.51-7.6a334 334 0 0 0-1.39-8.42h2.1c-.57 2.82-1.04 5.57-1.39 8.26-.36 2.69-.86 5.28-1.51 7.76l-5.44 21.05h-9.64Z" style="fill:#fff"/><path d="M344.9 88.91v-6.99h33.62v6.99h-12.57v34.17h-8.45V88.91z" style="fill:url(#n)"/><path d="M389.92 81.92v41.16h-8.42V81.92z" style="fill:url(#o)"/><path d="M411.4 123.63c-3.65 0-6.91-.83-9.79-2.49s-5.16-4.06-6.82-7.21c-1.67-3.15-2.5-6.95-2.5-11.41s.84-8.29 2.51-11.45c1.68-3.16 3.96-5.57 6.85-7.22q4.335-2.49 9.75-2.49c2.34 0 4.52.33 6.53.98 2.02.65 3.81 1.61 5.37 2.86 1.57 1.25 2.85 2.79 3.84 4.6s1.65 3.88 1.96 6.2h-8.54c-.18-1.14-.54-2.15-1.06-3.02a8.4 8.4 0 0 0-1.96-2.24 8.3 8.3 0 0 0-2.69-1.41c-1.01-.32-2.11-.48-3.29-.48-2.14 0-4.01.53-5.62 1.6s-2.86 2.62-3.76 4.65c-.89 2.03-1.34 4.51-1.34 7.42s.45 5.46 1.35 7.49 2.15 3.55 3.76 4.59c1.6 1.03 3.46 1.55 5.58 1.55q1.77 0 3.27-.48c1-.32 1.91-.79 2.71-1.41s1.46-1.37 1.99-2.25c.52-.88.89-1.89 1.09-3.01h8.54c-.22 1.92-.79 3.75-1.7 5.5s-2.12 3.31-3.63 4.7c-1.51 1.38-3.31 2.47-5.39 3.26s-4.42 1.19-7.02 1.19Z" style="fill:url(#p)"/></g></svg>