<svg xmlns="http://www.w3.org/2000/svg" data-name="Layer 2" viewBox="0 0 512 205"><defs><clipPath id="a"><path d="M0 0h512v205H0z" style="fill:none"/></clipPath></defs><g style="clip-path:url(#a)"><path d="M122.5 122.44c12.49 1.49 23.86-7.47 25.35-19.96 1.14-9.56-3.84-18.46-11.83-22.78 2.25 3.87 3.29 8.45 2.74 13.11-1.11 9.32-8.16 16.52-16.9 18.26 4.88-2.17 9.02-6.04 11.42-11.26 5.27-11.42.27-25-11.15-30.28-8.74-4.04-18.74-2.06-25.32 4.21 4.38-.94 9.06-.52 13.32 1.45 8.52 3.94 13.19 12.86 12.14 21.72-.56-5.31-2.96-10.44-7.18-14.34-9.23-8.55-23.7-7.99-32.24 1.24-6.54 7.06-7.75 17.19-3.82 25.38.46-4.45 2.3-8.78 5.49-12.22 6.38-6.89 16.31-8.57 24.41-4.84a22.73 22.73 0 0 0-15.86 2.39c-10.98 6.14-14.92 20.07-8.78 31.05 4.7 8.4 13.95 12.68 22.96 11.47-4.1-1.81-7.63-4.9-9.92-9-4.58-8.2-3.11-18.16 2.94-24.71a22.68 22.68 0 0 0-2.62 15.82c2.45 12.34 14.47 20.39 26.81 17.94 9.44-1.87 16.37-9.35 18.01-18.29a21.16 21.16 0 0 1-11.62 6.66c-9.21 1.82-18.23-2.65-22.59-10.43 3.57 3.96 8.53 6.7 14.24 7.38Zm-11.6-25.3s.06-.01.09-.02c2.81-.57 5.68.76 7.1 3.24.01.03.03.05.04.08a6.68 6.68 0 0 1-.89 7.75c-.02.02-.04.04-.06.07-1.94 2.11-5.04 2.73-7.65 1.55-.03-.01-.06-.03-.08-.04a6.68 6.68 0 0 1-3.84-6.8c0-.03 0-.06.01-.09a6.68 6.68 0 0 1 5.28-5.75Zm109.03-14.88-11.56 43.29h-11.62l-5.06-19.98c-.68-2.73-1.23-5.69-1.67-8.88-.08-.58-.16-1.16-.25-1.73-.08.54-.14 1.08-.21 1.63-.36 3.16-.9 6.15-1.62 8.98l-5.06 19.98h-11.65l-11.56-43.29h11.36l4.27 19.15c.42 1.94.81 4.04 1.14 6.29.34 2.25.67 4.52 1.01 6.77.03.18.05.37.08.56l.09-.56c.35-2.25.72-4.52 1.1-6.77.39-2.25.82-4.35 1.28-6.29l4.58-19.15h10.44l4.56 19.15c.47 1.94.89 4.04 1.28 6.29.38 2.25.76 4.52 1.12 6.77.03.16.05.32.08.47.03-.16.05-.32.07-.47.32-2.25.66-4.52 1.02-6.77s.74-4.35 1.14-6.29l4.27-19.15h11.36Zm.9 43.29V93.07h8.7v32.48zm-.05-39.06c0-2.4 1.95-4.35 4.35-4.35s4.35 1.95 4.35 4.35-1.95 4.35-4.35 4.35-4.35-1.95-4.35-4.35m23.23 20.53v18.54h-10.14V93.08h9.53l.2 8.19h-.44c.79-2.58 2.04-4.65 3.73-6.23q2.55-2.37 6.84-2.37c2.27 0 4.24.5 5.93 1.51 1.68 1.01 2.99 2.43 3.92 4.27s1.39 3.98 1.39 6.42v20.69h-10.14v-18.71c0-1.82-.46-3.25-1.39-4.29s-2.23-1.55-3.89-1.55c-1.09 0-2.05.24-2.89.71s-1.5 1.16-1.96 2.05-.7 1.98-.7 3.25Zm36.41 19c-2.4 0-4.59-.62-6.57-1.87s-3.54-3.11-4.71-5.58c-1.16-2.47-1.74-5.54-1.74-9.22s.61-6.93 1.82-9.4 2.8-4.3 4.76-5.49c1.97-1.19 4.08-1.79 6.35-1.79 1.72 0 3.2.3 4.42.89s2.22 1.34 3.01 2.25c.78.91 1.38 1.86 1.79 2.85h.23V82.27h10.11v43.29h-9.99v-5.26h-.35c-.43.97-1.04 1.89-1.84 2.76s-1.8 1.58-2.99 2.14c-1.19.55-2.62.83-4.28.83Zm3.46-7.91c1.28 0 2.38-.36 3.3-1.09s1.62-1.75 2.11-3.06c.48-1.32.73-2.86.73-4.62s-.24-3.36-.73-4.66c-.48-1.31-1.19-2.31-2.11-3.02s-2.02-1.06-3.3-1.06-2.4.36-3.3 1.09-1.58 1.74-2.05 3.05c-.46 1.31-.7 2.84-.7 4.6s.23 3.28.7 4.6c.46 1.33 1.15 2.35 2.05 3.08s2 1.09 3.3 1.09m43.35 8.02c-3.89 0-7.38-.86-10.47-2.59-3.09-1.72-5.53-4.24-7.32-7.55s-2.69-7.33-2.69-12.06.9-8.8 2.72-12.11c1.81-3.31 4.27-5.83 7.37-7.55s6.57-2.59 10.4-2.59c2.58 0 4.96.35 7.15 1.06s4.13 1.74 5.81 3.09q2.52 2.04 4.11 4.98c1.06 1.97 1.74 4.21 2.05 6.73h-10.37c-.17-1.06-.49-2.02-.96-2.86a7.5 7.5 0 0 0-1.79-2.16c-.73-.6-1.57-1.06-2.54-1.37s-2.03-.46-3.2-.46c-2.11 0-3.94.52-5.48 1.57s-2.72 2.55-3.54 4.52-1.23 4.35-1.23 7.16.42 5.31 1.26 7.28 2.02 3.44 3.54 4.43 3.32 1.48 5.39 1.48c1.16 0 2.23-.15 3.2-.46s1.82-.77 2.56-1.37q1.11-.9 1.83-2.16c.48-.84.81-1.8.99-2.86h10.37c-.19 1.94-.75 3.84-1.66 5.71s-2.17 3.57-3.79 5.11-3.57 2.77-5.85 3.68c-2.29.91-4.9 1.37-7.84 1.37Zm37.24.03c-3.39 0-6.3-.7-8.74-2.11-2.44-1.4-4.31-3.36-5.62-5.87s-1.96-5.43-1.96-8.76.65-6.28 1.96-8.79 3.18-4.46 5.62-5.87c2.44-1.4 5.35-2.11 8.74-2.11s6.3.7 8.74 2.11c2.44 1.4 4.31 3.36 5.61 5.87q1.95 3.765 1.95 8.79c0 5.025-.65 6.25-1.95 8.76s-3.17 4.46-5.61 5.87c-2.44 1.4-5.36 2.11-8.74 2.11m0-7.75c1.3 0 2.39-.38 3.28-1.13.89-.76 1.56-1.81 2.02-3.17.45-1.36.68-2.93.68-4.74s-.23-3.37-.68-4.72c-.46-1.35-1.13-2.39-2.02-3.12-.89-.74-1.99-1.1-3.28-1.1s-2.39.37-3.28 1.1c-.89.74-1.56 1.78-2.02 3.12-.46 1.35-.68 2.92-.68 4.72s.23 3.38.68 4.74c.46 1.36 1.13 2.41 2.02 3.17.89.75 1.99 1.13 3.28 1.13m18.42 7.14V93.07h9.85V99h.35c.58-2.15 1.54-3.74 2.89-4.78s2.91-1.55 4.69-1.55c.47 0 .95.03 1.47.09.51.06.98.15 1.41.26v8.83c-.48-.17-1.12-.3-1.9-.39s-1.49-.13-2.11-.13c-1.24 0-2.35.28-3.34.83s-1.76 1.31-2.32 2.28-.84 2.1-.84 3.4v17.72H382.9Zm37.04.61c-3.39 0-6.31-.67-8.77-2.02s-4.34-3.27-5.65-5.77-1.96-5.48-1.96-8.95.65-6.26 1.96-8.77c1.31-2.52 3.16-4.48 5.56-5.88s5.23-2.11 8.48-2.11c2.29 0 4.38.36 6.29 1.07 1.91.72 3.56 1.78 4.97 3.18 1.4 1.4 2.49 3.13 3.25 5.19.76 2.05 1.15 4.43 1.15 7.12v2.56h-28.06v-5.9h23.24l-4.74 1.39c0-1.51-.23-2.81-.68-3.89-.46-1.08-1.13-1.92-2.02-2.5s-2-.87-3.31-.87-2.43.3-3.34.89-1.6 1.41-2.08 2.47c-.47 1.06-.71 2.29-.71 3.7v4.24c0 1.67.28 3.06.83 4.17s1.32 1.95 2.31 2.5 2.14.83 3.46.83c.91 0 1.74-.13 2.48-.38s1.38-.63 1.92-1.13c.53-.5.93-1.11 1.21-1.83l9.04 1.48c-.54 1.86-1.48 3.48-2.8 4.87-1.33 1.39-3 2.46-5.03 3.21-2.02.76-4.35 1.13-6.99 1.13Z" style="fill:#fff"/></g></svg>