<svg xmlns="http://www.w3.org/2000/svg" id="Layer_2" data-name="Layer 2" viewBox="0 0 512 205"><defs><clipPath id="clippath"><path d="M0 0h512v205H0z" style="fill:none"/></clipPath><style>.cls-1{fill:#fff}</style></defs><g style="clip-path:url(#clippath)"><path d="M78.66 115.19c26.38-.83 47.61-22.06 48.44-48.44.03-.88-.69-1.6-1.57-1.6H78.61c-.86 0-1.56.7-1.56 1.56v46.92c0 .88.73 1.59 1.6 1.57Zm15.8.02h31.3c.65 0 1.18.53 1.18 1.18v6.07c0 9.6-7.8 17.4-17.4 17.4h-31.3c-.65 0-1.18-.53-1.18-1.18v-6.07c0-9.6 7.8-17.4 17.4-17.4m45.1 11.38V78.24h7.4v41.99h21.9v6.36zm45.4.46c-2.47 0-4.63-.52-6.49-1.56s-3.3-2.57-4.33-4.61c-1.03-2.03-1.54-4.54-1.54-7.53V90.31h7.14v22.16c0 2.62.69 4.66 2.06 6.13s3.24 2.21 5.6 2.21c1.62 0 3.07-.35 4.33-1.05 1.27-.7 2.27-1.73 3-3.08.74-1.35 1.1-2.98 1.1-4.88V90.32h7.14v36.28h-6.81l-.03-8.89h.68c-1.06 3.29-2.61 5.67-4.64 7.14s-4.44 2.21-7.2 2.21Zm23.63-.46V90.31h6.78l.19 8.4h-.55c.52-2.05 1.32-3.74 2.4-5.06s2.35-2.31 3.8-2.97 2.96-.99 4.54-.99c2.64 0 4.77.82 6.39 2.45s2.71 3.91 3.28 6.83h-.91c.48-1.99 1.3-3.68 2.47-5.06s2.58-2.43 4.24-3.15c1.65-.71 3.42-1.07 5.31-1.07 2.14 0 4.08.47 5.82 1.4s3.12 2.31 4.14 4.15 1.53 4.13 1.53 6.88v24.47h-7.14v-23.75c0-2.42-.68-4.17-2.03-5.26-1.35-1.08-2.95-1.62-4.79-1.62-1.49 0-2.78.31-3.86.94s-1.91 1.5-2.5 2.61c-.58 1.11-.88 2.4-.88 3.84v23.23h-7.04v-24.21c0-1.95-.62-3.5-1.87-4.67-1.24-1.17-2.83-1.75-4.75-1.75-1.32 0-2.55.31-3.68.92-1.14.62-2.04 1.53-2.73 2.73-.68 1.2-1.02 2.68-1.02 4.43v22.55h-7.14Zm65.19.81c-2.29 0-4.37-.43-6.23-1.28q-2.79-1.275-4.41-3.75c-1.08-1.64-1.62-3.66-1.62-6.04 0-2.05.39-3.74 1.18-5.06a8.8 8.8 0 0 1 3.21-3.15c1.35-.78 2.86-1.36 4.51-1.75s3.34-.68 5.05-.88q3.21-.39 5.22-.63t2.97-.81.96-1.83v-.19c0-1.36-.26-2.51-.78-3.44s-1.29-1.65-2.32-2.16-2.31-.76-3.85-.76-2.94.24-4.07.73c-1.14.49-2.06 1.11-2.76 1.87s-1.23 1.55-1.57 2.37l-6.72-1.75q1.23-3.24 3.54-5.22c1.54-1.32 3.3-2.28 5.29-2.89s4.04-.91 6.17-.91c1.47 0 3.03.17 4.67.52s3.19.97 4.64 1.88 2.63 2.19 3.54 3.83 1.36 3.79 1.36 6.42v24.08h-6.91v-4.97h-.36c-.48.93-1.18 1.84-2.11 2.73s-2.1 1.62-3.52 2.19-3.11.86-5.08.86Zm1.59-5.74c1.95 0 3.61-.38 5-1.14 1.38-.76 2.44-1.76 3.18-3.02.74-1.25 1.1-2.58 1.1-3.99v-4.64c-.26.26-.75.49-1.48.7s-1.55.39-2.48.55-1.83.3-2.69.41c-.87.11-1.58.19-2.14.26-1.34.17-2.57.47-3.68.88s-2 1-2.66 1.75c-.66.76-.99 1.76-.99 3.02 0 1.15.3 2.11.89 2.89s1.4 1.36 2.42 1.75 2.2.58 3.54.58Zm42.74 5.58c-4.35 0-8.25-.96-11.7-2.89s-6.18-4.74-8.18-8.44q-3-5.55-3-13.47c0-7.92 1.01-9.83 3.03-13.53s4.76-6.51 8.23-8.44c3.46-1.93 7.33-2.89 11.62-2.89 2.88 0 5.54.4 7.98 1.18 2.44.79 4.61 1.94 6.49 3.46 1.88 1.51 3.41 3.37 4.59 5.57s1.94 4.7 2.29 7.51h-11.58c-.19-1.19-.55-2.26-1.07-3.2a8.2 8.2 0 0 0-2-2.42c-.81-.67-1.76-1.18-2.84-1.53s-2.27-.52-3.57-.52c-2.36 0-4.4.58-6.12 1.75s-3.04 2.85-3.96 5.05-1.38 4.86-1.38 8 .47 5.93 1.41 8.13q1.41 3.3 3.96 4.95c1.7 1.1 3.7 1.65 6.02 1.65 1.3 0 2.49-.17 3.57-.52s2.03-.85 2.86-1.53c.82-.67 1.5-1.48 2.04-2.42s.91-2.01 1.1-3.2h11.58c-.22 2.16-.83 4.29-1.85 6.38s-2.43 3.99-4.24 5.71-3.99 3.09-6.54 4.1q-3.825 1.53-8.76 1.53Zm40.47.04c-3.79 0-7.04-.78-9.77-2.35s-4.82-3.75-6.28-6.55-2.19-6.06-2.19-9.78.73-7.01 2.19-9.82c1.46-2.8 3.55-4.99 6.28-6.55 2.73-1.57 5.98-2.35 9.77-2.35s7.04.78 9.77 2.35 4.81 3.75 6.26 6.55 2.17 6.07 2.17 9.82-.72 6.98-2.17 9.78-3.54 4.99-6.26 6.55c-2.73 1.57-5.98 2.35-9.77 2.35m0-8.67c1.45 0 2.67-.42 3.67-1.27.99-.84 1.75-2.02 2.26-3.54.51-1.51.76-3.28.76-5.29s-.25-3.77-.76-5.27-1.26-2.67-2.26-3.49-2.22-1.23-3.67-1.23-2.67.41-3.67 1.23-1.75 1.98-2.26 3.49c-.51 1.5-.76 3.26-.76 5.27s.25 3.77.76 5.29c.51 1.51 1.26 2.69 2.26 3.54.99.84 2.22 1.27 3.67 1.27m20.32 7.98V90.31h11v6.62h.39c.65-2.4 1.72-4.18 3.23-5.34 1.5-1.16 3.25-1.74 5.24-1.74.52 0 1.07.03 1.64.1s1.1.16 1.57.29v9.86c-.54-.19-1.25-.34-2.13-.44s-1.66-.15-2.35-.15c-1.38 0-2.63.31-3.73.93s-1.97 1.47-2.6 2.55-.94 2.35-.94 3.8v19.79H378.9Z" class="cls-1"/><path d="M417.87 127.28c-3.79 0-7.05-.75-9.8-2.26-2.75-1.5-4.85-3.65-6.31-6.44q-2.19-4.185-2.19-9.99c0-5.805.73-6.99 2.19-9.8q2.19-4.215 6.21-6.57c2.68-1.57 5.84-2.35 9.48-2.35 2.55 0 4.89.4 7.03 1.2 2.13.8 3.98 1.99 5.55 3.55q2.355 2.355 3.63 5.79c.85 2.29 1.28 4.94 1.28 7.95v2.86h-31.35v-6.59h25.96l-5.29 1.56c0-1.69-.25-3.14-.76-4.35s-1.26-2.14-2.26-2.79-2.23-.97-3.7-.97-2.71.33-3.73.99-1.79 1.58-2.32 2.76-.79 2.56-.79 4.14v4.74c0 1.86.31 3.41.92 4.66q.93 1.86 2.58 2.79c1.1.62 2.39.92 3.86.92 1.02 0 1.94-.14 2.77-.42s1.55-.7 2.14-1.27q.885-.84 1.35-2.04l10.09 1.65c-.61 2.08-1.65 3.89-3.13 5.44s-3.35 2.74-5.61 3.59c-2.26.84-4.86 1.27-7.8 1.27Z" class="cls-1"/></g></svg>