<svg xmlns="http://www.w3.org/2000/svg" id="Layer_2" data-name="Layer 2" viewBox="0 0 512 205"><defs><clipPath id="clippath"><path d="M0 0h512v205H0z" style="fill:none"/></clipPath><style>.cls-1{fill:#fff}</style></defs><g style="clip-path:url(#clippath)"><g id="_Radial_Repeat_" data-name="&amp;lt;Radial Repeat&amp;gt;"><path d="m63.35 121.79 18.24-18.24 1.74 1.74c5.49 5.49 5.49 14.4 0 19.89l-7.12 7.12c-.38.38-.99.42-1.42.08l-11.36-9c-.5-.4-.54-1.14-.09-1.59Zm20.34-26.21-17.07 17.07-1.74-1.74c-5.49-5.49-5.49-14.4 0-19.89l8.3-8.3c.45-.45 1.2-.41 1.59.09l9 11.36c.34.42.3 1.03-.08 1.42Zm-2.1 7.96-14.97 9.11 2.93 2.93z" class="cls-1"/><path d="m66.62 112.65 14.97-9.11-2.93-2.93z" class="cls-1"/></g><g id="_Radial_Repeat_-2" data-name="&amp;lt;Radial Repeat&amp;gt;"><path d="m82.49 64.07 18.24 18.24-1.74 1.74c-5.49 5.49-14.4 5.49-19.89 0l-7.12-7.12a1.07 1.07 0 0 1-.08-1.42l9-11.36c.4-.5 1.14-.54 1.59-.09Zm26.21 20.34L91.63 67.34l1.74-1.74c5.49-5.49 14.4-5.49 19.89 0l8.3 8.3c.45.45.41 1.2-.09 1.59l-11.36 9c-.42.34-1.03.3-1.42-.08Zm-7.96-2.1-9.11-14.97-2.93 2.93z" class="cls-1"/><path d="m91.63 67.34 9.11 14.97 2.93-2.93z" class="cls-1"/></g><g id="_Radial_Repeat_-3" data-name="&amp;lt;Radial Repeat&amp;gt;"><path d="m140.21 83.21-18.24 18.24-1.74-1.74c-5.49-5.49-5.49-14.4 0-19.89l7.12-7.12c.38-.38.99-.42 1.42-.08l11.36 9c.5.4.54 1.14.09 1.59Zm-20.34 26.21 17.07-17.07 1.74 1.74c5.49 5.49 5.49 14.4 0 19.89l-8.3 8.3c-.45.45-1.2.41-1.59-.09l-9-11.36c-.34-.42-.3-1.03.08-1.42Zm2.1-7.96 14.97-9.11-2.93-2.93z" class="cls-1"/><path d="m136.94 92.35-14.97 9.11 2.93 2.93z" class="cls-1"/></g><g id="_Radial_Repeat_-4" data-name="&amp;lt;Radial Repeat&amp;gt;"><path d="m121.07 140.93-18.24-18.24 1.74-1.74c5.49-5.49 14.4-5.49 19.89 0l7.12 7.12c.38.38.42.99.08 1.42l-9 11.36c-.4.5-1.14.54-1.59.09Zm-26.21-20.34 17.07 17.07-1.74 1.74c-5.49 5.49-14.4 5.49-19.89 0l-8.3-8.3c-.45-.45-.41-1.2.09-1.59l11.36-9c.42-.34 1.03-.3 1.42.08Zm7.96 2.1 9.11 14.97 2.93-2.93z" class="cls-1"/><path d="m111.93 137.66-9.11-14.97-2.93 2.93z" class="cls-1"/></g><path d="M162.09 122.88c-2.9-.84-5.23-1.94-6.98-3.28l3.09-6.84c1.68 1.23 3.68 2.23 6 2.97 2.32.75 4.64 1.12 6.96 1.12 2.58 0 4.49-.38 5.72-1.15s1.85-1.79 1.85-3.06c0-.93-.36-1.71-1.09-2.33s-1.66-1.11-2.8-1.49c-1.14-.37-2.68-.79-4.63-1.23q-4.485-1.065-7.35-2.13c-1.91-.71-3.54-1.85-4.91-3.42s-2.05-3.66-2.05-6.28c0-2.28.62-4.35 1.85-6.2s3.09-3.32 5.58-4.4 5.53-1.63 9.12-1.63q3.75 0 7.35.9c2.39.6 4.49 1.46 6.28 2.58l-2.8 6.9c-3.63-2.06-7.26-3.09-10.88-3.09q-3.81 0-5.64 1.23c-1.22.82-1.82 1.91-1.82 3.25s.7 2.35 2.1 3 3.54 1.3 6.42 1.94q4.485 1.065 7.35 2.13c1.91.71 3.54 1.83 4.91 3.37 1.36 1.53 2.05 3.61 2.05 6.23 0 2.24-.63 4.29-1.88 6.14s-3.13 3.32-5.64 4.4-5.55 1.63-9.14 1.63c-3.1 0-6.11-.42-9-1.26Zm58.37-6.7v7.29h-30.4V84.2h29.68v7.29H199.1v8.53h18.23v7.07H199.1v9.09h21.37Zm3.31-31.98h17.84c4.26 0 8.03.81 11.3 2.44s5.81 3.92 7.63 6.87c1.81 2.95 2.72 6.39 2.72 10.32s-.91 7.37-2.72 10.32-4.36 5.25-7.63 6.87c-3.27 1.63-7.04 2.44-11.3 2.44h-17.84V84.19Zm17.39 31.81c3.93 0 7.06-1.09 9.4-3.28s3.51-5.15 3.51-8.89-1.17-6.7-3.51-8.89-5.47-3.28-9.4-3.28h-8.3v24.35h8.3Zm83.08-31.81-12.85 39.27h-9.76l-8.64-26.59-8.92 26.59h-9.71l-12.9-39.27h9.42l8.86 27.6L289 84.2h8.41l8.98 27.82 9.14-27.82h8.7Zm8.66 37.31c-3.27-1.76-5.83-4.18-7.69-7.26-1.85-3.09-2.78-6.55-2.78-10.41s.93-7.32 2.78-10.41 4.41-5.51 7.69-7.26c3.27-1.76 6.95-2.64 11.02-2.64s7.74.88 11 2.64c3.25 1.76 5.81 4.18 7.69 7.26 1.87 3.09 2.8 6.55 2.8 10.41s-.94 7.32-2.8 10.41c-1.87 3.09-4.43 5.51-7.69 7.26-3.25 1.76-6.92 2.64-11 2.64s-7.75-.88-11.02-2.64m17.31-6.71c1.87-1.07 3.34-2.55 4.4-4.46 1.07-1.91 1.6-4.08 1.6-6.51s-.53-4.6-1.6-6.51-2.53-3.39-4.4-4.46-3.96-1.6-6.28-1.6-4.41.53-6.28 1.6a11.43 11.43 0 0 0-4.4 4.46c-1.07 1.91-1.6 4.08-1.6 6.51s.53 4.6 1.6 6.51 2.53 3.39 4.4 4.46 3.96 1.6 6.28 1.6 4.41-.53 6.28-1.6m26.11 6.71c-3.27-1.76-5.83-4.18-7.69-7.26-1.85-3.09-2.78-6.55-2.78-10.41s.93-7.32 2.78-10.41 4.41-5.51 7.69-7.26c3.27-1.76 6.95-2.64 11.02-2.64s7.74.88 11 2.64c3.25 1.76 5.81 4.18 7.69 7.26 1.87 3.09 2.8 6.55 2.8 10.41s-.94 7.32-2.8 10.41c-1.87 3.09-4.43 5.51-7.69 7.26-3.25 1.76-6.92 2.64-11 2.64s-7.75-.88-11.02-2.64m17.31-6.71c1.87-1.07 3.34-2.55 4.4-4.46 1.07-1.91 1.6-4.08 1.6-6.51s-.53-4.6-1.6-6.51-2.53-3.39-4.4-4.46-3.96-1.6-6.28-1.6-4.41.53-6.28 1.6a11.43 11.43 0 0 0-4.4 4.46c-1.07 1.91-1.6 4.08-1.6 6.51s.53 4.6 1.6 6.51 2.53 3.39 4.4 4.46 3.96 1.6 6.28 1.6 4.41-.53 6.28-1.6m18.12-30.6h17.84c4.26 0 8.03.81 11.3 2.44s5.81 3.92 7.63 6.87c1.81 2.95 2.72 6.39 2.72 10.32s-.91 7.37-2.72 10.32-4.36 5.25-7.63 6.87c-3.27 1.63-7.04 2.44-11.3 2.44h-17.84V84.19Zm17.39 31.81c3.93 0 7.06-1.09 9.4-3.28s3.51-5.15 3.51-8.89-1.17-6.7-3.51-8.89-5.47-3.28-9.4-3.28h-8.3v24.35h8.3Z" class="cls-1"/><path d="M162.09 122.88c-2.9-.84-5.23-1.94-6.98-3.28l3.09-6.84c1.68 1.23 3.68 2.23 6 2.97 2.32.75 4.64 1.12 6.96 1.12 2.58 0 4.49-.38 5.72-1.15s1.85-1.79 1.85-3.06c0-.93-.36-1.71-1.09-2.33s-1.66-1.11-2.8-1.49c-1.14-.37-2.68-.79-4.63-1.23q-4.485-1.065-7.35-2.13c-1.91-.71-3.54-1.85-4.91-3.42s-2.05-3.66-2.05-6.28c0-2.28.62-4.35 1.85-6.2s3.09-3.32 5.58-4.4 5.53-1.63 9.12-1.63q3.75 0 7.35.9c2.39.6 4.49 1.46 6.28 2.58l-2.8 6.9c-3.63-2.06-7.26-3.09-10.88-3.09q-3.81 0-5.64 1.23c-1.22.82-1.82 1.91-1.82 3.25s.7 2.35 2.1 3 3.54 1.3 6.42 1.94q4.485 1.065 7.35 2.13c1.91.71 3.54 1.83 4.91 3.37 1.36 1.53 2.05 3.61 2.05 6.23 0 2.24-.63 4.29-1.88 6.14s-3.13 3.32-5.64 4.4-5.55 1.63-9.14 1.63c-3.1 0-6.11-.42-9-1.26Zm58.37-6.7v7.29h-30.4V84.2h29.68v7.29H199.1v8.53h18.23v7.07H199.1v9.09h21.37Zm3.31-31.98h17.84c4.26 0 8.03.81 11.3 2.44s5.81 3.92 7.63 6.87c1.81 2.95 2.72 6.39 2.72 10.32s-.91 7.37-2.72 10.32-4.36 5.25-7.63 6.87c-3.27 1.63-7.04 2.44-11.3 2.44h-17.84V84.19Zm17.39 31.81c3.93 0 7.06-1.09 9.4-3.28s3.51-5.15 3.51-8.89-1.17-6.7-3.51-8.89-5.47-3.28-9.4-3.28h-8.3v24.35h8.3Zm83.08-31.81-12.85 39.27h-9.76l-8.64-26.59-8.92 26.59h-9.71l-12.9-39.27h9.42l8.86 27.6L289 84.2h8.41l8.98 27.82 9.14-27.82h8.7Zm8.66 37.31c-3.27-1.76-5.83-4.18-7.69-7.26-1.85-3.09-2.78-6.55-2.78-10.41s.93-7.32 2.78-10.41 4.41-5.51 7.69-7.26c3.27-1.76 6.95-2.64 11.02-2.64s7.74.88 11 2.64c3.25 1.76 5.81 4.18 7.69 7.26 1.87 3.09 2.8 6.55 2.8 10.41s-.94 7.32-2.8 10.41c-1.87 3.09-4.43 5.51-7.69 7.26-3.25 1.76-6.92 2.64-11 2.64s-7.75-.88-11.02-2.64m17.31-6.71c1.87-1.07 3.34-2.55 4.4-4.46 1.07-1.91 1.6-4.08 1.6-6.51s-.53-4.6-1.6-6.51-2.53-3.39-4.4-4.46-3.96-1.6-6.28-1.6-4.41.53-6.28 1.6a11.43 11.43 0 0 0-4.4 4.46c-1.07 1.91-1.6 4.08-1.6 6.51s.53 4.6 1.6 6.51 2.53 3.39 4.4 4.46 3.96 1.6 6.28 1.6 4.41-.53 6.28-1.6m26.11 6.71c-3.27-1.76-5.83-4.18-7.69-7.26-1.85-3.09-2.78-6.55-2.78-10.41s.93-7.32 2.78-10.41 4.41-5.51 7.69-7.26c3.27-1.76 6.95-2.64 11.02-2.64s7.74.88 11 2.64c3.25 1.76 5.81 4.18 7.69 7.26 1.87 3.09 2.8 6.55 2.8 10.41s-.94 7.32-2.8 10.41c-1.87 3.09-4.43 5.51-7.69 7.26-3.25 1.76-6.92 2.64-11 2.64s-7.75-.88-11.02-2.64m17.31-6.71c1.87-1.07 3.34-2.55 4.4-4.46 1.07-1.91 1.6-4.08 1.6-6.51s-.53-4.6-1.6-6.51-2.53-3.39-4.4-4.46-3.96-1.6-6.28-1.6-4.41.53-6.28 1.6a11.43 11.43 0 0 0-4.4 4.46c-1.07 1.91-1.6 4.08-1.6 6.51s.53 4.6 1.6 6.51 2.53 3.39 4.4 4.46 3.96 1.6 6.28 1.6 4.41-.53 6.28-1.6m18.12-30.6h17.84c4.26 0 8.03.81 11.3 2.44s5.81 3.92 7.63 6.87c1.81 2.95 2.72 6.39 2.72 10.32s-.91 7.37-2.72 10.32-4.36 5.25-7.63 6.87c-3.27 1.63-7.04 2.44-11.3 2.44h-17.84V84.19Zm17.39 31.81c3.93 0 7.06-1.09 9.4-3.28s3.51-5.15 3.51-8.89-1.17-6.7-3.51-8.89-5.47-3.28-9.4-3.28h-8.3v24.35h8.3Z" class="cls-1"/></g></svg>