<svg xmlns="http://www.w3.org/2000/svg" xmlns:xlink="http://www.w3.org/1999/xlink" id="Layer_1" data-name="Layer 1" viewBox="0 0 512 205"><defs><linearGradient id="linear-gradient" x1="155.58" x2="184.63" y1="74.28" y2="47.25" gradientUnits="userSpaceOnUse"><stop offset="0" stop-color="#fff"/><stop offset="1" stop-color="#fff" stop-opacity="0"/></linearGradient><linearGradient xlink:href="#linear-gradient" id="linear-gradient-2" x1="164.21" x2="117.48" y1="56.17" y2="94.82"/><linearGradient xlink:href="#linear-gradient" id="linear-gradient-3" x1="131.75" x2="185.44" y1="88.72" y2="83.67"/><linearGradient xlink:href="#linear-gradient" id="linear-gradient-4" x1="296.63" x2="325.68" y2="47.25" gradientTransform="matrix(-1 0 0 1 396.71 0)"/><linearGradient xlink:href="#linear-gradient" id="linear-gradient-5" x1="305.26" x2="258.52" y1="56.17" y2="94.82" gradientTransform="matrix(-1 0 0 1 396.71 0)"/><linearGradient xlink:href="#linear-gradient" id="linear-gradient-6" x1="272.8" x2="326.48" y1="88.72" y2="83.67" gradientTransform="matrix(-1 0 0 1 396.71 0)"/><linearGradient xlink:href="#linear-gradient" id="linear-gradient-7" x1="155.58" x2="184.63" y1="671.47" y2="644.44" gradientTransform="matrix(1 0 0 -1 0 802.2)"/><linearGradient xlink:href="#linear-gradient" id="linear-gradient-8" x1="164.21" x2="117.48" y1="653.37" y2="692.02" gradientTransform="matrix(1 0 0 -1 0 802.2)"/><linearGradient xlink:href="#linear-gradient" id="linear-gradient-9" x1="131.75" x2="185.44" y1="685.92" y2="680.87" gradientTransform="matrix(1 0 0 -1 0 802.2)"/><linearGradient xlink:href="#linear-gradient" id="linear-gradient-10" x1="296.63" x2="325.68" y1="671.47" y2="644.44" gradientTransform="rotate(-180 198.355 401.1)"/><linearGradient xlink:href="#linear-gradient" id="linear-gradient-11" x1="305.26" x2="258.52" y1="653.37" y2="692.02" gradientTransform="rotate(-180 198.355 401.1)"/><linearGradient xlink:href="#linear-gradient" id="linear-gradient-12" x1="272.8" x2="326.48" y1="685.92" y2="680.87" gradientTransform="rotate(-180 198.355 401.1)"/><clipPath id="clippath"><path d="M0 0h512v205H0z" style="fill:none"/></clipPath><style>.cls-4{fill:#fff}</style></defs><g style="clip-path:url(#clippath)"><path d="M265.03 65.97h-12.57l-9.88 14.43c-1.47 2.19-2.71 4.1-3.72 5.75s-1.95 3.26-2.81 4.84c-.52.95-1.07 1.97-1.65 3.05-.59-1.1-1.14-2.12-1.66-3.08-.85-1.56-1.76-3.17-2.74-4.82s-2.22-3.56-3.72-5.75l-9.68-14.43h-12.86l24.33 35.58-26.19 37.3h12.72l12.08-17.46c1.37-1.96 2.52-3.66 3.45-5.11a93 93 0 0 0 2.59-4.3c.49-.87 1.01-1.79 1.55-2.78a141 141 0 0 0 1.58 2.85c.8 1.4 1.65 2.82 2.57 4.26.91 1.43 2.04 3.13 3.38 5.09l11.89 17.46h12.96l-25.84-37.63 24.23-35.24Z" class="cls-4"/><path d="M315.09 111.26c0-4.79-.66-8.92-1.98-12.37-1.32-3.46-3.12-6.29-5.41-8.51-2.28-2.22-4.88-3.86-7.78-4.92s-5.97-1.59-9.2-1.59c-5.02 0-9.41 1.19-13.16 3.57s-6.66 5.69-8.76 9.93c-2.09 4.24-3.13 9.15-3.13 14.72s1.05 10.5 3.16 14.67c2.1 4.18 5.08 7.42 8.95 9.73 3.86 2.32 8.47 3.47 13.82 3.47 3.91 0 7.42-.61 10.52-1.83 3.1-1.23 5.68-2.95 7.75-5.16 2.07-2.22 3.53-4.76 4.38-7.63l-10.07-2c-.59 1.69-1.48 3.12-2.67 4.28s-2.61 2.03-4.26 2.62c-1.64.59-3.5.88-5.55.88-3.06 0-5.75-.67-8.05-2-2.3-1.34-4.07-3.28-5.33-5.85q-1.695-3.48-1.86-8.34h38.62v-3.67Zm-38.58-4.31c.17-2.27.71-4.38 1.63-6.33 1.12-2.4 2.76-4.31 4.92-5.75q3.225-2.16 7.68-2.16c4.455 0 5.62.7 7.65 2.11 2.04 1.4 3.59 3.36 4.65 5.89.78 1.85 1.27 3.93 1.47 6.23h-28Zm44.92-40.98h10.76v72.88h-10.76zm56.33 0v27.34h-.49c-.72-1.27-1.7-2.64-2.93-4.11-1.24-1.47-2.89-2.72-4.94-3.77-2.05-1.04-4.7-1.56-7.92-1.56-4.37 0-8.28 1.12-11.74 3.35s-6.18 5.43-8.15 9.61c-1.97 4.17-2.96 9.17-2.96 15.01s.97 10.8 2.91 15c1.94 4.19 4.64 7.41 8.09 9.66 3.46 2.25 7.4 3.38 11.84 3.38 3.13 0 5.73-.52 7.8-1.57 2.07-1.04 3.74-2.3 5.01-3.76 1.27-1.47 2.26-2.85 2.98-4.16h.78v8.47h10.37V65.98h-10.66Zm-1.37 55.73c-1.11 2.85-2.73 5.08-4.84 6.7-2.12 1.61-4.69 2.42-7.73 2.42s-5.65-.83-7.77-2.49-3.73-3.93-4.82-6.8-1.64-6.13-1.64-9.78.54-6.84 1.62-9.66c1.07-2.82 2.67-5.05 4.77-6.68s4.72-2.45 7.85-2.45 5.66.78 7.78 2.35c2.12 1.56 3.72 3.75 4.82 6.55 1.09 2.81 1.63 6.1 1.63 9.88s-.55 7.1-1.66 9.95Zm61.38-28.29c-1.28-2.41-3-4.32-5.13-5.72-2.14-1.4-4.45-2.39-6.94-2.96s-4.92-.85-7.27-.85c-3.36 0-6.55.5-9.56 1.49-3.02.99-5.65 2.53-7.9 4.6s-3.91 4.74-4.99 8l10.12 2.2c.46-1.27 1.21-2.49 2.25-3.64 1.04-1.16 2.42-2.11 4.13-2.84 1.71-.74 3.74-1.1 6.09-1.1s4.25.38 5.79 1.15c1.55.77 2.71 1.84 3.5 3.22.78 1.39 1.17 3.07 1.17 5.06v.34c0 1.24-.46 2.14-1.39 2.71s-2.4.98-4.4 1.23c-2 .24-4.62.56-7.85.95-2.57.3-5.1.74-7.58 1.32q-3.72.885-6.78 2.64c-2.04 1.18-3.64 2.75-4.82 4.72-1.17 1.97-1.76 4.49-1.76 7.56 0 3.56.81 6.56 2.42 9.02s3.82 4.33 6.63 5.6 5.93 1.91 9.39 1.91c2.93 0 5.46-.43 7.56-1.3s3.85-1.96 5.24-3.28c1.38-1.32 2.45-2.68 3.2-4.08h.49v7.49h10.32v-36.19c0-3.75-.64-6.83-1.93-9.24Zm-8.68 25.77c0 2.12-.54 4.12-1.61 5.99-1.07 1.88-2.65 3.39-4.72 4.53s-4.57 1.71-7.51 1.71c-2.02 0-3.8-.29-5.33-.88s-2.75-1.46-3.64-2.62c-.9-1.16-1.34-2.59-1.34-4.28 0-1.85.49-3.35 1.49-4.5.99-1.14 2.34-2.02 4.04-2.64 1.69-.62 3.54-1.06 5.53-1.32q1.365-.15 3.33-.39c1.965-.24 2.64-.37 4.01-.61 1.37-.25 2.58-.52 3.62-.83s1.76-.64 2.15-1.01v6.85Z" class="cls-4"/><path d="M155.6 47.45h27.77v27.77H155.6z" style="fill:url(#linear-gradient)"/><path d="M155.6 47.45v27.77l-22.62 22.62a7.3 7.3 0 0 0-1.89-1.36z" style="fill:url(#linear-gradient-2)"/><path d="m183.37 75.22-49.02 24.51c-.35-.7-.81-1.34-1.37-1.89l22.62-22.62z" style="fill:url(#linear-gradient-3)"/><path d="M72.29 47.45h27.77v27.77H72.29z" style="fill:url(#linear-gradient-4)"/><path d="M100.06 47.45v27.77l22.62 22.62c.55-.55 1.19-1.01 1.89-1.36z" style="fill:url(#linear-gradient-5)"/><path d="m72.29 75.22 49.02 24.51c.35-.7.81-1.34 1.37-1.89l-22.62-22.62z" style="fill:url(#linear-gradient-6)"/><path d="M155.6 129.78h27.77v27.77H155.6z" style="fill:url(#linear-gradient-7)"/><path d="M155.6 157.55v-27.77l-22.62-22.62c-.55.55-1.19 1.01-1.89 1.36z" style="fill:url(#linear-gradient-8)"/><path d="m183.37 129.78-49.02-24.51c-.35.7-.81 1.34-1.37 1.89l22.62 22.62z" style="fill:url(#linear-gradient-9)"/><path d="M72.29 129.78h27.77v27.77H72.29z" style="fill:url(#linear-gradient-10)"/><path d="M100.06 157.55v-27.77l22.62-22.62c.55.55 1.19 1.01 1.89 1.36z" style="fill:url(#linear-gradient-11)"/><path d="m72.29 129.78 49.02-24.51c.35.7.81 1.34 1.37 1.89l-22.62 22.62z" style="fill:url(#linear-gradient-12)"/></g></svg>