<svg xmlns="http://www.w3.org/2000/svg" data-name="Layer 2" viewBox="0 0 512 205"><defs><clipPath id="a"><path d="M0 0h512v205H0z" style="fill:none"/></clipPath></defs><g style="clip-path:url(#a)"><path d="m143.7 96.7-32.88-32.88a6.017 6.017 0 0 0-8.51 0L69.43 96.7c-11.11 11.11-11.11 29.12 0 40.23l4.25 4.25a6.017 6.017 0 0 0 8.51 0l20.24-20.24a5.836 5.836 0 0 1 8.27 0l20.24 20.24a6.017 6.017 0 0 0 8.51 0l4.26-4.26c11.11-11.11 11.11-29.12 0-40.23Zm-3.96 24.19-.06.06c-2.51 2.45-6.54 2.4-8.98-.11l-20.1-20.61a5.17 5.17 0 0 0-7.35-.05l-20.51 20.51c-2.52 2.52-6.7 2.58-9.18.01a6.363 6.363 0 0 1 .09-8.9l24.67-24.67c2.33-2.33 5.42-3.59 8.71-3.57s6.36 1.33 8.66 3.68l24.11 24.72a6.353 6.353 0 0 1-.06 8.93m30.48 12.89 19.21-54.02h10.15l19.58 54.02h-8.95l-10.51-30.05c-.82-2.44-1.72-5.32-2.7-8.63s-2.11-7.29-3.39-11.93h1.67c-1.23 4.69-2.34 8.71-3.32 12.05-.98 3.35-1.84 6.18-2.59 8.5l-10.19 30.05h-8.95Zm10.4-14.24v-6.89h28.1v6.89zm53.9 15.08c-2.92 0-5.53-.42-7.81-1.27s-4.16-2.1-5.62-3.75-2.44-3.68-2.92-6.07l7.5-1.56q.84 3.15 3.12 4.68c1.52 1.01 3.46 1.52 5.8 1.52 2.56 0 4.6-.54 6.13-1.61 1.52-1.08 2.28-2.36 2.28-3.86 0-1.31-.47-2.38-1.4-3.23s-2.36-1.47-4.3-1.89l-6.82-1.56c-3.77-.85-6.57-2.2-8.41-4.06s-2.75-4.24-2.75-7.14c0-2.42.68-4.53 2.03-6.34s3.2-3.22 5.55-4.22c2.34-1 5.05-1.5 8.12-1.5s5.43.42 7.5 1.27c2.08.85 3.76 2.03 5.06 3.55 1.29 1.52 2.22 3.29 2.77 5.29l-7.14 1.56c-.51-1.43-1.39-2.68-2.65-3.75-1.26-1.08-3.08-1.61-5.47-1.61-2.2 0-4.04.5-5.51 1.49s-2.21 2.25-2.21 3.77c0 1.35.49 2.45 1.47 3.28q1.47 1.245 4.8 2.01l6.53 1.45q5.625 1.275 8.34 3.99c2.715 2.715 2.72 4.13 2.72 6.96 0 2.47-.71 4.65-2.12 6.54-1.41 1.9-3.37 3.38-5.87 4.46s-5.41 1.61-8.72 1.61Zm16.71-41.37v6.49h21.97v-6.49zm5.91-9.64v16.13h7.98V83.61zm19.92 50.17V93.25h7.72v6.53h.44c.75-2.22 2.05-3.96 3.92-5.22 1.86-1.26 3.98-1.89 6.34-1.89.51 0 1.09.02 1.74.05.65.04 1.2.09 1.63.16v7.61c-.29-.1-.85-.19-1.67-.29s-1.66-.14-2.5-.14c-1.84 0-3.49.39-4.97 1.16s-2.62 1.84-3.44 3.21-1.23 2.94-1.23 4.73v24.62h-7.97Zm36.06.91c-2.56 0-4.88-.48-6.96-1.43s-3.72-2.35-4.93-4.19-1.81-4.08-1.81-6.74c0-2.3.44-4.18 1.32-5.66a9.85 9.85 0 0 1 3.59-3.52c1.51-.87 3.19-1.52 5.04-1.96s3.73-.76 5.64-.98c2.39-.29 4.34-.53 5.84-.71s2.6-.48 3.32-.91c.71-.42 1.07-1.11 1.07-2.05v-.22q0-2.28-.87-3.84c-.58-1.04-1.44-1.84-2.59-2.41s-2.58-.85-4.3-.85-3.28.27-4.55.82c-1.27.54-2.3 1.24-3.08 2.08-.79.85-1.37 1.73-1.76 2.65l-7.5-1.96c.92-2.42 2.24-4.36 3.95-5.84a16.4 16.4 0 0 1 5.91-3.23c2.22-.68 4.52-1.01 6.89-1.01 1.64 0 3.38.19 5.22.58s3.56 1.09 5.18 2.1c1.62 1.02 2.94 2.44 3.95 4.28 1.02 1.84 1.52 4.23 1.52 7.18v26.9h-7.72v-5.55h-.4c-.53 1.04-1.32 2.05-2.36 3.05-1.04.99-2.35 1.81-3.93 2.45q-2.37.96-5.67.96Zm1.77-6.42c2.18 0 4.04-.42 5.58-1.27 1.55-.85 2.73-1.97 3.55-3.37s1.23-2.89 1.23-4.46v-5.18q-.435.435-1.65.78c-.81.23-1.73.44-2.77.62s-2.04.33-3.01.45-1.76.22-2.39.29c-1.5.19-2.87.52-4.11.98-1.25.46-2.24 1.11-2.97 1.96-.74.85-1.11 1.97-1.11 3.37 0 1.28.33 2.36 1 3.23.66.87 1.56 1.52 2.7 1.96s2.45.65 3.95.65Zm20.89 5.51 18.45-54.02h14.5l18.92 54.02h-12.29l-8.66-26.07c-1.04-3.36-2.1-7.04-3.17-11.04q-1.62-6-3.39-13.11h2.43c-1.16 4.76-2.24 9.15-3.24 13.18-1 4.02-2 7.68-2.99 10.97L348 133.78zm11.53-12.54v-8.66h28.82v8.66zm41.89 12.54V93.25h10.51v7.07h.44c.75-2.51 2-4.41 3.75-5.69s3.76-1.92 6.04-1.92c.56 0 1.16.03 1.81.09s1.22.15 1.7.27v9.72c-.48-.17-1.18-.3-2.1-.4s-1.79-.14-2.61-.14c-1.64 0-3.13.36-4.46 1.07s-2.36 1.7-3.1 2.97q-1.11 1.905-1.11 4.44v23.06h-10.88Zm43.62.8c-4.08 0-7.61-.88-10.57-2.63s-5.24-4.19-6.85-7.32-2.41-6.77-2.41-10.93.8-7.87 2.41-11 3.89-5.57 6.85-7.32 6.48-2.63 10.57-2.63c2.39 0 4.6.31 6.63.94s3.83 1.52 5.4 2.68a14.8 14.8 0 0 1 3.88 4.24c1.01 1.67 1.72 3.54 2.1 5.62l-10.11 1.89c-.22-1.06-.56-2.01-1.01-2.85-.46-.83-1.01-1.55-1.67-2.14a6.9 6.9 0 0 0-2.27-1.36c-.86-.31-1.81-.47-2.85-.47-1.93 0-3.56.52-4.88 1.56q-1.98 1.56-2.97 4.35c-.66 1.86-1 4.01-1 6.45s.33 4.52 1 6.38c.66 1.86 1.66 3.32 2.97 4.39 1.32 1.06 2.94 1.6 4.88 1.6 1.04 0 1.99-.16 2.86-.49s1.64-.8 2.32-1.41c.68-.62 1.24-1.36 1.7-2.23s.78-1.85.98-2.94l10.11 1.85c-.39 2.15-1.09 4.07-2.1 5.75a15.7 15.7 0 0 1-3.88 4.33c-1.57 1.21-3.38 2.13-5.42 2.76s-4.27.94-6.69.94Zm-158.5-7.47v6.38c-.84.29-1.75.5-2.72.64-.97.13-1.92.19-2.87.19-3.67 0-6.53-.95-8.55-2.85-2.03-1.9-3.05-4.56-3.05-7.99V99.74h7.98v23.1c0 1.61.35 2.8 1.04 3.57.44.48 1.09.7 1.74.7h6.42Z" data-name="Layer 1" style="fill:#fff"/></g></svg>