<svg xmlns="http://www.w3.org/2000/svg" id="Layer_2" data-name="Layer 2" viewBox="0 0 512 205"><defs><style>.cls-1{fill:#fff}</style></defs><path d="M152.18 115.1s0 .02-.02.03l-3.83-5.25 4.99-38.14-41.74-15.89-41.74 15.89 4.99 38.14-3.84 5.25s-.02-.02-.02-.03C58.94 92.4 59.39 53.14 59.39 53.14c28.83 4.31 52.19-10.44 52.19-10.44s23.36 14.75 52.18 10.44c0 0 .45 39.26-11.58 61.96" class="cls-1"/><path d="m139.7 112.15 5.22-34.73-33.34-12.81-33.35 12.81 5.22 34.73-8.03 10.93c5.46 9.28 11.15 17.08 17.21 23.6l18.95-26.36 18.94 26.36c6.06-6.52 11.75-14.32 17.21-23.6zm-11.74 12.7-8.94-12.7V95.58l-7.44-2.73-7.45 2.73v16.57l-8.94 12.7V89.67l16.39-7.09 16.38 7.09z" class="cls-1"/><path d="M123.83 153.23c-3.9 3.46-7.98 6.47-12.25 9.07-4.28-2.6-8.36-5.6-12.25-9.07l12.25-16.37zm60.04-33.16V72.68h30.6v6.57H192v13.61h20.44v6.43H192v14.22h22.47v6.57h-30.6Zm50.43.82c-3.38 0-6.39-.74-9-2.23-2.62-1.49-4.67-3.55-6.16-6.19s-2.23-5.7-2.23-9.17.74-6.53 2.23-9.17 3.54-4.7 6.16-6.19 5.62-2.23 9-2.23c4.2 0 7.74 1.11 10.63 3.32s4.74 5.24 5.55 9.07h-8.46c-.45-1.71-1.38-3.05-2.78-3.99-1.4-.95-3.07-1.42-5.01-1.42-1.62 0-3.13.42-4.5 1.25-1.38.84-2.47 2.03-3.28 3.59s-1.22 3.49-1.22 5.79.41 4.19 1.22 5.79 1.91 2.82 3.28 3.66c1.38.84 2.88 1.25 4.5 1.25 1.94 0 3.61-.47 5.01-1.42s2.32-2.3 2.78-4.06h8.46q-1.155 5.55-5.52 8.97c-2.91 2.28-6.46 3.42-10.66 3.42Zm37.57 0c-3.34 0-6.35-.73-9.04-2.2s-4.82-3.53-6.4-6.19q-2.37-3.99-2.37-9.21c0-5.22.79-6.6 2.37-9.24s3.72-4.69 6.43-6.16 5.71-2.2 9-2.2 6.41.73 9.07 2.2 4.78 3.52 6.36 6.16 2.37 5.72 2.37 9.24-.79 6.54-2.37 9.21c-1.58 2.66-3.71 4.73-6.4 6.19-2.69 1.47-5.7 2.2-9.04 2.2Zm0-7.04c1.71 0 3.28-.39 4.7-1.18s2.56-1.96 3.42-3.52 1.29-3.51 1.29-5.86-.43-4.3-1.29-5.86-2-2.73-3.42-3.52-2.99-1.18-4.7-1.18-3.23.4-4.67 1.18c-1.44.79-2.6 1.96-3.45 3.52-.86 1.56-1.29 3.51-1.29 5.86s.43 4.3 1.29 5.86 2 2.73 3.42 3.52 2.99 1.18 4.7 1.18m44.48 7.04c-4.74 0-8.82-1.03-12.25-3.08s-6.06-4.92-7.89-8.6-2.74-7.93-2.74-12.76.91-9.15 2.74-12.83 4.46-6.56 7.89-8.63c3.43-2.08 7.51-3.11 12.25-3.11 5.64 0 10.26 1.39 13.84 4.16 3.59 2.78 5.83 6.69 6.74 11.75h-8.94c-.59-2.71-1.87-4.82-3.86-6.33s-4.6-2.27-7.85-2.27c-3.02 0-5.62.69-7.78 2.06-2.17 1.38-3.84 3.36-5.01 5.96s-1.76 5.68-1.76 9.24.59 6.62 1.76 9.17 2.84 4.52 5.01 5.92 4.76 2.1 7.78 2.1c3.25 0 5.86-.73 7.82-2.2s3.26-3.53 3.89-6.19h9c-.95 4.92-3.22 8.76-6.8 11.51-3.59 2.75-8.2 4.13-13.84 4.13m25.79-.82V86.49h8.12v5.14c.86-1.67 1.96-2.99 3.32-3.96 1.35-.97 2.91-1.46 4.67-1.46h4.54v7.24h-5.35c-1.58 0-2.9.42-3.96 1.25-1.06.84-1.86 2.12-2.4 3.86s-.81 3.92-.81 6.53v14.96h-8.12Zm38.31.82c-3.38 0-6.37-.73-8.97-2.2s-4.63-3.51-6.09-6.13c-1.47-2.62-2.2-5.64-2.2-9.07s.72-6.55 2.17-9.24q2.16-4.02 6.09-6.3c2.62-1.51 5.64-2.27 9.07-2.27s6.19.72 8.7 2.17c2.5 1.44 4.44 3.4 5.82 5.86s2.06 5.22 2.06 8.29v1.49c0 .54-.05 1.13-.14 1.76h-27.89v-5.28h19.83c-.14-2.35-.99-4.21-2.57-5.58q-2.37-2.07-5.82-2.07c-1.67 0-3.22.37-4.64 1.12-1.42.74-2.56 1.85-3.42 3.32q-1.29 2.205-1.29 5.58v1.96c0 2.08.42 3.86 1.25 5.35s1.95 2.62 3.35 3.38c1.4.77 2.96 1.15 4.67 1.15 1.85 0 3.41-.42 4.67-1.25a7.35 7.35 0 0 0 2.78-3.35h8.26c-.59 2.17-1.61 4.1-3.08 5.79s-3.26 3.04-5.38 4.03-4.54 1.49-7.24 1.49Zm33.65 0c-4.33 0-7.92-1.02-10.76-3.05s-4.47-4.83-4.87-8.39h8.33c.32 1.58 1.16 2.83 2.54 3.76s3.06 1.39 5.04 1.39 3.6-.39 4.7-1.18c1.11-.79 1.66-1.77 1.66-2.94 0-.95-.37-1.68-1.12-2.2-.74-.52-2.07-.91-3.96-1.18-.72-.14-1.61-.28-2.67-.44a35 35 0 0 1-2.74-.51c-1.76-.32-3.41-.87-4.94-1.66-1.54-.79-2.77-1.86-3.69-3.22-.93-1.35-1.39-3.02-1.39-5.01 0-2.98 1.12-5.48 3.35-7.51s5.43-3.05 9.58-3.05 7.47.91 9.95 2.74 3.9 4.5 4.26 8.02h-7.92c-.14-1.49-.8-2.59-2-3.32-1.2-.72-2.63-1.08-4.3-1.08-1.81 0-3.2.35-4.2 1.05-.99.7-1.49 1.57-1.49 2.61 0 1.85 1.56 3.05 4.67 3.59.45.09 1.03.19 1.73.3s1.41.23 2.13.34q1.08.165 1.83.3 1.83.21 3.69.81c1.24.41 2.38.96 3.42 1.66s1.86 1.61 2.47 2.74.91 2.55.91 4.26c0 2.21-.55 4.15-1.66 5.82s-2.72 2.98-4.84 3.93-4.69 1.42-7.72 1.42Zm31.61-.82c-2.17 0-3.99-.26-5.48-.78s-2.62-1.5-3.38-2.94c-.77-1.44-1.15-3.54-1.15-6.3V93.33h-5.75v-6.84h5.75v-8.8h8.12v8.8h8.8v6.84h-8.8v15.64c0 1.22.12 2.12.37 2.71s.69.98 1.32 1.18 1.56.3 2.78.3h3.99v6.9h-6.57Z" class="cls-1"/></svg>