<svg xmlns="http://www.w3.org/2000/svg" id="Layer_2" data-name="Layer 2" viewBox="0 0 512 205"><defs><clipPath id="clippath"><path d="M0 0h512v205H0z" style="fill:none"/></clipPath><style>.cls-1{fill:#fff}</style></defs><g style="clip-path:url(#clippath)"><path d="M172.58 88.04c-.36.24-.72.49-1.06.74.4-1.12.63-1.98.74-2.41.05-.2.07-.29.07-.29.88-4.96.22-10.14-2.25-14.96-2.07-4.02-5.15-7.54-8.85-10.02-2.37-1.59-5.18-2.99-7.99-3.51-6.31-1.16-12.49 1.25-18.83.68-.55-.05-1.1-.11-1.64-.19-7.85-1.12-15.2-5.85-20.38-11.76.57 2.58 1.81 7.09 2.34 8.56 1.03 2.89 2.34 5.72 4.04 8.27.24.36.49.72.74 1.06-1.12-.4-1.98-.63-2.39-.74-.2-.05-.29-.07-.29-.07h-.01c-4.96-.88-10.13-.22-14.95 2.24-4.02 2.07-7.54 5.15-10.02 8.86-1.59 2.37-2.99 5.18-3.51 7.99-1.17 6.31 1.25 12.49.68 18.83-.05.55-.11 1.1-.19 1.64-1.12 7.85-5.86 15.2-11.76 20.38 2.58-.57 7.09-1.81 8.55-2.34 2.89-1.03 5.72-2.34 8.27-4.04.35-.24.72-.48 1.06-.74-.39 1.12-.63 1.98-.73 2.39-.05.2-.06.29-.06.29-.89 4.97-.22 10.14 2.24 14.96 2.07 4.02 5.14 7.54 8.86 10.02 2.37 1.59 5.17 2.99 7.99 3.51 6.31 1.17 12.48-1.25 18.83-.68.54.05 1.1.11 1.64.19 7.85 1.12 15.19 5.86 20.38 11.76-.57-2.58-1.81-7.09-2.34-8.55-1.03-2.89-2.34-5.72-4.04-8.27-.24-.35-.48-.71-.74-1.05 1.12.38 1.97.62 2.39.73.2.05.3.06.3.06h.01c4.95.89 10.13.22 14.95-2.24 4.02-2.07 7.54-5.14 10.02-8.86 1.59-2.37 2.99-5.17 3.51-7.99 1.16-6.31-1.25-12.48-.68-18.83.05-.54.11-1.1.19-1.63 1.13-7.86 5.86-15.2 11.76-20.39-2.58.57-7.09 1.81-8.56 2.34-2.89 1.03-5.72 2.34-8.27 4.05Zm-10.24 23.68c.73 3.09 2.43 5.91 2.62 9.14.15 2.43-.64 4.86-2 6.9a15.3 15.3 0 0 1-5.95 5.3c-.03.02-.05.02-.07.04-.19.1-.4.19-.6.28-.11.06-.23.11-.34.15-.05.03-.11.05-.15.06-4.97 2-11.26 1.13-15.87-.02-.03-.01-.05-.02-.07-.02-.8-.2-1.55-.42-2.23-.62-1.16-.35-2.28-.79-3.43-1.18-1.17-.39-2.33-.67-3.55-.79-1.13-.11-2.27-.12-3.41-.01-1.11.11-2.21.32-3.28.67-3.02.97-5.92 2.43-9.14 2.61-2.43.15-4.86-.64-6.9-1.99-2.38-1.56-4.12-3.62-5.3-5.96-.02-.03-.02-.04-.04-.07-.1-.19-.19-.39-.28-.6-.06-.11-.11-.23-.15-.34-.03-.04-.04-.1-.06-.15-2-4.98-1.12-11.26.02-15.86.01-.04.02-.06.02-.08.2-.79.42-1.54.61-2.2.63-2.07 1.39-3.93 1.39-3.94.01-.03.01-.05.02-.06.01-.02.02-.03.02-.03 0 .01-.02.01-.03.02.06-.25 1.74-4.42-.08-9.67-1.03-2.99-2.43-5.91-2.62-9.13-.15-2.44.65-4.87 1.99-6.91 1.57-2.37 3.63-4.12 5.97-5.3.03-.02.04-.02.07-.04q.285-.15.6-.27c.11-.06.23-.11.34-.15.04-.03.1-.04.15-.06 4.97-1.99 11.26-1.12 15.86.02.04.02.06.02.08.03.81.2 1.56.42 2.24.62 2.03.63 3.87 1.37 3.9 1.37.02.01 4.96 1.51 9.74-.06 3.01-.99 5.92-2.43 9.13-2.61 2.44-.15 4.87.64 6.91 1.99 2.37 1.57 4.12 3.61 5.3 5.96.02.03.02.05.04.07.1.19.19.4.27.6.06.11.11.23.15.34.03.05.04.1.06.15 1.99 4.97 1.12 11.26-.02 15.87-.02.03-.02.05-.03.07-.2.82-.39 1.59-.63 2.27-1.12 3.21-2.37 9.1-1.31 13.62Z" class="cls-1"/><path d="M135.46 114.75c-2.04-2.31-4.42-4.29-6.96-6.04-.72-.49-2.31-1.46-3.98-2.42-1-.57-2.1.51-1.57 1.53 2.83 5.37 4.49 11.54 4.14 17.56-.04.65.45 1.19 1.1 1.22 1.96.1 3.92.39 5.85.9 2.09.54 4.1 1.32 6 2.31.8.42 1.76-.22 1.66-1.12-.58-5.17-2.76-9.98-6.24-13.92Zm3.98-7.51c-.49.72-1.45 2.31-2.42 3.98-.57 1 .51 2.1 1.53 1.57 5.73-3.01 12.35-4.7 18.74-4.04.02-2.36.32-4.72.93-7.04.71-2.77 1.85-5.39 3.32-7.81-5.98.15-11.57 2.43-16.06 6.39-2.31 2.04-4.29 4.42-6.04 6.96Zm-1.47-10.94c.72.49 2.31 1.45 3.98 2.42 1 .57 2.1-.51 1.57-1.53-3.01-5.73-4.7-12.35-4.04-18.74-2.36-.02-4.72-.32-7.04-.93-2.77-.71-5.39-1.85-7.81-3.32.15 5.98 2.43 11.57 6.39 16.06 2.04 2.31 4.42 4.29 6.96 6.04Zm-8.52-2.51c.57-1-.51-2.1-1.53-1.57-5.73 3.01-12.35 4.7-18.74 4.04-.02 2.36-.32 4.72-.93 7.04-.71 2.77-1.85 5.39-3.32 7.81 5.98-.15 11.57-2.43 16.06-6.39 2.31-2.04 4.29-4.42 6.04-6.96.49-.72 1.45-2.31 2.42-3.98Z" class="cls-1"/><path d="M135.46 114.75c-2.04-2.31-4.42-4.29-6.96-6.04-.72-.49-2.31-1.46-3.98-2.42-1-.57-2.1.51-1.57 1.53 2.83 5.37 4.49 11.54 4.14 17.56-.04.65.45 1.19 1.1 1.22 1.96.1 3.92.39 5.85.9 2.09.54 4.1 1.32 6 2.31.8.42 1.76-.22 1.66-1.12-.58-5.17-2.76-9.98-6.24-13.92Zm3.98-7.51c-.49.72-1.45 2.31-2.42 3.98-.57 1 .51 2.1 1.53 1.57 5.73-3.01 12.35-4.7 18.74-4.04.02-2.36.32-4.72.93-7.04.71-2.77 1.85-5.39 3.32-7.81-5.98.15-11.57 2.43-16.06 6.39-2.31 2.04-4.29 4.42-6.04 6.96Zm-1.47-10.94c.72.49 2.31 1.45 3.98 2.42 1 .57 2.1-.51 1.57-1.53-3.01-5.73-4.7-12.35-4.04-18.74-2.36-.02-4.72-.32-7.04-.93-2.77-.71-5.39-1.85-7.81-3.32.15 5.98 2.43 11.57 6.39 16.06 2.04 2.31 4.42 4.29 6.96 6.04Zm-8.52-2.51c.57-1-.51-2.1-1.53-1.57-5.73 3.01-12.35 4.7-18.74 4.04-.02 2.36-.32 4.72-.93 7.04-.71 2.77-1.85 5.39-3.32 7.81 5.98-.15 11.57-2.43 16.06-6.39 2.31-2.04 4.29-4.42 6.04-6.96.49-.72 1.45-2.31 2.42-3.98Zm105.72 13.83c2.44-1.18 4.29-2.85 5.54-5.02s1.88-4.72 1.88-7.66-.62-5.52-1.86-7.74c-1.24-2.23-3.07-3.96-5.49-5.2q-3.63-1.86-8.94-1.86h-17.28v46.22h8.29v-16.97h8.63l9.09 16.97h9.28l-10.01-18.35c.3-.12.6-.25.89-.39Zm-17.86-20.54h7.72q3.165 0 5.16.93c1.33.62 2.32 1.52 2.96 2.68q.96 1.755.96 4.23c0 2.475-.32 2.99-.96 4.13s-1.62 2-2.95 2.59c-1.32.59-3.03.88-5.12.88h-7.78V87.07Zm54.08 8.35a13.9 13.9 0 0 0-5.09-3.16q-2.865-1.02-6.03-1.02-4.965 0-8.64 2.28c-2.45 1.52-4.34 3.63-5.68 6.31-1.33 2.69-2 5.82-2 9.4s.68 6.76 2.03 9.43 3.29 4.73 5.8 6.21c2.51 1.47 5.52 2.2 9.01 2.2 2.58 0 4.89-.39 6.9-1.16 2.02-.78 3.7-1.86 5.04-3.26a11.8 11.8 0 0 0 2.85-4.89l-7.41-1.52c-.35.97-.88 1.79-1.58 2.47-.71.67-1.54 1.18-2.5 1.52q-1.44.51-3.21.51c-1.78 0-3.34-.38-4.68-1.15-1.35-.77-2.39-1.9-3.13-3.41-.53-1.07-.87-2.32-1.02-3.74l-5.02-1.16h29.09v-2.54q0-4.56-1.26-7.86c-.84-2.2-2-4.02-3.48-5.44ZM252 105.79c.11-1.31.42-2.51.93-3.61.65-1.4 1.6-2.51 2.84-3.35q1.86-1.26 4.53-1.26c2.67 0 3.26.42 4.45 1.24 1.19.83 2.08 1.98 2.68 3.46.43 1.06.7 2.23.82 3.52h-16.26Zm48.45 2.92h16.57l-5.99 1.39c-.18 1.57-.62 2.98-1.31 4.23-.94 1.68-2.28 2.97-4 3.88-1.73.91-3.77 1.36-6.13 1.36-2.59 0-4.86-.63-6.83-1.91-1.96-1.27-3.51-3.12-4.62-5.55-1.12-2.43-1.67-5.38-1.67-8.86s.56-6.48 1.67-8.9c1.12-2.42 2.65-4.26 4.61-5.52q2.925-1.89 6.66-1.89c1.41 0 2.69.18 3.86.54 1.17.37 2.21.9 3.13 1.6s1.71 1.54 2.36 2.51 1.16 2.08 1.54 3.32h8.47c-.35-2.25-1.08-4.32-2.19-6.2a17.7 17.7 0 0 0-4.25-4.89c-1.73-1.38-3.69-2.44-5.89-3.18s-4.58-1.12-7.12-1.12c-4.03 0-7.64.95-10.83 2.84s-5.7 4.61-7.56 8.16c-1.85 3.55-2.78 7.81-2.78 12.79s.9 9.06 2.7 12.6 4.3 6.26 7.51 8.19c3.21 1.92 6.94 2.88 11.2 2.88 3.8 0 7.18-.78 10.13-2.33s5.26-3.77 6.95-6.65c1.68-2.89 2.53-6.3 2.53-10.25v-5.55h-18.71v6.52Zm48.47-13.28a13.9 13.9 0 0 0-5.09-3.16q-2.865-1.02-6.03-1.02-4.965 0-8.64 2.28c-2.45 1.52-4.34 3.63-5.68 6.31-1.33 2.69-2 5.82-2 9.4s.68 6.76 2.03 9.43 3.29 4.73 5.8 6.21c2.51 1.47 5.52 2.2 9.01 2.2 2.58 0 4.89-.39 6.9-1.16 2.02-.78 3.7-1.86 5.04-3.26s2.29-3.02 2.85-4.89l-7.41-1.52c-.35.97-.88 1.79-1.58 2.47-.71.67-1.54 1.18-2.5 1.52q-1.44.51-3.21.51c-1.78 0-3.34-.38-4.68-1.15-1.35-.77-2.39-1.9-3.14-3.41-.54-1.09-.88-2.35-1.03-3.8l-4.78-1.11h28.86v-2.54q0-4.56-1.26-7.86c-.84-2.2-2-4.02-3.48-5.44Zm-19.39 10.36c.11-1.31.42-2.51.93-3.61.65-1.4 1.6-2.51 2.84-3.35q1.86-1.26 4.53-1.26c2.67 0 3.26.42 4.45 1.24 1.19.83 2.08 1.98 2.68 3.46.43 1.06.7 2.23.82 3.52h-16.26Zm51.92-13.03c-1.78-1.01-3.86-1.52-6.23-1.52-2.83 0-5.19.75-7.07 2.25-1.51 1.2-2.73 2.89-3.66 5.06l-.1-6.88h-7.63v34.68h8.07v-20.32c0-1.67.32-3.11.96-4.29.64-1.19 1.52-2.09 2.64-2.72 1.12-.62 2.39-.93 3.82-.93 2.11 0 3.76.66 4.96 1.99q1.8 1.98 1.8 5.46v20.81h8.07v-22.06c0-2.79-.49-5.16-1.47-7.1q-1.47-2.91-4.14-4.44Zm10.37-1.09h8.07v34.68h-8.07zm29.53 17.06 13.07-17.05h-8.69l-3.66 5.89a56 56 0 0 0-2.75 5.17c-.25.54-.5 1.08-.77 1.61-.27-.54-.53-1.08-.8-1.63-.81-1.67-1.73-3.39-2.76-5.15l-3.54-5.89h-8.87l12.87 16.89-13.55 17.79h8.72l4.28-6.95c1.03-1.76 1.93-3.46 2.68-5.12q.36-.78.72-1.53c.26.5.51 1.01.77 1.53.82 1.66 1.74 3.36 2.78 5.12l4.28 6.95h8.81z" class="cls-1"/></g></svg>