<svg xmlns="http://www.w3.org/2000/svg" id="Layer_2" data-name="Layer 2" viewBox="0 0 512 205"><defs><clipPath id="clippath"><path d="M0 0h512v205H0z" style="fill:none"/></clipPath><style>.cls-1{fill:#fff}</style></defs><g id="Layer_1-2" data-name="Layer 1" style="clip-path:url(#clippath)"><path d="m208.9 139.51 23.61-31.02-23.08-29.43h14.82l15.67 19.9 15.77-19.9h14.93l-23.18 29.43 23.71 31.02h-14.71l-16.52-21.49-16.3 21.49h-14.71Z" class="cls-1"/><path d="M308.51 119.18h12.6c-.85 2.68-2.08 5.26-3.71 7.73a28.5 28.5 0 0 1-5.88 6.51c-2.29 1.87-4.89 3.35-7.78 4.45-2.9 1.1-6 1.64-9.32 1.64-3.95 0-7.66-.79-11.12-2.38s-6.48-3.74-9.05-6.46c-2.58-2.72-4.6-5.91-6.09-9.58-1.48-3.67-2.22-7.62-2.22-11.86s.74-8.08 2.22-11.75 3.51-6.86 6.09-9.58 5.59-4.87 9.05-6.46 7.16-2.38 11.12-2.38c3.39 0 6.79.67 10.22 2.01 3.42 1.34 6.49 3.41 9.21 6.19 2.72 2.79 4.92 6.28 6.62 10.48 1.69 4.2 2.54 9.16 2.54 14.87h-45.1c.49 2.4 1.25 4.54 2.28 6.41 1.02 1.87 2.28 3.46 3.76 4.76 1.48 1.31 3.12 2.31 4.92 3.02s3.65 1.06 5.56 1.06c1.27 0 2.56-.18 3.86-.53s2.56-.88 3.76-1.59 2.35-1.59 3.44-2.65 2.1-2.36 3.02-3.92Zm-30.06-15.66h31.87c-.71-2.19-1.64-4.08-2.81-5.66-1.16-1.59-2.47-2.91-3.92-3.97s-2.96-1.85-4.55-2.38-3.12-.79-4.6-.79-3.12.27-4.71.79c-1.59.53-3.11 1.32-4.55 2.38-1.45 1.06-2.77 2.38-3.97 3.97s-2.12 3.48-2.75 5.66Zm49.86 35.99v-37.37c0-3.11.55-6.05 1.64-8.84s2.63-5.24 4.61-7.36c1.97-2.12 4.39-3.79 7.25-5.03 2.86-1.23 6.05-1.85 9.58-1.85h11.43v11.65h-11.43q-2.76 0-4.92.9c-1.45.6-2.65 1.41-3.6 2.44-.95 1.02-1.68 2.24-2.17 3.65-.5 1.41-.74 2.89-.74 4.45v37.37h-11.65Zm39.91-66.17V61.69h11.65v11.65zm0 66.17V79.06h11.65v60.45zm64.37 0v-6.14c-1.13.99-2.35 1.85-3.65 2.59-1.31.74-2.67 1.38-4.08 1.91s-2.86.94-4.34 1.22-3 .42-4.55.42c-3.95 0-7.66-.79-11.12-2.38a28.6 28.6 0 0 1-9.05-6.51c-2.58-2.75-4.6-5.96-6.09-9.63-1.48-3.67-2.22-7.59-2.22-11.75s.74-8.08 2.22-11.75 3.51-6.86 6.09-9.58 5.59-4.87 9.05-6.46 7.16-2.38 11.12-2.38c1.62 0 3.18.12 4.66.37s2.91.64 4.29 1.16c1.38.53 2.68 1.18 3.92 1.96 1.23.78 2.49 1.66 3.76 2.65v-6.14h11.75v60.45H432.6Zm-16.63-11.65c2.4 0 4.61-.51 6.62-1.53s3.77-2.4 5.29-4.13 2.68-3.71 3.49-5.93 1.22-4.57 1.22-7.04-.42-4.73-1.27-6.99-2.01-4.23-3.49-5.93a17.5 17.5 0 0 0-5.24-4.08c-2.01-1.02-4.22-1.53-6.62-1.53s-4.62.51-6.67 1.53a17.7 17.7 0 0 0-5.35 4.08c-1.52 1.69-2.7 3.67-3.55 5.93s-1.27 4.59-1.27 6.99.42 4.84 1.27 7.09c.85 2.26 2.03 4.24 3.55 5.93a18 18 0 0 0 5.35 4.08c2.05 1.02 4.27 1.53 6.67 1.53m-301.5-16.76c-2.95-2.08-6.71 1.18-5.09 4.4 19.49 38.63 56.23 44.65 71.73 45.4 2.88.14 4.64-3.1 2.95-5.44-4.45-6.15-10.97-16.56-16.67-31.5-.63-1.64-2.4-2.52-4.09-2.07-23.68 6.27-43.08-6.73-48.83-10.78Z" class="cls-1"/><path d="M117.59 90.77c2.08-2.95-1.18-6.71-4.4-5.09-38.63 19.49-44.65 56.23-45.4 71.73-.14 2.88 3.1 4.64 5.44 2.95 6.15-4.45 16.56-10.97 31.5-16.67 1.64-.63 2.52-2.4 2.07-4.09-6.27-23.68 6.73-43.08 10.78-48.83Z" class="cls-1"/><path d="M137.92 93.9c2.95 2.08 6.71-1.18 5.09-4.4-19.49-38.63-56.23-44.65-71.73-45.4-2.88-.14-4.64 3.1-2.95 5.44C72.78 55.69 79.3 66.1 85 81.04c.63 1.64 2.4 2.52 4.09 2.07 23.68-6.27 43.08 6.73 48.83 10.78Z" class="cls-1"/><path d="M134.79 114.23c-2.08 2.95 1.18 6.71 4.4 5.09 38.63-19.49 44.65-56.23 45.4-71.73.14-2.88-3.1-4.64-5.44-2.95-6.15 4.45-16.56 10.97-31.5 16.67-1.64.63-2.52 2.4-2.07 4.09 6.27 23.68-6.73 43.08-10.78 48.83Z" class="cls-1"/></g></svg>