<svg xmlns="http://www.w3.org/2000/svg" id="Layer_2" data-name="Layer 2" viewBox="0 0 512 205"><defs><clipPath id="clippath"><path d="M0 0h512v205H0z" style="fill:none"/></clipPath><style>.cls-1{fill:#fff}</style></defs><g id="Layer_1-2" data-name="Layer 1" style="clip-path:url(#clippath)"><path d="M276.12 101.77c0 1.41.05 3.13.14 5.15s.21 4.14.34 6.35c.05.93.11 1.84.17 2.72a66 66 0 0 0-1.34-3.08c-.91-1.95-1.79-3.73-2.66-5.33s-1.73-3.08-2.58-4.45l-16.62-26.6h-11.99v52.56h11.01v-24.16c0-1.2-.04-2.75-.12-4.64s-.19-4-.34-6.33c-.08-1.34-.16-2.73-.24-4.15.77 1.56 1.47 2.98 2.1 4.23 1.02 2.06 2 3.94 2.95 5.64.94 1.71 1.96 3.46 3.07 5.27l15.1 24.13h12.03V76.52h-11.01v25.22Zm45.32-10.04c-2.88-1.7-6.31-2.56-10.28-2.56s-7.37.85-10.27 2.56c-2.89 1.71-5.12 4.08-6.68 7.13s-2.35 6.61-2.35 10.71.78 7.59 2.35 10.64c1.56 3.05 3.79 5.42 6.68 7.13s6.31 2.56 10.27 2.56 7.4-.85 10.28-2.56c2.88-1.7 5.1-4.08 6.67-7.13 1.56-3.05 2.35-6.59 2.35-10.64s-.78-7.66-2.35-10.71c-1.56-3.05-3.79-5.42-6.67-7.13m-2.7 23.95c-.64 1.82-1.59 3.26-2.86 4.3-1.27 1.05-2.85 1.57-4.73 1.57s-3.45-.52-4.71-1.57-2.21-2.48-2.84-4.3c-.64-1.82-.95-3.87-.95-6.16s.32-4.4.95-6.21 1.58-3.23 2.84-4.27c1.26-1.03 2.83-1.55 4.71-1.55s3.46.52 4.73 1.55c1.27 1.04 2.22 2.46 2.86 4.27.63 1.81.95 3.88.95 6.21s-.32 4.33-.95 6.16m38.21-9.4-7.09-1.41q-2.79-.57-3.93-1.59c-.76-.68-1.15-1.52-1.15-2.5 0-1.22.59-2.2 1.76-2.93 1.18-.73 2.63-1.09 4.37-1.09 1.93 0 3.46.43 4.6 1.29q1.71 1.29 2.31 3.3l9.38-1.66c-.47-2.14-1.41-4-2.82-5.57-1.41-1.58-3.26-2.79-5.54-3.65s-4.97-1.29-8.08-1.29c-3.34 0-6.24.49-8.71 1.48s-4.4 2.39-5.79 4.22c-1.39 1.82-2.08 4-2.08 6.54 0 2.94.94 5.34 2.82 7.21s4.73 3.19 8.54 3.97l6.81 1.41c1.72.35 2.99.86 3.83 1.52.83.66 1.25 1.51 1.25 2.54 0 1.18-.58 2.15-1.75 2.91-1.16.76-2.76 1.15-4.78 1.15q-3.24 0-5.19-1.38c-1.29-.92-2.2-2.29-2.72-4.13l-9.84 1.69c.45 2.45 1.45 4.53 3 6.26s3.55 3.05 6 3.95c2.45.91 5.26 1.36 8.43 1.36q5.19 0 9.15-1.62c2.65-1.08 4.72-2.59 6.23-4.53 1.5-1.94 2.26-4.2 2.26-6.79 0-2.82-.93-5.11-2.79-6.86s-4.69-3.02-8.5-3.79Zm33.05 14.8c-.73.11-1.29.16-1.69.16-1.29 0-2.22-.3-2.77-.9s-.83-1.52-.83-2.77V97.74h7.37v-8.08h-7.37v-9.38h-10.58v9.38h-5.43v8.08h5.43v20.74c0 3.6 1.05 6.36 3.14 8.29s5.12 2.89 9.07 2.89q1.59 0 3.33-.21c1.16-.14 2.33-.39 3.51-.74l-1.52-7.94c-.38.09-.93.19-1.66.3Zm11.36-47.43c-1.6 0-2.96.53-4.09 1.59s-1.69 2.34-1.69 3.85.56 2.79 1.69 3.85 2.49 1.59 4.09 1.59 2.97-.53 4.11-1.59 1.71-2.34 1.71-3.85-.57-2.79-1.71-3.85q-1.71-1.59-4.11-1.59m-5.29 16.02h10.58v39.44h-10.58zM435.94 109l12.17-19.34h-11.22l-3.7 6.21a66 66 0 0 0-3.1 6.07c-.25.56-.51 1.09-.76 1.64-.26-.55-.52-1.1-.77-1.66-.91-1.99-1.92-4-3.05-6.05l-3.56-6.21h-11.43l11.91 19.2-12.68 20.24h11.22l4.37-7.41a74 74 0 0 0 3.02-6.03c.24-.54.48-1.06.72-1.59.25.53.51 1.05.76 1.59q1.395 3 3.12 6.03l4.37 7.41h11.36L435.95 109ZM162.53 90.51a3.06 3.06 0 0 1-3.06 3.06c-.14 0-.27 0-.41-.03a1.8 1.8 0 0 1-.9-.39c-.39-.31-.79-.61-1.2-.89a26.15 26.15 0 0 0-13.58-4.69c-15.06-.82-27.65 11.37-27.65 26.45v26.94c0 1.49-1.21 2.7-2.7 2.7H100.5c-1.23 0-2.33-.83-2.62-2.03-.91-3.77-4.31-6.57-8.36-6.57s-7.45 2.8-8.36 6.57c-.29 1.2-1.38 2.03-2.62 2.03H66.01c-1.49 0-2.7-1.21-2.7-2.7v-26.89c0-28.93 23.67-52.85 52.6-52.75 19.63.07 36.71 10.93 45.63 26.95.26.47.52.94.77 1.42.13.25.2.52.2.8Z" class="cls-1"/><path d="M122.35 114.49a3.06 3.06 0 0 1 3.06-3.06c.14 0 .27 0 .41.03.33.04.64.18.9.39.39.31.79.61 1.2.89 3.89 2.72 8.54 4.41 13.58 4.69 15.06.82 27.65-11.37 27.65-26.45V64.04c0-1.49 1.21-2.7 2.7-2.7h12.53c1.23 0 2.33.83 2.62 2.03.91 3.77 4.31 6.57 8.36 6.57s7.45-2.8 8.36-6.57c.29-1.2 1.38-2.03 2.62-2.03h12.53c1.49 0 2.7 1.21 2.7 2.7v26.89c0 28.93-23.67 52.85-52.6 52.75-19.63-.07-36.71-10.93-45.63-26.95-.26-.47-.52-.94-.77-1.42-.13-.25-.2-.52-.2-.8Z" class="cls-1"/></g></svg>