<svg xmlns="http://www.w3.org/2000/svg" data-name="Layer 2" viewBox="0 0 512 205"><defs><clipPath id="a"><path d="M0 0h512v205H0z" style="fill:none"/></clipPath></defs><g style="clip-path:url(#a)"><path d="M124.55 74.35c.35-1.05-.82-1.95-1.75-1.34l-35 26.85c-6.15 4.88-8.54 9.54-8.54 15.96v13.07c0 6.18 5.01 11.19 11.19 11.19h31.25c4.55 0 8.46-2.71 10.21-6.61.64-1.42.9-2.99.9-4.55v-14.81c0-1.52-1.23-2.75-2.75-2.75h-7.78c-2.05 0-4.05.69-5.66 1.96l-23.75 18.71c-.91.72-2.21-.18-1.85-1.29l6.1-18.72a9.14 9.14 0 0 1 8.7-6.32h29.78c.7.18 1.31.56 1.8 1.06.68.7 1.09 1.65 1.09 2.71v19.43c0 .85-.07 1.68-.19 2.5-1.21 8.09-8.18 14.29-16.61 14.29H90.44c-9.28 0-16.8-7.52-16.8-16.79V76.12c0-9.28 7.52-16.79 16.8-16.79h31.25c9.28 0 16.79 7.52 16.79 16.8v17.68c0 1.55-.63 2.96-1.64 3.97a5.58 5.58 0 0 1-3.97 1.64h-12.99c-1.86 0-3.17-1.82-2.57-3.58l3.17-9.44 4.05-12.03Zm77.04 53.84h-6.58c-.37-1.25-.61-3.27-.73-5.82-2.53 3.69-7.12 6.6-15.16 6.6-14.52 0-22.47-10.9-22.47-25.14s8.54-26.19 24.05-26.19c12.44 0 19.8 6.86 21.13 15.46h-8.84c-1.35-4.35-4.66-8.4-12.43-8.4-10.9 0-14.74 8.82-14.74 18.72s4.07 18.39 14.65 18.39 12.49-6.75 12.49-13.21v-.53h-12.53v-7.33h21.16v27.44Zm7.02 0V75.54h8.44v52.65zm48.96-18.47c0 10.88-6.45 19.35-18.05 19.35s-17.7-8.22-17.7-19.19 6.62-19.36 18.15-19.36c10.75 0 17.6 7.81 17.6 19.21Zm-27.14.07c0 7.47 3.53 12.52 9.34 12.52s9.18-4.9 9.18-12.47-3.29-12.57-9.32-12.57-9.19 4.55-9.19 12.52Zm36.83-18.41c4.02 16.21 6.15 25.06 6.82 29.24h.11c.73-3.8 2.49-11.04 7.42-29.24h8c5.01 19.46 6.48 25.1 7.04 28.73h.07c.82-3.85 2.14-9.47 7.14-28.73h8.42l-11.19 36.81h-9.07c-3.34-13.65-5.95-23.35-6.79-27.79h-.07c-.65 4.29-3.29 14.02-7 27.79h-9.21l-10.62-36.81h8.92Zm63.09 36.81L311.7 78.03h6.08l9.36 25.58c2.78 7.63 5.5 15.18 6.59 19.51h.14c1.04-3.86 4.08-11.85 6.8-19.17l9.75-25.92h5.88l-19.29 50.16h-6.65Zm56.11-18.18c0 10.27-5.87 19.06-16.97 19.06-10.28 0-16.54-8.11-16.54-18.96s6.08-19.02 16.92-19.02c10.06 0 16.58 7.66 16.58 18.92Zm-27.98.07c0 8.12 4.24 14.4 11.28 14.4s11.17-5.89 11.17-14.38-3.99-14.42-11.32-14.42-11.13 6.03-11.13 14.4m33.59 18.11v-52.9h5.33v52.9zm9.15-36.23h6.5V80.98h5.33v10.98h8.32v4.5h-8.32v21.99c0 3.76.88 5.75 4.28 5.75.96 0 2.35-.06 3.4-.35v4.17c-1.44.55-3.42.66-5.09.66-5.4 0-7.92-2.74-7.92-8.75V96.46h-6.5zm37.13-11.88c0 3.37-2.64 6.01-6.08 6.01s-6.12-2.64-6.12-6.01 2.71-5.93 6.12-5.93 6.08 2.64 6.08 5.93m-10.67 0c0 2.64 1.95 4.74 4.63 4.74s4.52-2.1 4.52-4.7-1.92-4.78-4.56-4.78-4.6 2.13-4.6 4.74Zm3.65 3.11h-1.37v-5.93c.54-.11 1.3-.18 2.28-.18 1.12 0 1.63.18 2.06.43.33.25.58.72.58 1.3 0 .65-.51 1.16-1.23 1.37v.07c.58.22.91.65 1.09 1.45.18.9.29 1.27.43 1.48h-1.48c-.18-.22-.29-.76-.47-1.45-.11-.65-.47-.94-1.23-.94h-.65v2.39Zm.04-3.37h.65c.76 0 1.38-.25 1.38-.87 0-.54-.4-.9-1.27-.9-.36 0-.62.04-.76.07z" style="fill:#fff"/></g></svg>