<svg xmlns="http://www.w3.org/2000/svg" id="Layer_2" data-name="Layer 2" viewBox="0 0 512 205"><defs><style>.cls-1{fill:#fff}</style></defs><path d="M143.1 114.83c-15.19 11.25-23.25 24.35-25.25 35.2-.03.18-.27 1.42-.27 1.42-.02-.26-.28-1.57-.4-2.16-.01-.06-.03-.13-.04-.19s-.02-.1-.02-.1c-2.31-10.64-10.33-23.27-25.04-34.17-15.78-11.68-23.86-21.66-23.86-21.66 2.39 15.88 11.08 28.66 11.08 28.66 15.67 5.69 21.17 15.37 21.17 15.37-3.19-1.3-9.07-1.2-9.07-1.2 16.98 12.78 26.05 32.95 26.05 32.95l.09 1 .21-1s9.07-20.17 26.05-32.95c0 0-5.88-.09-9.07 1.2 0 0 5.49-9.68 21.17-15.37 0 0 8.69-12.78 11.08-28.66 0 0-8.09 9.98-23.86 21.66Zm-25.77-23.86h.51l1.19-5.63c4.68-19.12 13.59-27.21 13.9-27.48-7.89-5.04-13.6-13.21-15.34-22.77v-.03.02-.02.03c-1.75 9.56-7.45 17.73-15.34 22.77.33.29 10.95 9.93 15.09 33.12Z" class="cls-1"/><path d="M117.55 115.79v.39s.01-.08.04-.21c.02.14.04.21.04.21v-.39c.43-2.13 3.38-13.01 20.7-31.05 9.37-9.77 11.81-16.84 11.82-21.55a34 34 0 0 1-12.04-2.63c.49 2.62.83 9.54-6.43 17.74-8.85 10-13.66 22.74-14.09 23.91-.43-1.17-5.24-13.91-14.09-23.91-7.26-8.2-6.92-15.11-6.43-17.74a34 34 0 0 1-12.04 2.63c.02 4.7 2.45 11.78 11.82 21.55 17.32 18.05 20.27 28.92 20.7 31.05" class="cls-1"/><path d="M91.67 105.55c22.77 20.2 25.42 31.19 25.72 33.09l.03.22v.08-.06l.21.58.09-.59v.06s0-.08.03-.23l.03-.18c.38-2.18 3.32-13.13 25.7-32.98 25.16-22.32 25.73-20.29 26.34-47.73a34.1 34.1 0 0 1-15.11 5.23c.16 3.94-.66 11.88-8.09 20.04-9.45 10.39-25.36 30.17-28.39 42.08v.02c-.29.84-.72 3.36-.72 3.36-.04-.38-.16-1.08-.26-1.67-.04-.23-.08-.47-.13-.71-.04-.2-.06-.32-.06-.32v.03c-2.56-11.82-18.91-32.18-28.56-42.79-7.42-8.16-8.24-16.09-8.09-20.04a34.3 34.3 0 0 1-15.11-5.23c.62 27.44 1.18 25.41 26.34 47.73Z" class="cls-1"/><text style="font-family:HostGrotesk-SemiBold,&quot;Host Grotesk&quot;;font-size:76.28px;font-variation-settings:&quot;wght&quot;600;font-weight:600;fill:#fff" transform="translate(192.44 122.82)"><tspan x="0" y="0">Flareon</tspan></text></svg>