<svg xmlns="http://www.w3.org/2000/svg" id="Layer_2" data-name="Layer 2" viewBox="0 0 512 205"><defs><style>.cls-2{fill:#fff}</style></defs><path d="M125.08 62.3c0 8.93-7.23 16.16-16.15 16.16S92.77 71.23 92.77 62.3s7.23-16.15 16.16-16.15 16.15 7.23 16.15 16.15" class="cls-2"/><path d="M158.5 59.44c-.27.43-.54.86-.83 1.3-1.72 2.69-3.63 5.47-5.4 8.03-4.59 6.65-9.64 13.16-16.28 17.89-5.01 3.57-10.73 6.17-16.75 7.48-3.22.7-6.51 1.05-9.8 1.05-7.95 0-15.84-2.08-22.74-6.03-6.25-3.59-11.18-8.7-15.75-14.19-3.97-4.78-8.18-10.18-10.94-15.88-.24-.49-.46-.97-.67-1.46l7.37-7.37c.18.29.45.74.81 1.32 3.82 6.2 17.5 27.29 29.22 30.72h.03c3.92 1.57 8.19 2.44 12.67 2.44 6.48 0 13-1.85 18.43-5.41 3.52-2.32 6.58-5.28 9.39-8.41 2.88-3.2 5.71-6.49 8.2-10.01.74-1.05 1.46-2.13 2.15-3.21.88-1.39 1.78-2.92 2.61-4.42q.39-.69.75-1.38l7.54 7.54Z" class="cls-2"/><path d="M169.69 72.76c-1.06 1.74-8.23 13.15-20 23.12-12.78 10.82-22.45 13.47-31.55 14.85v18.31l9.9 9.44-19.64 20.38-19.97-20.14 10.14-9.79v-17.79s-19.46-2.59-31.9-15.95c-11.34-12.18-17.31-22.73-18.28-24.5l7.3-7.3C57.41 66.31 72.35 91 89.35 97.71c0 0 20.26 9.33 42.71-2.07 0 0 16.71-8.19 30.15-30.35l7.47 7.47Z" class="cls-2"/><text style="fill:#fff;font-family:HostGrotesk-SemiBold,&quot;Host Grotesk&quot;;font-size:93.93px;font-variation-settings:&quot;wght&quot;600;font-weight:600" transform="translate(188.03 126.94)"><tspan x="0" y="0">Evolan</tspan></text></svg>