<svg xmlns="http://www.w3.org/2000/svg" id="Layer_2" data-name="Layer 2" viewBox="0 0 512 205"><defs><clipPath id="clippath"><path d="M0 0h512v205H0z" style="fill:none"/></clipPath><style>.cls-1{fill:#fff}</style></defs><g style="clip-path:url(#clippath)"><path d="M205.23 76.53c.35-.3 9.35-.28 9.33.35-4.03 8.51-6.38 34.93-12.38 40.58-4.4 4.15-17.92 3.88-21.81-1.29-5.55-7.39-7.46-30.22-11.1-39.72 2.33.35 7.52-.91 8.98.84 2.64 3.16 5.48 25.71 8.52 31.63 1.87 3.65 7.04 3.68 9.7 1.13 2.26-3.94 7.45-32.39 8.77-33.52Zm73.21 19.32c-.68-3.25-5.3-9.15-8.81-9.15H252.1c.77 1.2.6 7.44.86 7.7.6.6 13.08-1.03 16.25 1.28 1.2.94.94 1.62.86 2.99h-14.96c-2.57 0-5.9 4.62-6.33 7.27-2.05 13 5.81 14.62 16.5 14.02 1.62-.09 3.08-1.28 4.53-1.37 1.62-.09 8.89 1.37 9.66.6v-15.82c0-.77-.85-6.5-1.03-7.52m-22.06 14.28c-1.54-5.39 10.77-3.59 13.68-3.76 2.65 7.01-13 5.9-13.68 3.76M408.5 99.1c-.51-4.62-2.31-10-6.84-11.97s-15.73-1.8-20.27.26c-7.95 3.59-7.87 24.28-1.97 29.67 4.62 4.28 18.73 4.28 23.94.43.94 4.28-1.62 9.41-6.41 9.41h-15.82c0 1.63-.6 4.28 1.37 4.96 3.85 1.28 19.33 0 22.49-2.91 4.62-4.28 4.1-23.52 3.51-29.84Zm-8.21 14.88c-3.08 1.71-16.59 1.97-18.64-1.71-2.82-4.79-2.91-19.75 4.36-21.12 3.59-.6 13.08-.94 15.56 2.05 2.82 3.42 3.08 18.21-1.28 20.78m-99.46-14.47c-.04 2.88-.19 11.94 2.05 13.75 3.65 2.95 23.39 1.58 28.7.77v5.98c-6.56-.38-13.59.48-20.11.03-11.62-.8-14.97-1.89-15.81-14.09-.43-6.28-1.27-24.85 4.38-28.16 6.82-4.01 23.55-1.35 31.55-2.21v5.98h-27.77c-2.45 0-3.4 10.75-2.99 12.81h25.63v5.13h-25.63Zm64.06-25.21v14.11c-6.58-4.02-22.23-4.36-26.34 3.08-2.82 5.13-2.91 18.98.68 23.86 4.7 6.33 21.89 6.58 27.02 1.28 1.45-1.54 3.76-7.1 3.76-8.98V73.02c-1.2-.26-5.13 0-5.13 1.28Zm-3.08 39.68c-2.82 1.71-13.17 1.71-16.33.26-5.64-2.56-5.64-21.55 1.28-23.09 3.25-.77 14.19-.85 16.33 2.05 2.74 3.59 2.99 18.04-1.28 20.78m64.22.94c-4.96 0-8.04-5.73-7.27-10.26h27.28c-1.37-10.95.09-17.87-13.17-18.81-15.31-1.2-20.35 4.87-19.15 19.92.51 6.67 2.48 12.23 9.75 13.34 3.59.51 11.8 1.2 15.31.86 4.36-.34 5.39-.51 4.7-5.05h-17.44Zm7.69-24.03c8.47.86 7.78 9.49 5.9 9.49h-20.86c-.68-9.92 7.1-10.18 14.96-9.49M229.07 79.01c1.45.24 8.22-.33 8.55 0 .38.38-.39 7.32 0 7.7.34.34 7.11-.25 8.55 0v7.7h-8.55v14.95c0 2.25 8.22 1.82 8.55 2.13.3.28-.22 6.35 0 7.7-5.19.13-10.94.71-14.55-3.83-.57-.72-2.54-4.63-2.54-5.15V79.03Zm53.82 40.15V73.03c1.6.06 8.54-.59 8.54 1.28v44.42c0 2.13-7.15 1.16-8.54.43M225.66 86.7v32.46c0 .43-7.51 1.06-8.54.85V86.69h8.54Zm-8.33-11.75c5.28-4.56 12.02 3.71 7.13 7.56-5.76 4.53-11.01-4.21-7.13-7.56m-62.8 17.22v26.28h-1.92c-15.26 0-27.6-12.39-27.6-27.6v-1.14c0-.46-.37-.78-.82-.78h-1.1c-15.26 0-27.6-12.39-27.6-27.6v-1.97h26.28c1.78 0 3.24 1.46 3.24 3.29v25.46c0 .46.37.82.82.82h25.46c1.78 0 3.24 1.42 3.24 3.24m-88.57 20.66V86.55h1.92c15.26 0 27.6 12.39 27.6 27.6v1.14c0 .46.37.78.82.78h1.1c15.26 0 27.6 12.39 27.6 27.6v1.97H98.72c-1.78 0-3.24-1.46-3.24-3.29v-25.46c0-.46-.37-.82-.82-.82H69.2c-1.78 0-3.24-1.42-3.24-3.24" class="cls-1"/><circle cx="110.25" cy="102.5" r="9.26" class="cls-1"/></g></svg>