<svg xmlns="http://www.w3.org/2000/svg" id="Layer_2" data-name="Layer 2" viewBox="0 0 512 205"><defs><style>.cls-1{fill:#fff}</style></defs><path d="M89.18 47.02 61.03 75.16l28.15 28.15 28.14-28.15zm0 41.88L75.44 75.16l13.74-13.73 13.73 13.73z" class="cls-1"/><path d="m120.3 112.79 8.92-8.91-8.92-8.92-8.91 8.92 3.08 3.08-10.01 10.01 12.86 12.86-28.14 28.15-28.15-28.15 8.25-8.24 4.14-4.14-9.73-9.74 3.84-3.83-8.92-8.92-8.91 8.92 8.91 8.91.93-.93 6.78 6.78-7.71 7.7-22.46-22.46 22.46-22.47 22.48 22.47-3.25 3.24L88 117.28l-12.56 12.55 13.74 13.74 13.73-13.74-12.34-12.34 10.44-10.43-3.18-3.18 22.47-22.47 22.47 22.47-22.47 22.46-8.46-8.46 6.78-6.77zm44.48 6.05V74.92h7.53v43.92zm6.39-19.32v-6.15h22.78v6.15zm21.4 19.32V74.92h7.53v43.92zm28.61.76q-4.71 0-8.31-2.04c-2.41-1.36-4.29-3.25-5.65-5.68s-2.04-5.23-2.04-8.41.67-6.08 2.01-8.56c1.34-2.49 3.22-4.43 5.65-5.84 2.43-1.4 5.23-2.1 8.41-2.1s5.74.67 8.06 2.01q3.48 2.01 5.4 5.43c1.28 2.28 1.91 4.84 1.91 7.69v1.38c0 .5-.04 1.05-.13 1.63h-25.85v-4.89h18.38c-.13-2.17-.92-3.9-2.38-5.18s-3.26-1.91-5.4-1.91c-1.55 0-2.98.35-4.3 1.04s-2.37 1.72-3.17 3.07c-.79 1.36-1.19 3.09-1.19 5.18v1.82c0 1.92.39 3.58 1.16 4.96s1.81 2.43 3.11 3.14 2.74 1.07 4.33 1.07c1.71 0 3.16-.39 4.33-1.16a6.75 6.75 0 0 0 2.57-3.11h7.65c-.54 2.01-1.5 3.8-2.85 5.36-1.36 1.57-3.02 2.81-4.99 3.73s-4.2 1.38-6.71 1.38Zm16.75-.76 11.23-15.56-11.23-15.56h8.09l8.09 11.36 7.97-11.36h8.09l-11.23 15.56 11.23 15.56h-8.09l-7.97-11.36-8.09 11.36zm45.49.76q-3.57 0-6.09-1.29c-1.67-.86-2.95-2-3.83-3.42a8.65 8.65 0 0 1-1.32-4.64c0-3.26 1.18-5.79 3.55-7.59 2.36-1.8 5.47-2.7 9.32-2.7 1.76 0 3.31.14 4.67.41s2.46.53 3.29.78v-1.44c0-2.3-.64-3.99-1.91-5.08-1.28-1.09-2.94-1.63-4.99-1.63-1.51 0-2.84.3-4.02.91-1.17.61-1.92 1.7-2.26 3.29h-7.15c.25-2.26 1-4.14 2.26-5.65s2.85-2.64 4.8-3.42c1.95-.77 4.07-1.16 6.37-1.16 4.56 0 8.1 1.12 10.63 3.36s3.8 5.36 3.8 9.38v7.59c0 1.59.09 2.75.28 3.48s.5 1.19.94 1.38 1.01.28 1.73.28h.31v6.4h-1.69c-2.13 0-3.92-.3-5.36-.91s-2.46-1.81-3.04-3.61c-1.05 1.51-2.43 2.76-4.14 3.76-1.72 1-3.76 1.51-6.15 1.51Zm1.63-5.84c1.46 0 2.72-.35 3.76-1.04 1.05-.69 1.89-1.61 2.54-2.76s1.08-2.42 1.29-3.8c-.88-.25-1.92-.5-3.14-.75a18.3 18.3 0 0 0-3.7-.38c-1.88 0-3.36.42-4.42 1.26-1.07.84-1.6 1.97-1.6 3.39 0 1.17.47 2.14 1.41 2.92.94.77 2.23 1.16 3.86 1.16m44.23 5.84c-4.73 0-8.76-.94-12.11-2.82s-5.9-4.51-7.65-7.87q-2.64-5.055-2.64-11.64c0-6.585.88-8.57 2.64-12.05q2.64-5.205 7.53-8.13c3.26-1.95 7.13-2.92 11.61-2.92 5.14 0 9.4 1.22 12.77 3.67s5.53 5.85 6.49 10.2h-8.47c-.63-2.17-1.86-3.88-3.7-5.11s-4.2-1.85-7.09-1.85-5.46.66-7.59 1.98q-3.195 1.98-4.86 5.58c-1.11 2.41-1.66 5.3-1.66 8.69s.57 6 1.73 8.34c1.15 2.34 2.83 4.13 5.05 5.36s4.87 1.85 7.97 1.85c3.81 0 6.81-1.08 9-3.23 2.2-2.15 3.31-5.18 3.36-9.07h-12.55v-5.77h20.14v3.2c0 4.69-.86 8.64-2.57 11.86-1.72 3.22-4.07 5.65-7.06 7.28s-6.43 2.45-10.32 2.45Zm35.45 0c-3.51 0-6.31-1.2-8.38-3.61-2.07-2.4-3.11-5.93-3.11-10.57V87.73h7.47v16.94c0 2.8.54 4.93 1.63 6.37q1.635 2.16 4.71 2.16c2.3 0 4.11-.82 5.43-2.45s1.98-3.95 1.98-6.96V87.73h7.53v31.12h-7.53v-4.71c-.92 1.72-2.2 3.05-3.83 4.02-1.63.96-3.6 1.44-5.9 1.44m33.26 0q-3.57 0-6.09-1.29c-1.67-.86-2.95-2-3.83-3.42a8.65 8.65 0 0 1-1.32-4.64c0-3.26 1.18-5.79 3.55-7.59 2.36-1.8 5.47-2.7 9.32-2.7 1.76 0 3.31.14 4.67.41s2.46.53 3.29.78v-1.44c0-2.3-.64-3.99-1.91-5.08-1.28-1.09-2.94-1.63-4.99-1.63-1.51 0-2.84.3-4.02.91-1.17.61-1.92 1.7-2.26 3.29h-7.15c.25-2.26 1-4.14 2.26-5.65s2.85-2.64 4.8-3.42c1.95-.77 4.07-1.16 6.37-1.16 4.56 0 8.1 1.12 10.63 3.36s3.8 5.36 3.8 9.38v7.59c0 1.59.09 2.75.28 3.48s.5 1.19.94 1.38 1.01.28 1.73.28h.31v6.4h-1.69c-2.13 0-3.92-.3-5.36-.91s-2.46-1.81-3.04-3.61c-1.05 1.51-2.43 2.76-4.14 3.76-1.72 1-3.76 1.51-6.15 1.51Zm1.63-5.84c1.46 0 2.72-.35 3.76-1.04 1.05-.69 1.89-1.61 2.54-2.76s1.08-2.42 1.29-3.8c-.88-.25-1.92-.5-3.14-.75a18.3 18.3 0 0 0-3.7-.38c-1.88 0-3.36.42-4.42 1.26-1.07.84-1.6 1.97-1.6 3.39 0 1.17.47 2.14 1.41 2.92.94.77 2.23 1.16 3.86 1.16m23.34 5.08V87.72h7.53v4.77c.79-1.55 1.82-2.77 3.07-3.67s2.7-1.35 4.33-1.35h4.2v6.71h-4.96c-1.46 0-2.69.39-3.67 1.16s-1.73 1.97-2.23 3.58-.75 3.63-.75 6.05v13.87h-7.53Zm34.76.76c-2.93 0-5.55-.71-7.87-2.13s-4.14-3.38-5.46-5.87-1.98-5.28-1.98-8.38.66-5.93 1.98-8.38 3.14-4.37 5.46-5.77 4.97-2.1 7.94-2.1c2.38 0 4.48.46 6.27 1.38 1.8.92 3.22 2.2 4.27 3.83V73.67h7.53v45.17h-7.53v-4.58c-.96 1.38-2.3 2.61-4.02 3.7s-3.91 1.63-6.59 1.63Zm1.5-6.59q2.7 0 4.77-1.26a8.95 8.95 0 0 0 3.26-3.45c.79-1.46 1.19-3.14 1.19-5.02s-.4-3.62-1.19-5.08c-.8-1.46-1.88-2.6-3.26-3.42s-2.97-1.22-4.77-1.22-3.33.41-4.71 1.22c-1.38.82-2.47 1.96-3.26 3.42-.8 1.46-1.19 3.14-1.19 5.02s.4 3.62 1.19 5.08a8.95 8.95 0 0 0 3.26 3.45q2.07 1.26 4.71 1.26" class="cls-1"/></svg>