<svg xmlns="http://www.w3.org/2000/svg" data-name="Layer 1" viewBox="0 0 512 205"><defs><clipPath id="a"><path d="M0 0h512v205H0z" style="fill:none"/></clipPath></defs><g style="clip-path:url(#a)"><path d="m43.87 68.1 82.07 50.29c3.49 2.14 3.76 7.12.51 9.62l-19.26 14.84-63.32-74.74Zm.14-1.93L126 81.72c4.4.84 6.27 6.11 3.37 9.53l-13.11 15.43-72.24-40.51Zm-.14-1.37 75.8-2.64c5.04-.18 7.92 5.68 4.71 9.57l-3.15 3.81zM191.7 79.13v6.86h-15.81c-6.22 0-8.08 2.96-8.08 6.63v3.72h23.66v6.51h-23.66v15.52h-6.86V92.68c0-7.85 4.07-13.54 14.47-13.54h16.28Zm8.71-4.77v44h-6.16v-44zm9.83 1.75v7.15h-6.22v-7.15zm-.06 11.57v30.69h-6.16V87.68zm23.95 0c7.32 0 11.28 4.3 11.28 13.14v17.67c0 8.72-3.02 12.15-11.63 12.15h-18.25v-5.93h17.56c4.59 0 6.1-1.8 6.1-6.22v-1.4h-13.54c-8.2 0-13.31-4.82-13.31-14.77s5.12-14.65 13.31-14.65h8.49Zm-7.91 23.83h12.96v-10.75c0-5-1.92-7.15-6.86-7.15h-6.1c-5.29 0-7.67 2.67-7.67 8.95s2.38 8.95 7.67 8.95m28.72-37.15v13.31h10.81c10.35 0 15.46 5 15.46 13.43v17.26h-6.22V101.1c0-4.71-2.85-7.5-9.24-7.5h-10.81v24.76h-6.16v-44zm30.8 13.32v-7.27h6.22v7.27h8.49v5.93h-8.49v14.53c0 3.43 1.22 4.59 4.13 4.59h4.24v5.64h-5.52c-6.34 0-9.07-2.56-9.07-10.58V93.61h-4.19v-5.93zm19.47-8.55 11.74 31.62c.41.99 1.1 1.63 2.15 1.63 1.16 0 2.03-.87 2.03-2.21V86.98c0-5.12 2.91-8.55 8.66-8.55 5.23 0 7.79 2.79 9.3 7.27l9.53 25.05c.35.99 1.16 1.63 2.15 1.63 1.16 0 1.98-.87 1.98-2.21V79.13h6.92v31.33c0 5.17-2.91 8.6-8.72 8.6-5.23 0-7.73-2.79-9.24-7.27l-9.53-25.05c-.35-.99-1.16-1.69-2.21-1.69-1.16 0-1.98.87-1.98 2.27v23.14c0 5.17-2.91 8.6-8.72 8.6-5.23 0-7.73-2.79-9.24-7.27l-12.15-32.67h7.32Zm78.01 8.55c7.67 0 10.7 4.3 10.7 10.11v14.42c0 4.42-1.16 6.16-6.34 6.16h-14.36c-7.27 0-10.29-3.55-10.29-9.36s2.79-8.84 10.35-8.84h14.59v-2.33c0-2.38-1.34-4.24-4.71-4.24h-18.37v-5.93h18.43Zm4.65 23.13v-5.75H373.4c-3.26 0-4.42 1.34-4.42 3.6s1.22 3.72 4.3 3.72h12.9c1.22 0 1.69-.47 1.69-1.57m11.04-23.13 10.23 24.65c.23.64.76.93 1.51.93.81 0 1.34-.29 1.63-.93l10.64-24.65h6.63l-11.86 27.38c-1.28 2.91-3.55 4.01-7.03 4.01s-5.81-1.16-6.98-4.01L392.4 87.68zm49.24 0c7.27 0 10.35 3.49 10.35 9.42s-2.85 8.84-10.41 8.84H433.5v2.21c0 2.44 1.34 4.24 4.71 4.24h18.78v5.99h-18.78c-7.67 0-10.7-4.3-10.7-10.11V97.81c0-5.81 3.02-10.11 10.7-10.11h9.94ZM433.5 101.1h14.42c3.31 0 4.53-1.4 4.53-3.66s-1.34-3.84-4.36-3.84h-9.88c-3.37 0-4.71 1.86-4.71 4.24zm31.35-20.63c2.11 0 3.28 1.19 3.28 3.64s-1.16 3.63-3.28 3.63h-.99c-2.12 0-3.28-1.19-3.28-3.63s1.17-3.64 3.28-3.64zm-.99.71c-1.66 0-2.58.95-2.58 2.93s.93 2.92 2.58 2.92h.99c1.66 0 2.57-.95 2.57-2.92s-.91-2.93-2.57-2.93zm.93.92c.87 0 1.24.53 1.24 1.15 0 .47-.23.99-.82 1.15l.89 1.54h-.74l-.88-1.49h-1c-.05 0-.1.03-.1.1v1.39h-.67v-1.52c0-.44.18-.61.6-.61h1.5c.39 0 .54-.26.54-.54s-.16-.51-.54-.51h-2.11v-.67h2.09Z" style="fill:#fff"/></g></svg>