<svg xmlns="http://www.w3.org/2000/svg" data-name="Layer 2" viewBox="0 0 512 205"><defs><clipPath id="a"><path d="M0 0h512v205H0z" style="fill:none"/></clipPath></defs><g style="clip-path:url(#a)"><path d="M73.37 76.89c-4.71 4.55-7.05 10.49-7.05 16.44s2.34 11.9 7.05 16.43l21.58-20.84c4.69-4.55 7.05-10.49 7.05-16.43s-2.35-11.9-7.05-16.43L73.37 76.88Zm38.6-20.82c-4.71 4.53-7.05 10.48-7.05 16.43s2.34 11.88 7.05 16.43l21.58 20.84c4.69-4.53 7.05-10.48 7.05-16.43s-2.35-11.9-7.05-16.44l-21.58-20.82Zm-38.6 60c-4.71 4.55-7.05 10.5-7.05 16.43s2.34 11.9 7.05 16.43l21.58-20.82c4.69-4.55 7.05-10.49 7.05-16.44s-2.35-11.9-7.05-16.43l-21.58 20.84Zm38.6-20.84c-4.71 4.53-7.05 10.48-7.05 16.43s2.34 11.9 7.05 16.44l21.58 20.82c4.69-4.53 7.05-10.48 7.05-16.43s-2.35-11.88-7.05-16.43l-21.58-20.84Zm66.95-20.62-19.63 55.75h10.78l4.61-13.75h20.96l4.62 13.75h10.78l-19.65-55.75zm-1.52 33.89 7.53-22.46h.44l7.55 22.46h-15.51Zm57.8-20.56c-2.4 0-4.52.66-6.38 1.97-1.86 1.32-3.17 3.18-3.93 5.59h-.44v-6.97h-9.55v41.81h9.85v-24.58q0-2.67 1.23-4.71a8.7 8.7 0 0 1 3.36-3.2c1.42-.77 3.04-1.16 4.83-1.16.83 0 1.7.06 2.6.18s1.56.25 1.97.39V88.2c-.45-.09-1.02-.16-1.7-.2-.68-.05-1.29-.07-1.84-.07Zm28.08 34.55c-.52.09-1.08.14-1.7.14-.82 0-1.56-.13-2.23-.38s-1.21-.73-1.62-1.43-.61-1.71-.61-3.04V96.17h8.25v-7.62h-8.25V78.53h-9.85v10.02h-5.93v7.62h5.93v23.25c-.02 2.61.55 4.79 1.7 6.53s2.72 3.03 4.7 3.85c1.98.83 4.2 1.2 6.67 1.13 1.4-.04 2.58-.16 3.55-.38q1.455-.33 2.25-.6l-1.66-7.7c-.27.07-.67.15-1.18.24Zm19.82-.65 20.52-26.57v-6.73h-32.91v8.17h20.85v.35L270 124.1v6.26h34.33v-8.17H283.1zm55.1-31.15c-2.99-1.8-6.53-2.69-10.62-2.69s-7.62.9-10.62 2.69c-2.99 1.8-5.31 4.32-6.96 7.57-1.64 3.25-2.46 7.03-2.46 11.35s.82 8.09 2.46 11.32 3.96 5.74 6.96 7.54q4.485 2.7 10.62 2.7c6.135 0 7.62-.9 10.62-2.7 2.99-1.8 5.31-4.31 6.96-7.54 1.64-3.23 2.46-7.01 2.46-11.32s-.82-8.1-2.46-11.35-3.96-5.77-6.96-7.57m-1.67 25.81c-.74 2.07-1.85 3.72-3.33 4.94-1.49 1.22-3.34 1.84-5.55 1.84s-4.15-.61-5.65-1.84-2.61-2.87-3.35-4.94-1.1-4.37-1.1-6.91.37-4.88 1.1-6.96c.74-2.08 1.85-3.73 3.35-4.97 1.5-1.23 3.38-1.85 5.65-1.85s4.07.62 5.55 1.85c1.49 1.23 2.6 2.89 3.33 4.97.74 2.08 1.1 4.4 1.1 6.96s-.37 4.85-1.1 6.91m16.35-41.89h9.85v55.75h-9.85zm21.87-2.7c-1.56 0-2.9.52-4.03 1.57-1.13 1.04-1.69 2.3-1.69 3.77s.56 2.73 1.69 3.78 2.47 1.58 4.03 1.58 2.93-.52 4.04-1.56c1.12-1.04 1.67-2.3 1.67-3.77s-.56-2.73-1.67-3.78c-1.12-1.05-2.46-1.58-4.04-1.58Zm-4.95 16.63h9.85v41.81h-9.85zm45.77 2.15c-2.99-1.8-6.53-2.69-10.62-2.69s-7.62.9-10.62 2.69c-2.99 1.8-5.31 4.32-6.96 7.57-1.64 3.25-2.46 7.03-2.46 11.35s.82 8.09 2.46 11.32 3.96 5.74 6.96 7.54 6.53 2.7 10.62 2.7 7.62-.9 10.62-2.7c2.99-1.8 5.31-4.31 6.96-7.54 1.64-3.23 2.46-7.01 2.46-11.32s-.82-8.1-2.46-11.35-3.96-5.77-6.96-7.57m-1.68 25.81c-.74 2.07-1.85 3.72-3.33 4.94-1.49 1.22-3.34 1.84-5.55 1.84s-4.15-.61-5.65-1.84-2.61-2.87-3.35-4.94-1.1-4.37-1.1-6.91.37-4.88 1.1-6.96c.74-2.08 1.85-3.73 3.35-4.97 1.5-1.23 3.38-1.85 5.65-1.85s4.07.62 5.55 1.85c1.49 1.23 2.6 2.89 3.33 4.97.74 2.08 1.1 4.4 1.1 6.96s-.37 4.85-1.1 6.91m31.52-39.81h-1.47l-3.24 7.68-3.22-7.68h-1.74v9.79h1.42v-7.1l3.09 7.1h.9l3.11-7.13v7.13h1.42v-9.79zm-18.93 1.28h2.98v8.51h1.42v-8.51h2.98v-1.28h-7.38z" data-name="Layer 1" style="fill:#fff"/></g></svg>