<svg xmlns="http://www.w3.org/2000/svg" id="Layer_2" data-name="Layer 2" viewBox="0 0 202.36 202.36"><defs><style>.cls-1{fill:#fff}</style></defs><g id="Layer_1-2" data-name="Layer 1"><path d="M0 0h202.36v202.36H0z" style="fill:#7433ff"/><path d="M104.37 89.95H71.13c-1.33 0-2.42 1.08-2.42 2.42v20.53c0 9.42 4.49 18.27 12.1 23.82l26.66 19.48c1.6 1.17 3.84.03 3.84-1.95v-32.16c0-1.33-1.08-2.42-2.42-2.42H86.12c-2.01 0-3.14-2.32-1.9-3.9l20.16-25.81Z" class="cls-1"/><path d="M102.94 112.4h28.29c1.33 0 2.42-1.08 2.42-2.42V89.45c0-9.42-4.49-18.27-12.1-23.82L94.89 46.15c-1.6-1.17-3.84-.03-3.84 1.95v34.58h25.19c2.01 0 3.14 2.32 1.9 3.9l-17.11 21.91c-1.24 1.59-.11 3.9 1.9 3.9Z" class="cls-1"/></g></svg>