<svg xmlns="http://www.w3.org/2000/svg" id="Layer_2" data-name="Layer 2" viewBox="0 0 202.36 202.36"><defs><style>.cls-1{fill:#fff}</style></defs><g id="Layer_1-2" data-name="Layer 1"><path d="M0 0h202.36v202.36H0z" style="fill:#7433ff"/><path d="M111.37 91.95c-.08-.09-.16-.17-.24-.25-.05-.05-.09-.1-.14-.15h-.01a13.74 13.74 0 0 0-6.45-3.72l19.15-19.14-6.31-6.32-25.5 25.5c-4.18 4.19-5.66 10.99-4.08 16.71l.06.22a13.7 13.7 0 0 0 2.44 4.86c.03.04.07.08.1.12.11.13.22.27.33.4l.17.2c.14.16.28.31.43.46.02.02.03.04.05.05 1.75 1.76 3.97 3.05 6.46 3.67L78.69 133.7l6.31 6.32 25.5-25.5c5.79-5.8 6.4-16.55.88-22.56Z" class="cls-1"/><path d="M124.06 91.36c-2.2-2.2-4.64-3.98-7.25-5.37 6.08 11.46 4.29 26.01-5.37 35.66l-22.4 22.4 12.62 12.62 22.4-22.4c11.85-11.85 11.85-31.06 0-42.91M90.92 80.7l22.4-22.4-12.62-12.62-22.4 22.4c-11.85 11.85-11.85 31.06 0 42.91 2.2 2.2 4.64 3.98 7.25 5.37-6.08-11.46-4.29-26.01 5.37-35.66" class="cls-1"/></g></svg>