<svg xmlns="http://www.w3.org/2000/svg" id="Layer_2" data-name="Layer 2" viewBox="0 0 202.36 202.36"><defs><style>.cls-1{fill:#fff}</style></defs><g id="Layer_1-2" data-name="Layer 1"><path d="M0 0h202.36v202.36H0z" style="fill:#7433ff"/><path d="M126.7 165.56c-6.53 0-12.67-2.54-17.28-7.15l-11.39-11.39 6.29-6.29 11.39 11.39c2.93 2.93 6.84 4.55 10.99 4.55s8.06-1.62 10.99-4.55c2.94-2.94 4.55-6.84 4.55-10.99s-1.62-8.06-4.55-10.99l-11.4-11.39 6.28-6.29 11.4 11.39c4.62 4.62 7.16 10.75 7.16 17.28s-2.54 12.66-7.16 17.28c-4.61 4.61-10.75 7.15-17.28 7.15Z" class="cls-1"/><path d="M75.65 165.56c-6.53 0-12.67-2.54-17.28-7.15-4.62-4.61-7.16-10.75-7.16-17.28s2.54-12.66 7.16-17.28l11.4-11.39 6.28 6.29-11.4 11.39c-2.93 2.93-4.55 6.84-4.55 10.99s1.62 8.06 4.55 10.99 6.84 4.55 10.99 4.55 8.06-1.62 10.99-4.55l11.39-11.39 6.29 6.29-11.39 11.39c-4.61 4.61-10.75 7.15-17.28 7.15Z" class="cls-1"/><path d="m101.18 150.53-39.94-39.95c-10.39-10.39-10.39-27.3 0-37.69 5.04-5.04 11.73-7.81 18.85-7.81s13.82 2.78 18.85 7.82l2.24 2.24 2.25-2.25c5.02-5.04 11.72-7.81 18.84-7.81s13.81 2.77 18.85 7.81c10.39 10.39 10.39 27.3 0 37.69zM80.09 78.41c-3.56 0-6.9 1.39-9.42 3.91-5.19 5.19-5.19 13.64 0 18.83l30.51 30.52 30.51-30.52c5.19-5.19 5.19-13.64 0-18.83-2.52-2.52-5.87-3.91-9.42-3.91s-6.9 1.39-9.41 3.9l-11.68 11.68L89.5 82.31a13.2 13.2 0 0 0-9.41-3.91Z" class="cls-1"/><path d="M101.18 111.94c-5.75 0-11.15-2.24-15.21-6.3l-9.92-9.92a5.8 5.8 0 0 1-1.72-3.91c-.06-1.62.54-3.14 1.69-4.28 1.09-1.09 2.54-1.69 4.08-1.69s2.98.6 4.06 1.68l10.77 10.77c3.45 3.45 9.07 3.45 12.53 0l10.76-10.76c1.09-1.09 2.53-1.69 4.07-1.69s2.98.6 4.08 1.69a5.74 5.74 0 0 1 1.69 4.28c-.05 1.46-.66 2.84-1.72 3.9l-9.92 9.92c-4.06 4.06-9.46 6.3-15.21 6.3Zm0-47.03c-7.75 0-14.06-6.31-14.06-14.06s6.31-14.06 14.06-14.06 14.06 6.31 14.06 14.06-6.31 14.06-14.06 14.06m0-19.22c-2.85 0-5.17 2.32-5.17 5.17s2.32 5.17 5.17 5.17 5.17-2.32 5.17-5.17-2.32-5.17-5.17-5.17" class="cls-1"/></g></svg>