<svg xmlns="http://www.w3.org/2000/svg" data-name="Layer 2" viewBox="0 0 202.36 202.36"><g data-name="Layer 1"><path d="M0 0h202.36v202.36H0z" style="fill:#7433ff"/><path d="M160.97 97.04c-9.29 11.93-24.24 35.36-33.62 47.38-2.58 3.3-5.66 6.23-9.15 8.55-6.55 4.44-14.48 6.73-22.37 6.62h-3.34c-4.52-.12-9.93.23-14.39-.42-22.4-2.96-38.9-22.77-38.02-45.3l.04-17.8c.07-5.94-.37-13.72 1.16-19.49C45.62 57.2 63.52 42.8 83.39 42.76c3.86-.02 19.33.04 23.46.04 1.55.03 5.24-.02 6.76.03 4.51.07 9.01.82 13.28 2.27 6.82 2.31 13.01 6.32 17.93 11.55l-11.1 10.47c-3.23-3.39-7.28-6.01-11.72-7.49-3.43-1.19-7.09-1.52-10.7-1.43-2.81.03-19.07.02-22.25.04-1.33.02-5.07-.01-6.34.05-5.23.23-10.37 1.95-14.67 4.93-5.74 3.95-9.95 10.08-11.46 16.89-1.11 4.21-.6 11.57-.69 15.97-.03.89.06 19.03.04 19.47.02 1.89.2 3.77.56 5.62 1.81 9.09 8.44 17.02 17.07 20.38 2.4.97 4.94 1.56 7.52 1.84 1.66.18 5.25.12 6.97.13 1.49 0 5.24-.01 6.67-.01 6.34.24 12.3-1.67 17.03-5.96 1.01-.95 1.96-1.98 2.81-3.08.93-1.21 3.44-4.45 6.58-8.49l.33-.42 9.47-12.11.8-1.02h-27.57l-1.11-.07 50.46-49.37 8.81-8.63-27.53 42.62c9.77.03 17.86.06 26.19.07Z" style="fill:#fff"/></g></svg>