<svg xmlns="http://www.w3.org/2000/svg" data-name="Layer 2" viewBox="0 0 202.36 202.36"><g data-name="Layer 1"><path d="M0 0h202.36v202.36H0z" style="fill:#7433ff"/><path d="M115.15 128.77c17.28 2.06 33.02-10.33 35.08-27.61 1.57-13.22-5.31-25.54-16.37-31.52 3.11 5.36 4.56 11.7 3.79 18.14-1.54 12.9-11.28 22.85-23.39 25.26 6.74-3 12.47-8.36 15.8-15.58 7.3-15.8.38-34.59-15.42-41.89-12.09-5.58-25.93-2.84-35.03 5.83 6.06-1.3 12.53-.72 18.42 2 11.79 5.45 18.25 17.79 16.8 30.05-.77-7.34-4.1-14.45-9.93-19.84-12.77-11.82-32.78-11.05-44.61 1.72-9.05 9.77-10.72 23.78-5.28 35.12.63-6.16 3.19-12.14 7.6-16.9 8.82-9.53 22.56-11.85 33.77-6.69-7.22-1.53-15.01-.57-21.94 3.31-15.19 8.49-20.64 27.76-12.15 42.96 6.5 11.62 19.31 17.54 31.77 15.88-5.67-2.51-10.56-6.78-13.73-12.45-6.34-11.34-4.3-25.12 4.07-34.18-3.69 6.39-5.18 14.1-3.63 21.89 3.38 17.07 20.03 28.21 37.1 24.83 13.06-2.59 22.65-12.94 24.92-25.31-4.13 4.61-9.72 7.95-16.08 9.21-12.74 2.52-25.22-3.67-31.25-14.43 4.94 5.49 11.81 9.28 19.7 10.22Zm-16.05-35 .12-.03c3.88-.78 7.86 1.04 9.82 4.49.02.04.04.07.06.11 1.94 3.45 1.44 7.8-1.23 10.73l-.09.09a9.24 9.24 0 0 1-10.58 2.14c-.04-.02-.08-.03-.11-.05-3.6-1.65-5.75-5.47-5.31-9.4 0-.04 0-.08.01-.13a9.26 9.26 0 0 1 7.3-7.96Z" style="fill:#fff"/></g></svg>