<svg xmlns="http://www.w3.org/2000/svg" id="Layer_2" data-name="Layer 2" viewBox="0 0 202.36 202.36"><defs><style>.cls-1{fill:#fff}</style></defs><g id="Layer_1-2" data-name="Layer 1"><path d="M0 0h202.36v202.36H0z" style="fill:#7433ff"/><path d="M98.61 52.67 58.45 92.83c-.69.69-1.07 1.61-1.07 2.58v51.72a3.64 3.64 0 0 0 3.64 3.64h28.31c.97 0 1.9-.39 2.58-1.07l16.81-16.81c.69-.69 1.61-1.07 2.58-1.07h30.02a3.64 3.64 0 0 0 3.64-3.64V95.41c0-.97-.39-1.9-1.07-2.58l-40.14-40.17a3.645 3.645 0 0 0-5.15 0Zm28.79 61.71h-26.55l-24.91 24.91.05-39.14 24.49-24.49v19.5h26.91v19.22Z" class="cls-1"/><path d="M98.61 52.67 58.45 92.83c-.69.69-1.07 1.61-1.07 2.58v51.72a3.64 3.64 0 0 0 3.64 3.64h28.31c.97 0 1.9-.39 2.58-1.07l16.81-16.81c.69-.69 1.61-1.07 2.58-1.07h30.02a3.64 3.64 0 0 0 3.64-3.64V95.41c0-.97-.39-1.9-1.07-2.58l-40.14-40.17a3.645 3.645 0 0 0-5.15 0Zm28.79 61.71h-26.55l-24.91 24.91.05-39.14 24.49-24.49v19.5h26.91v19.22Z" class="cls-1"/></g></svg>