<svg xmlns="http://www.w3.org/2000/svg" id="Layer_2" data-name="Layer 2" viewBox="0 0 202.36 202.36"><defs><style>.cls-1{fill:#fff}</style></defs><g id="Layer_1-2" data-name="Layer 1"><path d="M0 0h202.36v202.36H0z" style="fill:#7433ff"/><path d="M107.81 82.09c-.46 1.85-1.02 3.66-2.13 5.34-8.16 12.4-42.16 12.34-33.57-16.56 16.9-56.91 102.44-36.45 62.04 16.67-1.91 2.51-2.46 5.81-1.54 8.83 11.96 39.15-16.65 35.74-20.87 36.43-13.05 2.16-18.03 15.28-29.4 19.93-31.03 12.68-29.67-29.47-14.03-42.79 11.27-9.59 23.26 3.05 38.32-8.37 3.57-2.7 6.61-6.1 8.81-10 2.33-4.12 3.35-9.04 3.74-13.72.18-2.2.41-4.5-.19-6.66-.24-.86-.66-1.68-1.33-2.27-1.04-.93-2.66-1.13-3.91-.51-3.1 1.55-5.11 10.32-5.93 13.67Z" class="cls-1"/><path d="M89.53 157.23c4.39-7.5 14.62-18.8 37.21-21.98 3.3-.46 5.21 3.62 2.74 5.87-6.41 5.83-14.82 14.52-17.73 22.26-.7 1.86-2.84 2.71-4.64 1.85-3.38-1.62-8.72-3.51-14.34-2.91-2.75.3-4.65-2.7-3.25-5.08Z" class="cls-1"/></g></svg>