<svg xmlns="http://www.w3.org/2000/svg" id="Layer_2" data-name="Layer 2" viewBox="0 0 202.36 202.36"><defs><style>.cls-1{fill:#fff}</style></defs><g id="Layer_1-2" data-name="Layer 1"><path d="M0 0h202.36v202.36H0z" style="fill:#7433ff"/><path id="_Radial_Repeat_" d="m46.25 110.02 30.41-7.89c2.51-.65 3.22-3.88 1.22-5.52L58.53 80.69c-1.67-1.37-.25-4.05 1.82-3.44l50.6 14.81-63.08-36.89c-4.32-2.53-9.73.67-9.61 5.67v43.01c0 4.18 3.94 7.23 7.99 6.18Z" class="cls-1" data-name="&amp;lt;Radial Repeat&amp;gt;"/><path id="_Radial_Repeat_-2" d="m92.39 46.48 7.84 30.19c.65 2.51 3.88 3.22 5.52 1.22l15.92-19.35c1.37-1.67 4.05-.25 3.44 1.82l-14.81 50.6 36.89-63.08c2.53-4.32-.67-9.73-5.67-9.61l-42.98.22c-4.16.02-7.19 3.96-6.15 7.99" class="cls-1" data-name="&amp;lt;Radial Repeat&amp;gt;"/><path id="_Radial_Repeat_-3" d="m156.1 92.34-30.41 7.89c-2.51.65-3.22 3.88-1.22 5.52l19.35 15.92c1.67 1.37.25 4.05-1.82 3.44L91.4 110.3l63.08 36.89c4.32 2.53 9.73-.67 9.61-5.67V98.51c0-4.18-3.94-7.23-7.99-6.18Z" class="cls-1" data-name="&amp;lt;Radial Repeat&amp;gt;"/><path id="_Radial_Repeat_-4" d="m110.02 156.1-7.89-30.41c-.65-2.51-3.88-3.22-5.52-1.22l-15.92 19.35c-1.37 1.67-4.05.25-3.44-1.82l14.81-50.6-36.89 63.08c-2.53 4.32.67 9.73 5.67 9.61h43.01c4.18 0 7.23-3.94 6.18-7.99Z" class="cls-1" data-name="&amp;lt;Radial Repeat&amp;gt;"/></g></svg>